<svg width="247" height="118" viewBox="0 0 247 118" fill="none" xmlns="http://www.w3.org/2000/svg">
<g clip-path="url(#clip0_178_293)">
<path d="M64.004 31.5616C64.2022 31.5616 64.4499 31.5616 64.6976 31.6106C64.9948 31.6597 65.5397 31.7579 66.4314 31.9542C67.2736 32.1506 68.1157 32.396 68.9083 32.7396C69.701 33.0341 70.5431 33.525 71.4844 34.2121C72.4256 34.8502 73.2677 35.6356 73.9613 36.5191C74.6548 37.4027 75.1998 38.5316 75.6951 39.906C76.141 41.2804 76.3887 42.802 76.3887 44.52C76.3887 49.723 74.3081 53.3552 70.1963 55.4659C69.2551 55.9077 68.2643 56.3003 67.2736 56.5948C66.2333 56.8894 65.4406 57.0366 64.8462 57.0857L63.9545 57.1348H55.1861C55.1861 57.1348 55.2357 57.1348 55.2852 57.1348C55.3347 57.1348 55.3843 57.0857 55.4834 57.0366C55.5824 56.9875 55.6815 56.9384 55.731 56.8894C55.8301 56.8403 55.9292 56.7421 56.0283 56.6439C56.1274 56.5458 56.2264 56.3985 56.276 56.3003C56.3255 56.2022 56.4246 56.0549 56.4741 55.8586C56.5237 55.6622 56.5732 55.4659 56.5732 55.3186V33.4759C56.5732 33.1814 56.5237 32.9359 56.4246 32.6905C56.3255 32.4451 56.2264 32.2978 56.0778 32.1506C55.9292 32.0033 55.7806 31.9052 55.6815 31.807C55.5329 31.7088 55.4338 31.6597 55.3347 31.6106L55.1861 31.5616H64.004ZM64.004 55.3677C64.1031 55.3677 64.3012 55.3186 64.4994 55.3186C64.6975 55.3186 65.1434 55.2205 65.7379 55.0241C66.3323 54.8278 66.9268 54.6314 67.5213 54.3369C68.1157 54.0424 68.7102 53.6497 69.4037 53.0607C70.0973 52.4717 70.6917 51.8336 71.1871 51.0973C71.6825 50.3611 72.1284 49.3794 72.4256 48.2013C72.7724 47.0233 72.921 45.698 72.921 44.2255C72.921 42.7038 72.7724 41.3785 72.4256 40.2005C72.0788 39.0225 71.6825 38.0408 71.1376 37.2554C70.5927 36.5191 69.9982 35.881 69.3542 35.3411C68.7102 34.8012 68.0662 34.4085 67.4222 34.1631C66.7782 33.9176 66.1837 33.7213 65.6883 33.574C65.1434 33.4268 64.7471 33.3777 64.4003 33.3286L63.9049 33.2795H61.6262C61.3289 33.2795 61.0317 33.3286 60.8335 33.4759C60.5858 33.574 60.4372 33.7213 60.3381 33.8686C60.2391 34.0158 60.14 34.2121 60.0905 34.4085C60.0409 34.6048 59.9914 34.7521 59.9914 34.8012C59.9914 34.8993 59.9914 34.9484 59.9914 35.0466V53.6498C59.9914 53.6988 59.9914 53.797 59.9914 53.8952C59.9914 53.9933 60.0409 54.1406 60.0905 54.3369C60.14 54.5333 60.2391 54.6805 60.3381 54.8278C60.4372 54.975 60.6354 55.0732 60.8335 55.2205C61.0812 55.3186 61.3289 55.4168 61.6262 55.4168L64.004 55.3677Z" fill="#E7427E"/>
<path d="M93.0337 53.5025L94.2722 55.3677C94.074 55.515 93.7768 55.6622 93.43 55.9077C93.0832 56.104 92.3402 56.3985 91.2008 56.7421C90.0614 57.0857 88.8724 57.282 87.7331 57.282C86.8909 57.282 86.0487 57.1839 85.2066 56.9875C84.3644 56.7912 83.4727 56.4476 82.6306 56.0058C81.7389 55.515 80.9958 54.975 80.3023 54.2388C79.6087 53.5516 79.0638 52.6681 78.6675 51.5391C78.2712 50.4102 78.0235 49.183 78.0235 47.8577C78.0235 46.4343 78.2216 45.2072 78.6179 44.0782C79.0142 42.9493 79.5592 42.0657 80.1536 41.3785C80.7976 40.6914 81.4912 40.1023 82.3333 39.6606C83.126 39.2188 83.9186 38.8752 84.7112 38.6789C85.4543 38.4825 86.1974 38.3844 86.9404 38.3844C87.9312 38.3844 88.8229 38.4825 89.6155 38.6789C90.4081 38.8752 91.0521 39.1206 91.5475 39.4642C92.0429 39.8078 92.4392 40.1514 92.8355 40.5932C93.2318 40.9859 93.4795 41.4276 93.6282 41.8694C93.7768 42.3112 93.8759 42.7529 93.9749 43.1456C94.074 43.5874 94.1235 43.98 94.074 44.3236C94.0245 44.6672 94.0245 44.9617 94.0245 45.2072C93.9254 46.3361 93.5786 47.3178 93.0337 48.2013C92.4888 49.0849 91.7952 49.8211 91.0521 50.312C90.3091 50.8519 89.4174 51.2937 88.4266 51.6373C87.4358 52.03 86.4946 52.2754 85.6524 52.4226C84.8103 52.5699 83.9186 52.6681 83.0764 52.7171C83.3736 53.208 83.6709 53.6498 84.0177 53.9933C84.3644 54.3369 84.7607 54.6805 85.157 54.975C85.5533 55.2205 85.9992 55.4659 86.445 55.6131C86.8909 55.7604 87.3863 55.8586 87.8817 55.8586C88.3275 55.8586 88.8229 55.8095 89.2192 55.7113C89.6651 55.6131 90.0614 55.515 90.4081 55.3677C90.7549 55.2205 91.0521 55.0732 91.3989 54.926C91.6962 54.7296 91.9934 54.5824 92.1915 54.4351C92.3897 54.2879 92.5878 54.1406 92.7365 53.9933C92.8851 53.8461 93.0337 53.7479 93.0832 53.6988L93.0337 53.5025ZM86.8909 39.7587C85.4543 40.2496 84.2158 41.1822 83.1755 42.6057C82.1352 44.0291 81.5903 45.7471 81.5903 47.8087C81.5903 49.0849 81.838 50.312 82.2838 51.4409C83.4232 51.2937 84.6617 50.901 85.9001 50.2629C87.1386 49.6248 88.2284 48.7904 89.1697 47.8087C90.3091 46.4834 91.0521 45.109 91.2998 43.6364C91.5475 42.1639 91.2503 41.0349 90.4577 40.2496C89.6651 39.4642 88.4761 39.2679 86.8909 39.7587Z" fill="#E7427E"/>
<path d="M108.737 55.8586C109.877 55.8586 111.016 55.7113 112.057 55.4659C113.097 55.1714 113.939 54.8769 114.583 54.4842C115.227 54.0915 115.822 53.6988 116.267 53.2571C116.763 52.8644 117.06 52.5208 117.258 52.2754C117.456 52.03 117.555 51.8827 117.555 51.8827L118.447 52.7662C117.258 54.1406 115.772 55.1714 114.137 55.9567C112.453 56.7421 110.669 57.1348 108.737 57.1348C106.409 57.1348 104.229 56.5458 102.198 55.4168C100.217 54.2879 98.6316 52.7171 97.4426 50.7047C96.3033 48.7413 95.7088 46.5815 95.7088 44.2255C95.7088 41.8694 96.3033 39.7097 97.4426 37.7463C98.582 35.7338 100.167 34.1631 102.198 33.0341C104.18 31.9052 106.36 31.3161 108.737 31.3161C110.669 31.3161 112.552 31.7088 114.236 32.5433C115.97 33.3286 117.407 34.4576 118.645 35.881L116.416 37.7953C115.574 36.1755 114.484 34.8502 113.097 33.8686C111.759 32.8869 110.273 32.396 108.688 32.396C107.053 32.396 105.517 32.9359 104.13 33.9667C102.743 34.9975 101.604 36.421 100.811 38.2371C100.019 40.0532 99.5728 42.0166 99.5728 44.1273C99.5728 46.2379 99.9691 48.2013 100.811 50.0175C101.604 51.8336 102.743 53.2571 104.13 54.2879C105.567 55.3186 107.053 55.8586 108.737 55.8586Z" fill="#652A7A"/>
<path d="M122.162 41.084C124.045 39.2188 126.274 38.3353 128.9 38.3353C131.525 38.3353 133.804 39.2679 135.637 41.084C137.519 42.9493 138.461 45.1581 138.461 47.7596C138.461 50.3611 137.519 52.619 135.637 54.4351C133.755 56.3003 131.525 57.1839 128.9 57.1839C126.274 57.1839 124.045 56.2513 122.162 54.4351C120.28 52.5699 119.388 50.3611 119.388 47.7596C119.388 45.1581 120.28 42.9493 122.162 41.084ZM124.887 53.4534C126.026 55.0241 127.364 55.8095 128.9 55.8095C130.435 55.8095 131.823 55.0241 132.912 53.4534C134.052 51.8827 134.597 49.9684 134.597 47.7596C134.597 45.5508 134.052 43.6364 132.912 42.0657C131.773 40.495 130.435 39.7097 128.9 39.7097C127.364 39.7097 125.977 40.495 124.887 42.0657C123.748 43.6364 123.203 45.5508 123.203 47.7596C123.203 49.9684 123.748 51.9318 124.887 53.4534Z" fill="#652A7A"/>
<path d="M151.588 57.0366C151.588 57.0366 151.638 57.0366 151.737 56.9875C151.836 56.9384 151.935 56.8894 152.084 56.7912C152.232 56.693 152.381 56.5948 152.48 56.4476C152.579 56.3003 152.678 56.1531 152.777 55.9077C152.876 55.6622 152.926 55.4168 152.926 55.1223V45.6489C152.926 44.9126 152.926 44.3236 152.876 43.8328C152.827 43.3419 152.777 42.802 152.629 42.213C152.48 41.624 152.332 41.1822 152.084 40.7895C151.836 40.4459 151.489 40.1514 151.044 39.906C150.598 39.6606 150.003 39.5624 149.359 39.5624C148.814 39.5624 148.319 39.7097 147.873 39.9551C147.427 40.2005 147.031 40.495 146.734 40.8386C146.436 41.1822 146.139 41.624 145.892 42.1148C145.644 42.6057 145.446 43.0474 145.297 43.4401C145.148 43.8328 145 44.2745 144.901 44.7163C144.802 45.1581 144.752 45.4526 144.703 45.6489C144.703 45.7962 144.653 45.9434 144.653 46.0416V55.1714C144.653 55.6131 144.752 56.0058 145 56.3003C145.198 56.5948 145.446 56.7912 145.693 56.8894L145.991 57.0366H139.897C139.947 57.0366 139.996 57.0366 140.046 56.9875C140.095 56.9384 140.195 56.8894 140.343 56.7912C140.492 56.693 140.64 56.5948 140.739 56.4476C140.839 56.3003 140.987 56.1531 141.086 55.9077C141.185 55.6622 141.235 55.4168 141.235 55.1223V40.495C141.235 40.2987 141.185 40.1023 141.136 39.906C141.086 39.7097 140.987 39.5624 140.938 39.4642C140.839 39.317 140.789 39.2188 140.69 39.1206C140.591 39.0225 140.492 38.9243 140.393 38.8752C140.294 38.8261 140.195 38.777 140.145 38.728C140.046 38.6789 139.996 38.6789 139.947 38.6298L139.897 38.5807H144.703V42.6057C145.743 39.6606 147.576 38.188 150.152 38.188C151.242 38.188 152.183 38.3353 152.976 38.6298C153.768 38.9243 154.363 39.317 154.808 39.7587C155.254 40.2005 155.601 40.7895 155.849 41.4276C156.096 42.1148 156.295 42.7038 156.344 43.2928C156.443 43.8819 156.443 44.52 156.443 45.2072V55.1223C156.443 55.5641 156.542 55.9567 156.79 56.2512C156.988 56.5458 157.236 56.7421 157.484 56.8403L157.781 56.9875H151.588V57.0366Z" fill="#652A7A"/>
<path d="M176.853 62.1414C176.853 62.4359 176.903 62.6814 177.002 62.8777C177.101 63.1231 177.2 63.2704 177.349 63.4176C177.497 63.5649 177.596 63.6631 177.745 63.7612C177.894 63.8594 178.042 63.9576 178.24 64.0067H172.097C172.147 64.0067 172.197 64.0067 172.246 63.9576C172.296 63.9085 172.395 63.8594 172.543 63.7612C172.692 63.6631 172.841 63.5649 172.94 63.4176C173.039 63.2704 173.187 63.074 173.286 62.8777C173.385 62.6323 173.435 62.3869 173.435 62.1414V53.6498C172.345 56.0058 170.413 57.1839 167.639 57.1839C166.698 57.1839 165.856 57.0857 165.063 56.8403C164.27 56.6439 163.626 56.3494 163.081 55.9567C162.537 55.6131 162.041 55.1714 161.595 54.7296C161.149 54.2879 160.803 53.797 160.505 53.2571C160.208 52.7171 160.01 52.2263 159.812 51.6864C159.614 51.1464 159.465 50.6556 159.366 50.2138C159.267 49.772 159.217 49.3303 159.118 48.9867C159.069 48.6431 159.019 48.3486 159.019 48.1522V47.8087C159.019 47.6614 158.97 47.4651 158.97 47.2687C158.97 47.0233 158.97 46.5815 159.019 45.9434C159.069 45.2562 159.168 44.6181 159.316 44.0291C159.465 43.4401 159.713 42.7529 160.06 41.9676C160.406 41.2313 160.852 40.5932 161.397 40.0532C161.942 39.5133 162.636 39.0715 163.527 38.728C164.419 38.3353 165.459 38.188 166.648 38.188C169.918 38.188 172.197 39.7097 173.435 42.7038V38.6298L178.24 40.8877H178.191C178.191 40.8877 178.141 40.9368 178.092 40.9368C178.042 40.9368 177.993 40.9859 177.894 41.0349C177.794 41.084 177.745 41.1331 177.695 41.1822C177.596 41.2313 177.547 41.2804 177.448 41.3785C177.349 41.4767 177.299 41.5258 177.249 41.624C177.2 41.7221 177.101 41.8203 177.051 41.9185C177.002 42.0166 176.952 42.1639 176.952 42.3111C176.903 42.4584 176.903 42.6057 176.903 42.7529V62.1414H176.853ZM173.435 49.3794V46.5815C173.385 46.0416 173.336 45.5017 173.237 44.9617C173.138 44.4218 172.989 43.8328 172.692 43.1947C172.444 42.5566 172.097 41.9676 171.751 41.4767C171.354 40.9859 170.859 40.5932 170.215 40.2496C169.571 39.906 168.828 39.7587 167.986 39.7587C167.193 39.7587 166.45 39.906 165.806 40.2005C165.162 40.495 164.667 40.8877 164.27 41.3785C163.874 41.8694 163.577 42.4093 163.329 42.9493C163.081 43.5383 162.883 44.0782 162.784 44.6672C162.685 45.2562 162.636 45.7962 162.537 46.2379C162.487 46.7288 162.437 47.1215 162.487 47.3669V47.8087C162.487 47.8577 162.487 47.9559 162.487 48.1032C162.487 48.2013 162.487 48.4468 162.487 48.7904C162.487 49.1339 162.537 49.4775 162.537 49.772C162.586 50.1156 162.636 50.5083 162.784 50.9501C162.883 51.3918 163.032 51.8336 163.181 52.1772C163.329 52.5699 163.577 52.9626 163.874 53.3552C164.171 53.7479 164.469 54.0915 164.865 54.386C165.212 54.6805 165.657 54.8769 166.202 55.0732C166.747 55.2696 167.342 55.3186 167.986 55.3186C168.778 55.3186 169.521 55.1714 170.165 54.8769C170.809 54.5824 171.305 54.2388 171.701 53.8461C172.097 53.4534 172.395 52.9135 172.642 52.3735C172.89 51.7845 173.088 51.2937 173.187 50.8028C173.336 50.3611 173.385 49.8702 173.435 49.3794Z" fill="#652A7A"/>
<path d="M192.161 57.0857V53.0607C191.12 56.0058 189.287 57.4784 186.711 57.4784C185.82 57.4784 184.978 57.3311 184.284 57.0857C183.59 56.8403 182.996 56.4967 182.55 56.0549C182.104 55.6622 181.758 55.1714 181.411 54.6805C181.114 54.1897 180.866 53.6498 180.767 53.1589C180.618 52.6681 180.519 52.2263 180.47 51.7845C180.42 51.3918 180.37 51.0483 180.37 50.8028V50.4102V40.495C180.37 40.2005 180.321 39.9551 180.222 39.7587C180.123 39.5133 180.024 39.3661 179.875 39.2188C179.726 39.0716 179.578 38.9734 179.479 38.8752C179.33 38.777 179.231 38.728 179.132 38.6789L178.983 38.6298H185.077C185.077 38.6298 185.027 38.6789 184.978 38.6789C184.928 38.6789 184.829 38.777 184.631 38.8752C184.482 38.9734 184.334 39.0716 184.234 39.2188C184.135 39.3661 184.036 39.5133 183.937 39.7587C183.838 40.0042 183.789 40.2496 183.789 40.495V50.0175C183.789 53.8461 184.978 55.7604 187.405 55.7604C187.95 55.7604 188.445 55.6622 188.891 55.4168C189.337 55.1714 189.733 54.926 190.03 54.5824C190.328 54.2388 190.625 53.8461 190.873 53.3552C191.12 52.8644 191.318 52.4226 191.467 52.079C191.616 51.7354 191.715 51.3428 191.863 50.8519C192.012 50.3611 192.062 50.0666 192.062 50.0175C192.062 49.9684 192.111 49.8211 192.111 49.6248V40.495C192.111 40.2987 192.111 40.1023 192.062 39.906C192.012 39.7097 191.962 39.5624 191.863 39.4642C191.764 39.317 191.715 39.2188 191.616 39.1206C191.517 39.0225 191.418 38.9243 191.319 38.8752C191.219 38.8261 191.12 38.777 191.071 38.728C190.972 38.6789 190.922 38.6789 190.873 38.6298L190.823 38.5807H196.916C196.916 38.5807 196.867 38.5807 196.817 38.5807C196.768 38.5807 196.718 38.6298 196.619 38.6789C196.52 38.728 196.421 38.777 196.371 38.8752C196.272 38.9243 196.173 39.0225 196.074 39.1206C195.975 39.2188 195.876 39.317 195.827 39.4642C195.777 39.6115 195.678 39.7587 195.628 39.906C195.579 40.1023 195.579 40.2496 195.579 40.495V55.1714C195.579 55.4659 195.628 55.7113 195.727 55.9567C195.827 56.2022 195.926 56.3494 196.074 56.4967C196.223 56.6439 196.322 56.7421 196.471 56.8403C196.619 56.9384 196.768 57.0366 196.966 57.1348H192.161V57.0857Z" fill="#652A7A"/>
<path d="M202.96 55.1714C202.96 55.6131 203.059 56.0058 203.307 56.3003C203.555 56.5948 203.753 56.7912 203.951 56.8894C204.149 56.9875 204.248 57.0366 204.298 57.0366H198.155C198.155 57.0366 198.204 57.0366 198.254 57.0366C198.303 57.0366 198.353 56.9875 198.452 56.9384C198.551 56.8894 198.65 56.8403 198.7 56.7912C198.799 56.7421 198.898 56.6439 198.997 56.5458C199.096 56.4476 199.195 56.3494 199.245 56.2022C199.294 56.0549 199.393 55.9077 199.443 55.7113C199.492 55.515 199.542 55.3186 199.542 55.1714V40.495C199.542 40.0532 199.443 39.6606 199.195 39.3661C198.947 39.0715 198.749 38.8752 198.551 38.777L198.204 38.6298H204.347C204.298 38.6298 204.248 38.6298 204.199 38.6789C204.149 38.6789 204.05 38.777 203.852 38.8752C203.703 38.9734 203.555 39.0715 203.455 39.2188C203.356 39.3661 203.257 39.5133 203.158 39.7587C203.059 40.0042 203.01 40.2496 203.01 40.495V55.1714H202.96ZM202.663 35.0466C202.267 35.4393 201.771 35.6356 201.226 35.6356C200.632 35.6356 200.186 35.4393 199.79 35.0466C199.393 34.6539 199.195 34.1631 199.195 33.6231C199.195 33.0832 199.393 32.5923 199.79 32.1997C200.186 31.807 200.681 31.6106 201.226 31.6106C201.821 31.6106 202.267 31.807 202.663 32.1997C203.059 32.5923 203.257 33.0832 203.257 33.6231C203.257 34.1631 203.059 34.6539 202.663 35.0466Z" fill="#652A7A"/>
<path d="M208.707 42.1639C208.707 42.5566 208.855 42.9493 209.103 43.2928C209.4 43.6364 209.747 43.931 210.242 44.1764C210.738 44.4218 211.233 44.7163 211.828 45.0108C212.422 45.3053 213.016 45.5998 213.66 45.8943C214.255 46.1889 214.899 46.5324 215.493 46.9251C216.088 47.3178 216.633 47.7596 217.079 48.2504C217.524 48.6922 217.921 49.2812 218.218 49.9684C218.515 50.6556 218.614 51.3918 218.614 52.1772C218.614 53.2571 218.268 54.1897 217.524 54.975C216.781 55.7604 215.89 56.3003 214.849 56.6439C213.809 56.9875 212.67 57.1348 211.431 57.1348C210.292 57.1348 209.252 57.0366 208.31 56.8403C207.319 56.6439 206.675 56.4476 206.23 56.2512L205.635 55.9567L206.676 52.9135C206.824 53.0607 207.072 53.2571 207.319 53.5025C207.567 53.7479 208.112 54.0915 208.905 54.5333C209.697 54.975 210.44 55.2696 211.134 55.3677C211.927 55.4659 212.62 55.4659 213.264 55.2696C213.859 55.0732 214.354 54.8278 214.701 54.4842C215.048 54.1406 215.295 53.7479 215.444 53.4043C215.592 53.0117 215.692 52.6681 215.692 52.3245C215.692 51.7354 215.345 51.1464 214.651 50.5574C213.958 49.9684 213.066 49.4285 212.075 48.9867C211.084 48.4958 210.094 48.005 209.103 47.4651C208.112 46.9251 207.27 46.287 206.626 45.5017C205.982 44.7163 205.685 43.9309 205.734 42.9983C205.833 41.5258 206.477 40.3968 207.617 39.5624C208.756 38.728 210.193 38.3353 211.976 38.3353C212.917 38.3353 213.908 38.4334 214.849 38.5807C215.791 38.728 216.534 38.8752 216.98 39.0715L217.673 39.317L216.534 42.1639C216.534 42.1639 216.484 42.1148 216.435 42.0657C216.385 42.0166 216.336 41.9676 216.236 41.8203C216.137 41.673 216.038 41.5749 215.89 41.4276C215.791 41.2804 215.642 41.1331 215.444 40.9859C215.246 40.8386 215.048 40.6913 214.899 40.5441C214.701 40.3968 214.503 40.2496 214.255 40.1514C214.007 40.0042 213.76 39.906 213.512 39.8078C213.264 39.7097 213.016 39.6606 212.719 39.6115C212.422 39.5624 212.125 39.5624 211.828 39.6115C210.837 39.7097 210.094 40.0042 209.598 40.5441C209.004 41.084 208.707 41.624 208.707 42.1639Z" fill="#652A7A"/>
<path d="M229.463 40.2496H225.401V52.7171C225.401 53.5025 225.5 54.0424 225.698 54.4351C225.897 54.8278 226.194 55.0241 226.491 55.0241C226.788 55.0241 227.135 54.975 227.432 54.8278C227.729 54.7296 227.977 54.5824 228.175 54.4351L228.473 54.1406L228.671 54.2879C228.671 54.3369 228.621 54.4351 228.522 54.5824C228.473 54.7296 228.324 54.926 228.076 55.2696C227.829 55.6131 227.581 55.8586 227.333 56.1531C227.085 56.3985 226.739 56.6439 226.342 56.8403C225.946 57.0366 225.5 57.1348 225.054 57.1348C224.064 57.1348 223.32 56.8403 222.726 56.2022C222.181 55.6131 221.884 54.6805 221.884 53.4534V40.2496H219.704V38.5807C221.091 38.5807 222.28 38.1389 223.271 37.2063L225.401 35.3411V38.6298H229.463V40.2496Z" fill="#652A7A"/>
<path d="M247 57.0366L242.096 57.0857C242.096 56.2513 242.096 55.2696 242.096 54.0915C241.204 55.2205 240.312 56.0058 239.371 56.4967C238.43 56.9875 237.389 57.2329 236.101 57.2329C234.863 57.2329 233.773 57.0366 232.931 56.5948C232.039 56.1531 231.395 55.5641 230.999 54.8278C230.603 54.0915 230.405 53.208 230.405 52.1281C230.405 51.5391 230.504 50.9992 230.652 50.5574C230.801 50.0666 230.999 49.6248 231.197 49.2812C231.395 48.8885 231.693 48.5449 232.138 48.1522C232.535 47.7596 232.931 47.4651 233.278 47.2196C233.625 46.9742 234.07 46.6797 234.714 46.3852C235.309 46.0907 235.854 45.8453 236.25 45.6489C236.646 45.4526 237.241 45.2072 238.033 44.8636C238.777 44.5691 239.421 44.2255 239.965 43.8328C240.51 43.4401 240.907 43.0965 241.204 42.8511C241.452 42.5566 241.65 42.2621 241.848 41.9676C241.997 41.673 242.096 41.4276 242.145 41.3295C242.145 41.2313 242.195 41.1331 242.195 41.0349C242.195 40.7895 242.145 40.5932 242.096 40.3968C242.046 40.2005 241.898 40.0042 241.749 39.8569C241.551 39.6606 241.353 39.5133 241.055 39.3661C240.758 39.2188 240.411 39.1206 239.916 39.0715C239.421 38.9734 238.826 38.9734 238.182 38.9734C237.637 38.9734 237.142 39.0715 236.646 39.2188C236.151 39.4151 235.755 39.6115 235.457 39.906C235.16 40.2005 234.863 40.495 234.566 40.8386C234.318 41.1822 234.07 41.5258 233.922 41.8694C233.773 42.213 233.625 42.5075 233.525 42.802C233.426 43.0965 233.377 43.3419 233.327 43.4892L233.278 43.7346L231.94 40.3478C231.99 40.2987 232.039 40.2005 232.138 40.1023C232.237 40.0042 232.436 39.8569 232.782 39.6115C233.129 39.3661 233.525 39.1697 233.971 38.9734C234.417 38.777 235.012 38.6298 235.755 38.4825C236.498 38.3353 237.34 38.2371 238.232 38.2371C240.461 38.2371 242.244 38.8261 243.73 40.0532C245.167 41.2804 245.91 42.6057 245.91 43.98V55.1714C245.91 55.6131 246.009 56.0058 246.257 56.3003C246.455 56.5948 246.703 56.7912 246.95 56.8894L247 57.0366ZM242.046 52.619C242.096 47.6123 242.046 44.4218 242.046 42.9983C241.452 44.1273 240.362 45.0599 238.777 45.7962C235.656 47.3178 234.07 49.2321 234.07 51.6373C234.07 52.079 234.12 52.5208 234.169 52.9626C234.269 53.3552 234.368 53.8461 234.566 54.3369C234.764 54.8278 235.061 55.2205 235.457 55.515C235.854 55.8095 236.399 55.9567 237.043 55.9567C237.588 55.9567 238.133 55.8586 238.628 55.6131C239.173 55.3677 239.619 55.1223 240.015 54.7787C240.411 54.4351 240.758 54.1406 241.055 53.797C241.353 53.4534 241.6 53.208 241.749 52.9626L242.046 52.619Z" fill="#652A7A"/>
<path d="M55.5824 67.7862H56.4246V62.3869H55.5824V61.8469H57.0686L60.7345 66.9517C60.784 67.0008 60.8335 67.099 60.8831 67.1972C60.9326 67.2463 60.9326 67.2953 60.9326 67.3444V67.1972C60.9326 67.099 60.9326 67.0008 60.9326 66.9027V62.3869H60.0905V61.8469H62.4683V62.3869H61.6262V68.3261H60.9326L57.2667 63.2213C57.2172 63.1231 57.1677 63.025 57.1181 62.9759C57.0686 62.9268 57.0686 62.8777 57.0686 62.8286V62.9759C57.0686 63.074 57.0686 63.1722 57.0686 63.2704V67.7862H57.9107V68.3261H55.5329V67.7862H55.5824Z" fill="#666666"/>
<path d="M65.8369 65.4792H66.1342V65.2829C66.1342 64.3993 65.6388 64.1048 64.9948 64.1048C64.5985 64.1048 64.2517 64.203 64.004 64.3503C63.8554 64.3993 63.7563 64.4975 63.6077 64.5957L63.3105 64.1048C63.4591 64.0067 63.6077 63.9085 63.7563 63.8594C64.0536 63.7122 64.4499 63.614 64.9948 63.614C66.1342 63.614 66.7286 64.203 66.7286 65.381V67.688C66.7286 67.8353 66.7782 67.8844 66.9268 67.8844H67.4222V68.4243H66.6791C66.2828 68.4243 66.1342 68.228 66.1342 67.9334V67.7371C66.1342 67.6389 66.1342 67.5408 66.1342 67.4917C66.1342 67.4426 66.1342 67.4426 66.1342 67.3935C66.0351 67.5899 65.936 67.7862 65.7874 67.9334C65.5397 68.1789 65.1434 68.4734 64.5489 68.4734C63.7563 68.4734 62.9637 68.0316 62.9637 67.099C63.0132 65.5283 65.0443 65.4792 65.8369 65.4792ZM64.648 67.8844C65.5893 67.8844 66.1342 66.9517 66.1342 66.1173V65.8719H65.8865C65.4902 65.8719 63.6572 65.8228 63.6572 66.9027C63.6572 67.4426 64.004 67.8844 64.648 67.8844Z" fill="#666666"/>
<path d="M67.6699 63.6631H69.6019V64.203H68.9083L70.0973 67.2953C70.1468 67.3935 70.1468 67.4426 70.1468 67.5408C70.1468 67.5899 70.1468 67.6389 70.1468 67.6389H70.1963C70.1963 67.5899 70.1963 67.5408 70.1963 67.5408C70.2459 67.4426 70.2459 67.3935 70.2459 67.2953L71.4348 64.203H70.8404V63.6631H72.7724V64.203H72.1779L70.5927 68.3261H69.8496L68.2643 64.203H67.6699V63.6631Z" fill="#666666"/>
<path d="M73.2677 67.7862H74.0604V64.203H73.2182V63.6631H74.7044V67.7862H75.497V68.3261H73.2677V67.7862ZM74.0108 61.8469H74.7044V62.6323H74.0108V61.8469Z" fill="#666666"/>
<path d="M76.8345 69.3569C76.9336 69.406 77.0822 69.4551 77.2308 69.5042C77.4785 69.6023 77.7758 69.6514 78.1225 69.6514C79.0638 69.6514 79.7573 69.2096 79.7573 68.1789V67.7371C79.7573 67.6389 79.7573 67.5899 79.7573 67.4917C79.7573 67.4426 79.7573 67.3935 79.7573 67.3935C79.4601 67.9334 79.0142 68.228 78.2712 68.228C77.0327 68.228 76.1905 67.2463 76.1905 65.8719C76.1905 64.4975 76.9832 63.5158 78.2216 63.5158C78.9152 63.5158 79.5592 63.7612 79.8069 64.3503C79.8069 64.3503 79.8069 64.3503 79.8069 64.3012C79.8069 64.2521 79.8069 64.203 79.8069 64.1539C79.8069 63.8103 79.9555 63.6631 80.3518 63.6631H81.1939V64.203H80.5995C80.4509 64.203 80.4013 64.2521 80.4013 64.3993V68.228C80.4013 69.7005 79.3115 70.2895 78.1721 70.2895C77.6272 70.2895 77.0822 70.1423 76.6364 69.8968L76.8345 69.3569ZM79.7573 65.921C79.7573 64.5466 79.1133 64.1539 78.2712 64.1539C77.3299 64.1539 76.8345 64.792 76.8345 65.921C76.8345 67.0499 77.429 67.7371 78.3702 67.7371C79.1133 67.7371 79.7573 67.2463 79.7573 65.921Z" fill="#666666"/>
<path d="M84.6121 65.4792H84.9093V65.2829C84.9093 64.3993 84.414 64.1048 83.77 64.1048C83.3736 64.1048 83.0269 64.203 82.7792 64.3503C82.6306 64.3993 82.5315 64.4975 82.3829 64.5957L82.0856 64.1048C82.2343 64.0067 82.3829 63.9085 82.5315 63.8594C82.8287 63.7122 83.225 63.614 83.77 63.614C84.9093 63.614 85.5038 64.203 85.5038 65.381V67.688C85.5038 67.8353 85.5533 67.8844 85.702 67.8844H86.1974V68.4243H85.4543C85.058 68.4243 84.9093 68.228 84.9093 67.9334V67.7371C84.9093 67.6389 84.9093 67.5408 84.9093 67.4917C84.9093 67.4426 84.9093 67.4426 84.9093 67.3935C84.8103 67.5899 84.7112 67.7862 84.5626 67.9334C84.3149 68.1789 83.9186 68.4734 83.3241 68.4734C82.5315 68.4734 81.7389 68.0316 81.7389 67.099C81.7884 65.5283 83.8195 65.4792 84.6121 65.4792ZM83.4232 67.8844C84.3644 67.8844 84.9093 66.9517 84.9093 66.1173V65.8719H84.6616C84.2653 65.8719 82.4324 65.8228 82.4324 66.9027C82.4324 67.4426 82.7792 67.8844 83.4232 67.8844Z" fill="#666666"/>
<path d="M87.4358 64.203H86.5937V63.6631H87.4358V62.3869H88.0798V63.6631H89.2687V64.203H88.0798V66.5591C88.0798 67.6389 88.7734 67.7862 89.1201 67.7862C89.2192 67.7862 89.2687 67.7862 89.2687 67.7862H89.3183V68.3261C89.2687 68.3261 89.2688 68.3261 89.2192 68.3261C89.1697 68.3261 89.1201 68.3261 89.0211 68.3261C88.4761 68.3261 87.3863 68.1298 87.3863 66.6082V64.203H87.4358Z" fill="#666666"/>
<path d="M90.0118 67.7862H90.8045V64.203H89.9623V63.6631H91.4485V67.7862H92.2411V68.3261H90.0118V67.7862ZM90.7549 61.8469H91.4485V62.6323H90.7549V61.8469Z" fill="#666666"/>
<path d="M92.9346 67.7862H93.7272V64.3993C93.7272 64.2521 93.6777 64.203 93.5291 64.203H92.8851V63.6631H93.7768C94.1731 63.6631 94.3217 63.8594 94.3217 64.203V64.4484C94.3217 64.5466 94.3217 64.5957 94.3217 64.6938V64.792C94.4208 64.4484 95.0648 63.5649 96.2537 63.5649C97.3931 63.5649 97.7894 64.203 97.7894 65.381V67.8353H98.582V68.3752H97.1454V65.5774C97.1454 64.8411 97.0463 64.203 96.1051 64.203C95.0648 64.203 94.3217 65.0865 94.3217 66.1173V67.8353H95.1143V68.3752H92.8851V67.7862H92.9346Z" fill="#666666"/>
<path d="M99.9196 69.3569C100.019 69.406 100.167 69.4551 100.316 69.5042C100.564 69.6023 100.861 69.6514 101.208 69.6514C102.149 69.6514 102.842 69.2096 102.842 68.1789V67.7371C102.842 67.6389 102.842 67.5899 102.842 67.4917C102.842 67.4426 102.842 67.3935 102.842 67.3935C102.545 67.9334 102.099 68.228 101.356 68.228C100.118 68.228 99.2756 67.2463 99.2756 65.8719C99.2756 64.4975 100.068 63.5158 101.307 63.5158C102 63.5158 102.644 63.7612 102.892 64.3503C102.892 64.3503 102.892 64.3503 102.892 64.3012C102.892 64.2521 102.892 64.203 102.892 64.1539C102.892 63.8103 103.041 63.6631 103.437 63.6631H104.279V64.203H103.685C103.536 64.203 103.486 64.2521 103.486 64.3993V68.228C103.486 69.7005 102.397 70.2895 101.257 70.2895C100.712 70.2895 100.167 70.1423 99.7214 69.8968L99.9196 69.3569ZM102.793 65.921C102.793 64.5466 102.149 64.1539 101.307 64.1539C100.365 64.1539 99.87 64.792 99.87 65.921C99.87 67.0499 100.464 67.7371 101.406 67.7371C102.149 67.7371 102.793 67.2463 102.793 65.921Z" fill="#666666"/>
<path d="M107.152 67.7862H107.994L108.44 62.3869H107.598V61.8469H109.183L111.066 66.0682C111.115 66.1664 111.115 66.2646 111.165 66.3136L111.214 66.4118C111.214 66.3627 111.214 66.3136 111.264 66.3136C111.313 66.2646 111.313 66.1664 111.363 66.0682L113.245 61.8469H114.831V62.3869H113.939L114.385 67.7862H115.227V68.3261H112.899V67.7862H113.741L113.394 63.3195C113.394 63.2213 113.394 63.1231 113.394 63.025C113.394 62.9759 113.394 62.9268 113.394 62.8777L113.345 63.025C113.295 63.1231 113.295 63.2213 113.245 63.3195L111.512 67.099H110.917L109.183 63.3195C109.134 63.2213 109.134 63.1231 109.084 63.025C109.084 62.9759 109.035 62.9268 109.035 62.8777H108.985C108.985 62.9268 108.985 62.9759 108.985 63.025C108.985 63.1231 108.985 63.2213 108.985 63.3195L108.638 67.7862H109.481V68.3261H107.152V67.7862Z" fill="#666666"/>
<path d="M116.416 64.203H115.574V63.6631H117.06V66.4609C117.06 67.1972 117.159 67.8353 118.1 67.8353C119.141 67.8353 119.834 66.8536 119.834 65.8719V64.203H118.992V63.6631H120.478V67.5899C120.478 67.7371 120.528 67.7862 120.676 67.7862H121.221V68.277H120.379C119.983 68.277 119.834 68.1298 119.834 67.7371V67.4917C119.834 67.3935 119.834 67.2953 119.834 67.2463C119.735 67.5899 119.141 68.4243 118.001 68.4243C116.911 68.4243 116.466 67.8353 116.466 66.6082V64.203H116.416Z" fill="#666666"/>
<path d="M121.915 66.8536H122.509V67.1972C122.509 67.688 123.203 67.8844 123.748 67.8844C124.342 67.8844 124.838 67.6389 124.838 67.1481C124.838 66.6082 124.243 66.4118 123.55 66.1664C122.856 65.8719 122.113 65.6265 122.113 64.792C122.113 63.9576 122.955 63.5649 123.748 63.5649C124.392 63.5649 125.283 63.8103 125.283 64.4484V64.9884H124.689V64.6448C124.689 64.3012 124.243 64.1048 123.748 64.1048C123.203 64.1048 122.757 64.3503 122.757 64.792C122.757 65.2829 123.302 65.5283 123.946 65.7246C124.689 65.97 125.482 66.2646 125.482 67.099C125.482 67.8844 124.738 68.4243 123.698 68.4243C122.856 68.4243 121.915 68.0316 121.915 67.3444V66.8536Z" fill="#666666"/>
<path d="M126.67 62.3378H125.828V61.8469H127.265V67.099C127.265 67.4917 127.364 67.7862 127.81 67.7862C127.909 67.7862 127.958 67.7862 128.008 67.7862C128.058 67.7862 128.058 67.7862 128.058 67.7862V68.3261H127.958C127.909 68.3261 127.81 68.3261 127.711 68.3261C127.067 68.3261 126.67 68.0316 126.67 67.1481V62.3378Z" fill="#666666"/>
<path d="M128.801 67.7862H129.593V64.203H128.751V63.6631H130.237V67.7862H131.03V68.3261H128.801V67.7862ZM129.544 61.8469H130.237V62.6323H129.544V61.8469Z" fill="#666666"/>
<path d="M131.723 67.7862H132.516V64.3993C132.516 64.2521 132.467 64.203 132.318 64.203H131.674V63.6631H132.566C132.962 63.6631 133.111 63.8594 133.111 64.203V64.4484C133.111 64.5466 133.111 64.5957 133.111 64.6938V64.792C133.358 64.1539 134.101 63.5649 134.844 63.5649C135.687 63.5649 136.132 63.9576 136.281 64.7429C136.529 64.1539 137.222 63.5649 138.015 63.5649C139.154 63.5649 139.551 64.203 139.551 65.381V67.8353H140.343V68.3752H138.907V65.5774C138.907 64.8411 138.758 64.203 137.916 64.203C136.975 64.203 136.331 65.1847 136.331 66.1664V67.8844H137.123V68.4243H135.736V65.6265C135.736 64.9393 135.637 64.2521 134.745 64.2521C133.804 64.2521 133.16 65.2338 133.16 66.2155V67.8844H133.953V68.4243H131.723V67.7862Z" fill="#666666"/>
<path d="M140.987 67.7862H141.78V64.3993C141.78 64.2521 141.73 64.203 141.582 64.203H140.938V63.6631H141.829C142.226 63.6631 142.374 63.8594 142.374 64.203V64.4484C142.374 64.5466 142.374 64.5957 142.374 64.6938V64.792C142.473 64.4484 143.117 63.5649 144.306 63.5649C145.446 63.5649 145.842 64.203 145.842 65.381V67.8353H146.635V68.3752H145.198V65.5774C145.198 64.8411 145.099 64.203 144.158 64.203C143.117 64.203 142.374 65.0865 142.374 66.1173V67.8353H143.167V68.3752H140.938V67.7862H140.987Z" fill="#666666"/>
<path d="M149.607 63.5649C150.895 63.5649 151.588 64.5466 151.588 65.7246C151.588 65.7737 151.588 65.8228 151.588 65.921V66.0191H147.972C148.022 67.1972 148.814 67.8844 149.805 67.8844C150.251 67.8844 150.598 67.7371 150.845 67.5899C150.994 67.4917 151.143 67.3935 151.242 67.2953L151.539 67.7862C151.39 67.8844 151.242 68.0316 151.093 68.1298C150.796 68.3261 150.35 68.4734 149.805 68.4734C148.418 68.4734 147.378 67.4917 147.378 66.0682C147.279 64.4975 148.319 63.5649 149.607 63.5649ZM150.895 65.5283C150.845 64.5466 150.251 64.1048 149.557 64.1048C148.765 64.1048 148.121 64.5957 147.972 65.5283H150.895Z" fill="#666666"/>
<path d="M152.381 66.8536H152.976V67.1972C152.976 67.688 153.669 67.8844 154.214 67.8844C154.808 67.8844 155.304 67.6389 155.304 67.1481C155.304 66.6082 154.709 66.4118 154.016 66.1664C153.322 65.8719 152.579 65.6265 152.579 64.792C152.579 63.9576 153.421 63.5649 154.214 63.5649C154.858 63.5649 155.75 63.8103 155.75 64.4484V64.9884H155.155V64.6448C155.155 64.3012 154.709 64.1048 154.214 64.1048C153.669 64.1048 153.223 64.3503 153.223 64.792C153.223 65.2829 153.768 65.5283 154.412 65.7246C155.155 65.97 155.948 66.2646 155.948 67.099C155.948 67.8844 155.205 68.4243 154.164 68.4243C153.322 68.4243 152.381 68.0316 152.381 67.3444V66.8536Z" fill="#666666"/>
<path d="M156.79 66.8536H157.384V67.1972C157.384 67.688 158.078 67.8844 158.623 67.8844C159.217 67.8844 159.713 67.6389 159.713 67.1481C159.713 66.6082 159.118 66.4118 158.425 66.1664C157.731 65.8719 156.988 65.6265 156.988 64.792C156.988 63.9576 157.83 63.5649 158.623 63.5649C159.267 63.5649 160.159 63.8103 160.159 64.4484V64.9884H159.564V64.6448C159.564 64.3012 159.118 64.1048 158.623 64.1048C158.078 64.1048 157.632 64.3503 157.632 64.792C157.632 65.2829 158.177 65.5283 158.821 65.7246C159.564 65.97 160.357 66.2646 160.357 67.099C160.357 67.8844 159.614 68.4243 158.573 68.4243C157.731 68.4243 156.79 68.0316 156.79 67.3444V66.8536Z" fill="#666666"/>
<path d="M55.5824 78.094H56.4246V72.6947H55.5824V72.1547H58.4061C58.852 72.1547 59.1988 72.2038 59.5455 72.302C60.1895 72.5474 60.5858 73.0874 60.5858 73.9218C60.5858 74.9035 60.0409 75.5907 59.1492 75.7379L59.2483 75.787C59.2978 75.8361 59.3474 75.8852 59.3969 75.9834L60.4868 77.8486C60.5858 78.0449 60.6849 78.0449 60.9326 78.0449H61.1308V78.5849H60.784C60.2391 78.5849 60.0905 78.4867 59.8923 78.094L58.8024 76.2288C58.6538 75.9343 58.5052 75.8361 58.0594 75.8361H57.1181V78.0449H57.9603V78.5849H55.5824V78.094ZM58.6538 75.2962C59.4464 75.2962 59.9914 74.7562 59.9914 73.9218C59.9914 73.3328 59.7437 72.9401 59.2978 72.7928C59.0501 72.6947 58.7529 72.6947 58.4557 72.6947H57.1677V75.3453H58.6538V75.2962Z" fill="#666666"/>
<path d="M64.1031 73.8727C65.3911 73.8727 66.0846 74.8544 66.0846 76.0324C66.0846 76.0815 66.0846 76.1306 66.0846 76.2288V76.327H62.4683C62.5178 77.505 63.3105 78.1922 64.3012 78.1922C64.7471 78.1922 65.0939 78.0449 65.3416 77.8977C65.4902 77.7995 65.6388 77.7013 65.7379 77.6032L66.0351 78.094C65.8865 78.1922 65.7379 78.3394 65.5892 78.4376C65.292 78.6339 64.8462 78.7812 64.3012 78.7812C62.9142 78.7812 61.8738 77.7995 61.8738 76.376C61.8243 74.8053 62.8646 73.8727 64.1031 73.8727ZM65.3911 75.8361C65.3416 74.8544 64.7471 74.4127 64.0535 74.4127C63.2609 74.4127 62.6169 74.9035 62.4683 75.8361H65.3911Z" fill="#666666"/>
<path d="M67.3231 72.6456H66.4809V72.1547H67.9176V77.4068C67.9176 77.7995 68.0166 78.094 68.4625 78.094C68.5616 78.094 68.6111 78.094 68.6606 78.094C68.7102 78.094 68.7102 78.094 68.7102 78.094V78.6339H68.6111C68.5616 78.6339 68.4625 78.6339 68.3634 78.6339C67.7194 78.6339 67.3231 78.3394 67.3231 77.4559V72.6456Z" fill="#666666"/>
<path d="M71.9302 73.8727C73.3173 73.8727 74.4071 74.9035 74.4071 76.2779C74.4071 77.7013 73.3173 78.7321 71.9302 78.7321C70.5927 78.7321 69.4533 77.7013 69.4533 76.2779C69.4533 74.9035 70.5431 73.8727 71.9302 73.8727ZM71.9302 78.1922C72.921 78.1922 73.7631 77.3577 73.7631 76.2779C73.7631 75.198 72.921 74.4127 71.9302 74.4127C70.9394 74.4127 70.0973 75.198 70.0973 76.2779C70.0973 77.3577 70.9394 78.1922 71.9302 78.1922Z" fill="#666666"/>
<path d="M77.6767 73.8727C78.2712 73.8727 79.4106 74.1181 79.4106 74.8544V75.3453H78.8161V75.0017C78.8161 74.609 78.1225 74.4127 77.6767 74.4127C76.6859 74.4127 75.8933 75.1489 75.8933 76.2779C75.8933 77.4068 76.7355 78.1431 77.7262 78.1431C78.6179 78.1431 79.2124 77.5541 79.2619 77.505L79.5096 77.9958C79.4105 78.094 78.7665 78.7321 77.6767 78.7321C76.3392 78.7321 75.1998 77.7995 75.1998 76.327C75.2493 74.8544 76.3392 73.8727 77.6767 73.8727Z" fill="#666666"/>
<path d="M83.0764 75.787H83.3736V75.5907C83.3736 74.7072 82.8783 74.4127 82.2343 74.4127C81.8379 74.4127 81.4912 74.5108 81.2435 74.6581C81.0949 74.7072 80.9958 74.8053 80.8472 74.9035L80.5499 74.4127C80.6986 74.3145 80.8472 74.2163 80.9958 74.1672C81.293 74.02 81.6893 73.9218 82.2343 73.9218C83.3736 73.9218 83.9681 74.5108 83.9681 75.6889V77.9958C83.9681 78.1431 84.0176 78.1922 84.1663 78.1922H84.6616V78.7321H83.9186C83.5223 78.7321 83.3736 78.5358 83.3736 78.2413V78.0449C83.3736 77.9468 83.3736 77.8486 83.3736 77.7995C83.3736 77.7504 83.3736 77.7504 83.3736 77.7013C83.2746 77.8977 83.1755 78.094 83.0269 78.2413C82.7792 78.4867 82.3829 78.7812 81.7884 78.7812C80.9958 78.7812 80.2032 78.3394 80.2032 77.4068C80.3022 75.8361 82.2838 75.787 83.0764 75.787ZM81.937 78.1922C82.8783 78.1922 83.4232 77.2596 83.4232 76.4251V76.1797H83.1755C82.7792 76.1797 80.9462 76.1306 80.9462 77.2105C80.9462 77.7504 81.293 78.1922 81.937 78.1922Z" fill="#666666"/>
<path d="M85.9497 74.5108H85.1075V73.9709H85.9497V72.6947H86.5937V73.9709H87.7826V74.5108H86.5937V76.8669C86.5937 77.9468 87.2872 78.094 87.634 78.094C87.733 78.094 87.7826 78.094 87.7826 78.094C87.8321 78.094 87.8321 78.094 87.8321 78.094V78.6339C87.7826 78.6339 87.7826 78.6339 87.7331 78.6339C87.6835 78.6339 87.634 78.6339 87.5349 78.6339C86.99 78.6339 85.9001 78.4376 85.9001 76.916V74.5108H85.9497Z" fill="#666666"/>
<path d="M88.5257 78.094H89.3183V74.5108H88.4761V73.9709H89.9623V78.094H90.7549V78.6339H88.5257V78.094ZM89.2688 72.1547H89.9623V72.9401H89.2688V72.1547Z" fill="#666666"/>
<path d="M91.4485 78.094H92.2411V74.7072C92.2411 74.5599 92.1915 74.5108 92.0429 74.5108H91.3989V73.9709H92.2906C92.6869 73.9709 92.8355 74.1672 92.8355 74.5108V74.7562C92.8355 74.8544 92.8355 74.9035 92.8355 75.0017V75.0998C92.9346 74.7562 93.5786 73.8727 94.7675 73.8727C95.9069 73.8727 96.3032 74.5108 96.3032 75.6889V78.1431H97.0959V78.683H95.6592V75.8852C95.6592 75.1489 95.5602 74.5108 94.6189 74.5108C93.5786 74.5108 92.8355 75.3943 92.8355 76.4251V78.1431H93.6282V78.683H91.3989V78.094H91.4485Z" fill="#666666"/>
<path d="M98.3839 79.6647C98.483 79.7138 98.6316 79.7629 98.7802 79.812C99.0279 79.9102 99.3251 79.9592 99.6719 79.9592C100.613 79.9592 101.307 79.5175 101.307 78.4867V78.0449C101.307 77.9468 101.307 77.8977 101.307 77.7995C101.307 77.7504 101.307 77.7013 101.307 77.7013C101.009 78.2413 100.564 78.5358 99.8205 78.5358C98.582 78.5358 97.7399 77.5541 97.7399 76.1797C97.7399 74.8053 98.5325 73.8236 99.771 73.8236C100.464 73.8236 101.109 74.0691 101.356 74.6581C101.356 74.6581 101.356 74.6581 101.356 74.609C101.356 74.5599 101.356 74.5108 101.356 74.4617C101.356 74.1181 101.505 73.9709 101.901 73.9709H102.743V74.5108H102.149C102 74.5108 101.951 74.5599 101.951 74.7072V78.5358C101.951 80.0083 100.861 80.5973 99.7214 80.5973C99.1765 80.5973 98.6316 80.4501 98.1857 80.2047L98.3839 79.6647ZM101.307 76.2288C101.307 74.8544 100.663 74.4617 99.8205 74.4617C98.8793 74.4617 98.3839 75.0998 98.3839 76.2288C98.3839 77.3577 98.9783 78.0449 99.9196 78.0449C100.663 78.0449 101.307 77.5541 101.307 76.2288Z" fill="#666666"/>
<path d="M105.815 78.094H106.657V72.6947H105.815V72.1547H108.143V72.6947H107.35V75.0017H108.292L109.877 72.6947H109.233V72.1547H111.264V72.6947H110.62L108.837 75.198L108.936 75.2962C108.985 75.3453 109.084 75.4434 109.183 75.5907L110.521 77.8486C110.62 78.0449 110.769 78.094 111.016 78.094H111.363V78.6339H110.868C110.323 78.6339 110.174 78.5358 109.976 78.1431L108.589 75.787C108.49 75.5907 108.341 75.4925 108.044 75.4925H107.4V78.0449H108.242V78.5849H105.864V78.094H105.815Z" fill="#666666"/>
<path d="M111.957 78.094H112.75V74.7072C112.75 74.5599 112.701 74.5108 112.552 74.5108H111.908V73.9709H112.8C113.196 73.9709 113.345 74.1672 113.345 74.5108V74.7562C113.345 74.8544 113.345 74.9035 113.345 75.0017V75.0998C113.444 74.7562 114.088 73.8727 115.277 73.8727C116.416 73.8727 116.812 74.5108 116.812 75.6889V78.1431H117.605V78.683H116.168V75.8852C116.168 75.1489 116.069 74.5108 115.128 74.5108C114.088 74.5108 113.345 75.3943 113.345 76.4251V78.1431H114.137V78.683H111.957V78.094Z" fill="#666666"/>
<path d="M120.676 73.8727C122.063 73.8727 123.153 74.9035 123.153 76.2779C123.153 77.7013 122.063 78.7321 120.676 78.7321C119.339 78.7321 118.199 77.7013 118.199 76.2779C118.249 74.9035 119.339 73.8727 120.676 73.8727ZM120.676 78.1922C121.667 78.1922 122.509 77.3577 122.509 76.2779C122.509 75.198 121.667 74.4127 120.676 74.4127C119.686 74.4127 118.843 75.198 118.843 76.2779C118.893 77.3577 119.686 78.1922 120.676 78.1922Z" fill="#666666"/>
<path d="M123.649 73.9709H125.581V74.5108H124.887L125.878 77.6032C125.927 77.7013 125.927 77.7504 125.927 77.8486C125.927 77.7504 125.977 77.7013 125.977 77.6032L127.166 73.9709H127.81L128.999 77.6032C129.048 77.7013 129.048 77.7504 129.048 77.8486C129.048 77.7504 129.048 77.7013 129.098 77.6032L130.089 74.5108H129.395V73.9709H131.327V74.5108H130.782L129.445 78.6339H128.751L127.612 75.1489C127.562 75.0508 127.562 74.9526 127.562 74.9035C127.562 74.8544 127.562 74.8053 127.562 74.8053H127.513C127.513 74.8544 127.513 74.9035 127.513 74.9035C127.463 75.0017 127.463 75.0508 127.463 75.1489L126.324 78.6339H125.63L124.293 74.5108H123.698V73.9709H123.649Z" fill="#666666"/>
<path d="M132.268 72.6456H131.426V72.1547H132.863V77.4068C132.863 77.7995 132.962 78.094 133.408 78.094C133.507 78.094 133.556 78.094 133.606 78.094C133.655 78.094 133.655 78.094 133.655 78.094V78.6339H133.556C133.507 78.6339 133.408 78.6339 133.309 78.6339C132.665 78.6339 132.268 78.3394 132.268 77.4559V72.6456Z" fill="#666666"/>
<path d="M136.727 73.8727C138.015 73.8727 138.708 74.8544 138.708 76.0324C138.708 76.0815 138.708 76.1306 138.708 76.2288V76.327H135.092C135.142 77.505 135.934 78.1922 136.925 78.1922C137.371 78.1922 137.718 78.0449 137.965 77.8977C138.114 77.7995 138.263 77.7013 138.362 77.6032L138.659 78.094C138.51 78.1922 138.362 78.3394 138.213 78.4376C137.916 78.6339 137.47 78.7812 136.925 78.7812C135.538 78.7812 134.498 77.7995 134.498 76.376C134.399 74.8053 135.439 73.8727 136.727 73.8727ZM138.015 75.8361C137.965 74.8544 137.371 74.4127 136.677 74.4127C135.885 74.4127 135.241 74.9035 135.092 75.8361H138.015Z" fill="#666666"/>
<path d="M141.681 73.8727C142.226 73.8727 142.622 74.1181 142.87 74.3145C143.018 74.4617 143.117 74.609 143.216 74.7562C143.216 74.7072 143.216 74.7072 143.216 74.6581C143.216 74.609 143.216 74.5108 143.216 74.4127V72.6456H142.374V72.1547H143.86V77.8977C143.86 78.0449 143.91 78.094 144.059 78.094H144.603V78.6339H143.811C143.415 78.6339 143.266 78.4376 143.266 78.1431V78.0449C143.266 77.9468 143.266 77.8977 143.266 77.8486V77.7504C143.167 77.9468 143.068 78.094 142.919 78.2413C142.671 78.4867 142.275 78.7321 141.631 78.7321C140.393 78.7321 139.6 77.7504 139.6 76.327C139.551 74.8053 140.442 73.8727 141.681 73.8727ZM141.681 78.1922C142.473 78.1922 143.216 77.6522 143.216 76.327C143.216 75.3943 142.721 74.4617 141.73 74.4617C140.888 74.4617 140.195 75.1489 140.195 76.327C140.195 77.4559 140.839 78.1922 141.681 78.1922Z" fill="#666666"/>
<path d="M145.941 79.6647C146.04 79.7138 146.189 79.7629 146.337 79.812C146.585 79.9102 146.882 79.9592 147.229 79.9592C148.17 79.9592 148.864 79.5175 148.864 78.4867V78.0449C148.864 77.9468 148.864 77.8977 148.864 77.7995C148.864 77.7504 148.864 77.7013 148.864 77.7013C148.567 78.2413 148.121 78.5358 147.378 78.5358C146.139 78.5358 145.297 77.5541 145.297 76.1797C145.297 74.8053 146.09 73.8236 147.328 73.8236C148.022 73.8236 148.666 74.0691 148.913 74.6581C148.913 74.6581 148.913 74.6581 148.913 74.609C148.913 74.5599 148.913 74.5108 148.913 74.4617C148.913 74.1181 149.062 73.9709 149.458 73.9709H150.3V74.5108H149.706C149.557 74.5108 149.508 74.5599 149.508 74.7072V78.5358C149.508 80.0083 148.418 80.5973 147.279 80.5973C146.734 80.5973 146.189 80.4501 145.743 80.2047L145.941 79.6647ZM148.864 76.2288C148.864 74.8544 148.22 74.4617 147.378 74.4617C146.436 74.4617 145.941 75.0998 145.941 76.2288C145.941 77.3577 146.535 78.0449 147.477 78.0449C148.22 78.0449 148.864 77.5541 148.864 76.2288Z" fill="#666666"/>
<path d="M153.273 73.8727C154.561 73.8727 155.254 74.8544 155.254 76.0324C155.254 76.0815 155.254 76.1306 155.254 76.2288V76.327H151.638C151.688 77.505 152.48 78.1922 153.471 78.1922C153.917 78.1922 154.264 78.0449 154.511 77.8977C154.66 77.7995 154.808 77.7013 154.908 77.6032L155.205 78.094C155.056 78.1922 154.908 78.3394 154.759 78.4376C154.462 78.6339 154.016 78.7812 153.471 78.7812C152.084 78.7812 151.044 77.7995 151.044 76.376C150.944 74.8053 151.985 73.8727 153.273 73.8727ZM154.561 75.8361C154.511 74.8544 153.917 74.4127 153.223 74.4127C152.431 74.4127 151.787 74.9035 151.638 75.8361H154.561Z" fill="#666666"/>
<path d="M156.542 77.8486H157.285L156.493 79.812H155.948L156.542 77.8486Z" fill="#666666"/>
<path d="M158.474 78.094H159.316V72.6947H158.474V72.1547H161.447C161.843 72.1547 162.239 72.2038 162.586 72.3511C163.23 72.6456 163.626 73.2837 163.626 74.1181C163.626 75.0017 163.18 75.6889 162.437 75.9834C162.14 76.0815 161.843 76.1306 161.447 76.1306H159.96V78.1431H160.803V78.683H158.425V78.094H158.474ZM161.397 75.4925C161.694 75.4925 161.992 75.4434 162.19 75.3453C162.685 75.1489 162.982 74.7072 162.982 74.0691C162.982 73.48 162.735 73.0383 162.289 72.8419C162.041 72.7438 161.744 72.6947 161.397 72.6947H159.96V75.4925H161.397Z" fill="#666666"/>
<path d="M166.797 73.8727C168.184 73.8727 169.274 74.9035 169.274 76.2779C169.274 77.7013 168.184 78.7321 166.797 78.7321C165.459 78.7321 164.32 77.7013 164.32 76.2779C164.369 74.9035 165.459 73.8727 166.797 73.8727ZM166.797 78.1922C167.788 78.1922 168.63 77.3577 168.63 76.2779C168.63 75.198 167.788 74.4127 166.797 74.4127C165.806 74.4127 164.964 75.198 164.964 76.2779C165.013 77.3577 165.806 78.1922 166.797 78.1922Z" fill="#666666"/>
<path d="M169.769 73.9709H171.701V74.5108H171.008L171.998 77.6032C172.048 77.7013 172.048 77.7504 172.048 77.8486C172.048 77.7504 172.097 77.7013 172.097 77.6032L173.286 73.9709H173.93L175.119 77.6032C175.169 77.7013 175.169 77.7504 175.169 77.8486C175.169 77.7504 175.169 77.7013 175.218 77.6032L176.209 74.5108H175.516V73.9709H177.448V74.5108H176.853L175.516 78.6339H174.872L173.732 75.1489C173.683 75.0508 173.683 74.9526 173.683 74.9035C173.683 74.8544 173.683 74.8053 173.683 74.8053H173.633C173.633 74.8544 173.633 74.9035 173.633 74.9035C173.584 75.0017 173.584 75.0508 173.584 75.1489L172.444 78.6339H171.751L170.413 74.5108H169.819V73.9709H169.769Z" fill="#666666"/>
<path d="M180.271 73.8727C181.559 73.8727 182.253 74.8544 182.253 76.0324C182.253 76.0815 182.253 76.1306 182.253 76.2288V76.327H178.637C178.686 77.505 179.479 78.1922 180.47 78.1922C180.915 78.1922 181.262 78.0449 181.51 77.8977C181.658 77.7995 181.807 77.7013 181.906 77.6032L182.203 78.094C182.055 78.1922 181.906 78.3394 181.758 78.4376C181.46 78.6339 181.014 78.7812 180.47 78.7812C179.082 78.7812 178.042 77.7995 178.042 76.376C177.943 74.8053 178.983 73.8727 180.271 73.8727ZM181.559 75.8361C181.51 74.8544 180.915 74.4127 180.222 74.4127C179.429 74.4127 178.785 74.9035 178.637 75.8361H181.559Z" fill="#666666"/>
<path d="M183.145 78.094H183.888V74.7072C183.888 74.5599 183.838 74.5108 183.69 74.5108H183.046V73.9709H183.937C184.334 73.9709 184.482 74.1181 184.482 74.5108V74.8053C184.482 74.9035 184.482 75.0017 184.482 75.0507C184.482 75.0998 184.482 75.1489 184.482 75.1489C184.73 74.4617 185.225 73.9218 185.968 73.9218C186.018 73.9218 186.117 73.9218 186.166 73.9218H186.266V74.5599C186.216 74.5599 186.216 74.5599 186.166 74.5599C186.117 74.5599 186.067 74.5599 186.018 74.5599C184.978 74.5599 184.532 75.7379 184.532 76.6705V78.094H185.275V78.6339H183.194V78.094H183.145Z" fill="#666666"/>
<path d="M190.427 75.1489C190.229 75.0508 190.08 74.9526 189.981 74.8544C189.733 74.6581 189.535 74.2654 189.535 73.7255C189.535 72.7438 190.328 72.1057 191.566 72.1057C191.764 72.1057 191.913 72.1057 192.062 72.1547C192.161 72.1547 192.21 72.2038 192.309 72.2038L192.111 72.7438L191.913 72.6947C191.814 72.6947 191.715 72.6456 191.566 72.6456C190.774 72.6456 190.179 73.0874 190.179 73.7745C190.179 74.2163 190.377 74.9526 191.616 74.9526H193.151V74.02H193.795V74.9526H194.687V75.4925H193.795V76.4742C193.795 78.0449 192.904 78.8303 191.517 78.8303C190.13 78.8303 189.238 77.9958 189.238 76.916C189.238 76.0815 189.634 75.3453 190.427 75.1489ZM191.517 78.1431C192.458 78.1431 193.102 77.6523 193.102 76.376V75.4434H191.517C190.377 75.4434 189.832 75.9834 189.832 76.7687C189.882 77.5541 190.476 78.1431 191.517 78.1431Z" fill="#666666"/>
<path d="M197.709 78.094H198.551V72.6947H197.709V72.1547H200.533C200.979 72.1547 201.325 72.2038 201.672 72.302C202.316 72.5474 202.712 73.0874 202.712 73.9218C202.712 74.9035 202.167 75.5907 201.276 75.7379L201.375 75.787C201.424 75.8361 201.474 75.8852 201.523 75.9834L202.613 77.8486C202.712 78.0449 202.811 78.0449 203.059 78.0449H203.257V78.5849H202.911C202.366 78.5849 202.217 78.4867 202.019 78.094L200.929 76.2288C200.78 75.9343 200.632 75.8361 200.186 75.8361H199.245V78.0449H200.087V78.5849H197.709V78.094ZM200.78 75.2962C201.573 75.2962 202.118 74.7562 202.118 73.9218C202.118 73.3328 201.87 72.9401 201.424 72.7928C201.177 72.6947 200.879 72.6947 200.582 72.6947H199.294V75.3453H200.78V75.2962Z" fill="#666666"/>
<path d="M206.23 73.8727C207.518 73.8727 208.211 74.8544 208.211 76.0324C208.211 76.0815 208.211 76.1306 208.211 76.2288V76.327H204.595C204.644 77.505 205.437 78.1922 206.428 78.1922C206.874 78.1922 207.22 78.0449 207.468 77.8977C207.617 77.7995 207.765 77.7013 207.864 77.6032L208.162 78.094C208.013 78.1922 207.864 78.3394 207.716 78.4376C207.419 78.6339 206.973 78.7812 206.428 78.7812C205.041 78.7812 204 77.7995 204 76.376C203.951 74.8053 204.991 73.8727 206.23 73.8727ZM207.518 75.8361C207.468 74.8544 206.874 74.4127 206.18 74.4127C205.387 74.4127 204.743 74.9035 204.595 75.8361H207.518Z" fill="#666666"/>
<path d="M209.053 77.1614H209.648V77.505C209.648 77.9958 210.341 78.1922 210.886 78.1922C211.481 78.1922 211.976 77.9468 211.976 77.4559C211.976 76.916 211.382 76.7196 210.688 76.4742C209.995 76.1797 209.252 75.9343 209.252 75.0998C209.252 74.2654 210.094 73.8727 210.886 73.8727C211.53 73.8727 212.422 74.1181 212.422 74.7562V75.2962H211.828V74.9526C211.828 74.609 211.382 74.4127 210.886 74.4127C210.341 74.4127 209.896 74.6581 209.896 75.0998C209.896 75.5907 210.44 75.8361 211.084 76.0324C211.828 76.2779 212.62 76.5724 212.62 77.4068C212.62 78.1922 211.877 78.7321 210.837 78.7321C209.995 78.7321 209.053 78.3394 209.053 77.6522V77.1614Z" fill="#666666"/>
<path d="M213.413 78.094H214.205V74.5108H213.363V73.9709H214.849V78.094H215.642V78.6339H213.413V78.094ZM214.205 72.1547H214.899V72.9401H214.205V72.1547Z" fill="#666666"/>
<path d="M216.336 77.1614H216.93V77.505C216.93 77.9958 217.624 78.1922 218.168 78.1922C218.763 78.1922 219.258 77.9468 219.258 77.4559C219.258 76.916 218.664 76.7196 217.97 76.4742C217.277 76.1797 216.534 75.9343 216.534 75.0998C216.534 74.2654 217.376 73.8727 218.168 73.8727C218.812 73.8727 219.704 74.1181 219.704 74.7562V75.2962H219.11V74.9526C219.11 74.609 218.664 74.4127 218.168 74.4127C217.624 74.4127 217.178 74.6581 217.178 75.0998C217.178 75.5907 217.723 75.8361 218.367 76.0324C219.11 76.2779 219.902 76.5724 219.902 77.4068C219.902 78.1922 219.159 78.7321 218.119 78.7321C217.277 78.7321 216.336 78.3394 216.336 77.6522V77.1614Z" fill="#666666"/>
<path d="M221.289 74.5108H220.447V73.9709H221.289V72.6947H221.933V73.9709H223.122V74.5108H221.933V76.8669C221.933 77.9468 222.627 78.094 222.974 78.094C223.073 78.094 223.122 78.094 223.122 78.094H223.172V78.6339C223.122 78.6339 223.122 78.6339 223.073 78.6339C223.023 78.6339 222.974 78.6339 222.875 78.6339C222.33 78.6339 221.24 78.4376 221.24 76.916V74.5108H221.289Z" fill="#666666"/>
<path d="M226.64 75.787H226.937V75.5907C226.937 74.7072 226.441 74.4127 225.797 74.4127C225.401 74.4127 225.054 74.5108 224.807 74.6581C224.658 74.7072 224.559 74.8053 224.41 74.9035L224.113 74.4127C224.262 74.3145 224.41 74.2163 224.559 74.1672C224.856 74.02 225.252 73.9218 225.797 73.9218C226.937 73.9218 227.531 74.5108 227.531 75.6889V77.9958C227.531 78.1431 227.581 78.1922 227.729 78.1922H228.225V78.7321H227.482C227.085 78.7321 226.937 78.5358 226.937 78.2413V78.0449C226.937 77.9468 226.937 77.8486 226.937 77.7995C226.937 77.7504 226.937 77.7504 226.937 77.7013C226.838 77.8977 226.739 78.094 226.59 78.2413C226.342 78.4867 225.946 78.7812 225.352 78.7812C224.559 78.7812 223.766 78.3394 223.766 77.4068C223.816 75.8361 225.847 75.787 226.64 75.787ZM225.451 78.1922C226.392 78.1922 226.937 77.2596 226.937 76.4251V76.1797H226.689C226.293 76.1797 224.46 76.1306 224.46 77.2105C224.46 77.7504 224.807 78.1922 225.451 78.1922Z" fill="#666666"/>
<path d="M228.968 78.094H229.761V74.7072C229.761 74.5599 229.711 74.5108 229.562 74.5108H228.918V73.9709H229.81C230.206 73.9709 230.355 74.1672 230.355 74.5108V74.7562C230.355 74.8544 230.355 74.9035 230.355 75.0017V75.0998C230.454 74.7562 231.098 73.8727 232.287 73.8727C233.426 73.8727 233.823 74.5108 233.823 75.6889V78.1431H234.615V78.683H233.179V75.8852C233.179 75.1489 233.08 74.5108 232.138 74.5108C231.098 74.5108 230.355 75.3943 230.355 76.4251V78.1431H231.148V78.683H228.918V78.094H228.968Z" fill="#666666"/>
<path d="M237.687 73.8727C238.281 73.8727 239.421 74.1181 239.421 74.8544V75.3453H238.826V75.0017C238.826 74.609 238.133 74.4127 237.687 74.4127C236.696 74.4127 235.903 75.1489 235.903 76.2779C235.903 77.4068 236.745 78.1431 237.736 78.1431C238.628 78.1431 239.222 77.5541 239.272 77.505L239.52 77.9958C239.421 78.094 238.777 78.7321 237.687 78.7321C236.349 78.7321 235.21 77.7995 235.21 76.327C235.259 74.8544 236.349 73.8727 237.687 73.8727Z" fill="#666666"/>
<path d="M242.69 73.8727C243.978 73.8727 244.672 74.8544 244.672 76.0324C244.672 76.0815 244.672 76.1306 244.672 76.2288V76.327H241.055C241.105 77.505 241.897 78.1922 242.888 78.1922C243.334 78.1922 243.681 78.0449 243.929 77.8977C244.077 77.7995 244.226 77.7013 244.325 77.6032L244.622 78.094C244.474 78.1922 244.325 78.3394 244.176 78.4376C243.879 78.6339 243.433 78.7812 242.888 78.7812C241.501 78.7812 240.461 77.7995 240.461 76.376C240.362 74.8053 241.402 73.8727 242.69 73.8727ZM243.978 75.8361C243.929 74.8544 243.334 74.4127 242.641 74.4127C241.848 74.4127 241.204 74.9035 241.055 75.8361H243.978Z" fill="#666666"/>
<path d="M43.8913 44.0782L36.6091 49.4775L30.9617 42.5075L38.2439 37.1082L43.8913 44.0782Z" fill="#652A7A"/>
<path d="M38.6897 33.574L34.0331 37.0591L31.9029 38.6298L27.3454 42.0166L36.1633 53.0116L47.5572 44.5691L38.6897 33.574ZM29.8223 42.3602L38.3925 36.0283L45.0307 44.2745L36.51 50.5574L29.8223 42.3602Z" fill="#E7427E"/>
<path d="M30.9122 38.2371C30.9122 38.2371 30.3672 35.3902 33.5377 36.0774C33.5377 36.0774 34.2808 35.9301 33.8845 35.5374C33.4882 35.1938 29.8223 34.4576 30.3672 38.0899C30.3672 38.1389 30.6645 38.5316 30.9122 38.2371Z" fill="#E7427E"/>
<path d="M31.8534 38.9734L32.0515 36.8627L34.3799 37.1082L31.8534 38.9734Z" fill="#652A7A"/>
<path d="M29.5746 26.0641C32.8304 26.0641 35.4697 23.4489 35.4697 20.223C35.4697 16.997 32.8304 14.3819 29.5746 14.3819C26.3188 14.3819 23.6795 16.997 23.6795 20.223C23.6795 23.4489 26.3188 26.0641 29.5746 26.0641Z" fill="#652A7A"/>
<path d="M43.7922 9.03161C46.3093 9.03161 48.3498 7.00982 48.3498 4.51581C48.3498 2.0218 46.3093 0 43.7922 0C41.2751 0 39.2346 2.0218 39.2346 4.51581C39.2346 7.00982 41.2751 9.03161 43.7922 9.03161Z" fill="#652A7A"/>
<path d="M12.5828 24.2479C14.881 24.2479 16.7441 22.4019 16.7441 20.1248C16.7441 17.8477 14.881 16.0017 12.5828 16.0017C10.2846 16.0017 8.42159 17.8477 8.42159 20.1248C8.42159 22.4019 10.2846 24.2479 12.5828 24.2479Z" fill="#652A7A"/>
<path d="M16.1496 30.5799C17.0798 30.5799 17.8339 29.8327 17.8339 28.911C17.8339 27.9893 17.0798 27.2421 16.1496 27.2421C15.2194 27.2421 14.4653 27.9893 14.4653 28.911C14.4653 29.8327 15.2194 30.5799 16.1496 30.5799Z" fill="#652A7A"/>
<path d="M7.9262 38.5807C10.0602 38.5807 11.7902 36.8666 11.7902 34.7521C11.7902 32.6376 10.0602 30.9235 7.9262 30.9235C5.79216 30.9235 4.06218 32.6376 4.06218 34.7521C4.06218 36.8666 5.79216 38.5807 7.9262 38.5807Z" fill="#652A7A"/>
<path d="M20.2118 51.0483C22.3458 51.0483 24.0758 49.3341 24.0758 47.2196C24.0758 45.1051 22.3458 43.391 20.2118 43.391C18.0778 43.391 16.3478 45.1051 16.3478 47.2196C16.3478 49.3341 18.0778 51.0483 20.2118 51.0483Z" fill="#652A7A"/>
<path d="M9.01605 63.1231C10.685 63.1231 12.0379 61.7826 12.0379 60.129C12.0379 58.4753 10.685 57.1348 9.01605 57.1348C7.34712 57.1348 5.99419 58.4753 5.99419 60.129C5.99419 61.7826 7.34712 63.1231 9.01605 63.1231Z" fill="#652A7A"/>
<path d="M29.3765 76.916C30.7992 76.916 31.9525 75.7732 31.9525 74.3636C31.9525 72.9539 30.7992 71.8111 29.3765 71.8111C27.9538 71.8111 26.8004 72.9539 26.8004 74.3636C26.8004 75.7732 27.9538 76.916 29.3765 76.916Z" fill="#652A7A"/>
<path d="M23.1346 73.7745C23.5997 73.7745 23.9767 73.401 23.9767 72.9401C23.9767 72.4793 23.5997 72.1057 23.1346 72.1057C22.6695 72.1057 22.2924 72.4793 22.2924 72.9401C22.2924 73.401 22.6695 73.7745 23.1346 73.7745Z" fill="#652A7A"/>
<path d="M43.0987 86.6348C45.3421 86.6348 47.1608 84.8327 47.1608 82.6098C47.1608 80.3869 45.3421 78.5849 43.0987 78.5849C40.8552 78.5849 39.0365 80.3869 39.0365 82.6098C39.0365 84.8327 40.8552 86.6348 43.0987 86.6348Z" fill="#652A7A"/>
<path d="M30.8131 84.8677C32.783 84.8677 34.3799 83.2855 34.3799 81.3336C34.3799 79.3818 32.783 77.7995 30.8131 77.7995C28.8432 77.7995 27.2463 79.3818 27.2463 81.3336C27.2463 83.2855 28.8432 84.8677 30.8131 84.8677Z" fill="#652A7A"/>
<path d="M25.3143 78.9775C25.8615 78.9775 26.3051 78.538 26.3051 77.9958C26.3051 77.4537 25.8615 77.0141 25.3143 77.0141C24.7671 77.0141 24.3235 77.4537 24.3235 77.9958C24.3235 78.538 24.7671 78.9775 25.3143 78.9775Z" fill="#E7427E"/>
<path d="M41.9593 101.507C44.2301 101.507 46.071 99.6835 46.071 97.4334C46.071 95.1834 44.2301 93.3594 41.9593 93.3594C39.6884 93.3594 37.8476 95.1834 37.8476 97.4334C37.8476 99.6835 39.6884 101.507 41.9593 101.507Z" fill="#652A7A"/>
<path d="M45.1793 91.6905C46.2737 91.6905 47.1609 90.8115 47.1609 89.7271C47.1609 88.6428 46.2737 87.7637 45.1793 87.7637C44.0849 87.7637 43.1978 88.6428 43.1978 89.7271C43.1978 90.8115 44.0849 91.6905 45.1793 91.6905Z" fill="#652A7A"/>
<path d="M33.1909 93.0649C34.3127 93.0649 35.222 92.1639 35.222 91.0524C35.222 89.941 34.3127 89.0399 33.1909 89.0399C32.0692 89.0399 31.1599 89.941 31.1599 91.0524C31.1599 92.1639 32.0692 93.0649 33.1909 93.0649Z" fill="#652A7A"/>
<path d="M29.3765 90.0707C29.8416 90.0707 30.2186 89.6971 30.2186 89.2363C30.2186 88.7754 29.8416 88.4018 29.3765 88.4018C28.9113 88.4018 28.5343 88.7754 28.5343 89.2363C28.5343 89.6971 28.9113 90.0707 29.3765 90.0707Z" fill="#652A7A"/>
<path d="M37.5008 106.121C38.431 106.121 39.1851 105.374 39.1851 104.453C39.1851 103.531 38.431 102.784 37.5008 102.784C36.5706 102.784 35.8165 103.531 35.8165 104.453C35.8165 105.374 36.5706 106.121 37.5008 106.121Z" fill="#652A7A"/>
<path d="M45.8233 118C46.2884 118 46.6655 117.626 46.6655 117.166C46.6655 116.705 46.2884 116.331 45.8233 116.331C45.3582 116.331 44.9811 116.705 44.9811 117.166C44.9811 117.626 45.3582 118 45.8233 118Z" fill="#652A7A"/>
<path d="M43.5941 20.7629C45.5092 20.7629 47.0618 19.2246 47.0618 17.327C47.0618 15.4293 45.5092 13.891 43.5941 13.891C41.6789 13.891 40.1264 15.4293 40.1264 17.327C40.1264 19.2246 41.6789 20.7629 43.5941 20.7629Z" fill="#E7427E"/>
<path d="M34.6771 7.31365C36.346 7.31365 37.6989 5.97311 37.6989 4.31947C37.6989 2.66583 36.346 1.32529 34.6771 1.32529C33.0082 1.32529 31.6552 2.66583 31.6552 4.31947C31.6552 5.97311 33.0082 7.31365 34.6771 7.31365Z" fill="#E7427E"/>
<path d="M21.3512 16.4925C23.4852 16.4925 25.2152 14.7784 25.2152 12.6639C25.2152 10.5494 23.4852 8.83528 21.3512 8.83528C19.2171 8.83528 17.4872 10.5494 17.4872 12.6639C17.4872 14.7784 19.2171 16.4925 21.3512 16.4925Z" fill="#E7427E"/>
<path d="M17.3881 77.505C19.3033 77.505 20.8558 75.9667 20.8558 74.0691C20.8558 72.1714 19.3033 70.6331 17.3881 70.6331C15.4729 70.6331 13.9204 72.1714 13.9204 74.0691C13.9204 75.9667 15.4729 77.505 17.3881 77.505Z" fill="#E7427E"/>
<path d="M18.4779 41.673C21.2686 41.673 23.5309 39.4315 23.5309 36.6664C23.5309 33.9013 21.2686 31.6597 18.4779 31.6597C15.6873 31.6597 13.425 33.9013 13.425 36.6664C13.425 39.4315 15.6873 41.673 18.4779 41.673Z" fill="#E7427E"/>
<path d="M26.3546 65.7246C29.6104 65.7246 32.2497 63.1095 32.2497 59.8835C32.2497 56.6576 29.6104 54.0424 26.3546 54.0424C23.0988 54.0424 20.4595 56.6576 20.4595 59.8835C20.4595 63.1095 23.0988 65.7246 26.3546 65.7246Z" fill="#E7427E"/>
<path d="M40.275 78.3885C44.0779 78.3885 47.1609 75.3339 47.1609 71.5657C47.1609 67.7976 44.0779 64.7429 40.275 64.7429C36.472 64.7429 33.3891 67.7976 33.3891 71.5657C33.3891 75.3339 36.472 78.3885 40.275 78.3885Z" fill="#E7427E"/>
<path d="M4.50802 53.1098C6.99773 53.1098 9.01604 51.11 9.01604 48.6431C9.01604 46.1762 6.99773 44.1764 4.50802 44.1764C2.01831 44.1764 0 46.1762 0 48.6431C0 51.11 2.01831 53.1098 4.50802 53.1098Z" fill="#E7427E"/>
<path d="M43.8913 108.085C45.4781 108.085 46.7645 106.81 46.7645 105.238C46.7645 103.666 45.4781 102.391 43.8913 102.391C42.3044 102.391 41.0181 103.666 41.0181 105.238C41.0181 106.81 42.3044 108.085 43.8913 108.085Z" fill="#E7427E"/>
<path d="M45.0802 114.171C46.2293 114.171 47.1609 113.248 47.1609 112.11C47.1609 110.971 46.2293 110.048 45.0802 110.048C43.9311 110.048 42.9996 110.971 42.9996 112.11C42.9996 113.248 43.9311 114.171 45.0802 114.171Z" fill="#E7427E"/>
<path d="M36.9063 89.089C36.4605 88.7945 35.9156 88.5982 35.5688 88.2055C35.0239 87.5674 34.578 86.782 33.4882 87.5183C34.7266 86.193 35.9156 86.3894 37.154 87.7147C37.0549 85.7022 36.9559 83.9351 37.5503 82.2662C37.6494 82.2662 37.699 82.2171 37.798 82.2171C37.9466 82.5607 38.2439 82.9043 38.2439 83.1988C38.2934 84.426 38.2439 85.6531 38.2439 86.9293C38.2439 87.7147 38.0953 88.4018 37.5008 88.9418C37.3522 88.9909 37.154 89.0399 36.9063 89.089Z" fill="#FFAB39"/>
<path d="M11.0471 49.6739C10.3041 48.3486 10.2545 47.0724 11.3939 45.9434C11.3939 45.8453 11.3939 45.7962 11.3444 45.7962C10.4031 44.3727 10.7499 43.6855 12.7315 43.2438C12.781 43.2928 12.8305 43.2929 12.8305 43.3419C12.8305 43.5874 12.8305 43.7837 12.8305 43.931C12.2856 44.0782 11.7902 44.1764 11.0967 44.3727C11.8398 44.9617 12.3847 45.4035 13.0782 45.9434C12.4838 46.1889 11.9884 46.4343 11.5425 46.5815C10.849 46.827 10.6508 47.3178 10.9481 47.8577C11.2948 48.4958 11.8398 49.0358 12.2856 49.6248C12.4838 49.8702 12.5828 50.1647 12.7315 50.4592C12.5828 50.6556 12.4838 50.9501 12.137 50.6065C11.8398 50.2629 11.3939 50.0175 11.0471 49.6739Z" fill="#FFAB39"/>
<path d="M36.51 109.361C37.5999 108.036 39.4328 107.692 40.7208 108.723C39.5814 109.067 38.5907 109.361 37.5503 109.656C37.5503 109.803 37.5999 109.901 37.5999 110.048C38.343 110.196 39.086 110.294 39.8291 110.441C40.5227 110.588 41.1667 110.834 41.1667 111.717C41.1171 112.503 40.5227 112.895 39.4328 112.944C39.6805 112.552 39.9282 112.208 40.1264 111.913C38.987 111.275 37.9466 110.686 36.8568 110.097C36.7082 109.852 36.6091 109.606 36.51 109.361Z" fill="#FFAB39"/>
<path d="M20.2118 30.2363C19.8155 29.9909 19.3696 29.6963 18.9733 29.4509C19.0724 29.2546 19.221 29.0582 19.3201 28.8619C20.0136 28.6656 20.6576 28.5183 21.3512 28.322C22.6392 27.9293 22.8869 27.4384 22.6392 25.8186C22.3915 24.3461 22.1933 22.8735 21.9952 21.401C22.0943 21.401 22.1438 21.401 22.2429 21.401C22.4906 23.0208 22.7878 24.6406 23.0355 26.2604C23.3823 28.8128 23.4318 29.6473 21.2026 30.0399C21.1035 30.0399 21.0044 30.1872 20.9549 30.2363C20.6576 30.2363 20.41 30.2363 20.2118 30.2363Z" fill="#FFAB39"/>
<path d="M32.9432 12.3203C33.3891 11.5349 33.8349 10.7987 34.3303 10.0133C34.4294 10.0624 34.4789 10.1115 34.578 10.1606C34.3303 10.6023 34.0826 10.995 33.934 11.4368C33.6863 11.8295 33.6863 12.3203 33.6368 12.7621C34.0826 12.8112 34.578 12.9584 34.9743 12.8602C36.0642 12.6639 37.154 12.3694 38.2439 12.124C38.1448 13.4002 37.5008 14.2346 36.2128 14.6273C35.866 14.7255 35.5193 14.8236 35.1725 14.9218C35.0239 14.9218 34.9248 14.9218 34.7762 14.9218C33.934 14.6273 33.29 14.1364 32.9432 13.302C32.9432 13.0075 32.9432 12.6639 32.9432 12.3203Z" fill="#FFAB39"/>
<path d="M38.1943 12.124C37.9962 11.7804 37.798 11.3386 37.5008 11.0932C36.7577 10.4551 35.9651 9.91514 35.1229 9.27704C35.3211 8.88436 35.4697 8.49168 35.6679 8.04992C37.1045 8.73711 38.1943 9.57155 38.5411 11.0932C38.5411 11.1423 38.5411 11.2404 38.5411 11.2895C38.4916 11.584 38.343 11.8295 38.1943 12.124Z" fill="#FFAB39"/>
<path d="M15.8028 68.6697C15.8028 68.5225 15.8028 68.3261 15.8524 68.277C17.4872 67.5899 19.1715 66.9517 20.8558 66.2646C20.8558 67.0499 20.6576 67.6389 19.9146 67.8844C18.8247 68.228 17.7349 68.5225 16.5955 68.8661C16.3478 68.817 16.0505 68.7679 15.8028 68.6697Z" fill="#FFAB39"/>
<path d="M15.357 64.0067C16.8927 64.3502 18.4779 64.6938 20.0136 65.0374C20.6081 65.1847 20.9053 65.4301 20.9053 66.2155C19.7164 65.2338 18.3789 65.5774 17.1404 65.381C16.4964 65.2829 15.8524 64.8411 15.2579 64.5466C15.2579 64.3993 15.3075 64.203 15.357 64.0067Z" fill="#FFAB39"/>
</g>
<defs>
<clipPath id="clip0_178_293">
<rect width="247" height="118" fill="white"/>
</clipPath>
</defs>
</svg>
