<svg width="395" height="188" viewBox="0 0 395 188" fill="none" xmlns="http://www.w3.org/2000/svg">
<g clip-path="url(#clip0_200_1121)">
<path d="M102.355 50.2847C102.671 50.2847 103.068 50.2847 103.464 50.3629C103.939 50.4411 104.81 50.5975 106.236 50.9103C107.583 51.2231 108.93 51.6141 110.198 52.1615C111.465 52.6308 112.812 53.4128 114.317 54.5076C115.822 55.5243 117.169 56.7755 118.278 58.1832C119.387 59.5908 120.259 61.3895 121.051 63.5792C121.764 65.7689 122.16 68.1931 122.16 70.9303C122.16 79.2198 118.833 85.0068 112.257 88.3695C110.752 89.0733 109.168 89.699 107.583 90.1682C105.92 90.6374 104.652 90.872 103.701 90.9502L102.275 91.0284H88.2531C88.2531 91.0284 88.3323 91.0284 88.4116 91.0284C88.4908 91.0284 88.57 90.9502 88.7284 90.872C88.8869 90.7938 89.0453 90.7156 89.1245 90.6374C89.283 90.5592 89.4414 90.4028 89.5999 90.2464C89.7583 90.09 89.9168 89.8554 89.996 89.699C90.0752 89.5426 90.2337 89.308 90.3129 88.9951C90.3921 88.6823 90.4713 88.3695 90.4713 88.1349V53.3346C90.4713 52.8654 90.3921 52.4743 90.2337 52.0833C90.0752 51.6923 89.9168 51.4577 89.6791 51.2231C89.4414 50.9885 89.2038 50.8321 89.0453 50.6757C88.8077 50.5193 88.6492 50.4411 88.4908 50.3629L88.2531 50.2847H102.355ZM102.355 88.2131C102.513 88.2131 102.83 88.1349 103.147 88.1349C103.464 88.1349 104.177 87.9785 105.127 87.6657C106.078 87.3529 107.029 87.0401 107.979 86.5709C108.93 86.1016 109.881 85.476 110.99 84.5376C112.099 83.5991 113.05 82.5825 113.842 81.4095C114.634 80.2364 115.347 78.6723 115.822 76.7955C116.377 74.9186 116.615 72.8071 116.615 70.461C116.615 68.0367 116.377 65.9253 115.822 64.0484C115.268 62.1715 114.634 60.6075 113.763 59.3562C112.891 58.1832 111.94 57.1665 110.911 56.3063C109.881 55.4461 108.851 54.8204 107.821 54.4294C106.791 54.0384 105.84 53.7256 105.048 53.491C104.177 53.2564 103.543 53.1782 102.988 53.1L102.196 53.0218H98.5519C98.0766 53.0218 97.6013 53.1 97.2844 53.3346C96.8883 53.491 96.6506 53.7256 96.4922 53.9602C96.3337 54.1948 96.1753 54.5076 96.0961 54.8204C96.0168 55.1332 95.9376 55.3679 95.9376 55.4461C95.9376 55.6025 95.9376 55.6807 95.9376 55.8371V85.476C95.9376 85.5542 95.9376 85.7106 95.9376 85.867C95.9376 86.0234 96.0168 86.258 96.0961 86.5709C96.1753 86.8837 96.3337 87.1183 96.4922 87.3529C96.6506 87.5875 96.9675 87.7439 97.2844 87.9785C97.6805 88.1349 98.0766 88.2913 98.5519 88.2913L102.355 88.2131Z" fill="black"/>
<path d="M148.779 85.2413L150.759 88.213C150.442 88.4476 149.967 88.6822 149.412 89.0733C148.858 89.3861 147.669 89.8553 145.847 90.4027C144.025 90.9501 142.124 91.2629 140.302 91.2629C138.955 91.2629 137.608 91.1065 136.262 90.7937C134.915 90.4809 133.489 89.9335 132.142 89.2297C130.716 88.4476 129.528 87.5874 128.419 86.4144C127.309 85.3195 126.438 83.9119 125.804 82.1132C125.17 80.3145 124.774 78.3594 124.774 76.248C124.774 73.9801 125.091 72.025 125.725 70.2263C126.359 68.4277 127.23 67.02 128.181 65.9252C129.211 64.8303 130.32 63.8919 131.667 63.1881C132.934 62.4842 134.202 61.9368 135.469 61.624C136.658 61.3112 137.846 61.1548 139.034 61.1548C140.619 61.1548 142.045 61.3112 143.312 61.624C144.58 61.9368 145.61 62.3278 146.402 62.8753C147.194 63.4227 147.828 63.9701 148.462 64.6739C149.095 65.2995 149.492 66.0034 149.729 66.7072C149.967 67.411 150.125 68.1149 150.284 68.7405C150.442 69.4443 150.521 70.0699 150.442 70.6174C150.363 71.1648 150.363 71.634 150.363 72.025C150.205 73.8237 149.65 75.3877 148.779 76.7954C147.907 78.203 146.798 79.3761 145.61 80.1581C144.421 81.0183 142.995 81.7222 141.411 82.2696C139.827 82.8952 138.321 83.2862 136.975 83.5208C135.628 83.7555 134.202 83.9119 132.855 83.9901C133.33 84.7721 133.806 85.4759 134.36 86.0233C134.915 86.5708 135.549 87.1182 136.182 87.5874C136.816 87.9784 137.529 88.3694 138.242 88.604C138.955 88.8387 139.747 88.9951 140.54 88.9951C141.252 88.9951 142.045 88.9169 142.678 88.7604C143.391 88.604 144.025 88.4476 144.58 88.213C145.134 87.9784 145.61 87.7438 146.164 87.5092C146.64 87.1964 147.115 86.9618 147.432 86.7272C147.749 86.4926 148.066 86.2579 148.303 86.0233C148.541 85.7887 148.779 85.6323 148.858 85.5541L148.779 85.2413ZM138.955 63.3445C136.658 64.1265 134.677 65.6124 133.013 67.8802C131.35 70.1481 130.478 72.8852 130.478 76.1698C130.478 78.203 130.874 80.1581 131.587 81.9568C133.41 81.7222 135.39 81.0966 137.371 80.0799C139.351 79.0633 141.094 77.7338 142.599 76.1698C144.421 74.0583 145.61 71.8686 146.006 69.5225C146.402 67.1764 145.927 65.3777 144.659 64.1265C143.391 62.8753 141.49 62.5624 138.955 63.3445Z" fill="black"/>
<path d="M173.892 88.9951C175.714 88.9951 177.536 88.7604 179.2 88.3694C180.863 87.9002 182.21 87.431 183.24 86.8054C184.27 86.1797 185.221 85.5541 185.934 84.8503C186.726 84.2247 187.201 83.6772 187.518 83.2862C187.835 82.8952 187.993 82.6606 187.993 82.6606L189.419 84.0683C187.518 86.2579 185.141 87.9002 182.527 89.1515C179.834 90.4027 176.982 91.0283 173.892 91.0283C170.168 91.0283 166.683 90.0899 163.435 88.2912C160.266 86.4926 157.731 83.9901 155.829 80.7837C154.007 77.6556 153.057 74.2147 153.057 70.4609C153.057 66.7072 154.007 63.2663 155.829 60.1381C157.651 56.9318 160.187 54.4293 163.435 52.6307C166.603 50.832 170.089 49.8936 173.892 49.8936C176.982 49.8936 179.992 50.5192 182.686 51.8486C185.458 53.0999 187.756 54.8985 189.736 57.1664L186.171 60.2164C184.825 57.6357 183.082 55.5242 180.863 53.9601C178.724 52.3961 176.348 51.614 173.813 51.614C171.198 51.614 168.742 52.4743 166.524 54.1165C164.306 55.7588 162.484 58.0267 161.216 60.9202C159.949 63.8137 159.236 66.9418 159.236 70.3045C159.236 73.6673 159.87 76.7954 161.216 79.6889C162.484 82.5824 164.306 84.8503 166.524 86.4926C168.822 88.1348 171.198 88.9951 173.892 88.9951Z" fill="black"/>
<path d="M195.361 65.456C198.371 62.4843 201.936 61.0767 206.135 61.0767C210.334 61.0767 213.978 62.5625 216.909 65.456C219.92 68.4277 221.425 71.9469 221.425 76.0916C221.425 80.2364 219.92 83.8337 216.909 86.7272C213.899 89.699 210.334 91.1066 206.135 91.1066C201.936 91.1066 198.371 89.6208 195.361 86.7272C192.351 83.7555 190.925 80.2364 190.925 76.0916C190.925 71.9469 192.351 68.4277 195.361 65.456ZM199.718 85.1632C201.54 87.6657 203.679 88.9169 206.135 88.9169C208.591 88.9169 210.809 87.6657 212.552 85.1632C214.374 82.6607 215.246 79.6108 215.246 76.0916C215.246 72.5725 214.374 69.5226 212.552 67.0201C210.73 64.5176 208.591 63.2663 206.135 63.2663C203.679 63.2663 201.461 64.5176 199.718 67.0201C197.896 69.5226 197.025 72.5725 197.025 76.0916C197.025 79.6108 197.896 82.7389 199.718 85.1632Z" fill="black"/>
<path d="M242.419 90.872C242.419 90.872 242.498 90.872 242.656 90.7938C242.815 90.7156 242.973 90.6374 243.211 90.481C243.449 90.3246 243.686 90.1682 243.845 89.9336C244.003 89.6989 244.162 89.4643 244.32 89.0733C244.479 88.6823 244.558 88.2913 244.558 87.8221V72.7289C244.558 71.5558 244.558 70.6174 244.479 69.8354C244.399 69.0534 244.32 68.1931 244.082 67.2547C243.845 66.3162 243.607 65.6124 243.211 64.9868C242.815 64.4394 242.26 63.9702 241.547 63.5791C240.834 63.1881 239.884 63.0317 238.854 63.0317C237.982 63.0317 237.19 63.2663 236.477 63.6573C235.764 64.0484 235.13 64.5176 234.655 65.065C234.18 65.6124 233.704 66.3163 233.308 67.0983C232.912 67.8803 232.595 68.5841 232.358 69.2098C232.12 69.8354 231.882 70.5392 231.724 71.243C231.565 71.9469 231.486 72.4161 231.407 72.7289C231.407 72.9635 231.328 73.1981 231.328 73.3545V87.9003C231.328 88.6041 231.486 89.2297 231.882 89.6989C232.199 90.1682 232.595 90.481 232.991 90.6374L233.467 90.872H223.722C223.802 90.872 223.881 90.872 223.96 90.7938C224.039 90.7156 224.198 90.6374 224.435 90.481C224.673 90.3246 224.911 90.1682 225.069 89.9336C225.228 89.6989 225.465 89.4643 225.624 89.0733C225.782 88.6823 225.861 88.2913 225.861 87.8221V64.5176C225.861 64.2048 225.782 63.892 225.703 63.5791C225.624 63.2663 225.465 63.0317 225.386 62.8753C225.228 62.6407 225.148 62.4843 224.99 62.3279C224.832 62.1715 224.673 62.0151 224.515 61.9369C224.356 61.8587 224.198 61.7805 224.119 61.7023C223.96 61.6241 223.881 61.6241 223.802 61.5459L223.722 61.4677H231.407V67.8803C233.071 63.1881 236.002 60.842 240.121 60.842C241.864 60.842 243.369 61.0766 244.637 61.5459C245.905 62.0151 246.855 62.6407 247.568 63.3445C248.281 64.0484 248.836 64.9868 249.232 66.0034C249.628 67.0983 249.945 68.0367 250.024 68.9751C250.183 69.9136 250.183 70.9302 250.183 72.0251V87.8221C250.183 88.5259 250.341 89.1515 250.737 89.6207C251.054 90.09 251.45 90.4028 251.846 90.5592L252.322 90.7938H242.419V90.872Z" fill="black"/>
<path d="M282.822 99.0051C282.822 99.4743 282.901 99.8653 283.06 100.178C283.218 100.569 283.376 100.804 283.614 101.038C283.852 101.273 284.01 101.429 284.248 101.586C284.486 101.742 284.723 101.899 285.04 101.977H275.217C275.296 101.977 275.375 101.977 275.454 101.899C275.534 101.82 275.692 101.742 275.93 101.586C276.167 101.429 276.405 101.273 276.563 101.038C276.722 100.804 276.959 100.491 277.118 100.178C277.276 99.7871 277.356 99.3961 277.356 99.0051V85.476C275.613 89.2297 272.523 91.1066 268.087 91.1066C266.581 91.1066 265.235 90.9502 263.967 90.5592C262.7 90.2464 261.67 89.7771 260.798 89.1515C259.927 88.6041 259.135 87.9003 258.422 87.1964C257.709 86.4926 257.154 85.7106 256.679 84.8504C256.203 83.9901 255.886 83.2081 255.57 82.3479C255.253 81.4876 255.015 80.7056 254.857 80.0018C254.698 79.2979 254.619 78.5941 254.461 78.0467C254.381 77.4993 254.302 77.0301 254.302 76.7172V76.1698C254.302 75.9352 254.223 75.6224 254.223 75.3096C254.223 74.9186 254.223 74.2148 254.302 73.1981C254.381 72.1033 254.54 71.0866 254.777 70.1482C255.015 69.2098 255.411 68.1149 255.966 66.8637C256.52 65.6906 257.233 64.674 258.105 63.8138C258.976 62.9535 260.085 62.2497 261.511 61.7023C262.937 61.0766 264.601 60.842 266.502 60.842C271.731 60.842 275.375 63.2663 277.356 68.0367V61.5459L285.04 65.1432H284.961C284.961 65.1432 284.882 65.2214 284.802 65.2214C284.723 65.2214 284.644 65.2996 284.486 65.3778C284.327 65.456 284.248 65.5342 284.169 65.6124C284.01 65.6906 283.931 65.7688 283.773 65.9252C283.614 66.0816 283.535 66.1598 283.456 66.3163C283.376 66.4727 283.218 66.6291 283.139 66.7855C283.06 66.9419 282.98 67.1765 282.98 67.4111C282.901 67.6457 282.901 67.8803 282.901 68.1149V99.0051H282.822ZM277.356 78.6723V74.2148C277.276 73.3545 277.197 72.4943 277.039 71.6341C276.88 70.7738 276.643 69.8354 276.167 68.8187C275.771 67.8021 275.217 66.8637 274.662 66.0816C274.028 65.2996 273.236 64.674 272.206 64.1266C271.176 63.5791 269.988 63.3445 268.641 63.3445C267.374 63.3445 266.185 63.5791 265.155 64.0484C264.126 64.5176 263.333 65.1432 262.7 65.9252C262.066 66.7073 261.59 67.5675 261.194 68.4277C260.798 69.3662 260.481 70.2264 260.323 71.1648C260.164 72.1033 260.085 72.9635 259.927 73.6673C259.848 74.4494 259.768 75.075 259.848 75.466V76.1698C259.848 76.248 259.848 76.4044 259.848 76.639C259.848 76.7955 259.848 77.1865 259.848 77.7339C259.848 78.2813 259.927 78.8287 259.927 79.2979C260.006 79.8454 260.085 80.471 260.323 81.1748C260.481 81.8786 260.719 82.5825 260.957 83.1299C261.194 83.7555 261.59 84.3811 262.066 85.0068C262.541 85.6324 263.016 86.1798 263.65 86.649C264.205 87.1182 264.918 87.4311 265.789 87.7439C266.661 88.0567 267.611 88.1349 268.641 88.1349C269.909 88.1349 271.097 87.9003 272.127 87.4311C273.157 86.9618 273.949 86.4144 274.583 85.7888C275.217 85.1632 275.692 84.3029 276.088 83.4427C276.484 82.5043 276.801 81.7222 276.96 80.9402C277.197 80.2364 277.276 79.4544 277.356 78.6723Z" fill="black"/>
<path d="M307.301 90.9501V84.5374C305.638 89.2296 302.707 91.5757 298.587 91.5757C297.161 91.5757 295.814 91.3411 294.705 90.9501C293.596 90.559 292.645 90.0116 291.932 89.3078C291.219 88.6822 290.665 87.9001 290.11 87.1181C289.635 86.3361 289.239 85.4759 289.08 84.6938C288.843 83.9118 288.684 83.208 288.605 82.5041C288.526 81.8785 288.447 81.3311 288.447 80.9401V80.3145V64.5174C288.447 64.0482 288.367 63.6572 288.209 63.3444C288.051 62.9534 287.892 62.7188 287.654 62.4842C287.417 62.2496 287.179 62.0932 287.021 61.9367C286.783 61.7803 286.625 61.7021 286.466 61.6239L286.228 61.5457H295.973C295.973 61.5457 295.893 61.6239 295.814 61.6239C295.735 61.6239 295.577 61.7803 295.26 61.9367C295.022 62.0932 294.784 62.2496 294.626 62.4842C294.467 62.7188 294.309 62.9534 294.151 63.3444C293.992 63.7354 293.913 64.1264 293.913 64.5174V79.6888C293.913 85.7887 295.814 88.8386 299.696 88.8386C300.568 88.8386 301.36 88.6822 302.073 88.2912C302.786 87.9001 303.42 87.5091 303.895 86.9617C304.37 86.4143 304.846 85.7887 305.242 85.0066C305.638 84.2246 305.955 83.5208 306.192 82.9734C306.43 82.4259 306.588 81.8003 306.826 81.0183C307.064 80.2362 307.143 79.767 307.143 79.6888C307.143 79.6106 307.222 79.376 307.222 79.0632V64.5174C307.222 64.2046 307.222 63.8918 307.143 63.579C307.064 63.2662 306.985 63.0316 306.826 62.8752C306.668 62.6406 306.588 62.4842 306.43 62.3278C306.272 62.1714 306.113 62.0149 305.955 61.9367C305.796 61.8585 305.638 61.7803 305.559 61.7021C305.4 61.6239 305.321 61.6239 305.242 61.5457L305.162 61.4675H314.907C314.907 61.4675 314.828 61.4675 314.748 61.4675C314.669 61.4675 314.59 61.5457 314.431 61.6239C314.273 61.7021 314.115 61.7803 314.035 61.9367C313.877 62.0149 313.718 62.1714 313.56 62.3278C313.402 62.4842 313.243 62.6406 313.164 62.8752C313.085 63.1098 312.926 63.3444 312.847 63.579C312.768 63.8918 312.768 64.1264 312.768 64.5174V87.9001C312.768 88.3694 312.847 88.7604 313.005 89.1514C313.164 89.5424 313.322 89.777 313.56 90.0116C313.798 90.2462 313.956 90.4026 314.194 90.559C314.431 90.7155 314.669 90.8719 314.986 91.0283H307.301V90.9501Z" fill="black"/>
<path d="M324.572 87.9002C324.572 88.6041 324.73 89.2297 325.126 89.6989C325.522 90.1681 325.839 90.4809 326.156 90.6373C326.473 90.7937 326.632 90.8719 326.711 90.8719H316.887C316.887 90.8719 316.967 90.8719 317.046 90.8719C317.125 90.8719 317.204 90.7937 317.363 90.7155C317.521 90.6373 317.68 90.5591 317.759 90.4809C317.917 90.4027 318.076 90.2463 318.234 90.0899C318.393 89.9335 318.551 89.7771 318.63 89.5425C318.709 89.3079 318.868 89.0733 318.947 88.7605C319.026 88.4477 319.105 88.1348 319.105 87.9002V64.5175C319.105 63.8137 318.947 63.1881 318.551 62.7189C318.155 62.2496 317.838 61.9368 317.521 61.7804L316.967 61.5458H326.79C326.711 61.5458 326.632 61.5458 326.552 61.624C326.473 61.624 326.315 61.7804 325.998 61.9368C325.76 62.0932 325.522 62.2496 325.364 62.4843C325.206 62.7189 325.047 62.9535 324.889 63.3445C324.73 63.7355 324.651 64.1265 324.651 64.5175V87.9002H324.572ZM324.096 55.837C323.463 56.4626 322.671 56.7754 321.799 56.7754C320.848 56.7754 320.135 56.4626 319.502 55.837C318.868 55.2114 318.551 54.4293 318.551 53.5691C318.551 52.7089 318.868 51.9269 319.502 51.3012C320.135 50.6756 320.928 50.3628 321.799 50.3628C322.75 50.3628 323.463 50.6756 324.096 51.3012C324.73 51.9269 325.047 52.7089 325.047 53.5691C325.047 54.4293 324.73 55.2114 324.096 55.837Z" fill="black"/>
<path d="M333.762 67.1765C333.762 67.8021 333.999 68.4277 334.395 68.9752C334.871 69.5226 335.425 69.9918 336.217 70.3828C337.01 70.7738 337.802 71.243 338.753 71.7123C339.703 72.1815 340.654 72.6507 341.684 73.1199C342.634 73.5891 343.664 74.1366 344.615 74.7622C345.566 75.3878 346.437 76.0916 347.15 76.8737C347.863 77.5775 348.497 78.5159 348.972 79.6108C349.447 80.7056 349.606 81.8787 349.606 83.1299C349.606 84.8504 349.051 86.3362 347.863 87.5875C346.675 88.8387 345.249 89.699 343.585 90.2464C341.921 90.7938 340.099 91.0284 338.119 91.0284C336.297 91.0284 334.633 90.872 333.128 90.5592C331.543 90.2464 330.513 89.9336 329.8 89.6208L328.85 89.1515L330.513 84.303C330.751 84.5376 331.147 84.8504 331.543 85.2414C331.939 85.6324 332.811 86.1798 334.078 86.8836C335.346 87.5875 336.534 88.0567 337.643 88.2131C338.911 88.3695 340.02 88.3695 341.05 88.0567C342.001 87.7439 342.793 87.3529 343.347 86.8054C343.902 86.258 344.298 85.6324 344.536 85.085C344.773 84.4594 344.932 83.9119 344.932 83.3645C344.932 82.4261 344.377 81.4876 343.268 80.5492C342.159 79.6108 340.733 78.7505 339.149 78.0467C337.564 77.2647 335.98 76.4826 334.395 75.6224C332.811 74.7622 331.464 73.7455 330.434 72.4943C329.404 71.243 328.929 69.9918 329.008 68.5059C329.167 66.1599 330.197 64.3612 332.019 63.0317C333.841 61.7023 336.138 61.0767 338.99 61.0767C340.495 61.0767 342.08 61.2331 343.585 61.4677C345.09 61.7023 346.279 61.9369 346.992 62.2497L348.101 62.6407L346.279 67.1765C346.279 67.1765 346.199 67.0983 346.12 67.0201C346.041 66.9419 345.962 66.8637 345.803 66.6291C345.645 66.3945 345.486 66.2381 345.249 66.0035C345.09 65.7688 344.853 65.5342 344.536 65.2996C344.219 65.065 343.902 64.8304 343.664 64.5958C343.347 64.3612 343.03 64.1266 342.634 63.9702C342.238 63.7356 341.842 63.5792 341.446 63.4227C341.05 63.2663 340.654 63.1881 340.179 63.1099C339.703 63.0317 339.228 63.0317 338.753 63.1099C337.168 63.2663 335.98 63.7356 335.188 64.5958C334.237 65.456 333.762 66.3163 333.762 67.1765Z" fill="black"/>
<path d="M366.955 64.1265H360.459V83.99C360.459 85.2413 360.618 86.1015 360.935 86.7271C361.252 87.3527 361.727 87.6656 362.202 87.6656C362.678 87.6656 363.232 87.5873 363.707 87.3527C364.183 87.1963 364.579 86.9617 364.896 86.7271L365.371 86.2579L365.688 86.4925C365.688 86.5707 365.609 86.7271 365.45 86.9617C365.371 87.1963 365.133 87.5091 364.737 88.0566C364.341 88.604 363.945 88.995 363.549 89.4642C363.153 89.8552 362.598 90.2463 361.965 90.5591C361.331 90.8719 360.618 91.0283 359.905 91.0283C358.32 91.0283 357.132 90.5591 356.181 89.5424C355.31 88.604 354.835 87.1181 354.835 85.1631V64.1265H351.349V61.4675C353.567 61.4675 355.468 60.7637 357.053 59.2779L360.459 56.3062V61.5458H366.955V64.1265Z" fill="black"/>
<path d="M395 90.8719L387.157 90.9501C387.157 89.6207 387.157 88.0566 387.157 86.1797C385.731 87.9784 384.305 89.2296 382.8 90.0117C381.295 90.7937 379.631 91.1847 377.571 91.1847C375.591 91.1847 373.848 90.8719 372.501 90.1681C371.075 89.4643 370.045 88.5258 369.411 87.3528C368.778 86.1797 368.461 84.7721 368.461 83.0516C368.461 82.1132 368.619 81.2529 368.857 80.5491C369.094 79.7671 369.411 79.0633 369.728 78.5158C370.045 77.8902 370.52 77.3428 371.233 76.7172C371.867 76.0915 372.501 75.6223 373.056 75.2313C373.61 74.8403 374.323 74.3711 375.353 73.9019C376.304 73.4326 377.175 73.0416 377.809 72.7288C378.443 72.416 379.393 72.025 380.661 71.4776C381.849 71.0084 382.879 70.4609 383.75 69.8353C384.622 69.2097 385.256 68.6623 385.731 68.2712C386.127 67.802 386.444 67.3328 386.761 66.8636C386.999 66.3944 387.157 66.0034 387.236 65.847C387.236 65.6905 387.315 65.5341 387.315 65.3777C387.315 64.9867 387.236 64.6739 387.157 64.3611C387.078 64.0483 386.84 63.7355 386.602 63.5009C386.286 63.188 385.969 62.9534 385.493 62.7188C385.018 62.4842 384.463 62.3278 383.671 62.2496C382.879 62.0932 381.928 62.0932 380.899 62.0932C380.027 62.0932 379.235 62.2496 378.443 62.4842C377.65 62.797 377.017 63.1099 376.541 63.5791C376.066 64.0483 375.591 64.5175 375.115 65.0649C374.719 65.6123 374.323 66.1598 374.085 66.7072C373.848 67.2546 373.61 67.7238 373.452 68.193C373.293 68.6623 373.214 69.0533 373.135 69.2879L373.056 69.6789L370.917 64.2829C370.996 64.2047 371.075 64.0483 371.233 63.8919C371.392 63.7355 371.709 63.5009 372.263 63.1098C372.818 62.7188 373.452 62.406 374.165 62.0932C374.878 61.7804 375.828 61.5458 377.017 61.3112C378.205 61.0766 379.552 60.9202 380.978 60.9202C384.543 60.9202 387.395 61.8586 389.771 63.8137C392.069 65.7687 393.257 67.8802 393.257 70.0699V87.9002C393.257 88.604 393.416 89.2296 393.812 89.6989C394.129 90.1681 394.525 90.4809 394.921 90.6373L395 90.8719ZM387.078 83.8336C387.157 75.8569 387.078 70.7737 387.078 68.5059C386.127 70.3045 384.384 71.7904 381.849 72.9634C376.858 75.3877 374.323 78.4376 374.323 82.2696C374.323 82.9734 374.402 83.6772 374.482 84.3811C374.64 85.0067 374.798 85.7887 375.115 86.5707C375.432 87.3528 375.908 87.9784 376.541 88.4476C377.175 88.9168 378.047 89.1514 379.076 89.1514C379.948 89.1514 380.819 88.995 381.612 88.604C382.483 88.213 383.196 87.822 383.83 87.2746C384.463 86.7272 385.018 86.2579 385.493 85.7105C385.969 85.1631 386.365 84.7721 386.602 84.3811L387.078 83.8336Z" fill="black"/>
<path d="M88.8869 107.998H90.2337V99.3961H88.8869V98.5359H91.2635L97.126 106.669C97.2052 106.747 97.2844 106.904 97.3636 107.06C97.4428 107.138 97.4428 107.216 97.4428 107.295V107.06C97.4428 106.904 97.4428 106.747 97.4428 106.591V99.3961H96.0961V98.5359H99.8987V99.3961H98.5519V108.859H97.4428L91.5804 100.726C91.5012 100.569 91.422 100.413 91.3428 100.335C91.2635 100.256 91.2635 100.178 91.2635 100.1V100.335C91.2635 100.491 91.2635 100.647 91.2635 100.804V107.998H92.6103V108.859H88.8077V107.998H88.8869Z" fill="black"/>
<path d="M105.286 104.323H105.761V104.01C105.761 102.603 104.969 102.133 103.939 102.133C103.305 102.133 102.751 102.29 102.355 102.524C102.117 102.603 101.958 102.759 101.721 102.915L101.245 102.133C101.483 101.977 101.721 101.821 101.958 101.742C102.434 101.508 103.068 101.351 103.939 101.351C105.761 101.351 106.712 102.29 106.712 104.167V107.842C106.712 108.077 106.791 108.155 107.029 108.155H107.821V109.015H106.633C105.999 109.015 105.761 108.702 105.761 108.233V107.92C105.761 107.764 105.761 107.608 105.761 107.529C105.761 107.451 105.761 107.451 105.761 107.373C105.603 107.686 105.444 107.999 105.207 108.233C104.81 108.624 104.177 109.093 103.226 109.093C101.958 109.093 100.691 108.39 100.691 106.904C100.77 104.401 104.018 104.323 105.286 104.323ZM103.384 108.155C104.89 108.155 105.761 106.669 105.761 105.34V104.949H105.365C104.731 104.949 101.8 104.87 101.8 106.591C101.8 107.451 102.355 108.155 103.384 108.155Z" fill="black"/>
<path d="M108.217 101.429H111.307V102.29H110.198L112.099 107.216C112.178 107.373 112.178 107.451 112.178 107.607C112.178 107.686 112.178 107.764 112.178 107.764H112.257C112.257 107.686 112.257 107.607 112.257 107.607C112.337 107.451 112.337 107.373 112.337 107.216L114.238 102.29H113.287V101.429H116.377V102.29H115.426L112.891 108.859H111.703L109.168 102.29H108.217V101.429Z" fill="black"/>
<path d="M117.169 107.998H118.437V102.29H117.09V101.429H119.467V107.998H120.734V108.859H117.169V107.998ZM118.357 98.5359H119.467V99.7871H118.357V98.5359Z" fill="black"/>
<path d="M122.873 110.501C123.031 110.579 123.269 110.657 123.507 110.736C123.903 110.892 124.378 110.97 124.933 110.97C126.438 110.97 127.547 110.266 127.547 108.624V107.92C127.547 107.764 127.547 107.686 127.547 107.529C127.547 107.451 127.547 107.373 127.547 107.373C127.072 108.233 126.359 108.702 125.17 108.702C123.19 108.702 121.843 107.138 121.843 104.949C121.843 102.759 123.111 101.195 125.091 101.195C126.2 101.195 127.23 101.586 127.626 102.524C127.626 102.524 127.626 102.524 127.626 102.446C127.626 102.368 127.626 102.29 127.626 102.211C127.626 101.664 127.864 101.429 128.498 101.429H129.845V102.29H128.894C128.656 102.29 128.577 102.368 128.577 102.602V108.702C128.577 111.048 126.834 111.987 125.012 111.987C124.141 111.987 123.269 111.752 122.556 111.361L122.873 110.501ZM127.547 105.027C127.547 102.837 126.517 102.211 125.17 102.211C123.665 102.211 122.873 103.228 122.873 105.027C122.873 106.825 123.824 107.92 125.329 107.92C126.517 107.92 127.547 107.138 127.547 105.027Z" fill="black"/>
<path d="M135.311 104.323H135.786V104.01C135.786 102.603 134.994 102.133 133.964 102.133C133.33 102.133 132.776 102.29 132.38 102.524C132.142 102.603 131.984 102.759 131.746 102.915L131.271 102.133C131.508 101.977 131.746 101.821 131.984 101.742C132.459 101.508 133.093 101.351 133.964 101.351C135.786 101.351 136.737 102.29 136.737 104.167V107.842C136.737 108.077 136.816 108.155 137.054 108.155H137.846V109.015H136.658C136.024 109.015 135.786 108.702 135.786 108.233V107.92C135.786 107.764 135.786 107.608 135.786 107.529C135.786 107.451 135.786 107.451 135.786 107.373C135.628 107.686 135.469 107.999 135.232 108.233C134.836 108.624 134.202 109.093 133.251 109.093C131.984 109.093 130.716 108.39 130.716 106.904C130.795 104.401 134.043 104.323 135.311 104.323ZM133.41 108.155C134.915 108.155 135.786 106.669 135.786 105.34V104.949H135.39C134.756 104.949 131.825 104.87 131.825 106.591C131.825 107.451 132.38 108.155 133.41 108.155Z" fill="black"/>
<path d="M139.827 102.29H138.48V101.43H139.827V99.3962H140.856V101.43H142.758V102.29H140.856V106.044C140.856 107.764 141.965 107.999 142.52 107.999C142.678 107.999 142.758 107.999 142.758 107.999H142.837V108.859C142.758 108.859 142.758 108.859 142.679 108.859C142.599 108.859 142.52 108.859 142.362 108.859C141.49 108.859 139.747 108.546 139.747 106.122V102.29H139.827Z" fill="black"/>
<path d="M143.946 107.998H145.214V102.29H143.867V101.429H146.243V107.998H147.511V108.859H143.946V107.998ZM145.134 98.5359H146.243V99.7871H145.134V98.5359Z" fill="black"/>
<path d="M148.62 107.998H149.888V102.602C149.888 102.368 149.808 102.29 149.571 102.29H148.541V101.429H149.967C150.601 101.429 150.838 101.742 150.838 102.29V102.681C150.838 102.837 150.838 102.915 150.838 103.072V103.228C150.997 102.681 152.027 101.273 153.928 101.273C155.75 101.273 156.384 102.29 156.384 104.166V108.077H157.651V108.937H155.354V104.479C155.354 103.306 155.196 102.29 153.69 102.29C152.027 102.29 150.838 103.697 150.838 105.34V108.077H152.106V108.937H148.541V107.998H148.62Z" fill="black"/>
<path d="M159.79 110.501C159.949 110.579 160.187 110.657 160.424 110.736C160.82 110.892 161.296 110.97 161.85 110.97C163.355 110.97 164.465 110.266 164.465 108.624V107.92C164.465 107.764 164.465 107.686 164.465 107.529C164.465 107.451 164.465 107.373 164.465 107.373C163.989 108.233 163.276 108.702 162.088 108.702C160.107 108.702 158.761 107.138 158.761 104.949C158.761 102.759 160.028 101.195 162.009 101.195C163.118 101.195 164.148 101.586 164.544 102.524C164.544 102.524 164.544 102.524 164.544 102.446C164.544 102.368 164.544 102.29 164.544 102.211C164.544 101.664 164.781 101.429 165.415 101.429H166.762V102.29H165.811C165.574 102.29 165.494 102.368 165.494 102.602V108.702C165.494 111.048 163.751 111.987 161.929 111.987C161.058 111.987 160.187 111.752 159.474 111.361L159.79 110.501ZM164.385 105.027C164.385 102.837 163.355 102.211 162.009 102.211C160.503 102.211 159.711 103.228 159.711 105.027C159.711 106.825 160.662 107.92 162.167 107.92C163.355 107.92 164.385 107.138 164.385 105.027Z" fill="black"/>
<path d="M171.357 107.998H172.704L173.417 99.3961H172.07V98.5359H174.605L177.615 105.261C177.695 105.418 177.695 105.574 177.774 105.652L177.853 105.809C177.853 105.731 177.853 105.652 177.932 105.652C178.011 105.574 178.011 105.418 178.091 105.261L181.101 98.5359H183.636V99.3961H182.21L182.923 107.998H184.27V108.859H180.547V107.998H181.893L181.339 100.882C181.339 100.726 181.339 100.569 181.339 100.413C181.339 100.335 181.339 100.256 181.339 100.178L181.26 100.413C181.18 100.569 181.18 100.726 181.101 100.882L178.328 106.904H177.378L174.605 100.882C174.526 100.726 174.526 100.569 174.446 100.413C174.446 100.335 174.367 100.256 174.367 100.178H174.288C174.288 100.256 174.288 100.335 174.288 100.413C174.288 100.569 174.288 100.726 174.288 100.882L173.733 107.998H175.08V108.859H171.357V107.998Z" fill="black"/>
<path d="M186.171 102.29H184.825V101.429H187.201V105.887C187.201 107.06 187.36 108.077 188.865 108.077C190.528 108.077 191.638 106.513 191.638 104.949V102.29H190.291V101.429H192.667V107.686C192.667 107.92 192.747 107.999 192.984 107.999H193.856V108.781H192.509C191.875 108.781 191.638 108.546 191.638 107.92V107.529C191.638 107.373 191.638 107.216 191.638 107.138C191.479 107.686 190.528 109.015 188.706 109.015C186.963 109.015 186.251 108.077 186.251 106.122V102.29H186.171Z" fill="black"/>
<path d="M194.965 106.513H195.916V107.06C195.916 107.842 197.025 108.155 197.896 108.155C198.847 108.155 199.639 107.764 199.639 106.982C199.639 106.122 198.688 105.809 197.579 105.418C196.47 104.948 195.282 104.557 195.282 103.228C195.282 101.899 196.629 101.273 197.896 101.273C198.926 101.273 200.352 101.664 200.352 102.681V103.541H199.401V102.993C199.401 102.446 198.688 102.133 197.896 102.133C197.025 102.133 196.312 102.524 196.312 103.228C196.312 104.01 197.183 104.401 198.213 104.714C199.401 105.105 200.669 105.574 200.669 106.904C200.669 108.155 199.481 109.015 197.817 109.015C196.47 109.015 194.965 108.389 194.965 107.295V106.513Z" fill="black"/>
<path d="M202.57 99.3179H201.223V98.5359H203.521V106.904C203.521 107.529 203.679 107.998 204.392 107.998C204.551 107.998 204.63 107.998 204.709 107.998C204.788 107.998 204.788 107.998 204.788 107.998V108.859H204.63C204.551 108.859 204.392 108.859 204.234 108.859C203.204 108.859 202.57 108.389 202.57 106.982V99.3179Z" fill="black"/>
<path d="M205.977 107.998H207.244V102.29H205.897V101.429H208.274V107.998H209.542V108.859H205.977V107.998ZM207.165 98.5359H208.274V99.7871H207.165V98.5359Z" fill="black"/>
<path d="M210.651 107.998H211.918V102.602C211.918 102.368 211.839 102.29 211.601 102.29H210.572V101.429H211.998C212.631 101.429 212.869 101.742 212.869 102.29V102.681C212.869 102.837 212.869 102.915 212.869 103.072V103.228C213.265 102.211 214.453 101.273 215.642 101.273C216.989 101.273 217.702 101.899 217.939 103.15C218.335 102.211 219.444 101.273 220.712 101.273C222.534 101.273 223.168 102.29 223.168 104.166V108.077H224.435V108.937H222.138V104.479C222.138 103.306 221.9 102.29 220.554 102.29C219.048 102.29 218.018 103.854 218.018 105.418V108.155H219.286V109.015H217.068V104.557C217.068 103.463 216.909 102.368 215.483 102.368C213.978 102.368 212.948 103.932 212.948 105.496V108.155H214.216V109.015H210.651V107.998Z" fill="black"/>
<path d="M225.465 107.998H226.733V102.602C226.733 102.368 226.654 102.29 226.416 102.29H225.386V101.429H226.812C227.446 101.429 227.683 101.742 227.683 102.29V102.681C227.683 102.837 227.683 102.915 227.683 103.072V103.228C227.842 102.681 228.872 101.273 230.773 101.273C232.595 101.273 233.229 102.29 233.229 104.166V108.077H234.497V108.937H232.199V104.479C232.199 103.306 232.041 102.29 230.535 102.29C228.872 102.29 227.683 103.697 227.683 105.34V108.077H228.951V108.937H225.386V107.998H225.465Z" fill="black"/>
<path d="M239.25 101.273C241.31 101.273 242.419 102.837 242.419 104.714C242.419 104.792 242.419 104.87 242.419 105.027V105.183H236.636C236.715 107.06 237.982 108.155 239.567 108.155C240.28 108.155 240.834 107.92 241.23 107.686C241.468 107.529 241.706 107.373 241.864 107.216L242.34 107.998C242.102 108.155 241.864 108.389 241.627 108.546C241.151 108.859 240.438 109.093 239.567 109.093C237.349 109.093 235.685 107.529 235.685 105.261C235.526 102.759 237.19 101.273 239.25 101.273ZM241.31 104.401C241.23 102.837 240.28 102.133 239.171 102.133C237.903 102.133 236.873 102.915 236.636 104.401H241.31Z" fill="black"/>
<path d="M243.686 106.513H244.637V107.06C244.637 107.842 245.746 108.155 246.618 108.155C247.568 108.155 248.36 107.764 248.36 106.982C248.36 106.122 247.41 105.809 246.301 105.418C245.192 104.948 244.003 104.557 244.003 103.228C244.003 101.899 245.35 101.273 246.618 101.273C247.647 101.273 249.073 101.664 249.073 102.681V103.541H248.123V102.993C248.123 102.446 247.41 102.133 246.618 102.133C245.746 102.133 245.033 102.524 245.033 103.228C245.033 104.01 245.905 104.401 246.934 104.714C248.123 105.105 249.39 105.574 249.39 106.904C249.39 108.155 248.202 109.015 246.538 109.015C245.192 109.015 243.686 108.389 243.686 107.295V106.513Z" fill="black"/>
<path d="M250.737 106.513H251.688V107.06C251.688 107.842 252.797 108.155 253.668 108.155C254.619 108.155 255.411 107.764 255.411 106.982C255.411 106.122 254.46 105.809 253.351 105.418C252.242 104.948 251.054 104.557 251.054 103.228C251.054 101.899 252.401 101.273 253.668 101.273C254.698 101.273 256.124 101.664 256.124 102.681V103.541H255.173V102.993C255.173 102.446 254.46 102.133 253.668 102.133C252.797 102.133 252.084 102.524 252.084 103.228C252.084 104.01 252.955 104.401 253.985 104.714C255.173 105.105 256.441 105.574 256.441 106.904C256.441 108.155 255.253 109.015 253.589 109.015C252.242 109.015 250.737 108.389 250.737 107.295V106.513Z" fill="black"/>
<path d="M88.8867 124.421H90.2335V115.819H88.8867V114.958H93.4023C94.1153 114.958 94.6699 115.037 95.2244 115.193C96.2543 115.584 96.8881 116.444 96.8881 117.774C96.8881 119.338 96.0166 120.433 94.5907 120.667L94.7491 120.746C94.8283 120.824 94.9075 120.902 94.9868 121.058L96.7296 124.03C96.8881 124.343 97.0465 124.343 97.4426 124.343H97.7595V125.203H97.205C96.3335 125.203 96.0959 125.047 95.779 124.421L94.0361 121.449C93.7984 120.98 93.5608 120.824 92.8478 120.824H91.3426V124.343H92.6893V125.203H88.8867V124.421ZM93.7984 119.963C95.066 119.963 95.9374 119.103 95.9374 117.774C95.9374 116.835 95.5413 116.21 94.8283 115.975C94.4322 115.819 93.9569 115.819 93.4815 115.819H91.4218V120.042H93.7984V119.963Z" fill="black"/>
<path d="M102.513 117.696C104.573 117.696 105.682 119.26 105.682 121.136C105.682 121.215 105.682 121.293 105.682 121.449V121.606H99.8987C99.9779 123.483 101.245 124.577 102.83 124.577C103.543 124.577 104.097 124.343 104.494 124.108C104.731 123.952 104.969 123.795 105.127 123.639L105.603 124.421C105.365 124.577 105.127 124.812 104.89 124.968C104.414 125.281 103.701 125.516 102.83 125.516C100.612 125.516 98.9481 123.952 98.9481 121.684C98.8688 119.181 100.532 117.696 102.513 117.696ZM104.573 120.824C104.494 119.26 103.543 118.556 102.434 118.556C101.166 118.556 100.136 119.338 99.8987 120.824H104.573Z" fill="black"/>
<path d="M107.662 115.741H106.316V114.958H108.613V123.326C108.613 123.952 108.772 124.421 109.485 124.421C109.643 124.421 109.722 124.421 109.801 124.421C109.881 124.421 109.881 124.421 109.881 124.421V125.281H109.722C109.643 125.281 109.485 125.281 109.326 125.281C108.296 125.281 107.662 124.812 107.662 123.404V115.741Z" fill="black"/>
<path d="M115.03 117.696C117.248 117.696 118.991 119.338 118.991 121.527C118.991 123.795 117.248 125.438 115.03 125.438C112.891 125.438 111.069 123.795 111.069 121.527C111.069 119.338 112.812 117.696 115.03 117.696ZM115.03 124.577C116.615 124.577 117.961 123.248 117.961 121.527C117.961 119.807 116.615 118.556 115.03 118.556C113.446 118.556 112.099 119.807 112.099 121.527C112.099 123.248 113.446 124.577 115.03 124.577Z" fill="black"/>
<path d="M124.22 117.696C125.17 117.696 126.993 118.087 126.993 119.26V120.042H126.042V119.494C126.042 118.869 124.933 118.556 124.22 118.556C122.635 118.556 121.368 119.729 121.368 121.527C121.368 123.326 122.715 124.499 124.299 124.499C125.725 124.499 126.676 123.561 126.755 123.483L127.151 124.265C126.993 124.421 125.963 125.438 124.22 125.438C122.081 125.438 120.259 123.952 120.259 121.606C120.338 119.26 122.081 117.696 124.22 117.696Z" fill="black"/>
<path d="M132.855 120.746H133.33V120.433C133.33 119.025 132.538 118.556 131.508 118.556C130.874 118.556 130.32 118.712 129.924 118.947C129.686 119.025 129.528 119.182 129.29 119.338L128.815 118.556C129.052 118.4 129.29 118.243 129.528 118.165C130.003 117.93 130.637 117.774 131.508 117.774C133.33 117.774 134.281 118.712 134.281 120.589V124.265C134.281 124.499 134.36 124.578 134.598 124.578H135.39V125.438H134.202C133.568 125.438 133.33 125.125 133.33 124.656V124.343C133.33 124.187 133.33 124.03 133.33 123.952C133.33 123.874 133.33 123.874 133.33 123.796C133.172 124.108 133.013 124.421 132.776 124.656C132.38 125.047 131.746 125.516 130.795 125.516C129.528 125.516 128.26 124.812 128.26 123.326C128.419 120.824 131.587 120.746 132.855 120.746ZM131.033 124.578C132.538 124.578 133.41 123.092 133.41 121.762V121.371H133.013C132.38 121.371 129.448 121.293 129.448 123.014C129.448 123.874 130.003 124.578 131.033 124.578Z" fill="black"/>
<path d="M137.45 118.712H136.103V117.852H137.45V115.819H138.48V117.852H140.381V118.712H138.48V122.466C138.48 124.187 139.589 124.421 140.143 124.421C140.302 124.421 140.381 124.421 140.381 124.421C140.46 124.421 140.46 124.421 140.46 124.421V125.281C140.381 125.281 140.381 125.281 140.302 125.281C140.223 125.281 140.143 125.281 139.985 125.281C139.114 125.281 137.371 124.969 137.371 122.544V118.712H137.45Z" fill="black"/>
<path d="M141.569 124.421H142.837V118.712H141.49V117.852H143.867V124.421H145.134V125.281H141.569V124.421ZM142.758 114.958H143.867V116.21H142.758V114.958Z" fill="black"/>
<path d="M146.243 124.421H147.511V119.025C147.511 118.79 147.432 118.712 147.194 118.712H146.164V117.852H147.59C148.224 117.852 148.462 118.165 148.462 118.712V119.103C148.462 119.26 148.462 119.338 148.462 119.494V119.651C148.62 119.103 149.65 117.696 151.551 117.696C153.373 117.696 154.007 118.712 154.007 120.589V124.499H155.275V125.359H152.977V120.902C152.977 119.729 152.819 118.712 151.314 118.712C149.65 118.712 148.462 120.12 148.462 121.762V124.499H149.729V125.359H146.164V124.421H146.243Z" fill="black"/>
<path d="M157.335 126.924C157.493 127.002 157.731 127.08 157.968 127.158C158.364 127.315 158.84 127.393 159.394 127.393C160.9 127.393 162.009 126.689 162.009 125.047V124.343C162.009 124.186 162.009 124.108 162.009 123.952C162.009 123.874 162.009 123.795 162.009 123.795C161.533 124.656 160.82 125.125 159.632 125.125C157.651 125.125 156.305 123.561 156.305 121.371C156.305 119.181 157.572 117.617 159.553 117.617C160.662 117.617 161.692 118.008 162.088 118.947C162.088 118.947 162.088 118.947 162.088 118.869C162.088 118.79 162.088 118.712 162.088 118.634C162.088 118.087 162.326 117.852 162.959 117.852H164.306V118.712H163.355C163.118 118.712 163.039 118.79 163.039 119.025V125.125C163.039 127.471 161.296 128.409 159.474 128.409C158.602 128.409 157.731 128.175 157.018 127.784L157.335 126.924ZM162.009 121.449C162.009 119.26 160.979 118.634 159.632 118.634C158.127 118.634 157.335 119.651 157.335 121.449C157.335 123.248 158.285 124.343 159.79 124.343C160.979 124.343 162.009 123.561 162.009 121.449Z" fill="black"/>
<path d="M169.218 124.421H170.565V115.819H169.218V114.958H172.941V115.819H171.674V119.494H173.179L175.714 115.819H174.684V114.958H177.932V115.819H176.902L174.05 119.807L174.209 119.963C174.288 120.042 174.446 120.198 174.605 120.433L176.744 124.03C176.902 124.343 177.14 124.421 177.536 124.421H178.091V125.281H177.298C176.427 125.281 176.189 125.125 175.872 124.499L173.654 120.746C173.496 120.433 173.258 120.276 172.783 120.276H171.753V124.343H173.1V125.203H169.297V124.421H169.218Z" fill="black"/>
<path d="M179.041 124.421H180.309V119.025C180.309 118.79 180.23 118.712 179.992 118.712H178.962V117.852H180.388C181.022 117.852 181.26 118.165 181.26 118.712V119.103C181.26 119.26 181.26 119.338 181.26 119.494V119.651C181.418 119.103 182.448 117.696 184.349 117.696C186.171 117.696 186.805 118.712 186.805 120.589V124.499H188.073V125.359H185.775V120.902C185.775 119.729 185.617 118.712 184.112 118.712C182.448 118.712 181.26 120.12 181.26 121.762V124.499H182.527V125.359H179.041V124.421Z" fill="black"/>
<path d="M192.984 117.696C195.203 117.696 196.945 119.338 196.945 121.527C196.945 123.795 195.203 125.438 192.984 125.438C190.845 125.438 189.023 123.795 189.023 121.527C189.102 119.338 190.845 117.696 192.984 117.696ZM192.984 124.577C194.569 124.577 195.916 123.248 195.916 121.527C195.916 119.807 194.569 118.556 192.984 118.556C191.4 118.556 190.053 119.807 190.053 121.527C190.132 123.248 191.4 124.577 192.984 124.577Z" fill="black"/>
<path d="M197.738 117.852H200.827V118.712H199.718L201.303 123.639C201.382 123.795 201.382 123.874 201.382 124.03C201.382 123.874 201.461 123.795 201.461 123.639L203.362 117.852H204.392L206.294 123.639C206.373 123.795 206.373 123.874 206.373 124.03C206.373 123.874 206.373 123.795 206.452 123.639L208.036 118.712H206.927V117.852H210.017V118.712H209.146L207.007 125.281H205.897L204.075 119.729C203.996 119.573 203.996 119.416 203.996 119.338C203.996 119.26 203.996 119.181 203.996 119.181H203.917C203.917 119.26 203.917 119.338 203.917 119.338C203.838 119.494 203.838 119.573 203.838 119.729L202.016 125.281H200.907L198.768 118.712H197.817V117.852H197.738Z" fill="black"/>
<path d="M211.522 115.741H210.175V114.958H212.473V123.326C212.473 123.952 212.631 124.421 213.344 124.421C213.503 124.421 213.582 124.421 213.661 124.421C213.74 124.421 213.74 124.421 213.74 124.421V125.281H213.582C213.503 125.281 213.344 125.281 213.186 125.281C212.156 125.281 211.522 124.812 211.522 123.404V115.741Z" fill="black"/>
<path d="M218.652 117.696C220.712 117.696 221.821 119.26 221.821 121.136C221.821 121.215 221.821 121.293 221.821 121.449V121.606H216.038C216.117 123.483 217.385 124.577 218.969 124.577C219.682 124.577 220.237 124.343 220.633 124.108C220.87 123.952 221.108 123.795 221.267 123.639L221.742 124.421C221.504 124.577 221.267 124.812 221.029 124.968C220.554 125.281 219.841 125.516 218.969 125.516C216.751 125.516 215.087 123.952 215.087 121.684C214.929 119.181 216.592 117.696 218.652 117.696ZM220.712 120.824C220.633 119.26 219.682 118.556 218.573 118.556C217.305 118.556 216.276 119.338 216.038 120.824H220.712Z" fill="black"/>
<path d="M226.574 117.696C227.446 117.696 228.08 118.087 228.476 118.399C228.713 118.634 228.872 118.869 229.03 119.103C229.03 119.025 229.03 119.025 229.03 118.947C229.03 118.869 229.03 118.712 229.03 118.556V115.741H227.683V114.958H230.06V124.108C230.06 124.343 230.139 124.421 230.377 124.421H231.248V125.281H229.981C229.347 125.281 229.11 124.968 229.11 124.499V124.343C229.11 124.186 229.11 124.108 229.11 124.03V123.874C228.951 124.186 228.793 124.421 228.555 124.656C228.159 125.047 227.525 125.438 226.495 125.438C224.515 125.438 223.247 123.874 223.247 121.606C223.168 119.181 224.594 117.696 226.574 117.696ZM226.574 124.577C227.842 124.577 229.03 123.717 229.03 121.606C229.03 120.12 228.238 118.634 226.654 118.634C225.307 118.634 224.198 119.729 224.198 121.606C224.198 123.404 225.228 124.577 226.574 124.577Z" fill="black"/>
<path d="M233.387 126.924C233.546 127.002 233.784 127.08 234.021 127.158C234.417 127.315 234.893 127.393 235.447 127.393C236.952 127.393 238.062 126.689 238.062 125.047V124.343C238.062 124.186 238.062 124.108 238.062 123.952C238.062 123.874 238.062 123.795 238.062 123.795C237.586 124.656 236.873 125.125 235.685 125.125C233.704 125.125 232.358 123.561 232.358 121.371C232.358 119.181 233.625 117.617 235.606 117.617C236.715 117.617 237.745 118.008 238.141 118.947C238.141 118.947 238.141 118.947 238.141 118.869C238.141 118.79 238.141 118.712 238.141 118.634C238.141 118.087 238.378 117.852 239.012 117.852H240.359V118.712H239.408C239.171 118.712 239.091 118.79 239.091 119.025V125.125C239.091 127.471 237.349 128.409 235.526 128.409C234.655 128.409 233.784 128.175 233.071 127.784L233.387 126.924ZM238.062 121.449C238.062 119.26 237.032 118.634 235.685 118.634C234.18 118.634 233.387 119.651 233.387 121.449C233.387 123.248 234.338 124.343 235.843 124.343C237.032 124.343 238.062 123.561 238.062 121.449Z" fill="black"/>
<path d="M245.112 117.696C247.172 117.696 248.281 119.26 248.281 121.136C248.281 121.215 248.281 121.293 248.281 121.449V121.606H242.498C242.577 123.483 243.845 124.577 245.429 124.577C246.142 124.577 246.697 124.343 247.093 124.108C247.331 123.952 247.568 123.795 247.727 123.639L248.202 124.421C247.964 124.577 247.727 124.812 247.489 124.968C247.014 125.281 246.301 125.516 245.429 125.516C243.211 125.516 241.547 123.952 241.547 121.684C241.389 119.181 243.053 117.696 245.112 117.696ZM247.172 120.824C247.093 119.26 246.142 118.556 245.033 118.556C243.766 118.556 242.736 119.338 242.498 120.824H247.172Z" fill="black"/>
<path d="M250.341 124.03H251.529L250.262 127.158H249.39L250.341 124.03Z" fill="black"/>
<path d="M253.431 124.421H254.777V115.819H253.431V114.958H258.184C258.818 114.958 259.451 115.037 260.006 115.271C261.036 115.741 261.67 116.757 261.67 118.087C261.67 119.494 260.957 120.589 259.768 121.058C259.293 121.215 258.818 121.293 258.184 121.293H255.807V124.499H257.154V125.359H253.351V124.421H253.431ZM258.105 120.276C258.58 120.276 259.055 120.198 259.372 120.042C260.164 119.729 260.64 119.025 260.64 118.008C260.64 117.07 260.244 116.366 259.531 116.053C259.135 115.897 258.659 115.819 258.105 115.819H255.807V120.276H258.105Z" fill="black"/>
<path d="M266.74 117.696C268.958 117.696 270.701 119.338 270.701 121.527C270.701 123.795 268.958 125.438 266.74 125.438C264.601 125.438 262.779 123.795 262.779 121.527C262.858 119.338 264.601 117.696 266.74 117.696ZM266.74 124.577C268.324 124.577 269.671 123.248 269.671 121.527C269.671 119.807 268.324 118.556 266.74 118.556C265.155 118.556 263.809 119.807 263.809 121.527C263.888 123.248 265.155 124.577 266.74 124.577Z" fill="black"/>
<path d="M271.493 117.852H274.583V118.712H273.474L275.058 123.639C275.137 123.795 275.137 123.874 275.137 124.03C275.137 123.874 275.217 123.795 275.217 123.639L277.118 117.852H278.148L280.049 123.639C280.128 123.795 280.128 123.874 280.128 124.03C280.128 123.874 280.128 123.795 280.208 123.639L281.792 118.712H280.683V117.852H283.773V118.712H282.822L280.683 125.281H279.653L277.831 119.729C277.752 119.573 277.752 119.416 277.752 119.338C277.752 119.26 277.752 119.181 277.752 119.181H277.672C277.672 119.26 277.672 119.338 277.672 119.338C277.593 119.494 277.593 119.573 277.593 119.729L275.771 125.281H274.662L272.523 118.712H271.572V117.852H271.493Z" fill="black"/>
<path d="M288.288 117.696C290.348 117.696 291.457 119.26 291.457 121.136C291.457 121.215 291.457 121.293 291.457 121.449V121.606H285.674C285.753 123.483 287.021 124.577 288.605 124.577C289.318 124.577 289.873 124.343 290.269 124.108C290.506 123.952 290.744 123.795 290.903 123.639L291.378 124.421C291.14 124.577 290.903 124.812 290.665 124.968C290.19 125.281 289.477 125.516 288.605 125.516C286.387 125.516 284.723 123.952 284.723 121.684C284.565 119.181 286.228 117.696 288.288 117.696ZM290.348 120.824C290.269 119.26 289.318 118.556 288.209 118.556C286.941 118.556 285.912 119.338 285.674 120.824H290.348Z" fill="black"/>
<path d="M292.883 124.421H294.071V119.025C294.071 118.791 293.992 118.712 293.754 118.712H292.725V117.852H294.151C294.784 117.852 295.022 118.087 295.022 118.712V119.182C295.022 119.338 295.022 119.494 295.022 119.573C295.022 119.651 295.022 119.729 295.022 119.729C295.418 118.634 296.21 117.774 297.399 117.774C297.478 117.774 297.636 117.774 297.716 117.774H297.874V118.791C297.795 118.791 297.795 118.791 297.716 118.791C297.636 118.791 297.557 118.791 297.478 118.791C295.814 118.791 295.101 120.667 295.101 122.153V124.421H296.29V125.281H292.962V124.421H292.883Z" fill="black"/>
<path d="M304.529 119.729C304.212 119.573 303.974 119.416 303.816 119.26C303.42 118.947 303.103 118.321 303.103 117.461C303.103 115.897 304.37 114.88 306.351 114.88C306.668 114.88 306.905 114.88 307.143 114.959C307.301 114.959 307.381 115.037 307.539 115.037L307.222 115.897L306.905 115.819C306.747 115.819 306.588 115.741 306.351 115.741C305.083 115.741 304.133 116.444 304.133 117.539C304.133 118.243 304.449 119.416 306.43 119.416H308.886V117.93H309.916V119.416H311.342V120.276H309.916V121.84C309.916 124.343 308.49 125.594 306.272 125.594C304.053 125.594 302.627 124.265 302.627 122.544C302.627 121.215 303.261 120.042 304.529 119.729ZM306.272 124.499C307.777 124.499 308.807 123.717 308.807 121.684V120.198H306.272C304.449 120.198 303.578 121.058 303.578 122.31C303.657 123.561 304.608 124.499 306.272 124.499Z" fill="black"/>
<path d="M316.174 124.421H317.521V115.819H316.174V114.958H320.69C321.403 114.958 321.957 115.037 322.512 115.193C323.542 115.584 324.176 116.444 324.176 117.774C324.176 119.338 323.304 120.433 321.878 120.667L322.037 120.746C322.116 120.824 322.195 120.902 322.274 121.058L324.017 124.03C324.176 124.343 324.334 124.343 324.73 124.343H325.047V125.203H324.493C323.621 125.203 323.383 125.047 323.067 124.421L321.324 121.449C321.086 120.98 320.848 120.824 320.135 120.824H318.63V124.343H319.977V125.203H316.174V124.421ZM321.086 119.963C322.354 119.963 323.225 119.103 323.225 117.774C323.225 116.835 322.829 116.21 322.116 115.975C321.72 115.819 321.244 115.819 320.769 115.819H318.709V120.042H321.086V119.963Z" fill="black"/>
<path d="M329.8 117.696C331.86 117.696 332.969 119.26 332.969 121.136C332.969 121.215 332.969 121.293 332.969 121.449V121.606H327.186C327.265 123.483 328.533 124.577 330.117 124.577C330.83 124.577 331.385 124.343 331.781 124.108C332.019 123.952 332.256 123.795 332.415 123.639L332.89 124.421C332.652 124.577 332.415 124.812 332.177 124.968C331.702 125.281 330.989 125.516 330.117 125.516C327.899 125.516 326.235 123.952 326.235 121.684C326.156 119.181 327.82 117.696 329.8 117.696ZM331.86 120.824C331.781 119.26 330.83 118.556 329.721 118.556C328.454 118.556 327.424 119.338 327.186 120.824H331.86Z" fill="black"/>
<path d="M334.316 122.935H335.267V123.483C335.267 124.265 336.376 124.577 337.247 124.577C338.198 124.577 338.99 124.186 338.99 123.404C338.99 122.544 338.04 122.231 336.93 121.84C335.821 121.371 334.633 120.98 334.633 119.651C334.633 118.321 335.98 117.696 337.247 117.696C338.277 117.696 339.703 118.087 339.703 119.103V119.963H338.753V119.416C338.753 118.869 338.04 118.556 337.247 118.556C336.376 118.556 335.663 118.947 335.663 119.651C335.663 120.433 336.534 120.824 337.564 121.136C338.753 121.527 340.02 121.997 340.02 123.326C340.02 124.577 338.832 125.438 337.168 125.438C335.821 125.438 334.316 124.812 334.316 123.717V122.935Z" fill="black"/>
<path d="M341.288 124.421H342.555V118.712H341.208V117.852H343.585V124.421H344.853V125.281H341.288V124.421ZM342.555 114.958H343.664V116.21H342.555V114.958Z" fill="black"/>
<path d="M345.962 122.935H346.912V123.483C346.912 124.265 348.021 124.577 348.893 124.577C349.844 124.577 350.636 124.186 350.636 123.404C350.636 122.544 349.685 122.231 348.576 121.84C347.467 121.371 346.279 120.98 346.279 119.651C346.279 118.321 347.625 117.696 348.893 117.696C349.923 117.696 351.349 118.087 351.349 119.103V119.963H350.398V119.416C350.398 118.869 349.685 118.556 348.893 118.556C348.021 118.556 347.308 118.947 347.308 119.651C347.308 120.433 348.18 120.824 349.21 121.136C350.398 121.527 351.666 121.997 351.666 123.326C351.666 124.577 350.477 125.438 348.814 125.438C347.467 125.438 345.962 124.812 345.962 123.717V122.935Z" fill="black"/>
<path d="M353.884 118.712H352.537V117.852H353.884V115.819H354.914V117.852H356.815V118.712H354.914V122.466C354.914 124.187 356.023 124.421 356.577 124.421C356.736 124.421 356.815 124.421 356.815 124.421H356.894V125.281C356.815 125.281 356.815 125.281 356.736 125.281C356.657 125.281 356.577 125.281 356.419 125.281C355.548 125.281 353.805 124.969 353.805 122.544V118.712H353.884Z" fill="black"/>
<path d="M362.44 120.746H362.915V120.433C362.915 119.025 362.123 118.556 361.093 118.556C360.459 118.556 359.905 118.712 359.509 118.947C359.271 119.025 359.113 119.182 358.875 119.338L358.4 118.556C358.637 118.4 358.875 118.243 359.113 118.165C359.588 117.93 360.222 117.774 361.093 117.774C362.915 117.774 363.866 118.712 363.866 120.589V124.265C363.866 124.499 363.945 124.578 364.183 124.578H364.975V125.438H363.787C363.153 125.438 362.915 125.125 362.915 124.656V124.343C362.915 124.187 362.915 124.03 362.915 123.952C362.915 123.874 362.915 123.874 362.915 123.796C362.757 124.108 362.598 124.421 362.361 124.656C361.965 125.047 361.331 125.516 360.38 125.516C359.113 125.516 357.845 124.812 357.845 123.326C357.924 120.824 361.172 120.746 362.44 120.746ZM360.539 124.578C362.044 124.578 362.915 123.092 362.915 121.762V121.371H362.519C361.885 121.371 358.954 121.293 358.954 123.014C358.954 123.874 359.509 124.578 360.539 124.578Z" fill="black"/>
<path d="M366.163 124.421H367.431V119.025C367.431 118.79 367.352 118.712 367.114 118.712H366.084V117.852H367.51C368.144 117.852 368.381 118.165 368.381 118.712V119.103C368.381 119.26 368.381 119.338 368.381 119.494V119.651C368.54 119.103 369.57 117.696 371.471 117.696C373.293 117.696 373.927 118.712 373.927 120.589V124.499H375.195V125.359H372.897V120.902C372.897 119.729 372.739 118.712 371.233 118.712C369.57 118.712 368.381 120.12 368.381 121.762V124.499H369.649V125.359H366.084V124.421H366.163Z" fill="black"/>
<path d="M380.106 117.696C381.057 117.696 382.879 118.087 382.879 119.26V120.042H381.928V119.494C381.928 118.869 380.819 118.556 380.106 118.556C378.522 118.556 377.254 119.729 377.254 121.527C377.254 123.326 378.601 124.499 380.186 124.499C381.611 124.499 382.562 123.561 382.641 123.483L383.037 124.265C382.879 124.421 381.849 125.438 380.106 125.438C377.967 125.438 376.145 123.952 376.145 121.606C376.224 119.26 377.967 117.696 380.106 117.696Z" fill="black"/>
<path d="M388.108 117.696C390.167 117.696 391.277 119.26 391.277 121.136C391.277 121.215 391.277 121.293 391.277 121.449V121.606H385.493C385.573 123.483 386.84 124.577 388.425 124.577C389.138 124.577 389.692 124.343 390.088 124.108C390.326 123.952 390.564 123.795 390.722 123.639L391.197 124.421C390.96 124.577 390.722 124.812 390.484 124.968C390.009 125.281 389.296 125.516 388.425 125.516C386.206 125.516 384.543 123.952 384.543 121.684C384.384 119.181 386.048 117.696 388.108 117.696ZM390.167 120.824C390.088 119.26 389.138 118.556 388.028 118.556C386.761 118.556 385.731 119.338 385.493 120.824H390.167Z" fill="black"/>
<path d="M70.1905 70.2264L58.5449 78.8287L49.5136 67.7239L61.1592 59.1216L70.1905 70.2264Z" fill="black"/>
<path d="M61.8722 53.491L54.4254 59.0434L51.0188 61.5459L43.7304 66.9419L57.8319 84.4594L76.0529 71.0084L61.8722 53.491ZM47.6915 67.4893L61.3969 57.4011L72.0126 70.5392L58.3865 80.5492L47.6915 67.4893Z" fill="black"/>
<path d="M49.4344 60.9202C49.4344 60.9202 48.563 56.3844 53.6332 57.4793C53.6332 57.4793 54.8215 57.2447 54.1877 56.619C53.554 56.0716 47.6915 54.8986 48.563 60.6856C48.563 60.7638 49.0383 61.3894 49.4344 60.9202Z" fill="black"/>
<path d="M50.9396 62.0932L51.2565 58.7305L54.9799 59.1215L50.9396 62.0932Z" fill="black"/>
<path d="M47.2954 41.5259C52.502 41.5259 56.7228 37.3594 56.7228 32.2197C56.7228 27.0801 52.502 22.9136 47.2954 22.9136C42.0888 22.9136 37.868 27.0801 37.868 32.2197C37.868 37.3594 42.0888 41.5259 47.2954 41.5259Z" fill="black"/>
<path d="M70.0321 14.3894C74.0574 14.3894 77.3205 11.1682 77.3205 7.19468C77.3205 3.22117 74.0574 0 70.0321 0C66.0068 0 62.7437 3.22117 62.7437 7.19468C62.7437 11.1682 66.0068 14.3894 70.0321 14.3894Z" fill="black"/>
<path d="M20.1223 38.6322C23.7976 38.6322 26.777 35.6912 26.777 32.0632C26.777 28.4352 23.7976 25.4941 20.1223 25.4941C16.4471 25.4941 13.4677 28.4352 13.4677 32.0632C13.4677 35.6912 16.4471 38.6322 20.1223 38.6322Z" fill="black"/>
<path d="M25.8263 48.7204C27.3139 48.7204 28.5199 47.53 28.5199 46.0615C28.5199 44.593 27.3139 43.4026 25.8263 43.4026C24.3387 43.4026 23.1328 44.593 23.1328 46.0615C23.1328 47.53 24.3387 48.7204 25.8263 48.7204Z" fill="black"/>
<path d="M12.6755 61.4675C16.0882 61.4675 18.8548 58.7365 18.8548 55.3677C18.8548 51.9988 16.0882 49.2678 12.6755 49.2678C9.26275 49.2678 6.49619 51.9988 6.49619 55.3677C6.49619 58.7365 9.26275 61.4675 12.6755 61.4675Z" fill="black"/>
<path d="M32.3225 81.331C35.7352 81.331 38.5018 78.6 38.5018 75.2312C38.5018 71.8623 35.7352 69.1313 32.3225 69.1313C28.9098 69.1313 26.1432 71.8623 26.1432 75.2312C26.1432 78.6 28.9098 81.331 32.3225 81.331Z" fill="black"/>
<path d="M14.4184 100.569C17.0873 100.569 19.2509 98.4333 19.2509 95.7987C19.2509 93.1641 17.0873 91.0283 14.4184 91.0283C11.7494 91.0283 9.58585 93.1641 9.58585 95.7987C9.58585 98.4333 11.7494 100.569 14.4184 100.569Z" fill="black"/>
<path d="M46.9785 122.544C49.2537 122.544 51.0981 120.723 51.0981 118.477C51.0981 116.232 49.2537 114.411 46.9785 114.411C44.7034 114.411 42.859 116.232 42.859 118.477C42.859 120.723 44.7034 122.544 46.9785 122.544Z" fill="black"/>
<path d="M36.9966 117.539C37.7404 117.539 38.3434 116.944 38.3434 116.21C38.3434 115.475 37.7404 114.88 36.9966 114.88C36.2528 114.88 35.6498 115.475 35.6498 116.21C35.6498 116.944 36.2528 117.539 36.9966 117.539Z" fill="black"/>
<path d="M68.923 138.028C72.5107 138.028 75.4192 135.157 75.4192 131.616C75.4192 128.074 72.5107 125.203 68.923 125.203C65.3352 125.203 62.4268 128.074 62.4268 131.616C62.4268 135.157 65.3352 138.028 68.923 138.028Z" fill="black"/>
<path d="M49.276 135.213C52.4262 135.213 54.9799 132.692 54.9799 129.582C54.9799 126.473 52.4262 123.952 49.276 123.952C46.1258 123.952 43.572 126.473 43.572 129.582C43.572 132.692 46.1258 135.213 49.276 135.213Z" fill="black"/>
<path d="M40.4824 125.829C41.3574 125.829 42.0668 125.128 42.0668 124.264C42.0668 123.401 41.3574 122.7 40.4824 122.7C39.6073 122.7 38.8979 123.401 38.8979 124.264C38.8979 125.128 39.6073 125.829 40.4824 125.829Z" fill="black"/>
<path d="M67.1009 161.724C70.7324 161.724 73.6763 158.818 73.6763 155.233C73.6763 151.648 70.7324 148.742 67.1009 148.742C63.4694 148.742 60.5255 151.648 60.5255 155.233C60.5255 158.818 63.4694 161.724 67.1009 161.724Z" fill="black"/>
<path d="M72.2503 146.083C74.0004 146.083 75.4192 144.683 75.4192 142.955C75.4192 141.227 74.0004 139.827 72.2503 139.827C70.5002 139.827 69.0814 141.227 69.0814 142.955C69.0814 144.683 70.5002 146.083 72.2503 146.083Z" fill="black"/>
<path d="M53.0786 148.273C54.8725 148.273 56.3267 146.837 56.3267 145.067C56.3267 143.296 54.8725 141.86 53.0786 141.86C51.2847 141.86 49.8305 143.296 49.8305 145.067C49.8305 146.837 51.2847 148.273 53.0786 148.273Z" fill="black"/>
<path d="M46.9785 143.502C47.7223 143.502 48.3253 142.907 48.3253 142.173C48.3253 141.439 47.7223 140.844 46.9785 140.844C46.2347 140.844 45.6318 141.439 45.6318 142.173C45.6318 142.907 46.2347 143.502 46.9785 143.502Z" fill="black"/>
<path d="M59.9709 169.075C61.4585 169.075 62.6645 167.884 62.6645 166.416C62.6645 164.948 61.4585 163.757 59.9709 163.757C58.4833 163.757 57.2774 164.948 57.2774 166.416C57.2774 167.884 58.4833 169.075 59.9709 169.075Z" fill="black"/>
<path d="M73.2802 188C74.024 188 74.6269 187.405 74.6269 186.671C74.6269 185.936 74.024 185.341 73.2802 185.341C72.5364 185.341 71.9334 185.936 71.9334 186.671C71.9334 187.405 72.5364 188 73.2802 188Z" fill="black"/>
<path d="M69.7152 33.08C72.7779 33.08 75.2607 30.6291 75.2607 27.6058C75.2607 24.5825 72.7779 22.1316 69.7152 22.1316C66.6525 22.1316 64.1697 24.5825 64.1697 27.6058C64.1697 30.6291 66.6525 33.08 69.7152 33.08Z" fill="black"/>
<path d="M55.4553 11.6523C58.1242 11.6523 60.2878 9.51657 60.2878 6.88196C60.2878 4.24735 58.1242 2.11157 55.4553 2.11157C52.7863 2.11157 50.6227 4.24735 50.6227 6.88196C50.6227 9.51657 52.7863 11.6523 55.4553 11.6523Z" fill="black"/>
<path d="M34.1446 26.2763C37.5573 26.2763 40.3239 23.5453 40.3239 20.1765C40.3239 16.8076 37.5573 14.0767 34.1446 14.0767C30.7319 14.0767 27.9653 16.8076 27.9653 20.1765C27.9653 23.5453 30.7319 26.2763 34.1446 26.2763Z" fill="black"/>
<path d="M27.8069 123.483C30.8696 123.483 33.3524 121.032 33.3524 118.008C33.3524 114.985 30.8696 112.534 27.8069 112.534C24.7442 112.534 22.2613 114.985 22.2613 118.008C22.2613 121.032 24.7442 123.483 27.8069 123.483Z" fill="black"/>
<path d="M29.5497 66.3943C34.0125 66.3943 37.6304 62.823 37.6304 58.4176C37.6304 54.0122 34.0125 50.4409 29.5497 50.4409C25.0869 50.4409 21.4691 54.0122 21.4691 58.4176C21.4691 62.823 25.0869 66.3943 29.5497 66.3943Z" fill="black"/>
<path d="M42.146 104.714C47.3526 104.714 51.5734 100.547 51.5734 95.4077C51.5734 90.2681 47.3526 86.1016 42.146 86.1016C36.9394 86.1016 32.7186 90.2681 32.7186 95.4077C32.7186 100.547 36.9394 104.714 42.146 104.714Z" fill="black"/>
<path d="M64.4073 124.89C70.489 124.89 75.4192 120.024 75.4192 114.02C75.4192 108.017 70.489 103.15 64.4073 103.15C58.3257 103.15 53.3955 108.017 53.3955 114.02C53.3955 120.024 58.3257 124.89 64.4073 124.89Z" fill="black"/>
<path d="M7.20919 84.6158C11.1907 84.6158 14.4184 81.4296 14.4184 77.4993C14.4184 73.569 11.1907 70.3828 7.20919 70.3828C3.22766 70.3828 0 73.569 0 77.4993C0 81.4296 3.22766 84.6158 7.20919 84.6158Z" fill="black"/>
<path d="M70.1905 172.203C72.7282 172.203 74.7854 170.172 74.7854 167.667C74.7854 165.162 72.7282 163.132 70.1905 163.132C67.6529 163.132 65.5957 165.162 65.5957 167.667C65.5957 170.172 67.6529 172.203 70.1905 172.203Z" fill="black"/>
<path d="M72.0919 181.9C73.9295 181.9 75.4192 180.43 75.4192 178.616C75.4192 176.802 73.9295 175.331 72.0919 175.331C70.2542 175.331 68.7645 176.802 68.7645 178.616C68.7645 180.43 70.2542 181.9 72.0919 181.9Z" fill="black"/>
<path d="M59.0203 141.938C58.3073 141.469 57.4358 141.156 56.8813 140.531C56.0098 139.514 55.2968 138.263 53.5539 139.436C55.5345 137.324 57.4358 137.637 59.4164 139.749C59.2579 136.542 59.0995 133.727 60.0501 131.068C60.2086 131.068 60.2878 130.99 60.4462 130.99C60.6839 131.537 61.1592 132.085 61.1592 132.554C61.2385 134.509 61.1592 136.464 61.1592 138.497C61.1592 139.749 60.9216 140.844 59.9709 141.704C59.7332 141.782 59.4164 141.86 59.0203 141.938Z" fill="black"/>
<path d="M17.6665 79.1413C16.4781 77.0298 16.3989 74.9966 18.221 73.1979C18.221 73.0415 18.221 72.9633 18.1418 72.9633C16.6366 70.6954 17.1911 69.6006 20.36 68.8967C20.4392 68.9749 20.5185 68.9749 20.5185 69.0531C20.5185 69.4442 20.5185 69.757 20.5185 69.9916C19.647 70.2262 18.8548 70.3826 17.7457 70.6954C18.934 71.6338 19.8055 72.3377 20.9146 73.1979C19.9639 73.5889 19.1717 73.9799 18.4587 74.2145C17.3496 74.6055 17.0327 75.3876 17.508 76.2478C18.0626 77.2645 18.934 78.1247 19.647 79.0631C19.9639 79.4541 20.1223 79.9234 20.36 80.3926C20.1223 80.7054 19.9639 81.1746 19.4093 80.6272C18.934 80.0798 18.221 79.6887 17.6665 79.1413Z" fill="black"/>
<path d="M58.3865 174.236C60.1294 172.125 63.0606 171.577 65.1203 173.22C63.2982 173.767 61.7138 174.236 60.0501 174.705C60.0501 174.94 60.1294 175.096 60.1294 175.331C61.3177 175.566 62.506 175.722 63.6943 175.957C64.8034 176.191 65.8333 176.582 65.8333 177.99C65.7541 179.241 64.8034 179.867 63.0606 179.945C63.4567 179.319 63.8528 178.772 64.1697 178.303C62.3476 177.286 60.6839 176.348 58.941 175.409C58.7034 175.018 58.5449 174.627 58.3865 174.236Z" fill="black"/>
<path d="M32.3225 48.173C31.6887 47.782 30.9757 47.3127 30.342 46.9217C30.5004 46.6089 30.7381 46.2961 30.8965 45.9833C32.0056 45.6705 33.0355 45.4359 34.1446 45.1231C36.2044 44.4974 36.6005 43.7154 36.2044 41.1347C35.8083 38.7886 35.4914 36.4425 35.1745 34.0964C35.3329 34.0964 35.4122 34.0964 35.5706 34.0964C35.9667 36.6771 36.442 39.2578 36.8381 41.8385C37.3927 45.9051 37.4719 47.2345 33.9069 47.8602C33.7485 47.8602 33.5901 48.0948 33.5108 48.173C33.0355 48.173 32.6394 48.173 32.3225 48.173Z" fill="black"/>
<path d="M52.6825 19.6289C53.3955 18.3777 54.1085 17.2046 54.9007 15.9534C55.0592 16.0316 55.1384 16.1098 55.2968 16.188C54.9007 16.8918 54.5046 17.5174 54.2669 18.2213C53.8708 18.8469 53.8708 19.6289 53.7916 20.3327C54.5046 20.4109 55.2968 20.6455 55.9306 20.4891C57.6735 20.1763 59.4164 19.7071 61.1592 19.3161C61.0008 21.3494 59.9709 22.6788 57.9111 23.3045C57.3566 23.4609 56.802 23.6173 56.2475 23.7737C56.0098 23.7737 55.8514 23.7737 55.6137 23.7737C54.2669 23.3045 53.2371 22.5224 52.6825 21.193C52.6825 20.7238 52.6825 20.1763 52.6825 19.6289Z" fill="black"/>
<path d="M61.08 19.316C60.7631 18.7686 60.4462 18.0648 59.9709 17.6738C58.7826 16.6571 57.515 15.7969 56.1683 14.7803C56.4852 14.1546 56.7228 13.529 57.0397 12.8252C59.3371 13.92 61.08 15.2495 61.6346 17.6738C61.6346 17.752 61.6346 17.9084 61.6346 17.9866C61.5554 18.4558 61.3177 18.8468 61.08 19.316Z" fill="black"/>
<path d="M25.2718 109.406C25.2718 109.171 25.2718 108.859 25.351 108.78C27.9653 107.685 30.6588 106.669 33.3524 105.574C33.3524 106.825 33.0355 107.764 31.8472 108.155C30.1043 108.702 28.3614 109.171 26.5393 109.719C26.1432 109.641 25.6679 109.562 25.2718 109.406Z" fill="black"/>
<path d="M24.5588 101.977C27.0146 102.524 29.5497 103.071 32.0056 103.619C32.9563 103.853 33.4316 104.244 33.4316 105.496C31.5303 103.932 29.3913 104.479 27.4108 104.166C26.3809 104.01 25.351 103.306 24.4003 102.837C24.4003 102.602 24.4795 102.289 24.5588 101.977Z" fill="black"/>
</g>
<defs>
<clipPath id="clip0_200_1121">
<rect width="395" height="188" fill="white"/>
</clipPath>
</defs>
</svg>
