<svg width="458" height="79" viewBox="0 0 458 79" fill="none" xmlns="http://www.w3.org/2000/svg">
<path d="M21.0173 0.588409C21.4896 0.588409 22.08 0.588408 22.6703 0.706083C23.3788 0.823758 24.6776 1.05911 26.8029 1.52981C28.8102 2.00051 30.8175 2.58888 32.7067 3.41261C34.5959 4.11866 36.6031 5.29541 38.8465 6.94287C41.09 8.47265 43.0972 10.3555 44.7503 12.4736C46.4033 14.5918 47.7021 17.2983 48.8829 20.5932C49.9456 23.8881 50.5359 27.536 50.5359 31.6547C50.5359 44.1283 45.5768 52.8362 35.7766 57.8963C33.5332 58.9554 31.1717 59.8968 28.8102 60.6028C26.3306 61.3089 24.4414 61.6619 23.0245 61.7796L20.8992 61.8972H0C0 61.8972 0.118071 61.8972 0.236146 61.8972C0.35422 61.8972 0.472297 61.7796 0.708446 61.6619C0.944595 61.5442 1.18074 61.4265 1.29882 61.3089C1.53497 61.1912 1.77112 60.9558 2.00726 60.7205C2.24341 60.4851 2.47956 60.1321 2.59764 59.8968C2.71571 59.6614 2.95186 59.3084 3.06994 58.8377C3.18801 58.367 3.30608 57.8963 3.30608 57.5433V5.17774C3.30608 4.47169 3.18801 3.88331 2.95187 3.29494C2.71572 2.70656 2.47956 2.35354 2.12534 2.00051C1.77111 1.64748 1.4169 1.41214 1.18075 1.17679C0.826522 0.941435 0.590368 0.823758 0.354218 0.706083L0 0.588409H21.0173ZM21.0173 57.6609C21.2534 57.6609 21.7257 57.5433 22.198 57.5433C22.6703 57.5433 23.733 57.3079 25.1499 56.8372C26.5668 56.3665 27.9837 55.8958 29.4006 55.1898C30.8175 54.4837 32.2344 53.5423 33.8874 52.1302C35.5405 50.7181 36.9574 49.1883 38.1381 47.4232C39.3188 45.6581 40.3815 43.3045 41.09 40.4803C41.9165 37.6561 42.2707 34.4789 42.2707 30.9486C42.2707 27.3007 41.9165 24.1235 41.09 21.2993C40.2634 18.4751 39.3189 16.1215 38.02 14.2387C36.7212 12.4736 35.3043 10.9438 33.7693 9.64941C32.2344 8.35498 30.6994 7.41357 29.1644 6.8252C27.6295 6.23682 26.2126 5.76612 25.0318 5.4131C23.733 5.06007 22.7884 4.94239 21.9619 4.82472L20.7811 4.70705H15.3497C14.6413 4.70705 13.9328 4.82471 13.4605 5.17774C12.8701 5.41309 12.5159 5.76612 12.2798 6.11915C12.0436 6.47217 11.8075 6.94287 11.6894 7.41357C11.5713 7.88427 11.4532 8.2373 11.4532 8.35498C11.4532 8.59033 11.4532 8.708 11.4532 8.94336V53.5423C11.4532 53.66 11.4532 53.8953 11.4532 54.1307C11.4532 54.366 11.5713 54.719 11.6894 55.1898C11.8075 55.6604 12.0436 56.0135 12.2798 56.3665C12.5159 56.7195 12.9882 56.9549 13.4605 57.3079C14.0509 57.5433 14.6413 57.7786 15.3497 57.7786L21.0173 57.6609Z" fill="#E7427E"/>
<path d="M90.209 53.1893L93.1609 57.6609C92.6886 58.0139 91.9801 58.367 91.1536 58.9553C90.3271 59.426 88.556 60.1321 85.8403 60.9558C83.1245 61.7795 80.2908 62.2502 77.575 62.2502C75.5678 62.2502 73.5605 62.0149 71.5532 61.5442C69.546 61.0735 67.4206 60.2498 65.4133 59.1907C63.288 58.0139 61.5169 56.7195 59.8638 54.9544C58.2108 53.3069 56.912 51.1888 55.9674 48.4822C55.0228 45.7757 54.4324 42.8338 54.4324 39.6566C54.4324 36.244 54.9047 33.3021 55.8493 30.5956C56.7939 27.8891 58.0927 25.7709 59.5096 24.1235C61.0446 22.476 62.6976 21.0639 64.7049 20.0048C66.5941 18.9457 68.4833 18.122 70.3725 17.6513C72.1436 17.1806 73.9147 16.9453 75.6858 16.9453C78.0473 16.9453 80.1727 17.1806 82.0619 17.6513C83.9511 18.122 85.486 18.7104 86.6668 19.5341C87.8475 20.3578 88.7921 21.1816 89.7367 22.2406C90.6813 23.182 91.2717 24.2411 91.6259 25.3002C91.9801 26.3593 92.2163 27.4184 92.4524 28.3598C92.6886 29.4188 92.8066 30.3602 92.6886 31.184C92.5705 32.0077 92.5705 32.7137 92.5705 33.3021C92.3344 36.0087 91.5078 38.3622 90.209 40.4803C88.9102 42.5985 87.2572 44.3636 85.486 45.5404C83.7149 46.8348 81.5896 47.8939 79.2281 48.7176C76.8666 49.659 74.6232 50.2474 72.6159 50.6004C70.6086 50.9534 68.4833 51.1888 66.476 51.3064C67.1845 52.4832 67.8929 53.5423 68.7194 54.366C69.546 55.1897 70.4905 56.0135 71.4351 56.7195C72.3797 57.3079 73.4424 57.8963 74.5051 58.2493C75.5678 58.6023 76.7485 58.8377 77.9292 58.8377C78.9919 58.8377 80.1727 58.72 81.1173 58.4846C82.1799 58.2493 83.1245 58.0139 83.9511 57.6609C84.7776 57.3079 85.486 56.9549 86.3126 56.6018C87.021 56.1311 87.7295 55.7781 88.2018 55.4251C88.674 55.0721 89.1463 54.719 89.5006 54.366C89.8548 54.013 90.209 53.7776 90.3271 53.66L90.209 53.1893ZM75.5678 20.2402C72.1436 21.4169 69.1917 23.6528 66.7122 27.0653C64.2326 30.4779 62.9338 34.5966 62.9338 39.5389C62.9338 42.5985 63.5242 45.5404 64.5868 48.2469C67.3025 47.8939 70.2544 46.9525 73.2063 45.4227C76.1581 43.8929 78.7558 41.8924 80.9992 39.5389C83.7149 36.3617 85.486 33.0668 86.0764 29.5365C86.6668 26.0063 85.9583 23.2997 84.0691 21.4169C82.1799 19.5341 79.3461 19.0634 75.5678 20.2402Z" fill="#E7427E"/>
<path d="M127.639 58.8377C130.354 58.8377 133.07 58.4846 135.55 57.8963C138.029 57.1902 140.037 56.4842 141.571 55.5428C143.106 54.6013 144.523 53.6599 145.586 52.6009C146.767 51.6595 147.475 50.8357 147.948 50.2474C148.42 49.659 148.656 49.306 148.656 49.306L150.781 51.4241C147.948 54.719 144.405 57.1902 140.509 59.073C136.494 60.9558 132.244 61.8972 127.639 61.8972C122.089 61.8972 116.894 60.4851 112.053 57.7786C107.33 55.0721 103.551 51.3064 100.718 46.4818C98.0019 41.7747 96.5851 36.597 96.5851 30.9486C96.5851 25.3002 98.0019 20.1225 100.718 15.4155C103.433 10.5908 107.212 6.82517 112.053 4.11864C116.776 1.41211 121.971 0 127.639 0C132.244 0 136.73 0.941407 140.745 2.94189C144.878 4.82469 148.302 7.53122 151.254 10.9438L145.94 15.5331C143.933 11.6499 141.335 8.47262 138.029 6.11912C134.841 3.76561 131.299 2.58886 127.521 2.58886C123.624 2.58886 119.964 3.88328 116.658 6.35446C113.352 8.82565 110.636 12.2382 108.747 16.5922C106.858 20.9462 105.795 25.6532 105.795 30.7133C105.795 35.7733 106.739 40.4803 108.747 44.8343C110.636 49.1883 113.352 52.6009 116.658 55.072C120.082 57.5432 123.624 58.8377 127.639 58.8377Z" fill="#652A7A"/>
<path d="M159.637 23.4174C164.124 18.9457 169.437 16.8275 175.695 16.8275C181.953 16.8275 187.384 19.0634 191.753 23.4174C196.24 27.889 198.483 33.1844 198.483 39.4212C198.483 45.658 196.24 51.0711 191.753 55.425C187.266 59.8967 181.953 62.0149 175.695 62.0149C169.437 62.0149 164.124 59.779 159.637 55.425C155.15 50.9534 153.025 45.658 153.025 39.4212C153.025 33.1844 155.15 27.889 159.637 23.4174ZM166.131 53.0715C168.847 56.8372 172.035 58.72 175.695 58.72C179.355 58.72 182.661 56.8372 185.259 53.0715C187.975 49.3059 189.274 44.7166 189.274 39.4212C189.274 34.1258 187.975 29.5365 185.259 25.7709C182.543 22.0053 179.355 20.1225 175.695 20.1225C172.035 20.1225 168.729 22.0053 166.131 25.7709C163.415 29.5365 162.116 34.1258 162.116 39.4212C162.116 44.7166 163.415 49.4236 166.131 53.0715Z" fill="#652A7A"/>
<path d="M229.773 61.6618C229.773 61.6618 229.891 61.6618 230.127 61.5442C230.364 61.4265 230.6 61.3088 230.954 61.0735C231.308 60.8381 231.662 60.6028 231.899 60.2497C232.135 59.8967 232.371 59.5437 232.607 58.9553C232.843 58.3669 232.961 57.7786 232.961 57.0725V34.3612C232.961 32.596 232.961 31.1839 232.843 30.0072C232.725 28.8304 232.607 27.536 232.253 26.1239C231.899 24.7118 231.544 23.6527 230.954 22.7113C230.364 21.8876 229.537 21.1815 228.474 20.5932C227.412 20.0048 225.995 19.7694 224.46 19.7694C223.161 19.7694 221.98 20.1225 220.918 20.7108C219.855 21.2992 218.91 22.0053 218.202 22.829C217.493 23.6527 216.785 24.7118 216.195 25.8885C215.604 27.0653 215.132 28.1244 214.778 29.0658C214.423 30.0072 214.069 31.0663 213.833 32.1253C213.597 33.1844 213.479 33.8905 213.361 34.3612C213.361 34.7142 213.243 35.0672 213.243 35.3026V57.1902C213.243 58.2493 213.479 59.1907 214.069 59.8967C214.542 60.6028 215.132 61.0735 215.722 61.3088L216.431 61.6618H201.908C202.026 61.6618 202.144 61.6618 202.262 61.5442C202.38 61.4265 202.616 61.3088 202.97 61.0735C203.324 60.8381 203.679 60.6028 203.915 60.2497C204.151 59.8967 204.505 59.5437 204.741 58.9553C204.978 58.3669 205.096 57.7786 205.096 57.0725V22.0053C205.096 21.5346 204.978 21.0639 204.859 20.5932C204.741 20.1225 204.505 19.7694 204.387 19.5341C204.151 19.181 204.033 18.9457 203.797 18.7103C203.561 18.475 203.324 18.2396 203.088 18.122C202.852 18.0043 202.616 17.8866 202.498 17.7689C202.262 17.6513 202.144 17.6513 202.026 17.5336L201.908 17.4159H213.361V27.0653C215.84 20.0048 220.209 16.4745 226.349 16.4745C228.947 16.4745 231.19 16.8275 233.079 17.5336C234.968 18.2396 236.385 19.181 237.448 20.2401C238.511 21.2992 239.337 22.7113 239.928 24.2411C240.518 25.8885 240.99 27.3006 241.108 28.7127C241.345 30.1248 241.345 31.6546 241.345 33.3021V57.0725C241.345 58.1316 241.581 59.073 242.171 59.779C242.643 60.4851 243.234 60.9558 243.824 61.1911L244.533 61.5442H229.773V61.6618Z" fill="#652A7A"/>
<path d="M289.991 73.9001C289.991 74.6061 290.109 75.1945 290.345 75.6652C290.582 76.2536 290.818 76.6066 291.172 76.9596C291.526 77.3126 291.762 77.548 292.117 77.7833C292.471 78.0187 292.825 78.254 293.297 78.3717H278.656C278.774 78.3717 278.892 78.3717 279.01 78.2541C279.128 78.1364 279.365 78.0187 279.719 77.7833C280.073 77.548 280.427 77.3126 280.663 76.9596C280.9 76.6066 281.254 76.1359 281.49 75.6652C281.726 75.0768 281.844 74.4884 281.844 73.9001V53.5422C279.246 59.1907 274.642 62.0149 268.029 62.0149C265.786 62.0149 263.779 61.7795 261.89 61.1911C260 60.7204 258.465 60.0144 257.167 59.073C255.868 58.2493 254.687 57.1902 253.624 56.1311C252.562 55.072 251.735 53.8953 251.027 52.6008C250.318 51.3064 249.846 50.1297 249.374 48.8352C248.901 47.5408 248.547 46.364 248.311 45.305C248.075 44.2459 247.957 43.1868 247.721 42.3631C247.602 41.5394 247.484 40.8333 247.484 40.3626V39.5389C247.484 39.1859 247.366 38.7152 247.366 38.2445C247.366 37.6561 247.366 36.597 247.484 35.0672C247.602 33.4198 247.839 31.89 248.193 30.4779C248.547 29.0658 249.137 27.4183 249.964 25.5355C250.79 23.7704 251.853 22.2406 253.152 20.9462C254.451 19.6517 256.104 18.5927 258.229 17.7689C260.355 16.8275 262.834 16.4745 265.668 16.4745C273.461 16.4745 278.892 20.1224 281.844 27.3006V17.5336L293.297 22.9467H293.179C293.179 22.9467 293.061 23.0643 292.943 23.0643C292.825 23.0643 292.707 23.182 292.471 23.2997C292.235 23.4174 292.117 23.535 291.999 23.6527C291.762 23.7704 291.644 23.8881 291.408 24.1234C291.172 24.3588 291.054 24.4764 290.936 24.7118C290.818 24.9471 290.582 25.1825 290.464 25.4178C290.345 25.6532 290.227 26.0062 290.227 26.3592C290.109 26.7123 290.109 27.0653 290.109 27.4183V73.9001H289.991ZM281.844 43.3045V36.597C281.726 35.3026 281.608 34.0081 281.372 32.7137C281.136 31.4193 280.781 30.0072 280.073 28.4774C279.483 26.9476 278.656 25.5355 277.83 24.3588C276.885 23.182 275.704 22.2406 274.169 21.4169C272.634 20.5932 270.863 20.2401 268.856 20.2401C266.967 20.2401 265.196 20.5932 263.661 21.2992C262.126 22.0053 260.945 22.9467 260 24.1234C259.056 25.3002 258.347 26.5946 257.757 27.889C257.167 29.3011 256.694 30.5956 256.458 32.0077C256.222 33.4198 256.104 34.7142 255.868 35.7733C255.75 36.95 255.632 37.8914 255.75 38.4798V39.5389C255.75 39.6566 255.75 39.8919 255.75 40.2449C255.75 40.4803 255.75 41.0687 255.75 41.8924C255.75 42.7161 255.868 43.5398 255.868 44.2459C255.986 45.0696 256.104 46.011 256.458 47.0701C256.694 48.1292 257.048 49.1883 257.403 50.012C257.757 50.9534 258.347 51.8948 259.056 52.8362C259.764 53.7776 260.473 54.6013 261.417 55.3074C262.244 56.0134 263.306 56.4841 264.605 56.9548C265.904 57.4255 267.321 57.5432 268.856 57.5432C270.745 57.5432 272.516 57.1902 274.051 56.4841C275.586 55.7781 276.767 54.9543 277.711 54.0129C278.656 53.0715 279.365 51.7771 279.955 50.4827C280.545 49.0706 281.018 47.8938 281.254 46.7171C281.608 45.658 281.726 44.4812 281.844 43.3045Z" fill="#652A7A"/>
<path d="M326.476 61.7796V52.1302C323.997 59.1907 319.628 62.721 313.488 62.721C311.363 62.721 309.356 62.3679 307.702 61.7796C306.049 61.1912 304.633 60.3674 303.57 59.3084C302.507 58.367 301.681 57.1902 300.854 56.0135C300.146 54.8367 299.555 53.5423 299.319 52.3655C298.965 51.1888 298.729 50.1297 298.611 49.0706C298.493 48.1292 298.375 47.3055 298.375 46.7171V45.7757V22.0053C298.375 21.2992 298.256 20.7109 298.02 20.2402C297.784 19.6518 297.548 19.2988 297.194 18.9457C296.84 18.5927 296.485 18.3574 296.249 18.122C295.895 17.8867 295.659 17.769 295.423 17.6513L295.068 17.5336H309.592C309.592 17.5336 309.474 17.6513 309.356 17.6513C309.237 17.6513 309.001 17.8867 308.529 18.122C308.175 18.3574 307.821 18.5927 307.584 18.9457C307.348 19.2988 307.112 19.6518 306.876 20.2402C306.64 20.8285 306.522 21.4169 306.522 22.0053V44.8343C306.522 54.013 309.356 58.6023 315.141 58.6023C316.44 58.6023 317.621 58.367 318.683 57.7786C319.746 57.1902 320.691 56.6018 321.399 55.7781C322.108 54.9544 322.816 54.013 323.406 52.8362C323.997 51.6595 324.469 50.6004 324.823 49.7767C325.178 48.9529 325.414 48.0115 325.768 46.8348C326.122 45.658 326.24 44.952 326.24 44.8343C326.24 44.7166 326.358 44.3636 326.358 43.8929V22.0053C326.358 21.5346 326.358 21.0639 326.24 20.5932C326.122 20.1225 326.004 19.7695 325.768 19.5341C325.532 19.1811 325.414 18.9457 325.178 18.7104C324.941 18.475 324.705 18.2397 324.469 18.122C324.233 18.0043 323.997 17.8867 323.879 17.769C323.643 17.6513 323.524 17.6513 323.406 17.5336L323.288 17.416H337.812C337.812 17.416 337.693 17.416 337.575 17.416C337.457 17.416 337.339 17.5336 337.103 17.6513C336.867 17.769 336.631 17.8867 336.513 18.122C336.277 18.2397 336.04 18.475 335.804 18.7104C335.568 18.9457 335.332 19.1811 335.214 19.5341C335.096 19.8871 334.86 20.2402 334.742 20.5932C334.623 21.0639 334.623 21.4169 334.623 22.0053V57.1902C334.623 57.8963 334.742 58.4846 334.978 59.073C335.214 59.6614 335.45 60.0144 335.804 60.3674C336.158 60.7205 336.395 60.9558 336.749 61.1912C337.103 61.4265 337.457 61.6619 337.93 61.8972H326.476V61.7796Z" fill="#652A7A"/>
<path d="M352.217 57.1902C352.217 58.2493 352.453 59.1907 353.043 59.8967C353.633 60.6028 354.106 61.0735 354.578 61.3088C355.05 61.5442 355.287 61.6619 355.405 61.6619H340.763C340.763 61.6619 340.881 61.6619 341 61.6619C341.118 61.6619 341.236 61.5442 341.472 61.4265C341.708 61.3088 341.944 61.1912 342.062 61.0735C342.298 60.9558 342.535 60.7205 342.771 60.4851C343.007 60.2498 343.243 60.0144 343.361 59.6614C343.479 59.3084 343.715 58.9553 343.833 58.4846C343.951 58.0139 344.069 57.5432 344.069 57.1902V22.0053C344.069 20.9462 343.833 20.0048 343.243 19.2987C342.653 18.5927 342.18 18.122 341.708 17.8866L340.881 17.5336H355.523C355.405 17.5336 355.287 17.5336 355.168 17.6513C355.05 17.6513 354.814 17.8866 354.342 18.122C353.988 18.3573 353.634 18.5927 353.397 18.9457C353.161 19.2988 352.925 19.6518 352.689 20.2402C352.453 20.8285 352.335 21.4169 352.335 22.0053V57.1902H352.217ZM351.508 8.94333C350.564 9.88473 349.383 10.3554 348.084 10.3554C346.667 10.3554 345.604 9.88473 344.66 8.94333C343.715 8.00192 343.243 6.82517 343.243 5.53074C343.243 4.23631 343.715 3.05956 344.66 2.11815C345.604 1.17675 346.785 0.706055 348.084 0.706055C349.501 0.706055 350.564 1.17675 351.508 2.11815C352.453 3.05956 352.925 4.23631 352.925 5.53074C352.925 6.82517 352.453 8.00192 351.508 8.94333Z" fill="#652A7A"/>
<path d="M365.913 26.0062C365.913 26.9476 366.268 27.889 366.858 28.7128C367.566 29.5365 368.393 30.2425 369.574 30.8309C370.754 31.4193 371.935 32.1253 373.352 32.8314C374.769 33.5374 376.186 34.2435 377.721 34.9495C379.138 35.6556 380.673 36.4793 382.089 37.4207C383.506 38.3621 384.805 39.4212 385.868 40.598C386.931 41.657 387.875 43.0691 388.584 44.7166C389.292 46.3641 389.528 48.1292 389.528 50.012C389.528 52.6008 388.702 54.8367 386.931 56.7195C385.159 58.6023 383.034 59.8967 380.555 60.7204C378.075 61.5442 375.359 61.8972 372.407 61.8972C369.692 61.8972 367.212 61.6618 364.969 61.1911C362.607 60.7204 361.072 60.2497 360.01 59.779L358.593 59.073L361.072 51.7771C361.426 52.1301 362.017 52.6008 362.607 53.1892C363.198 53.7776 364.496 54.6013 366.386 55.6604C368.275 56.7195 370.046 57.4255 371.699 57.6609C373.588 57.8962 375.241 57.8962 376.776 57.4255C378.193 56.9548 379.374 56.3665 380.2 55.5427C381.027 54.719 381.617 53.7776 381.971 52.9539C382.326 52.0125 382.562 51.1887 382.562 50.365C382.562 48.9529 381.735 47.5408 380.082 46.1287C378.429 44.7166 376.304 43.4222 373.942 42.3631C371.581 41.1863 369.219 40.0096 366.858 38.7152C364.496 37.4207 362.489 35.8909 360.954 34.0081C359.419 32.1253 358.711 30.2425 358.829 28.0067C359.065 24.4764 360.6 21.7699 363.316 19.7694C366.031 17.7689 369.456 16.8275 373.706 16.8275C375.95 16.8275 378.311 17.0629 380.555 17.4159C382.798 17.7689 384.569 18.122 385.632 18.5927L387.285 19.1811L384.569 26.0062C384.569 26.0062 384.451 25.8885 384.333 25.7709C384.215 25.6532 384.097 25.5355 383.861 25.1825C383.624 24.8295 383.388 24.5941 383.034 24.2411C382.798 23.8881 382.444 23.535 381.971 23.182C381.499 22.829 381.027 22.476 380.673 22.1229C380.2 21.7699 379.728 21.4169 379.138 21.1815C378.547 20.8285 377.957 20.5932 377.367 20.3578C376.776 20.1225 376.186 20.0048 375.477 19.8871C374.769 19.7694 374.06 19.7694 373.352 19.8871C370.99 20.1225 369.219 20.8285 368.039 22.1229C366.622 23.4174 365.913 24.7118 365.913 26.0062Z" fill="#652A7A"/>
<path d="M415.387 21.4169H405.704V51.3064C405.704 53.1892 405.941 54.4837 406.413 55.4251C406.885 56.3665 407.594 56.8372 408.302 56.8372C409.01 56.8372 409.837 56.7195 410.545 56.3665C411.254 56.1311 411.844 55.7781 412.317 55.4251L413.025 54.719L413.497 55.072C413.497 55.1897 413.379 55.425 413.143 55.7781C413.025 56.1311 412.671 56.6018 412.08 57.4255C411.49 58.2493 410.9 58.8376 410.309 59.5437C409.719 60.1321 408.892 60.7204 407.948 61.1911C407.003 61.6618 405.941 61.8972 404.878 61.8972C402.516 61.8972 400.745 61.1911 399.328 59.6614C398.03 58.2493 397.321 56.0134 397.321 53.0715V21.4169H392.126V17.4159C395.432 17.4159 398.266 16.3568 400.627 14.121L405.704 9.64935V17.5336H415.387V21.4169Z" fill="#652A7A"/>
<path d="M457.185 61.6619L445.496 61.7795C445.496 59.7791 445.496 57.4256 445.496 54.6013C443.37 57.3079 441.245 59.1907 439.001 60.3674C436.758 61.5442 434.278 62.1326 431.209 62.1326C428.257 62.1326 425.659 61.6619 423.652 60.6028C421.526 59.5437 419.991 58.1316 419.047 56.3665C418.102 54.6013 417.63 52.4832 417.63 49.8943C417.63 48.4822 417.866 47.1878 418.22 46.1287C418.575 44.952 419.047 43.8929 419.519 43.0692C419.991 42.1278 420.7 41.304 421.763 40.3626C422.707 39.4212 423.652 38.7152 424.478 38.1268C425.305 37.5384 426.367 36.8324 427.902 36.1263C429.319 35.4203 430.618 34.8319 431.563 34.3612C432.507 33.8905 433.924 33.3021 435.813 32.4784C437.585 31.7723 439.12 30.9486 440.418 30.0072C441.717 29.0658 442.662 28.2421 443.37 27.6537C443.961 26.9477 444.433 26.2416 444.905 25.5355C445.259 24.8295 445.496 24.2411 445.614 24.0058C445.614 23.7704 445.732 23.5351 445.732 23.2997C445.732 22.7113 445.614 22.2406 445.496 21.7699C445.377 21.2992 445.023 20.8285 444.669 20.4755C444.197 20.0048 443.724 19.6518 443.016 19.2988C442.308 18.9457 441.481 18.7104 440.3 18.5927C439.12 18.3574 437.703 18.3574 436.168 18.3574C434.869 18.3574 433.688 18.5927 432.507 18.9457C431.327 19.4164 430.382 19.8871 429.674 20.5932C428.965 21.2992 428.257 22.0053 427.548 22.829C426.958 23.6527 426.367 24.4765 426.013 25.3002C425.659 26.1239 425.305 26.83 425.069 27.536C424.832 28.2421 424.714 28.8305 424.596 29.1835L424.478 29.7719L421.29 21.6523C421.408 21.5346 421.526 21.2992 421.763 21.0639C421.999 20.8285 422.471 20.4755 423.298 19.8871C424.124 19.2988 425.069 18.8281 426.131 18.3574C427.194 17.8867 428.611 17.5336 430.382 17.1806C432.153 16.8276 434.16 16.5922 436.286 16.5922C441.599 16.5922 445.85 18.0043 449.392 20.9462C452.816 23.8881 454.587 27.0653 454.587 30.3602V57.1902C454.587 58.2493 454.823 59.1907 455.414 59.8967C455.886 60.6028 456.476 61.0735 457.067 61.3088L457.185 61.6619ZM445.377 51.0711C445.496 39.0682 445.377 31.4193 445.377 28.0067C443.961 30.7133 441.363 32.9491 437.585 34.7142C430.146 38.3622 426.367 42.9515 426.367 48.7176C426.367 49.7767 426.486 50.8357 426.604 51.8948C426.84 52.8362 427.076 54.013 427.548 55.1897C428.021 56.3665 428.729 57.3079 429.674 58.0139C430.618 58.72 431.917 59.073 433.452 59.073C434.751 59.073 436.05 58.8377 437.23 58.2493C438.529 57.6609 439.592 57.0725 440.536 56.2488C441.481 55.4251 442.308 54.719 443.016 53.8953C443.724 53.0716 444.315 52.4832 444.669 51.8948L445.377 51.0711Z" fill="#652A7A"/>
</svg>
