<svg width="149" height="75" viewBox="0 0 149 75" fill="none" xmlns="http://www.w3.org/2000/svg">
<g clip-path="url(#clip0_231_4709)">
<path d="M94.3571 41.8572L92.3571 46.8572L90.3571 41.8572H88.7857V49.2143H89.4286V43.2857L92 49.5L94.5 43.2857V49.2143H95.7857V41.8572H94.3571Z" fill="black"/>
<path d="M100.286 41.7143L97.2858 49.2143H97.9286L98.6429 47.3572L98.7143 47.2143L98.8572 46.7857L99.0001 46.4286L99.9286 44.1429L100.857 46.4286L101 46.7857L101.214 47.2143L101.429 47.8572L102 49.2143H103.429L100.286 41.7143Z" fill="black"/>
<path d="M106.286 48.6429V41.8572H104.929V49.2143H109.429V48.6429H106.286Z" fill="black"/>
<path d="M112.786 41.7143L109.786 49.2143H110.429L111.071 47.6429L111.214 47.2143L111.429 46.7857V46.6429L112.429 44.1429L113.429 46.6429L113.714 47.2143L114 47.8572L114.5 49.2143H115.929L112.786 41.7143Z" fill="black"/>
<path d="M122.214 46C121.929 45.6429 121.571 45.4286 121.071 45.2858C121.5 45.2143 121.786 45 122 44.7143C122.214 44.4286 122.357 44.1429 122.357 43.7143C122.357 43.3572 122.286 43.0715 122.071 42.7858C121.929 42.5 121.643 42.2858 121.357 42.1429C121.214 42.0715 120.929 42 120.643 41.9286C120.357 41.8572 120 41.8572 119.5 41.8572H117.357V49.1429H119.929C120.786 49.1429 121.5 49 121.929 48.6429C122.357 48.2858 122.571 47.8572 122.571 47.1429C122.643 46.7143 122.5 46.3572 122.214 46ZM118.786 42.3572H119.357C119.929 42.3572 120.429 42.5 120.714 42.7143C121 42.9286 121.143 43.2858 121.143 43.7858C121.143 44.2858 121 44.6429 120.786 44.8572C120.5 45.0715 120.143 45.2143 119.5 45.2143H118.857V42.3572H118.786ZM120.929 48.3572C120.643 48.5715 120.214 48.7143 119.643 48.7143H118.786V45.5715H119.429C120.071 45.5715 120.5 45.7143 120.857 46C121.143 46.2858 121.357 46.7143 121.357 47.2858C121.357 47.7858 121.214 48.1429 120.929 48.3572Z" fill="black"/>
<path d="M126.786 41.7143L123.786 49.2143H124.429L125.071 47.5L125.143 47.2143L125.357 46.7857L125.5 46.5L126.429 44.1429L127.429 46.5714L127.714 47.2143L127.786 47.5L128.429 49.2143H129.929L126.786 41.7143Z" fill="black"/>
<path d="M134.643 45.7857C135.214 45.7857 135.714 45.5714 136.071 45.2857C136.429 45 136.571 44.5714 136.571 44.0714C136.571 43.3571 136.357 42.8571 135.857 42.5C135.429 42.1428 134.714 41.9286 133.786 41.9286H131.357V49.2143H132.714V42.3571H133.286C133.929 42.3571 134.429 42.5 134.714 42.7857C135 43.0714 135.214 43.4286 135.214 44C135.214 44.5 135.071 44.8571 134.714 45.0714C134.429 45.2857 133.857 45.4286 133.071 45.5L135.071 49.2143H136.571L134.643 45.7857Z" fill="black"/>
<path d="M90.1428 60.3571V53.6429H88.7857V60.9286H93.3571V60.3571H90.1428Z" fill="black"/>
<path d="M96.1429 53.6429H94.7857V60.9286H96.1429V53.6429Z" fill="black"/>
<path d="M97.7142 53.6429V54.1429H99.6428V60.9286H101V54.1429H102.929V53.6429H97.7142Z" fill="black"/>
<path d="M109 54.1429V53.6429H104.5V60.9286H109V60.3571H105.857V57.3571H108.786V56.8571H105.857V54.1429H109Z" fill="black"/>
<path d="M114.429 57.5C115 57.5 115.5 57.2857 115.857 57C116.214 56.7143 116.357 56.2857 116.357 55.7857C116.357 55.0714 116.143 54.5714 115.643 54.2143C115.214 53.8571 114.5 53.6429 113.571 53.6429H111.143V60.9286H112.5V54.0714H113.071C113.714 54.0714 114.214 54.2143 114.5 54.5C114.786 54.7857 115 55.1429 115 55.7143C115 56.2143 114.857 56.5714 114.5 56.7857C114.214 57 113.643 57.1429 112.857 57.2143L114.857 60.9286H116.357L114.429 57.5Z" fill="black"/>
<path d="M119.929 53.5L116.929 60.9286H117.571L118.143 59.2857L118.286 59L118.5 58.5L118.571 58.2857L118.643 58.2143L119.571 55.8572L120.571 58.4286L120.643 58.5L120.786 59H120.857L121 59.3572V59.4286L121.571 60.9286H123L119.929 53.5Z" fill="black"/>
<path d="M123.071 53.6429V54.1429H124.929V60.9286H126.286V54.1429H128.214V53.6429H123.071Z" fill="black"/>
<path d="M134.286 53.6429V58.0714C134.286 58.9286 134.143 59.5 133.929 59.8571C133.714 60.2143 133.286 60.3571 132.714 60.3571C132.143 60.3571 131.714 60.2143 131.5 59.8571C131.286 59.5 131.143 58.9286 131.143 58.0714V53.6429H129.786V58.2857C129.786 58.8571 129.857 59.2143 129.928 59.5714C130 59.8571 130.214 60.1429 130.429 60.3571C130.643 60.5714 130.929 60.7857 131.286 60.9286C131.643 61.0714 132 61.1429 132.429 61.1429C133.286 61.1429 133.929 60.9286 134.357 60.4286C134.786 59.9286 135 59.2857 135 58.2857V53.6429H134.286Z" fill="black"/>
<path d="M140.571 57.5C141.214 57.5 141.643 57.2857 142 57C142.357 56.7143 142.5 56.2857 142.5 55.7857C142.5 55.0714 142.286 54.5714 141.786 54.2143C141.286 53.8571 140.643 53.6429 139.714 53.6429H137.286V60.9286H138.643V54.0714H139.214C139.857 54.0714 140.286 54.2143 140.643 54.5C140.928 54.7857 141.143 55.1429 141.143 55.7143C141.143 56.2143 141 56.5714 140.643 56.7857C140.357 57 139.786 57.1429 139 57.2143L141 60.9286H142.5L140.571 57.5Z" fill="black"/>
<path d="M149 54.1429V53.6429H144.5V60.9286H149V60.3571H145.857V57.3571H148.786V56.8571H145.857V54.1429H149Z" fill="black"/>
<path d="M93.4286 65.8571V65.3571H88.7857V72.6429H90.1428V69.0714H93.2857V68.5714H90.1428V65.8571H93.4286Z" fill="black"/>
<path d="M99.7857 65.8571V65.3571H95.2142V72.6429H99.7857V72.1429H96.5714V69.1429H99.5714V68.5714H96.5714V65.8571H99.7857Z" fill="black"/>
<path d="M105.786 69.3572C105.5 69.0715 105 68.7143 104.214 68.3572C103.714 68.1429 103.357 67.9286 103.143 67.7143C102.929 67.5001 102.857 67.2858 102.857 67.0001C102.857 66.6429 102.929 66.3572 103.214 66.1429C103.5 65.9286 103.714 65.7858 104.071 65.7858C104.429 65.7858 104.714 65.8572 104.929 66.0715C105.143 66.2858 105.357 66.5001 105.5 66.8572L106 66.5001C105.786 66.0715 105.5 65.7858 105.143 65.5001C104.786 65.2858 104.357 65.1429 103.786 65.1429C103.143 65.1429 102.571 65.3572 102.143 65.7858C101.714 66.2143 101.5 66.7143 101.5 67.3572C101.5 67.7858 101.643 68.2143 101.857 68.5001C102.071 68.7858 102.5 69.0715 103.143 69.2858C104.214 69.7143 104.786 70.2858 104.786 70.8572C104.786 71.2143 104.643 71.5715 104.429 71.7858C104.214 72.0001 103.857 72.1429 103.5 72.1429C103.214 72.1429 102.929 72.0715 102.714 71.8572C102.429 71.7143 102.286 71.4286 102.071 71.1429L101.5 71.5001C101.786 71.9286 102.071 72.2143 102.429 72.4286C102.786 72.6429 103.214 72.7143 103.714 72.7143C104.429 72.7143 105 72.5001 105.429 72.0715C105.857 71.6429 106.071 71.0715 106.071 70.4286C106.143 70.0715 106.071 69.6429 105.786 69.3572Z" fill="black"/>
<path d="M107.286 65.3571V65.8571H109.214V72.6429H110.571V65.8571H112.429V65.3571H107.286Z" fill="black"/>
<path d="M115.429 65.3571H114.071V72.6429H115.429V65.3571Z" fill="black"/>
<path d="M122.143 65.3571L120.286 70.3572L118.357 65.3571H116.857L119.929 72.8572L122.857 65.3571H122.143Z" fill="black"/>
<path d="M125.929 65.2143L122.929 72.6429H123.571L124.214 71.0715L124.357 70.7143L124.5 70.2858L124.571 70.0715L125.571 67.5715L126.5 69.9286L126.857 70.7143L127 71V71.1429L127.643 72.6429H129.071L125.929 65.2143Z" fill="black"/>
<path d="M131.929 72.1429V65.3571H130.572V72.6429H135.072V72.1429H131.929Z" fill="black"/>
<path fill-rule="evenodd" clip-rule="evenodd" d="M65.5714 57.0715C65.5714 59.0715 63.9286 60.7143 61.9286 60.7143C59.9286 60.7143 58.2857 59.0715 58.2857 57.0715C58.2857 56.8572 58.2857 56.6429 58.3571 56.5V18.5C58.2857 12.5 53.3571 7.71429 47.3571 7.71429C41.4286 7.71429 36.6429 12.3571 36.4286 18.2143V34.8572V48.0715V65.3572V69.5715C36.4286 69.7857 36.5 70 36.5 70.2143C36.5 72.4286 34.8571 74.2143 32.8571 74.2143C30.8571 74.2143 29.2143 72.4286 29.2143 70.2143C29.2143 70 29.2143 69.7857 29.2857 69.5715L29.3571 45.5714V40.7857V18.5C29.2143 12.2143 24.7857 7.21429 18.3571 7.21429C12.3571 7.21429 7.5 12 7.42857 18V46.2143V46.4286V69.5C7.5 69.7143 7.5 69.9286 7.5 70.1429C7.5 72.3572 5.85714 74.1429 3.85714 74.1429C1.85714 74.1429 0 72.3572 0 70.2143C0 70 0 69.7857 0.0714286 69.5715V65.4286V54V43.7143V18.0714C0.0714286 8.07143 8.21428 0 18.2143 0C24.2857 0 29.6429 3 32.9286 7.57143C36.2857 3.28572 41.5 0.5 47.3571 0.5C57.3571 0.5 65.5 8.57143 65.5714 18.5714V56.5715C65.5714 56.7143 65.5714 56.8572 65.5714 57.0715Z" fill="#0077B6"/>
<path fill-rule="evenodd" clip-rule="evenodd" d="M109.286 21.5714C109.286 23.7857 107.643 25.5714 105.643 25.5714C103.643 25.5714 102 23.7857 102 21.5714C102 21.3571 102.071 18.1429 102.071 18.1429C101.857 14.8571 100.214 12 97.7857 10.1429C95.9286 8.71428 93.6429 7.92857 91.1429 7.92857C85.1429 7.92857 80.2857 12.7857 80.1429 18.7143V24.2857H80.2143V29.2143H91.0714C93.1429 29.2143 94.8572 30.9286 94.8572 33C94.8572 35.0714 93.1429 36.7857 91.0714 36.7857H80.2143V51C80.2143 51.1429 80.2143 51.2857 80.2143 51.3571C80.2143 51.6429 80.2143 51.9286 80.2143 52.2143C80.2143 52.3571 80.2143 52.4286 80.2143 52.5714C80.2143 52.7857 80.2143 52.9286 80.1429 53.1429C80.1429 54.0714 80.1429 55.0714 80.1429 56C80 66 72.0714 74.2857 61.8571 74.2857C51.8571 74.2857 43.7143 66.2143 43.6428 56.2143V49.5714V28.3571V18.2143C43.6428 18 43.5714 17.7857 43.5714 17.5714C43.5714 15.5714 45.2143 13.9286 47.2143 13.9286C49.2143 13.9286 50.8571 15.5714 50.8571 17.5714C50.8571 17.7857 50.8571 18 50.7857 18.2143V19.7143V24.5714V48.9286V56.2143C50.7857 57.7857 51.1428 59.2143 51.7857 60.5714C51.9286 60.8572 54.8571 66.8571 61.7857 66.8571C67.7857 66.8571 72.7143 61.9286 72.7857 55.9286V53C72.7857 52.8571 72.7857 52.7143 72.7857 52.5714C72.7857 52.5 72.7857 52.4286 72.7857 52.3572V18.7143C72.8571 8.71428 81 0.642853 91 0.642853C94.2143 0.642853 97.2143 1.5 99.7857 2.92857C104.857 5.71428 108.429 10.8571 109.071 16.9286L109.143 17.7857C109.143 18.0714 109.143 18.4286 109.143 18.7857C109.286 18.7143 109.286 21.3571 109.286 21.5714Z" fill="#0296C7"/>
<path fill-rule="evenodd" clip-rule="evenodd" d="M21.9286 69.6429C21.9286 69.8572 22 70.0715 22 70.2857C22 72.5 20.3572 74.2857 18.3572 74.2857C16.3572 74.2857 14.7143 72.5 14.7143 70.2857C14.7143 70.0715 14.7143 69.8572 14.7857 69.6429V18.5714C14.7143 18.3571 14.7143 18.1429 14.7143 17.9286C14.7143 15.9286 16.3572 14.2857 18.3572 14.2857C20.3572 14.2857 22 15.9286 22 17.9286C22 18.1429 22 18.3571 21.9286 18.5714V69.6429Z" fill="#0296C7"/>
<path d="M101.281 29.1759L97.4424 33.0145L101.281 36.853L105.119 33.0145L101.281 29.1759Z" fill="#0077B6"/>
<g opacity="0.65">
<mask id="mask0_231_4709" style="mask-type:luminance" maskUnits="userSpaceOnUse" x="14" y="14" width="8" height="33">
<path d="M21.9286 14.2857H14.6429V46.7143H21.9286V14.2857Z" fill="white"/>
</mask>
<g mask="url(#mask0_231_4709)">
<path fill-rule="evenodd" clip-rule="evenodd" d="M22 17.9286C22 18.1428 22 18.3571 21.9286 18.5714V44.7857C19.3572 45.8571 16.9286 46.4285 14.7143 46.7143V18.5714C14.6429 18.3571 14.6429 18.1428 14.6429 17.9286C14.6429 15.9286 16.2857 14.2857 18.2857 14.2857C20.2857 14.2857 22 15.9286 22 17.9286Z" fill="#02B4D7"/>
</g>
</g>
<g opacity="0.65">
<mask id="mask1_231_4709" style="mask-type:luminance" maskUnits="userSpaceOnUse" x="43" y="14" width="8" height="15">
<path d="M50.8571 14H43.5714V28.4286H50.8571V14Z" fill="white"/>
</mask>
<g mask="url(#mask1_231_4709)">
<path fill-rule="evenodd" clip-rule="evenodd" d="M50.8571 18.2141V19.7141V24.5713C48.1428 25.357 45.8571 26.7141 43.6428 28.4284V18.2856C43.6428 18.0713 43.5714 17.857 43.5714 17.7141C43.5714 15.7141 45.2143 14.0713 47.2143 14.0713C49.2143 14.0713 50.8571 15.7141 50.8571 17.7141C50.9286 17.857 50.9286 18.0713 50.8571 18.2141Z" fill="#02B4D7"/>
</g>
</g>
<g opacity="0.65">
<mask id="mask2_231_4709" style="mask-type:luminance" maskUnits="userSpaceOnUse" x="0" y="0" width="66" height="47">
<path d="M65.5714 0H0V46.5H65.5714V0Z" fill="white"/>
</mask>
<g mask="url(#mask2_231_4709)">
<path fill-rule="evenodd" clip-rule="evenodd" d="M65.5714 18.5V25.2143C62.9286 24.4286 60.5 23.9286 58.3571 23.7857V18.5C58.2857 12.5 53.4286 7.71429 47.4286 7.71429C41.5 7.71429 36.7143 12.3571 36.5 18.2143V34.8572C34.2857 36.8572 32 38.9286 29.2857 40.8572V18.5714C29.1429 12.2857 24.7143 7.28572 18.2857 7.28572C12.2857 7.28572 7.42857 12.0714 7.28571 18.0714V46.2857V46.5C4.21428 45.8572 1.78571 44.7857 0 43.7143V18.0714C0.0714286 8.07143 8.21428 0 18.2143 0C24.2857 0 29.6429 3 32.9286 7.57143C36.2857 3.28572 41.5 0.5 47.3571 0.5C57.3571 0.428572 65.4286 8.5 65.5714 18.5Z" fill="#02B4D7"/>
</g>
</g>
<g opacity="0.65">
<mask id="mask3_231_4709" style="mask-type:luminance" maskUnits="userSpaceOnUse" x="72" y="0" width="28" height="28">
<path d="M99.8571 0.642853H72.8571V27.8572H99.8571V0.642853Z" fill="white"/>
</mask>
<g mask="url(#mask3_231_4709)">
<path fill-rule="evenodd" clip-rule="evenodd" d="M99.8571 2.92857C99.3571 4.78571 98.7143 7.35714 97.7143 10.1429C95.8571 8.71428 93.5714 7.92857 91.0714 7.92857C85.0714 7.92857 80.2143 12.7857 80.0714 18.7143V24.2857H80.1428V27.7143C78 28 75.5714 27.9286 72.8571 27.3571V18.7143C72.9285 8.71428 81.0714 0.642853 91.0714 0.642853C94.2857 0.642853 97.2857 1.5 99.8571 2.92857Z" fill="#02B4D7"/>
</g>
</g>
</g>
<defs>
<clipPath id="clip0_231_4709">
<rect width="149" height="74.2857" fill="white"/>
</clipPath>
</defs>
</svg>
