<svg width="1795" height="1795" viewBox="0 0 1795 1795" fill="none" xmlns="http://www.w3.org/2000/svg">
<g filter="url(#filter0_d_23_123)">
<path d="M1743.34 848.095C1764.96 1315.38 1403.67 1711.72 936.388 1733.34C469.103 1754.96 72.7667 1393.67 51.1466 926.388C29.5265 459.103 390.81 62.7667 858.095 41.1466C1325.38 19.5265 1721.72 380.809 1743.34 848.095Z" fill="white"/>
</g>
<path d="M1704.76 841.883C1725.43 1288.78 1379.91 1667.82 933.018 1688.5C486.123 1709.17 107.081 1363.66 86.4038 916.76C65.7271 469.864 411.246 90.8223 858.141 70.1456C1305.04 49.4689 1684.08 394.987 1704.76 841.883Z" stroke="#531768" stroke-width="2"/>
<g clip-path="url(#clip0_23_123)">
<path d="M154.731 835.067C153.542 836.599 153.032 838.132 152.862 839.665C152.523 843.054 154.646 846.684 155.41 846.684C156.514 846.765 157.873 845.716 159.232 844.425C160.421 843.134 161.186 842.005 161.27 841.117C161.355 840.23 159.657 836.357 157.788 829.823L158.128 829.5C160.251 830.145 162.375 830.871 164.413 831.759C167.215 842.731 171.122 848.862 174.859 849.185C179.36 849.588 183.777 844.102 184.626 834.179C184.881 831.597 184.881 829.016 184.626 826.596L185.475 826.192C187.853 829.258 189.807 832.082 190.996 834.744C191.335 836.035 191.25 837.406 191.165 838.858C190.401 847.168 185.73 853.461 176.812 852.735C172.991 852.412 169.254 850.637 165.432 847.007C163.309 849.346 160.846 850.96 157.873 850.718C156.09 850.556 154.221 849.911 151.928 848.459C149.126 846.603 147.257 843.699 147.512 840.795C147.767 837.89 149.89 835.631 153.627 833.856L154.731 835.067Z" fill="#531768"/>
<path d="M193.798 686.299C190.061 680.409 188.108 675.004 189.552 670.647C191.165 665.968 195.921 664.435 200.423 665.888C202.291 666.452 205.518 668.631 206.962 670.809C208.831 674.762 207.896 681.862 205.518 688.961C205.009 690.575 204.414 692.107 203.735 693.56C204.584 694.931 205.603 696.303 206.877 697.836L206.028 698.158L202.461 696.383L201.697 697.916C198.809 699.207 195.837 700.417 192.949 701.547L192.609 701.224C194.393 697.916 195.837 694.77 197.11 691.785L195.921 690.333C193.798 689.284 191.08 688.396 187.768 687.428C184.371 686.379 180.889 685.492 176.728 684.524C175.199 684.201 173.5 684.04 171.972 683.556C170.273 683.072 169.254 681.862 167.98 678.715L168.32 678.392C170.443 679.038 173.076 679.038 178.681 677.666L179.955 681.135C182.757 681.942 185.39 682.668 186.919 683.152C189.467 683.959 191.76 685.008 193.628 686.541L193.798 686.299ZM200.847 670.083C198.979 670.002 196.176 671.374 195.242 674.117C194.138 677.505 195.072 682.104 198.384 688.235C201.272 679.683 202.206 673.471 200.847 670.083Z" fill="#531768"/>
<path d="M271.848 524.945C268.62 524.219 266.837 524.542 266.242 525.429C264.544 528.172 265.903 533.82 266.922 534.385C269.215 535.675 272.952 529.221 275.585 527.769C277.283 526.882 279.067 526.882 281.19 528.092C282.888 529.06 284.502 530.835 285.946 532.852C286.88 535.111 287.135 537.45 287.135 539.871C287.05 543.42 286.371 546.647 284.587 549.471C281.699 553.989 275.16 557.377 266.667 552.537C263.015 550.439 260.722 548.18 259.108 545.921L260.722 544.55C261.911 546.083 263.61 547.293 265.393 548.342C269.894 550.923 275.585 550.359 278.557 545.599C279.916 543.42 280.765 540.839 281.105 538.338C281.445 536.079 281.445 533.9 281.02 532.287C280.595 532.045 278.642 534.062 276.519 536.563C273.546 539.951 270.744 540.435 267.856 538.822C264.799 537.128 262.59 534.304 261.486 530.673C260.297 526.72 260.128 523.009 261.656 520.589C263.185 518.088 266.837 519.056 268.62 520.105C269.809 520.75 270.998 522.202 272.357 524.3L271.848 524.945ZM285.691 553.263C287.729 552.456 289.853 551.891 292.061 551.407C292.995 553.182 293.589 554.796 294.014 556.248C291.806 556.813 289.683 557.458 287.644 558.184L285.691 553.263ZM289.513 546.163C291.551 545.357 293.674 544.792 295.883 544.308C296.817 546.083 297.411 547.696 297.836 549.148C295.628 549.713 293.505 550.359 291.466 551.085L289.513 546.163Z" fill="#531768"/>
<path d="M359.834 418.129C362.212 420.308 364.335 419.823 366.713 417.484C368.242 415.951 369.686 413.853 370.62 410.868C366.968 408.932 362.212 409.093 356.777 410.707C355.418 411.11 354.483 411.191 353.889 410.707C353.04 409.9 352.275 407.964 351.511 405.544L351.681 405.382C355.333 404.495 359.24 403.93 363.401 404.172C366.798 404.334 369.686 405.544 372.149 407.722C373.847 409.255 375.121 411.191 375.801 413.369C375.461 416.758 374.187 419.904 371.469 422.566C368.412 425.552 364.845 425.874 361.023 422.405C360.259 421.76 359.324 420.872 358.39 419.743L359.834 418.129Z" fill="#531768"/>
<path d="M481.452 309.216C486.888 311.555 489.69 313.249 491.389 315.589C492.323 316.88 492.748 317.687 493.172 318.251C495.126 320.914 496.4 323.737 496.654 326.884C496.994 331.079 495.975 334.306 493.427 336C491.134 337.452 487.397 338.663 483.66 338.824L483.151 336.968C484.17 336.646 485.274 336.081 486.293 335.355C488.671 333.741 490.2 330.837 490.964 327.287C491.559 324.06 491.389 321.317 490.794 320.43C490.03 319.462 487.567 318.171 481.792 316.073C481.367 313.895 481.197 311.636 481.027 309.619L481.452 309.216Z" fill="#531768"/>
<path d="M604.174 227.248C606.212 227.893 608.081 228.781 609.61 229.668C609.27 231.201 608.675 232.653 607.741 234.106C605.958 233.299 604.089 232.573 602.221 231.927L604.174 227.248ZM610.968 224.263C613.007 224.908 614.875 225.796 616.404 226.683C616.064 228.216 615.47 229.668 614.536 231.12C612.752 230.314 610.884 229.588 609.015 228.942L610.968 224.263ZM610.629 235.477L611.138 234.751C614.196 235.638 617.508 236.203 620.565 237.252C624.132 238.462 626.001 239.995 627.445 243.303C628.719 246.207 628.804 248.466 628.719 250.483C627.954 253.629 625.491 256.211 622.519 257.34C615.894 259.922 612.497 254.597 611.563 252.5C609.525 247.901 610.289 243.948 611.733 239.269L610.629 235.477ZM613.771 249.273C614.62 251.128 617.338 252.096 620.311 250.886C622.519 249.999 624.812 247.982 625.152 245.884C623.963 243.948 620.82 242.657 615.47 242.012C613.601 245.562 613.177 247.901 613.771 249.273Z" fill="#531768"/>
<path d="M761.632 203.529C762.397 198.85 763.84 195.542 767.577 194.897C770.805 194.332 773.777 195.945 776.75 199.092C778.533 201.028 779.807 203.045 780.147 204.901C780.402 206.353 779.977 208.45 779.043 210.871C774.372 211.113 771.484 211.355 768.681 211.839C766.728 212.161 765.199 212.888 764.435 213.936C766.049 219.503 771.994 228.7 772.503 231.363C772.758 232.815 772.758 234.912 772.588 237.817L771.739 237.897C769.361 231.282 762.312 222.246 761.293 217.002C761.038 215.792 761.038 214.34 761.293 212.484C761.462 211.113 762.057 209.499 762.991 207.805L761.632 203.529ZM765.369 205.949C766.303 205.385 767.407 205.062 768.596 204.82C770.295 204.497 772.418 204.417 774.711 204.336V204.094C771.994 201.674 769.361 200.544 766.898 200.947C766.218 201.109 765.624 201.27 765.114 201.593L765.199 202.077C765.284 202.642 765.454 203.529 765.454 204.417L765.114 205.869L765.369 205.949Z" fill="#531768"/>
<path d="M940.832 169.241C940.747 171.5 942.021 174.243 944.484 178.439L941.172 180.617C941.257 184.247 941.172 188.039 941.087 192.073C940.917 196.591 940.322 200.141 938.964 203.448C936.161 207.724 930.726 209.741 926.309 209.661C920.279 209.499 916.627 205.143 916.882 198.93C916.967 195.3 918.071 191.912 919.855 188.846L921.723 189.814C920.789 191.831 920.194 193.767 920.109 195.461C920.025 199.334 922.487 202.48 927.413 202.561C929.197 202.642 931.15 202.158 933.019 201.351C935.057 200.463 936.331 199.576 937.095 198.688C937.18 197.882 937.265 196.752 937.265 195.3C937.35 191.831 937.095 184.57 936.756 179.084C936.671 177.39 936.416 176.099 936.416 174.808C936.416 173.517 936.755 172.469 937.52 171.662C938.199 170.855 939.134 170.048 940.407 169.241H940.832Z" fill="#531768"/>
<path d="M1106.19 226.522C1104.49 227.894 1102.45 228.7 1099.05 227.813C1097.78 230.475 1096.34 232.573 1094.47 233.864C1091.24 236.123 1086.82 236.929 1082.66 235.881C1075.61 234.106 1073.58 228.055 1075.27 222.165C1076.12 219.261 1077.99 215.873 1080.79 213.372L1082.41 214.743C1080.54 216.841 1079.61 218.616 1079.27 219.745C1078.67 221.923 1078.5 223.94 1080.12 226.119C1081.47 227.732 1083.17 228.862 1085.38 229.426C1088.01 230.072 1090.39 229.83 1092.68 229.104C1094.64 228.458 1096.08 227.732 1096.59 226.683C1097.19 224.505 1096.34 221.117 1095.15 217.486C1096.93 215.792 1098.54 214.259 1100.16 213.049L1100.5 213.21C1100.75 215.066 1101.09 217.002 1101.35 219.18C1101.52 220.391 1101.94 221.359 1103.3 221.681C1103.98 221.843 1104.74 221.762 1105.59 221.439C1107.12 220.875 1108.06 218.696 1109.08 217.083C1110.18 216.679 1111.2 216.518 1112.22 216.276L1112.39 216.518C1111.88 217.325 1111.45 218.132 1111.2 219.019C1110.86 220.229 1110.86 221.117 1111.37 221.923C1111.96 222.892 1112.81 223.537 1113.83 223.86C1114.43 224.021 1114.94 224.021 1115.45 223.779C1115.79 222.569 1115.96 220.391 1116.04 217.486C1117.74 216.437 1119.27 215.469 1120.88 214.663L1121.31 214.905C1121.05 217.406 1120.71 219.826 1120.03 222.246C1119.35 224.586 1118.16 226.361 1116.29 227.813C1114.17 229.507 1112.13 230.475 1110.18 229.991C1108.82 229.668 1107.46 228.781 1106.27 226.441L1106.19 226.522ZM1108.31 202.964C1109.59 204.659 1110.6 206.353 1111.37 207.886C1110.18 209.015 1108.82 209.822 1107.21 210.548C1106.19 208.934 1105.08 207.402 1103.98 205.788L1108.31 202.964ZM1113.32 196.51C1114.6 198.204 1115.62 199.899 1116.38 201.432C1115.19 202.561 1113.83 203.368 1112.22 204.094C1111.2 202.48 1110.1 200.947 1108.99 199.334L1113.32 196.51ZM1115.96 204.578C1117.23 206.272 1118.25 207.966 1119.01 209.499C1117.82 210.629 1116.46 211.435 1114.85 212.162C1113.83 210.548 1112.73 209.015 1111.62 207.402L1115.96 204.578Z" fill="#531768"/>
<path d="M1284.54 262.988C1283.43 264.924 1283.26 267.99 1283.43 272.75L1279.44 273.314C1278.17 275.896 1276.73 278.478 1275.28 280.979C1272.99 285.012 1270.1 287.917 1266.53 289.611C1262.37 290.095 1257.02 288.966 1252.44 286.626C1245.13 282.834 1244.03 277.752 1247.51 271.701C1248.87 269.281 1250.99 267.102 1253.54 265.166L1255.07 266.86C1253.71 267.909 1252.61 269.038 1252.01 270.168C1250.14 273.476 1249.89 277.59 1257.02 281.221C1260.33 282.915 1265.09 284.206 1268.83 284.044C1269.51 283.076 1270.1 282.108 1270.7 281.059C1274.35 274.605 1277.23 267.264 1278 265.811C1278.59 264.682 1279.44 263.875 1280.46 263.472C1281.48 263.068 1282.67 262.746 1284.2 262.504L1284.54 262.988ZM1269.17 267.99C1269.08 267.586 1268.83 267.344 1268.49 267.102C1267.81 266.699 1266.45 266.86 1264.75 267.425V267.506L1267.04 268.716C1269 269.684 1269.59 270.975 1268.57 272.75C1268.4 273.072 1267.89 273.637 1267.21 274.363C1265.43 276.057 1263.22 276.219 1260.59 274.847C1260.16 274.605 1259.65 274.282 1259.06 273.879C1258.3 272.911 1257.7 271.862 1257.11 270.894L1257.53 270.491C1262.29 272.588 1265.18 273.395 1265.68 272.588C1266.02 272.024 1263.56 270.894 1260.67 269.361C1260.76 269.038 1260.93 268.796 1261.1 268.474C1262.37 266.295 1264.33 264.924 1266.62 264.44C1268.32 264.117 1269.68 263.956 1270.44 264.359C1271.37 264.843 1271.37 265.65 1270.87 266.618C1270.53 267.264 1270.02 267.748 1269.42 268.232L1269.17 267.99Z" fill="#531768"/>
<path d="M1390.36 373.676C1386.2 370.288 1386.2 366.254 1388.83 363.35C1390.78 361.172 1393.25 359.881 1396.14 359.477C1398.85 359.235 1401.23 359.558 1402.84 360.849C1405.82 363.35 1404.54 369.723 1399.02 375.774C1395.63 379.485 1391.97 381.341 1388.15 382.309C1383.14 383.277 1380.25 382.551 1378.3 380.937C1375.75 378.84 1373.97 375.451 1372.86 371.417L1374.73 370.449C1375.41 371.579 1376.18 372.708 1377.28 373.596C1379.49 375.451 1382.55 376.419 1386.11 376.661C1389 376.903 1391.55 376.5 1393.76 375.693C1392.74 375.532 1391.46 374.645 1390.36 373.676ZM1397.66 364.157C1395.8 362.624 1393.76 362.704 1392.99 363.511C1391.89 364.721 1392.91 367.626 1395.71 369.965C1396.56 370.691 1397.32 371.256 1398.09 371.659C1399.53 368.836 1399.28 365.447 1397.66 364.157Z" fill="#531768"/>
<path d="M1510.87 464.196L1511.72 464.438C1511.55 467.503 1511.81 470.73 1511.55 473.716C1511.21 477.265 1510.11 479.444 1507.05 481.622C1504.42 483.477 1502.13 484.203 1500 484.607C1496.61 484.688 1493.38 483.074 1491.43 480.654C1487.09 475.248 1491.68 470.73 1493.63 469.359C1497.8 466.374 1502.04 466.051 1507.14 466.213L1510.87 464.196ZM1497.71 470.569C1496.01 471.779 1495.76 474.603 1497.71 477.023C1499.15 478.798 1501.79 480.412 1503.99 480.17C1505.69 478.637 1506.2 475.329 1505.52 470.327C1501.36 469.44 1498.9 469.682 1497.71 470.569ZM1517.67 456.209C1517.5 458.306 1517.07 460.162 1516.56 461.856C1514.95 461.937 1513.25 461.695 1511.55 461.291C1511.89 459.436 1512.15 457.58 1512.4 455.725L1517.67 456.209ZM1522.51 461.775C1522.34 463.873 1521.91 465.729 1521.41 467.423C1519.79 467.503 1518.09 467.261 1516.39 466.858C1516.73 465.002 1516.99 463.147 1517.24 461.291L1522.51 461.775Z" fill="#531768"/>
<path d="M1592.24 604.735C1592.49 602.879 1592.15 601.265 1591.47 599.894C1589.94 596.748 1586.29 594.65 1585.61 594.973C1584.59 595.457 1583.91 596.99 1583.4 598.764C1583.06 600.459 1582.98 601.83 1583.32 602.556C1583.74 603.363 1587.23 605.945 1592.24 610.705L1592.15 611.108C1589.94 611.511 1587.73 611.915 1585.44 612.076C1577.29 603.928 1570.66 600.378 1567.35 601.83C1563.28 603.605 1562.26 610.382 1566.59 619.418C1567.78 621.757 1569.05 624.016 1570.49 626.033L1569.98 626.84C1566.33 625.307 1563.19 623.774 1560.73 621.999C1559.79 621.031 1559.11 619.821 1558.52 618.53C1554.87 610.947 1555.63 603.282 1563.78 599.733C1567.27 598.2 1571.43 597.958 1576.69 599.41C1577.29 596.344 1578.65 593.762 1581.37 592.633C1582.98 591.907 1585.02 591.584 1587.73 591.746C1591.13 592.068 1594.27 593.682 1595.55 596.344C1596.82 598.926 1596.14 601.911 1593.85 605.219L1592.24 604.735Z" fill="#531768"/>
<path d="M1630.62 763.91C1630.2 761.893 1630.11 759.795 1631.05 757.536C1631.98 755.761 1633.51 754.471 1636.23 753.987C1642.68 752.696 1648.12 756.407 1648.88 759.876C1649.99 764.959 1640.65 769.719 1634.96 770.929C1631.9 771.493 1629.35 771.574 1627.14 771.09C1625.44 770.525 1623.32 769.396 1621.2 767.54C1617.97 764.717 1615.59 761.247 1614.66 757.052C1612.53 747.452 1619.75 742.853 1625.78 741.724C1629.69 740.917 1633.43 740.998 1637.08 741.401L1636.91 743.741C1634.53 743.579 1632.32 743.579 1630.28 743.983C1622.64 745.515 1620.77 751.001 1621.96 756.326C1622.64 759.231 1624.17 762.054 1626.46 764.555C1628.08 766.33 1629.77 767.782 1631.39 768.589C1631.73 768.508 1631.98 768.428 1632.24 768.186C1631.39 766.653 1630.88 765.281 1630.62 763.91ZM1642.43 759.715C1641.83 757.214 1639.71 756.407 1638.78 756.568C1637.08 756.891 1636.23 759.473 1637.16 763.748C1637.33 764.636 1637.59 765.443 1637.93 766.169C1641.16 764.232 1642.94 762.054 1642.43 759.715ZM1658.06 751.163C1657.04 753.018 1655.93 754.632 1654.83 755.923C1653.3 755.439 1651.77 754.632 1650.41 753.583C1651.52 751.97 1652.45 750.356 1653.38 748.743L1658.06 751.163ZM1660.01 758.343C1658.99 760.199 1657.89 761.812 1656.78 763.103C1655.25 762.619 1653.72 761.812 1652.37 760.763C1653.47 759.15 1654.4 757.536 1655.34 755.923L1660.01 758.343Z" fill="#531768"/>
<path d="M1652.28 913.646C1657.63 918.244 1661.2 922.924 1661.03 927.522C1660.94 932.363 1656.78 935.186 1652.03 935.106C1649.99 935.025 1646.34 933.896 1644.3 932.201C1641.32 928.894 1640.05 921.875 1640.22 914.372C1640.22 912.678 1640.31 910.983 1640.56 909.531C1639.29 908.482 1637.93 907.434 1636.31 906.304L1637.08 905.739L1641.07 906.466L1641.32 904.771C1643.7 902.754 1646.17 900.738 1648.63 898.963L1649.05 899.205C1648.37 902.916 1647.95 906.304 1647.61 909.531L1649.14 910.58C1651.52 910.983 1654.32 911.064 1657.8 911.145C1661.37 911.225 1665.02 911.064 1669.27 910.903C1670.88 910.822 1672.49 910.499 1674.11 910.499C1675.89 910.499 1677.16 911.387 1679.37 914.049L1679.12 914.453C1676.91 914.372 1674.36 915.098 1669.44 918.002L1667.14 915.017C1664.26 915.017 1661.54 915.017 1659.92 915.017C1657.21 914.937 1654.74 914.533 1652.45 913.646H1652.28ZM1650.5 931.153C1652.37 930.749 1654.66 928.652 1654.66 925.747C1654.74 922.198 1652.45 918.083 1647.35 913.081C1647.18 922.036 1648.2 928.248 1650.5 931.153Z" fill="#531768"/>
<path d="M161.695 968.587C166.621 969.797 169.933 971.572 170.188 975.121C170.443 978.268 168.404 980.93 164.837 983.431C162.629 984.883 160.336 985.932 158.298 986.094C156.684 986.174 154.561 985.529 152.098 984.399C152.268 979.881 152.353 977.058 152.098 974.395C151.928 972.54 151.334 970.926 150.315 970.119C144.285 971.088 133.923 975.767 131.036 976.009C129.507 976.09 127.299 975.928 124.241 975.363V974.557C131.46 972.943 141.822 967.215 147.427 966.731C148.701 966.65 150.315 966.812 152.183 967.215C153.627 967.538 155.24 968.183 157.024 969.393L161.695 968.587ZM158.723 971.894C159.232 972.863 159.487 973.911 159.572 975.121C159.742 976.735 159.657 978.833 159.402 981.011L159.657 981.092C162.459 978.752 163.988 976.332 163.733 973.911C163.648 973.266 163.479 972.62 163.224 972.136H162.714C162.12 972.217 161.185 972.217 160.251 972.136L158.723 971.652V971.894Z" fill="#E7427E"/>
<path d="M220.975 1139.78C218.682 1140.51 216.304 1142.53 212.992 1146.16L209.68 1143.9C206.028 1145.19 202.206 1146.4 198.215 1147.69C193.628 1149.06 189.891 1149.71 186.07 1149.63C180.804 1148.58 176.982 1144.3 175.623 1140.27C173.755 1134.78 176.897 1130.02 183.182 1128.08C186.834 1126.96 190.656 1126.79 194.308 1127.36L193.968 1129.38C191.59 1129.21 189.467 1129.29 187.768 1129.78C183.777 1130.99 181.568 1134.3 183.097 1138.81C183.692 1140.51 184.796 1142.12 186.24 1143.49C187.853 1145.03 189.127 1145.91 190.316 1146.24C191.165 1146.08 192.354 1145.67 193.713 1145.27C197.28 1144.22 204.414 1141.48 209.85 1139.38C211.548 1138.73 212.737 1138.01 214.096 1137.6C215.37 1137.2 216.559 1137.12 217.578 1137.52C218.597 1137.93 219.702 1138.41 220.975 1139.3V1139.78Z" fill="#E7427E"/>
<path d="M269.47 1309.04C267.262 1308.96 265.138 1308.16 263.27 1305.41C260.382 1306.62 257.75 1307.11 255.456 1306.94C251.465 1306.46 247.558 1304.2 245.265 1300.73C241.358 1294.84 244.161 1289.03 249.766 1285.73C252.484 1284.11 256.306 1282.82 260.212 1282.82L260.382 1284.92C257.495 1285.24 255.541 1285.89 254.437 1286.53C252.399 1287.74 250.785 1289.2 250.446 1291.78C250.276 1293.88 250.7 1295.81 251.889 1297.67C253.333 1299.85 255.287 1301.22 257.58 1302.18C259.448 1302.99 261.147 1303.4 262.251 1302.99C264.289 1301.78 266.073 1298.72 267.941 1295.25C270.489 1295.17 272.782 1295.09 274.82 1295.25L274.99 1295.57C273.886 1297.1 272.697 1298.72 271.338 1300.57C270.574 1301.54 270.234 1302.59 270.914 1303.72C271.253 1304.28 271.933 1304.77 272.782 1305.09C274.311 1305.73 276.604 1304.69 278.472 1304.12C279.576 1304.52 280.51 1305.09 281.445 1305.57L281.36 1305.9C280.426 1306.14 279.576 1306.46 278.642 1307.03C277.538 1307.67 276.859 1308.4 276.604 1309.28C276.349 1310.41 276.519 1311.46 277.113 1312.35C277.453 1312.83 277.878 1313.24 278.387 1313.32C279.491 1312.67 281.19 1311.14 283.398 1309.04C285.351 1309.37 287.305 1309.69 289.003 1310.17L289.088 1310.66C287.135 1312.35 285.097 1313.88 282.804 1315.25C280.595 1316.55 278.387 1317.03 276.009 1316.95C273.207 1316.87 270.998 1316.22 269.894 1314.61C269.13 1313.48 268.79 1311.95 269.555 1309.45L269.47 1309.04ZM288.154 1292.99C287.899 1295.09 287.39 1296.94 286.88 1298.64C285.182 1298.72 283.568 1298.39 281.869 1297.91C282.294 1296.05 282.634 1294.2 282.973 1292.26L288.154 1292.99ZM292.655 1299.2C292.401 1301.3 291.891 1303.15 291.381 1304.85C289.683 1304.93 288.069 1304.61 286.371 1304.12C286.795 1302.27 287.135 1300.41 287.475 1298.47L292.655 1299.2ZM296.562 1291.45C296.307 1293.55 295.798 1295.41 295.288 1297.1C293.589 1297.18 291.976 1296.86 290.277 1296.38C290.702 1294.52 291.042 1292.67 291.381 1290.73L296.562 1291.45Z" fill="#E7427E"/>
<path d="M417.586 1426.83C415.972 1428.44 414.953 1431.35 413.849 1436.03L409.772 1435.62C407.819 1437.88 405.696 1439.98 403.572 1442.08C400.175 1445.47 396.523 1447.48 392.617 1448.37C388.455 1447.81 383.529 1445.39 379.707 1441.92C373.592 1436.43 374.017 1431.11 379.028 1426.1C381.066 1424.09 383.699 1422.47 386.756 1421.26L387.776 1423.36C386.162 1424.01 384.803 1424.89 383.869 1425.78C381.151 1428.52 379.792 1432.48 385.737 1437.88C388.54 1440.38 392.786 1442.8 396.438 1443.61C397.373 1442.8 398.222 1442 399.071 1441.11C404.422 1435.79 409.263 1429.25 410.452 1428.04C411.386 1427.15 412.405 1426.51 413.509 1426.35C414.613 1426.19 415.887 1426.19 417.416 1426.35L417.586 1426.83ZM401.109 1427.88C401.109 1427.48 401.024 1427.15 400.685 1426.91C400.09 1426.35 398.816 1426.1 397.033 1426.27L396.948 1426.35L398.816 1428.04C400.43 1429.49 400.685 1430.95 399.241 1432.32C398.901 1432.64 398.392 1433.04 397.457 1433.53C395.249 1434.74 393.041 1434.33 390.833 1432.4C390.493 1432.07 390.069 1431.67 389.644 1431.11C389.219 1429.98 388.88 1428.85 388.625 1427.72L389.134 1427.48C393.211 1430.7 395.844 1432.24 396.523 1431.59C396.948 1431.11 394.91 1429.41 392.532 1427.23C392.786 1426.91 392.956 1426.75 393.211 1426.43C395.079 1424.57 397.373 1423.76 399.666 1423.85C401.449 1423.93 402.808 1424.17 403.402 1424.73C404.252 1425.46 403.997 1426.27 403.233 1426.99C402.723 1427.48 402.129 1427.88 401.364 1428.2L401.109 1427.88Z" fill="#E7427E"/>
<path d="M527.823 1544.3C523.067 1541.63 522.218 1537.68 524.341 1534.29C525.87 1531.79 527.993 1530.1 530.796 1529.13C533.428 1528.4 535.891 1528.32 537.675 1529.29C541.157 1531.23 541.157 1537.84 536.826 1544.78C534.193 1549.14 530.966 1551.56 527.314 1553.25C522.558 1555.11 519.5 1554.86 517.292 1553.65C514.319 1551.96 511.941 1548.98 510.073 1545.18L511.687 1543.89C512.536 1544.94 513.555 1545.83 514.914 1546.55C517.462 1548.01 520.774 1548.41 524.341 1548.09C527.229 1547.77 529.776 1546.96 531.815 1545.75C530.541 1545.67 529.182 1545.02 527.823 1544.3ZM533.259 1533.4C531.135 1532.19 529.097 1532.68 528.503 1533.65C527.653 1535.02 529.182 1537.76 532.494 1539.62C533.513 1540.18 534.363 1540.58 535.212 1540.91C536.061 1537.76 535.127 1534.53 533.259 1533.4Z" fill="#E7427E"/>
<path d="M695.133 1595.53C693.774 1594.07 692.33 1593.27 690.717 1592.78C687.235 1591.73 683.073 1593.02 682.818 1593.67C682.479 1594.72 683.243 1596.17 684.347 1597.78C685.451 1599.16 686.47 1600.12 687.32 1600.37C688.254 1600.61 692.585 1599.88 699.804 1599.48L700.059 1599.88C698.87 1601.74 697.681 1603.59 696.322 1605.29C684.347 1605.61 677.043 1608.03 676.024 1611.42C674.665 1615.53 679.421 1620.86 689.528 1623.76C692.16 1624.57 694.793 1625.05 697.426 1625.38L697.681 1626.26C694.029 1627.88 690.632 1629.09 687.574 1629.65C686.131 1629.65 684.772 1629.33 683.328 1628.93C674.835 1626.42 669.315 1620.78 671.947 1612.47C673.052 1609 675.684 1605.77 680.355 1603.03C678.317 1600.53 677.213 1597.87 678.062 1595.12C678.572 1593.51 679.676 1591.81 681.714 1589.96C684.177 1587.78 687.659 1586.57 690.632 1587.46C693.604 1588.35 695.473 1590.77 696.492 1594.72L695.133 1595.53Z" fill="#E7427E"/>
<path d="M874.163 1638.77C871.955 1638.69 869.747 1638.2 867.708 1636.67C866.18 1635.38 865.245 1633.52 865.33 1630.94C865.67 1624.65 870.936 1620.54 874.672 1620.78C880.193 1621.1 882.656 1631.02 882.316 1636.59C882.146 1639.58 881.467 1642 880.448 1643.93C879.429 1645.38 877.73 1647 875.267 1648.53C871.445 1650.79 867.369 1652.08 862.782 1651.84C852.336 1651.27 849.534 1643.45 849.873 1637.48C850.128 1633.69 851.147 1630.22 852.506 1626.91L854.884 1627.72C854.035 1629.89 853.525 1631.91 853.44 1633.93C853.016 1641.43 858.196 1644.58 863.887 1644.9C867.029 1645.06 870.341 1644.42 873.568 1642.88C875.861 1641.83 877.73 1640.7 879.089 1639.33C879.089 1639.01 879.089 1638.69 878.919 1638.45C877.22 1638.77 875.607 1638.85 874.163 1638.77ZM868.303 1609.97C869.916 1611.42 871.275 1612.87 872.379 1614.24C871.445 1615.53 870.256 1616.74 868.812 1617.71C867.454 1616.34 866.01 1614.97 864.566 1613.68L868.303 1609.97ZM872.974 1626.67C870.256 1626.51 868.812 1628.36 868.812 1629.25C868.727 1630.86 871.105 1632.4 875.692 1632.64C876.626 1632.72 877.56 1632.64 878.409 1632.56C877.305 1629.09 875.522 1626.83 872.974 1626.67ZM876.201 1610.05C877.815 1611.5 879.174 1612.95 880.278 1614.32C879.344 1615.61 878.155 1616.74 876.711 1617.79C875.352 1616.42 873.908 1615.05 872.549 1613.76L876.201 1610.05Z" fill="#E7427E"/>
<path d="M1047.08 1620.13C1050.73 1614.08 1054.81 1609.81 1059.65 1608.92C1064.74 1608.03 1068.56 1611.26 1069.41 1615.78C1069.75 1617.63 1069.41 1621.42 1068.06 1623.6C1065.25 1627.07 1058.2 1629.81 1050.39 1631.18C1048.61 1631.51 1046.91 1631.75 1045.21 1631.91C1044.36 1633.28 1043.6 1634.82 1042.75 1636.59L1041.98 1636.03L1041.9 1632.15L1040.11 1632.23C1037.48 1630.38 1034.93 1628.52 1032.47 1626.59L1032.64 1626.18C1036.63 1626.02 1040.2 1625.78 1043.68 1625.38L1044.45 1623.68C1044.36 1621.42 1043.85 1618.68 1043.26 1615.45C1042.58 1612.06 1041.64 1608.68 1040.54 1604.72C1040.11 1603.27 1039.35 1601.74 1039.09 1600.2C1038.75 1598.59 1039.35 1597.14 1041.73 1594.48L1042.24 1594.64C1042.66 1596.74 1043.94 1598.91 1048.01 1603.03L1045.38 1605.77C1045.97 1608.51 1046.57 1611.1 1046.91 1612.55C1047.42 1615.13 1047.5 1617.55 1046.99 1619.89L1047.08 1620.13ZM1065.68 1618.2C1064.83 1616.58 1062.2 1614.81 1059.22 1615.37C1055.57 1616.02 1051.75 1619.08 1047.59 1624.89C1056.93 1623.2 1063.13 1620.94 1065.68 1618.2Z" fill="#E7427E"/>
<path d="M1244.37 1566.89C1244.03 1568.98 1243.01 1570.92 1239.87 1572.29C1240.8 1575.11 1241.06 1577.7 1240.55 1579.87C1239.61 1583.59 1236.81 1586.97 1232.9 1588.75C1226.28 1591.73 1220.59 1588.43 1217.7 1582.78C1216.34 1580.04 1215.41 1576.32 1215.92 1572.53H1218.12C1218.12 1575.36 1218.63 1577.21 1219.14 1578.34C1220.16 1580.36 1221.52 1582.05 1224.15 1582.7C1226.36 1583.1 1228.4 1582.94 1230.44 1581.97C1232.9 1580.84 1234.6 1579.15 1235.79 1577.13C1236.81 1575.44 1237.49 1573.9 1237.15 1572.77C1236.13 1570.76 1233.07 1568.66 1229.67 1566.56C1229.84 1564.14 1230.1 1561.96 1230.44 1560.03L1230.78 1559.95C1232.31 1561.16 1233.84 1562.45 1235.54 1563.98C1236.47 1564.79 1237.57 1565.27 1238.76 1564.71C1239.36 1564.47 1239.95 1563.9 1240.38 1563.09C1241.23 1561.72 1240.38 1559.46 1240.04 1557.61C1240.63 1556.64 1241.31 1555.75 1241.9 1555.03L1242.24 1555.11C1242.41 1555.99 1242.67 1556.88 1243.09 1557.77C1243.69 1558.9 1244.28 1559.62 1245.22 1559.95C1246.41 1560.35 1247.51 1560.27 1248.44 1559.87C1249.04 1559.62 1249.46 1559.3 1249.63 1558.82C1249.04 1557.69 1247.68 1555.91 1245.73 1553.57C1246.32 1551.72 1246.83 1550.02 1247.51 1548.41L1248.02 1548.33C1249.55 1550.35 1250.99 1552.44 1252.1 1554.78C1253.2 1557.04 1253.45 1559.14 1253.12 1561.4C1252.69 1564.06 1251.84 1566.08 1249.97 1566.89C1248.7 1567.45 1247.09 1567.61 1244.54 1566.64L1244.37 1566.89ZM1229.08 1539.37C1231.29 1539.86 1233.16 1540.5 1234.86 1541.23C1234.69 1542.84 1234.26 1544.38 1233.5 1545.91C1231.63 1545.26 1229.67 1544.78 1227.72 1544.3L1229.08 1539.37ZM1229.76 1547.44C1231.97 1547.93 1233.84 1548.57 1235.54 1549.3C1235.37 1550.91 1234.94 1552.44 1234.18 1553.98C1232.31 1553.33 1230.35 1552.85 1228.4 1552.36L1229.76 1547.44ZM1236.72 1543.89C1238.93 1544.38 1240.8 1545.02 1242.5 1545.75C1242.33 1547.36 1241.9 1548.89 1241.14 1550.43C1239.27 1549.78 1237.32 1549.3 1235.37 1548.81L1236.72 1543.89Z" fill="#E7427E"/>
<path d="M1384.33 1440.46C1385.86 1442.24 1388.75 1443.53 1393.59 1445.06L1392.65 1448.86C1394.78 1450.95 1396.73 1453.13 1398.68 1455.39C1401.83 1458.94 1403.61 1462.65 1404.03 1466.36C1403.01 1470.23 1399.87 1474.59 1395.8 1477.82C1389.34 1482.9 1383.91 1482.01 1379.15 1476.69C1377.28 1474.51 1375.92 1471.85 1374.99 1468.86L1377.28 1468.14C1377.79 1469.75 1378.55 1471.12 1379.4 1472.09C1381.95 1474.99 1385.94 1476.69 1392.23 1471.69C1395.2 1469.35 1398.17 1465.56 1399.45 1462.17C1398.77 1461.2 1397.92 1460.31 1397.15 1459.42C1392.14 1453.78 1385.86 1448.45 1384.84 1447.24C1383.99 1446.27 1383.48 1445.22 1383.4 1444.18C1383.4 1443.13 1383.48 1441.92 1383.82 1440.46H1384.33ZM1383.57 1456.12C1383.14 1456.12 1382.8 1456.12 1382.46 1456.44C1381.78 1456.92 1381.44 1458.13 1381.36 1459.83L1381.44 1459.91L1383.48 1458.29C1385.18 1456.92 1386.71 1456.84 1388.07 1458.38C1388.32 1458.7 1388.75 1459.26 1389.17 1460.23C1390.19 1462.41 1389.51 1464.51 1387.22 1466.36C1386.79 1466.68 1386.37 1467.01 1385.69 1467.33C1384.41 1467.65 1383.23 1467.81 1382.04 1467.98L1381.78 1467.41C1385.6 1463.94 1387.47 1461.6 1386.88 1460.88C1386.45 1460.39 1384.41 1462.17 1381.87 1464.18C1381.53 1463.94 1381.36 1463.7 1381.1 1463.46C1379.4 1461.52 1378.81 1459.26 1379.15 1457C1379.4 1455.31 1379.83 1454.1 1380.51 1453.53C1381.36 1452.89 1382.12 1453.13 1382.89 1454.02C1383.4 1454.58 1383.65 1455.15 1383.99 1455.87L1383.57 1456.12Z" fill="#E7427E"/>
<path d="M1519.62 1349.62C1516.31 1353.82 1512.06 1354.14 1508.84 1351.8C1506.37 1350.03 1504.84 1347.85 1504.16 1345.11C1503.66 1342.52 1503.83 1340.26 1505.1 1338.57C1507.48 1335.5 1514.44 1336.31 1521.24 1341.15C1525.48 1344.14 1527.69 1347.53 1529.05 1351.16C1530.49 1355.92 1529.9 1358.74 1528.37 1360.68C1526.33 1363.34 1522.85 1365.19 1518.69 1366.57L1517.58 1364.87C1518.77 1364.14 1519.88 1363.34 1520.73 1362.13C1522.51 1359.87 1523.36 1356.88 1523.36 1353.41C1523.36 1350.67 1522.85 1348.17 1521.75 1346.15C1521.41 1347.2 1520.56 1348.41 1519.62 1349.62ZM1508.92 1343.33C1507.48 1345.19 1507.65 1347.2 1508.58 1347.85C1509.94 1348.82 1513 1347.69 1515.29 1344.7C1515.97 1343.81 1516.48 1343.01 1516.9 1342.28C1513.76 1341.15 1510.28 1341.64 1508.92 1343.33Z" fill="#E7427E"/>
<path d="M1582.47 1179.88C1584.42 1178.91 1586.29 1178.18 1588.07 1177.62C1589.09 1178.91 1589.77 1180.36 1590.37 1181.98C1588.5 1182.7 1586.72 1183.51 1584.93 1184.4L1582.47 1179.88ZM1588.58 1185.53C1590.54 1184.56 1592.41 1183.83 1594.19 1183.35C1595.21 1184.64 1595.89 1186.09 1596.48 1187.7C1594.61 1188.43 1592.83 1189.24 1591.05 1190.13L1588.58 1185.53ZM1591.3 1178.43C1593.26 1177.46 1595.12 1176.73 1596.91 1176.17C1597.93 1177.46 1598.61 1178.91 1599.2 1180.52C1597.33 1181.25 1595.55 1182.06 1593.76 1182.94L1591.3 1178.43ZM1613.13 1190.85C1614.32 1192.63 1614.91 1194.72 1613.55 1197.79C1616.27 1199.32 1618.22 1201.1 1619.33 1203.03C1621.2 1206.42 1621.54 1210.7 1619.84 1214.57C1616.95 1221.02 1610.41 1222.15 1604.3 1219.73C1601.32 1218.52 1598.1 1216.35 1595.8 1213.2L1597.42 1211.83C1599.37 1213.92 1601.07 1215.05 1602.26 1215.54C1604.47 1216.43 1606.59 1216.83 1609.14 1215.62C1611.09 1214.57 1612.45 1213.12 1613.38 1211.1C1614.49 1208.68 1614.49 1206.34 1614.06 1204.08C1613.64 1202.15 1613.04 1200.61 1612.02 1199.97C1609.82 1199.08 1606.08 1199.4 1602.09 1200.05C1600.56 1198.11 1599.12 1196.34 1598.1 1194.72L1598.27 1194.4C1600.22 1194.4 1602.34 1194.32 1604.72 1194.4C1605.99 1194.4 1607.1 1194.08 1607.69 1192.87C1607.95 1192.3 1607.95 1191.5 1607.78 1190.61C1607.44 1189.08 1605.23 1187.95 1603.7 1186.74C1603.45 1185.61 1603.36 1184.56 1603.28 1183.59L1603.53 1183.43C1604.3 1183.99 1605.06 1184.48 1605.99 1184.88C1607.18 1185.37 1608.2 1185.53 1609.14 1185.2C1610.24 1184.8 1611.09 1184.07 1611.51 1183.11C1611.77 1182.54 1611.85 1182.06 1611.6 1181.57C1610.41 1181.09 1608.12 1180.69 1605.06 1180.2C1604.21 1178.51 1603.36 1176.81 1602.77 1175.2L1603.11 1174.88C1605.65 1175.44 1608.2 1176.09 1610.67 1177.06C1613.04 1178.02 1614.74 1179.4 1616.02 1181.33C1617.54 1183.59 1618.31 1185.61 1617.46 1187.46C1616.95 1188.67 1615.76 1189.8 1613.21 1190.69L1613.13 1190.85Z" fill="#E7427E"/>
<path d="M1644.47 1022.24C1643.19 1023.69 1642.51 1025.22 1642.26 1026.75C1641.75 1030.14 1643.62 1033.93 1644.38 1034.02C1645.49 1034.18 1646.93 1033.21 1648.46 1032C1649.73 1030.79 1650.58 1029.66 1650.75 1028.85C1650.92 1027.96 1649.48 1023.93 1647.95 1017.23L1648.29 1016.91C1650.41 1017.72 1652.54 1018.61 1654.49 1019.57C1656.61 1030.79 1660.09 1037.24 1663.83 1037.81C1668.33 1038.45 1673.17 1033.29 1674.79 1023.29C1675.21 1020.7 1675.38 1018.12 1675.3 1015.62L1676.23 1015.22C1678.44 1018.44 1680.14 1021.43 1681.24 1024.25C1681.5 1025.54 1681.33 1027 1681.07 1028.37C1679.71 1036.76 1674.62 1042.73 1665.61 1041.44C1661.79 1040.87 1658.14 1038.86 1654.57 1034.9C1652.28 1037.16 1649.65 1038.61 1646.68 1038.21C1644.89 1037.97 1643.02 1037.16 1640.82 1035.55C1638.18 1033.53 1636.48 1030.47 1636.91 1027.56C1637.33 1024.66 1639.71 1022.56 1643.62 1020.95L1644.47 1022.24Z" fill="#E7427E"/>
</g>
<line x1="583.84" y1="1625.94" x2="887.84" y2="1215.94" stroke="black" stroke-opacity="0.15"/>
<line x1="757.764" y1="1676.09" x2="898.764" y2="1220.09" stroke="black" stroke-opacity="0.15"/>
<line x1="971.745" y1="1683.3" x2="915.745" y2="1225.3" stroke="black" stroke-opacity="0.15"/>
<line x1="1167.81" y1="1635.49" x2="933.807" y2="1225.49" stroke="black" stroke-opacity="0.15"/>
<line x1="1350.93" y1="1537.64" x2="933.934" y2="1212.64" stroke="black" stroke-opacity="0.15"/>
<line x1="394.975" y1="1512.82" x2="872.975" y2="1211.82" stroke="black" stroke-opacity="0.15"/>
<line x1="273.094" y1="1382.76" x2="873.094" y2="1197.76" stroke="black" stroke-opacity="0.15"/>
<line x1="1506.07" y1="1409.71" x2="941.069" y2="1202.71" stroke="black" stroke-opacity="0.15"/>
<line x1="1594.17" y1="1281.74" x2="942.17" y2="1187.74" stroke="black" stroke-opacity="0.15"/>
<line x1="183.188" y1="1260.74" x2="868.188" y2="1186.74" stroke="black" stroke-opacity="0.15"/>
<line x1="183.304" y1="1088.75" x2="868.304" y2="1174.75" stroke="black" stroke-opacity="0.15"/>
<line x1="924.207" y1="1175.74" x2="1637.2" y2="1126.67" stroke="black" stroke-opacity="0.15"/>
<path d="M686.259 1300.83C686.731 1300.83 687.321 1300.83 687.912 1300.95C688.62 1301.07 689.919 1301.3 692.044 1301.77C694.052 1302.24 696.059 1302.83 697.948 1303.65C699.837 1304.36 701.845 1305.54 704.088 1307.18C706.331 1308.71 708.339 1310.6 709.992 1312.72C711.645 1314.83 712.944 1317.54 714.124 1320.83C715.187 1324.13 715.777 1327.78 715.777 1331.9C715.777 1344.37 710.818 1353.08 701.018 1358.14C698.775 1359.2 696.413 1360.14 694.052 1360.84C691.572 1361.55 689.683 1361.9 688.266 1362.02L686.141 1362.14H665.241C665.241 1362.14 665.36 1362.14 665.478 1362.14C665.596 1362.14 665.714 1362.02 665.95 1361.9C666.186 1361.79 666.422 1361.67 666.54 1361.55C666.776 1361.43 667.013 1361.2 667.249 1360.96C667.485 1360.73 667.721 1360.37 667.839 1360.14C667.957 1359.9 668.193 1359.55 668.311 1359.08C668.429 1358.61 668.548 1358.14 668.548 1357.78V1305.42C668.548 1304.71 668.429 1304.12 668.193 1303.54C667.957 1302.95 667.721 1302.6 667.367 1302.24C667.013 1301.89 666.658 1301.65 666.422 1301.42C666.068 1301.18 665.832 1301.07 665.596 1300.95L665.241 1300.83H686.259ZM686.259 1357.9C686.495 1357.9 686.967 1357.78 687.439 1357.78C687.912 1357.78 688.974 1357.55 690.391 1357.08C691.808 1356.61 693.225 1356.14 694.642 1355.43C696.059 1354.73 697.476 1353.78 699.129 1352.37C700.782 1350.96 702.199 1349.43 703.38 1347.66C704.56 1345.9 705.623 1343.55 706.331 1340.72C707.158 1337.9 707.512 1334.72 707.512 1331.19C707.512 1327.54 707.158 1324.37 706.331 1321.54C705.505 1318.72 704.56 1316.36 703.261 1314.48C701.963 1312.72 700.546 1311.19 699.011 1309.89C697.476 1308.6 695.941 1307.66 694.406 1307.07C692.871 1306.48 691.454 1306.01 690.273 1305.65C688.974 1305.3 688.03 1305.18 687.203 1305.07L686.023 1304.95H680.591C679.883 1304.95 679.174 1305.07 678.702 1305.42C678.112 1305.65 677.757 1306.01 677.521 1306.36C677.285 1306.71 677.049 1307.18 676.931 1307.66C676.813 1308.13 676.695 1308.48 676.695 1308.6C676.695 1308.83 676.695 1308.95 676.695 1309.18V1353.78C676.695 1353.9 676.695 1354.14 676.695 1354.37C676.695 1354.61 676.813 1354.96 676.931 1355.43C677.049 1355.9 677.285 1356.26 677.521 1356.61C677.757 1356.96 678.23 1357.2 678.702 1357.55C679.292 1357.78 679.883 1358.02 680.591 1358.02L686.259 1357.9Z" fill="#E7427E"/>
<path d="M755.45 1353.43L758.402 1357.9C757.93 1358.26 757.222 1358.61 756.395 1359.2C755.569 1359.67 753.797 1360.37 751.082 1361.2C748.366 1362.02 745.532 1362.49 742.816 1362.49C740.809 1362.49 738.802 1362.26 736.795 1361.79C734.787 1361.32 732.662 1360.49 730.655 1359.43C728.529 1358.26 726.758 1356.96 725.105 1355.2C723.452 1353.55 722.153 1351.43 721.209 1348.72C720.264 1346.02 719.674 1343.08 719.674 1339.9C719.674 1336.49 720.146 1333.54 721.091 1330.84C722.035 1328.13 723.334 1326.01 724.751 1324.37C726.286 1322.72 727.939 1321.31 729.946 1320.25C731.836 1319.19 733.725 1318.36 735.614 1317.89C737.385 1317.42 739.156 1317.19 740.927 1317.19C743.289 1317.19 745.414 1317.42 747.303 1317.89C749.192 1318.36 750.727 1318.95 751.908 1319.78C753.089 1320.6 754.034 1321.42 754.978 1322.48C755.923 1323.42 756.513 1324.48 756.867 1325.54C757.222 1326.6 757.458 1327.66 757.694 1328.6C757.93 1329.66 758.048 1330.6 757.93 1331.43C757.812 1332.25 757.812 1332.96 757.812 1333.54C757.576 1336.25 756.749 1338.6 755.45 1340.72C754.152 1342.84 752.499 1344.61 750.727 1345.78C748.956 1347.08 746.831 1348.14 744.469 1348.96C742.108 1349.9 739.865 1350.49 737.857 1350.84C735.85 1351.2 733.725 1351.43 731.717 1351.55C732.426 1352.72 733.134 1353.78 733.961 1354.61C734.787 1355.43 735.732 1356.26 736.677 1356.96C737.621 1357.55 738.684 1358.14 739.747 1358.49C740.809 1358.84 741.99 1359.08 743.171 1359.08C744.233 1359.08 745.414 1358.96 746.359 1358.73C747.421 1358.49 748.366 1358.26 749.192 1357.9C750.019 1357.55 750.727 1357.2 751.554 1356.84C752.262 1356.37 752.971 1356.02 753.443 1355.67C753.915 1355.31 754.388 1354.96 754.742 1354.61C755.096 1354.25 755.45 1354.02 755.569 1353.9L755.45 1353.43ZM740.809 1320.48C737.385 1321.66 734.433 1323.89 731.954 1327.31C729.474 1330.72 728.175 1334.84 728.175 1339.78C728.175 1342.84 728.766 1345.78 729.828 1348.49C732.544 1348.14 735.496 1347.19 738.448 1345.66C741.4 1344.13 743.997 1342.13 746.241 1339.78C748.956 1336.6 750.727 1333.31 751.318 1329.78C751.908 1326.25 751.2 1323.54 749.311 1321.66C747.421 1319.78 744.588 1319.31 740.809 1320.48Z" fill="#E7427E"/>
<path d="M792.88 1359.08C795.596 1359.08 798.312 1358.73 800.791 1358.14C803.271 1357.43 805.278 1356.73 806.813 1355.78C808.348 1354.84 809.765 1353.9 810.828 1352.84C812.008 1351.9 812.717 1351.08 813.189 1350.49C813.661 1349.9 813.897 1349.55 813.897 1349.55L816.023 1351.67C813.189 1354.96 809.647 1357.43 805.75 1359.31C801.736 1361.2 797.485 1362.14 792.88 1362.14C787.331 1362.14 782.135 1360.73 777.294 1358.02C772.571 1355.31 768.793 1351.55 765.959 1346.72C763.243 1342.02 761.827 1336.84 761.827 1331.19C761.827 1325.54 763.243 1320.36 765.959 1315.66C768.675 1310.83 772.453 1307.07 777.294 1304.36C782.017 1301.65 787.213 1300.24 792.88 1300.24C797.485 1300.24 801.972 1301.18 805.986 1303.18C810.119 1305.07 813.543 1307.77 816.495 1311.19L811.182 1315.77C809.174 1311.89 806.577 1308.71 803.271 1306.36C800.083 1304.01 796.54 1302.83 792.762 1302.83C788.866 1302.83 785.205 1304.12 781.899 1306.6C778.593 1309.07 775.877 1312.48 773.988 1316.83C772.099 1321.19 771.036 1325.89 771.036 1330.95C771.036 1336.01 771.981 1340.72 773.988 1345.08C775.877 1349.43 778.593 1352.84 781.899 1355.31C785.323 1357.78 788.866 1359.08 792.88 1359.08Z" fill="#531768"/>
<path d="M824.878 1323.66C829.365 1319.19 834.679 1317.07 840.937 1317.07C847.195 1317.07 852.626 1319.3 856.995 1323.66C861.482 1328.13 863.725 1333.43 863.725 1339.66C863.725 1345.9 861.482 1351.31 856.995 1355.67C852.508 1360.14 847.195 1362.26 840.937 1362.26C834.679 1362.26 829.365 1360.02 824.878 1355.67C820.392 1351.19 818.266 1345.9 818.266 1339.66C818.266 1333.43 820.392 1328.13 824.878 1323.66ZM831.373 1353.31C834.088 1357.08 837.276 1358.96 840.937 1358.96C844.597 1358.96 847.903 1357.08 850.501 1353.31C853.216 1349.55 854.515 1344.96 854.515 1339.66C854.515 1334.37 853.216 1329.78 850.501 1326.01C847.785 1322.25 844.597 1320.36 840.937 1320.36C837.276 1320.36 833.97 1322.25 831.373 1326.01C828.657 1329.78 827.358 1334.37 827.358 1339.66C827.358 1344.96 828.657 1349.67 831.373 1353.31Z" fill="#531768"/>
<path d="M895.015 1361.9C895.015 1361.9 895.133 1361.9 895.369 1361.79C895.605 1361.67 895.841 1361.55 896.195 1361.32C896.55 1361.08 896.904 1360.84 897.14 1360.49C897.376 1360.14 897.612 1359.79 897.848 1359.2C898.085 1358.61 898.203 1358.02 898.203 1357.31V1334.6C898.203 1332.84 898.203 1331.43 898.085 1330.25C897.967 1329.07 897.848 1327.78 897.494 1326.37C897.14 1324.95 896.786 1323.89 896.195 1322.95C895.605 1322.13 894.779 1321.42 893.716 1320.83C892.653 1320.25 891.236 1320.01 889.701 1320.01C888.402 1320.01 887.222 1320.36 886.159 1320.95C885.096 1321.54 884.152 1322.25 883.443 1323.07C882.735 1323.89 882.026 1324.95 881.436 1326.13C880.846 1327.31 880.373 1328.37 880.019 1329.31C879.665 1330.25 879.311 1331.31 879.075 1332.37C878.838 1333.43 878.72 1334.13 878.602 1334.6C878.602 1334.96 878.484 1335.31 878.484 1335.54V1357.43C878.484 1358.49 878.72 1359.43 879.311 1360.14C879.783 1360.84 880.373 1361.32 880.964 1361.55L881.672 1361.9H867.149C867.267 1361.9 867.385 1361.9 867.503 1361.79C867.621 1361.67 867.857 1361.55 868.212 1361.32C868.566 1361.08 868.92 1360.84 869.156 1360.49C869.392 1360.14 869.747 1359.79 869.983 1359.2C870.219 1358.61 870.337 1358.02 870.337 1357.31V1322.25C870.337 1321.78 870.219 1321.31 870.101 1320.83C869.983 1320.36 869.747 1320.01 869.629 1319.78C869.392 1319.42 869.274 1319.19 869.038 1318.95C868.802 1318.72 868.566 1318.48 868.33 1318.36C868.094 1318.25 867.857 1318.13 867.739 1318.01C867.503 1317.89 867.385 1317.89 867.267 1317.78L867.149 1317.66H878.602V1327.31C881.082 1320.25 885.451 1316.72 891.591 1316.72C894.188 1316.72 896.432 1317.07 898.321 1317.78C900.21 1318.48 901.627 1319.42 902.69 1320.48C903.752 1321.54 904.579 1322.95 905.169 1324.48C905.759 1326.13 906.232 1327.54 906.35 1328.95C906.586 1330.37 906.586 1331.9 906.586 1333.54V1357.31C906.586 1358.37 906.822 1359.31 907.412 1360.02C907.885 1360.73 908.475 1361.2 909.066 1361.43L909.774 1361.79H895.015V1361.9Z" fill="#531768"/>
<path d="M955.233 1374.14C955.233 1374.85 955.351 1375.44 955.587 1375.91C955.823 1376.5 956.059 1376.85 956.413 1377.2C956.768 1377.55 957.004 1377.79 957.358 1378.02C957.712 1378.26 958.066 1378.5 958.539 1378.61H943.897C944.016 1378.61 944.134 1378.61 944.252 1378.5C944.37 1378.38 944.606 1378.26 944.96 1378.02C945.314 1377.79 945.669 1377.55 945.905 1377.2C946.141 1376.85 946.495 1376.38 946.731 1375.91C946.967 1375.32 947.085 1374.73 947.085 1374.14V1353.78C944.488 1359.43 939.883 1362.26 933.271 1362.26C931.027 1362.26 929.02 1362.02 927.131 1361.43C925.242 1360.96 923.707 1360.26 922.408 1359.31C921.109 1358.49 919.928 1357.43 918.866 1356.37C917.803 1355.31 916.976 1354.14 916.268 1352.84C915.56 1351.55 915.087 1350.37 914.615 1349.08C914.143 1347.78 913.788 1346.61 913.552 1345.55C913.316 1344.49 913.198 1343.43 912.962 1342.6C912.844 1341.78 912.726 1341.07 912.726 1340.6V1339.78C912.726 1339.43 912.608 1338.96 912.608 1338.49C912.608 1337.9 912.608 1336.84 912.726 1335.31C912.844 1333.66 913.08 1332.13 913.434 1330.72C913.788 1329.31 914.379 1327.66 915.205 1325.78C916.032 1324.01 917.094 1322.48 918.393 1321.19C919.692 1319.89 921.345 1318.83 923.471 1318.01C925.596 1317.07 928.075 1316.72 930.909 1316.72C938.702 1316.72 944.134 1320.36 947.085 1327.54V1317.78L958.539 1323.19H958.421C958.421 1323.19 958.303 1323.31 958.184 1323.31C958.066 1323.31 957.948 1323.42 957.712 1323.54C957.476 1323.66 957.358 1323.78 957.24 1323.89C957.004 1324.01 956.886 1324.13 956.65 1324.36C956.413 1324.6 956.295 1324.72 956.177 1324.95C956.059 1325.19 955.823 1325.42 955.705 1325.66C955.587 1325.89 955.469 1326.25 955.469 1326.6C955.351 1326.95 955.351 1327.31 955.351 1327.66V1374.14H955.233ZM947.085 1343.55V1336.84C946.967 1335.54 946.849 1334.25 946.613 1332.96C946.377 1331.66 946.023 1330.25 945.314 1328.72C944.724 1327.19 943.897 1325.78 943.071 1324.6C942.126 1323.42 940.946 1322.48 939.411 1321.66C937.876 1320.83 936.105 1320.48 934.097 1320.48C932.208 1320.48 930.437 1320.83 928.902 1321.54C927.367 1322.25 926.186 1323.19 925.242 1324.36C924.297 1325.54 923.589 1326.84 922.998 1328.13C922.408 1329.54 921.936 1330.84 921.699 1332.25C921.463 1333.66 921.345 1334.96 921.109 1336.01C920.991 1337.19 920.873 1338.13 920.991 1338.72V1339.78C920.991 1339.9 920.991 1340.13 920.991 1340.49C920.991 1340.72 920.991 1341.31 920.991 1342.13C920.991 1342.96 921.109 1343.78 921.109 1344.49C921.227 1345.31 921.345 1346.25 921.699 1347.31C921.936 1348.37 922.29 1349.43 922.644 1350.25C922.998 1351.19 923.589 1352.14 924.297 1353.08C925.005 1354.02 925.714 1354.84 926.659 1355.55C927.485 1356.25 928.548 1356.73 929.847 1357.2C931.145 1357.67 932.562 1357.78 934.097 1357.78C935.986 1357.78 937.758 1357.43 939.293 1356.73C940.828 1356.02 942.008 1355.2 942.953 1354.25C943.897 1353.31 944.606 1352.02 945.196 1350.72C945.787 1349.31 946.259 1348.14 946.495 1346.96C946.849 1345.9 946.967 1344.72 947.085 1343.55Z" fill="#531768"/>
<path d="M991.718 1362.02V1352.37C989.238 1359.43 984.87 1362.96 978.73 1362.96C976.604 1362.96 974.597 1362.61 972.944 1362.02C971.291 1361.43 969.874 1360.61 968.811 1359.55C967.749 1358.61 966.922 1357.43 966.096 1356.25C965.387 1355.08 964.797 1353.78 964.561 1352.61C964.207 1351.43 963.97 1350.37 963.852 1349.31C963.734 1348.37 963.616 1347.55 963.616 1346.96V1346.02V1322.25C963.616 1321.54 963.498 1320.95 963.262 1320.48C963.026 1319.89 962.79 1319.54 962.435 1319.19C962.081 1318.83 961.727 1318.6 961.491 1318.36C961.137 1318.13 960.9 1318.01 960.664 1317.89L960.31 1317.78H974.833C974.833 1317.78 974.715 1317.89 974.597 1317.89C974.479 1317.89 974.243 1318.13 973.771 1318.36C973.416 1318.6 973.062 1318.83 972.826 1319.19C972.59 1319.54 972.354 1319.89 972.118 1320.48C971.881 1321.07 971.763 1321.66 971.763 1322.25V1345.08C971.763 1354.25 974.597 1358.84 980.383 1358.84C981.682 1358.84 982.862 1358.61 983.925 1358.02C984.988 1357.43 985.932 1356.84 986.641 1356.02C987.349 1355.2 988.058 1354.25 988.648 1353.08C989.238 1351.9 989.711 1350.84 990.065 1350.02C990.419 1349.19 990.655 1348.25 991.009 1347.08C991.364 1345.9 991.482 1345.19 991.482 1345.08C991.482 1344.96 991.6 1344.61 991.6 1344.13V1322.25C991.6 1321.78 991.6 1321.31 991.482 1320.83C991.364 1320.36 991.246 1320.01 991.009 1319.78C990.773 1319.42 990.655 1319.19 990.419 1318.95C990.183 1318.72 989.947 1318.48 989.711 1318.36C989.475 1318.25 989.238 1318.13 989.12 1318.01C988.884 1317.89 988.766 1317.89 988.648 1317.78L988.53 1317.66H1003.05C1003.05 1317.66 1002.93 1317.66 1002.82 1317.66C1002.7 1317.66 1002.58 1317.78 1002.34 1317.89C1002.11 1318.01 1001.87 1318.13 1001.75 1318.36C1001.52 1318.48 1001.28 1318.72 1001.05 1318.95C1000.81 1319.19 1000.57 1319.42 1000.46 1319.78C1000.34 1320.13 1000.1 1320.48 999.983 1320.83C999.865 1321.31 999.865 1321.66 999.865 1322.25V1357.43C999.865 1358.14 999.983 1358.73 1000.22 1359.31C1000.46 1359.9 1000.69 1360.26 1001.05 1360.61C1001.4 1360.96 1001.64 1361.2 1001.99 1361.43C1002.34 1361.67 1002.7 1361.9 1003.17 1362.14H991.718V1362.02Z" fill="#531768"/>
<path d="M1017.46 1357.43C1017.46 1358.49 1017.69 1359.43 1018.28 1360.14C1018.88 1360.84 1019.35 1361.32 1019.82 1361.55C1020.29 1361.79 1020.53 1361.9 1020.65 1361.9H1006C1006 1361.9 1006.12 1361.9 1006.24 1361.9C1006.36 1361.9 1006.48 1361.79 1006.71 1361.67C1006.95 1361.55 1007.19 1361.43 1007.3 1361.32C1007.54 1361.2 1007.78 1360.96 1008.01 1360.73C1008.25 1360.49 1008.48 1360.26 1008.6 1359.9C1008.72 1359.55 1008.96 1359.2 1009.07 1358.73C1009.19 1358.26 1009.31 1357.78 1009.31 1357.43V1322.25C1009.31 1321.19 1009.07 1320.25 1008.48 1319.54C1007.89 1318.83 1007.42 1318.36 1006.95 1318.13L1006.12 1317.78H1020.76C1020.65 1317.78 1020.53 1317.78 1020.41 1317.89C1020.29 1317.89 1020.06 1318.13 1019.58 1318.36C1019.23 1318.6 1018.88 1318.83 1018.64 1319.19C1018.4 1319.54 1018.17 1319.89 1017.93 1320.48C1017.69 1321.07 1017.58 1321.66 1017.58 1322.25V1357.43H1017.46ZM1016.75 1309.18C1015.81 1310.13 1014.62 1310.6 1013.33 1310.6C1011.91 1310.6 1010.85 1310.13 1009.9 1309.18C1008.96 1308.24 1008.48 1307.07 1008.48 1305.77C1008.48 1304.48 1008.96 1303.3 1009.9 1302.36C1010.85 1301.42 1012.03 1300.95 1013.33 1300.95C1014.74 1300.95 1015.81 1301.42 1016.75 1302.36C1017.69 1303.3 1018.17 1304.48 1018.17 1305.77C1018.17 1307.07 1017.69 1308.24 1016.75 1309.18Z" fill="#531768"/>
<path d="M1031.15 1326.25C1031.15 1327.19 1031.51 1328.13 1032.1 1328.95C1032.81 1329.78 1033.63 1330.48 1034.81 1331.07C1036 1331.66 1037.18 1332.37 1038.59 1333.07C1040.01 1333.78 1041.43 1334.49 1042.96 1335.19C1044.38 1335.9 1045.91 1336.72 1047.33 1337.66C1048.75 1338.6 1050.05 1339.66 1051.11 1340.84C1052.17 1341.9 1053.12 1343.31 1053.82 1344.96C1054.53 1346.61 1054.77 1348.37 1054.77 1350.25C1054.77 1352.84 1053.94 1355.08 1052.17 1356.96C1050.4 1358.84 1048.28 1360.14 1045.8 1360.96C1043.32 1361.79 1040.6 1362.14 1037.65 1362.14C1034.93 1362.14 1032.45 1361.9 1030.21 1361.43C1027.85 1360.96 1026.31 1360.49 1025.25 1360.02L1023.83 1359.31L1026.31 1352.02C1026.67 1352.37 1027.26 1352.84 1027.85 1353.43C1028.44 1354.02 1029.74 1354.84 1031.63 1355.9C1033.52 1356.96 1035.29 1357.67 1036.94 1357.9C1038.83 1358.14 1040.48 1358.14 1042.02 1357.67C1043.43 1357.2 1044.62 1356.61 1045.44 1355.78C1046.27 1354.96 1046.86 1354.02 1047.21 1353.2C1047.57 1352.25 1047.8 1351.43 1047.8 1350.61C1047.8 1349.19 1046.98 1347.78 1045.32 1346.37C1043.67 1344.96 1041.55 1343.66 1039.18 1342.6C1036.82 1341.43 1034.46 1340.25 1032.1 1338.96C1029.74 1337.66 1027.73 1336.13 1026.2 1334.25C1024.66 1332.37 1023.95 1330.48 1024.07 1328.25C1024.31 1324.72 1025.84 1322.01 1028.56 1320.01C1031.27 1318.01 1034.7 1317.07 1038.95 1317.07C1041.19 1317.07 1043.55 1317.3 1045.8 1317.66C1048.04 1318.01 1049.81 1318.36 1050.87 1318.83L1052.53 1319.42L1049.81 1326.25C1049.81 1326.25 1049.69 1326.13 1049.57 1326.01C1049.46 1325.89 1049.34 1325.78 1049.1 1325.42C1048.87 1325.07 1048.63 1324.84 1048.28 1324.48C1048.04 1324.13 1047.69 1323.78 1047.21 1323.42C1046.74 1323.07 1046.27 1322.72 1045.91 1322.36C1045.44 1322.01 1044.97 1321.66 1044.38 1321.42C1043.79 1321.07 1043.2 1320.83 1042.61 1320.6C1042.02 1320.36 1041.43 1320.25 1040.72 1320.13C1040.01 1320.01 1039.3 1320.01 1038.59 1320.13C1036.23 1320.36 1034.46 1321.07 1033.28 1322.36C1031.86 1323.66 1031.15 1324.95 1031.15 1326.25Z" fill="#531768"/>
<path d="M1080.63 1321.66H1070.95V1351.55C1070.95 1353.43 1071.18 1354.73 1071.65 1355.67C1072.13 1356.61 1072.83 1357.08 1073.54 1357.08C1074.25 1357.08 1075.08 1356.96 1075.79 1356.61C1076.5 1356.37 1077.09 1356.02 1077.56 1355.67L1078.27 1354.96L1078.74 1355.31C1078.74 1355.43 1078.62 1355.67 1078.38 1356.02C1078.27 1356.37 1077.91 1356.84 1077.32 1357.67C1076.73 1358.49 1076.14 1359.08 1075.55 1359.79C1074.96 1360.37 1074.13 1360.96 1073.19 1361.43C1072.24 1361.9 1071.18 1362.14 1070.12 1362.14C1067.76 1362.14 1065.99 1361.43 1064.57 1359.9C1063.27 1358.49 1062.56 1356.26 1062.56 1353.31V1321.66H1057.37V1317.66C1060.67 1317.66 1063.51 1316.6 1065.87 1314.36L1070.95 1309.89V1317.78H1080.63V1321.66Z" fill="#531768"/>
<path d="M1122.43 1361.9L1110.74 1362.02C1110.74 1360.02 1110.74 1357.67 1110.74 1354.84C1108.61 1357.55 1106.49 1359.43 1104.24 1360.61C1102 1361.79 1099.52 1362.37 1096.45 1362.37C1093.5 1362.37 1090.9 1361.9 1088.89 1360.84C1086.77 1359.79 1085.23 1358.37 1084.29 1356.61C1083.34 1354.84 1082.87 1352.72 1082.87 1350.14C1082.87 1348.72 1083.11 1347.43 1083.46 1346.37C1083.82 1345.19 1084.29 1344.13 1084.76 1343.31C1085.23 1342.37 1085.94 1341.55 1087 1340.6C1087.95 1339.66 1088.89 1338.96 1089.72 1338.37C1090.55 1337.78 1091.61 1337.07 1093.14 1336.37C1094.56 1335.66 1095.86 1335.07 1096.8 1334.6C1097.75 1334.13 1099.17 1333.54 1101.05 1332.72C1102.83 1332.01 1104.36 1331.19 1105.66 1330.25C1106.96 1329.31 1107.9 1328.48 1108.61 1327.9C1109.2 1327.19 1109.67 1326.48 1110.15 1325.78C1110.5 1325.07 1110.74 1324.48 1110.86 1324.25C1110.86 1324.01 1110.97 1323.78 1110.97 1323.54C1110.97 1322.95 1110.86 1322.48 1110.74 1322.01C1110.62 1321.54 1110.26 1321.07 1109.91 1320.72C1109.44 1320.25 1108.97 1319.89 1108.26 1319.54C1107.55 1319.19 1106.72 1318.95 1105.54 1318.83C1104.36 1318.6 1102.94 1318.6 1101.41 1318.6C1100.11 1318.6 1098.93 1318.83 1097.75 1319.19C1096.57 1319.66 1095.62 1320.13 1094.91 1320.83C1094.21 1321.54 1093.5 1322.25 1092.79 1323.07C1092.2 1323.89 1091.61 1324.72 1091.25 1325.54C1090.9 1326.37 1090.55 1327.07 1090.31 1327.78C1090.07 1328.48 1089.96 1329.07 1089.84 1329.43L1089.72 1330.01L1086.53 1321.89C1086.65 1321.78 1086.77 1321.54 1087 1321.31C1087.24 1321.07 1087.71 1320.72 1088.54 1320.13C1089.37 1319.54 1090.31 1319.07 1091.37 1318.6C1092.44 1318.13 1093.85 1317.78 1095.62 1317.42C1097.39 1317.07 1099.4 1316.83 1101.53 1316.83C1106.84 1316.83 1111.09 1318.25 1114.63 1321.19C1118.06 1324.13 1119.83 1327.31 1119.83 1330.6V1357.43C1119.83 1358.49 1120.06 1359.43 1120.66 1360.14C1121.13 1360.84 1121.72 1361.32 1122.31 1361.55L1122.43 1361.9ZM1110.62 1351.31C1110.74 1339.31 1110.62 1331.66 1110.62 1328.25C1109.2 1330.95 1106.6 1333.19 1102.83 1334.96C1095.39 1338.6 1091.61 1343.19 1091.61 1348.96C1091.61 1350.02 1091.73 1351.08 1091.85 1352.14C1092.08 1353.08 1092.32 1354.25 1092.79 1355.43C1093.26 1356.61 1093.97 1357.55 1094.91 1358.26C1095.86 1358.96 1097.16 1359.31 1098.69 1359.31C1099.99 1359.31 1101.29 1359.08 1102.47 1358.49C1103.77 1357.9 1104.83 1357.31 1105.78 1356.49C1106.72 1355.67 1107.55 1354.96 1108.26 1354.14C1108.97 1353.31 1109.56 1352.72 1109.91 1352.14L1110.62 1351.31Z" fill="#531768"/>
<path d="M727.795 1411.06V1388.5H729.363L743.635 1407.73V1388.5H745.459V1411.06H743.923L729.619 1391.79V1411.06H727.795ZM755.773 1411.31C754.728 1411.31 753.789 1411.11 752.957 1410.7C752.147 1410.3 751.496 1409.74 751.005 1409.04C750.536 1408.34 750.301 1407.55 750.301 1406.67C750.301 1405.52 750.589 1404.62 751.165 1403.98C751.741 1403.32 752.712 1402.85 754.077 1402.58C755.443 1402.3 757.32 1402.16 759.709 1402.16H760.701V1401.01C760.701 1399.58 760.413 1398.54 759.837 1397.9C759.261 1397.24 758.344 1396.91 757.085 1396.91C756.147 1396.91 755.24 1397.05 754.365 1397.33C753.512 1397.6 752.627 1398.04 751.709 1398.64L750.941 1397.14C751.752 1396.56 752.712 1396.1 753.821 1395.76C754.931 1395.42 756.008 1395.25 757.053 1395.25C758.931 1395.25 760.317 1395.73 761.213 1396.69C762.131 1397.65 762.589 1399.12 762.589 1401.1V1411.06H760.733V1408.27C760.307 1409.23 759.656 1409.98 758.781 1410.51C757.928 1411.04 756.925 1411.31 755.773 1411.31ZM756.029 1409.74C756.947 1409.74 757.747 1409.53 758.429 1409.1C759.133 1408.66 759.688 1408.05 760.093 1407.28C760.499 1406.51 760.701 1405.64 760.701 1404.66V1403.6H759.741C757.821 1403.6 756.317 1403.68 755.229 1403.86C754.163 1404.03 753.416 1404.32 752.989 1404.75C752.563 1405.18 752.349 1405.76 752.349 1406.51C752.349 1407.47 752.68 1408.25 753.341 1408.85C754.003 1409.44 754.899 1409.74 756.029 1409.74ZM772.144 1411.06L765.488 1395.54H767.664L773.136 1408.91L778.704 1395.54H780.752L774.096 1411.06H772.144ZM783.497 1391.44V1388.98H786.121V1391.44H783.497ZM783.817 1411.06V1395.54H785.769V1411.06H783.817ZM797.663 1417.07C794.953 1417.07 792.703 1416.36 790.911 1414.93L791.647 1413.46C792.628 1414.16 793.577 1414.66 794.495 1414.96C795.412 1415.28 796.447 1415.44 797.599 1415.44C799.156 1415.44 800.34 1415.01 801.151 1414.16C801.961 1413.31 802.367 1412.07 802.367 1410.45V1407.44C801.919 1408.46 801.204 1409.26 800.223 1409.84C799.263 1410.42 798.164 1410.7 796.927 1410.7C795.476 1410.7 794.228 1410.38 793.183 1409.74C792.159 1409.08 791.359 1408.18 790.783 1407.02C790.228 1405.85 789.951 1404.5 789.951 1402.96C789.951 1401.42 790.228 1400.08 790.783 1398.93C791.359 1397.78 792.159 1396.88 793.183 1396.24C794.228 1395.58 795.476 1395.25 796.927 1395.25C798.164 1395.25 799.263 1395.54 800.223 1396.11C801.183 1396.69 801.887 1397.48 802.335 1398.48V1395.54H804.255V1410.16C804.255 1414.77 802.057 1417.07 797.663 1417.07ZM797.151 1409.04C798.751 1409.04 800.02 1408.5 800.959 1407.41C801.897 1406.3 802.367 1404.82 802.367 1402.96C802.367 1401.1 801.897 1399.63 800.959 1398.54C800.02 1397.46 798.751 1396.91 797.151 1396.91C795.529 1396.91 794.249 1397.46 793.311 1398.54C792.393 1399.63 791.935 1401.1 791.935 1402.96C791.935 1404.82 792.393 1406.3 793.311 1407.41C794.249 1408.5 795.529 1409.04 797.151 1409.04ZM814.211 1411.31C813.165 1411.31 812.227 1411.11 811.395 1410.7C810.584 1410.3 809.933 1409.74 809.443 1409.04C808.973 1408.34 808.739 1407.55 808.739 1406.67C808.739 1405.52 809.027 1404.62 809.603 1403.98C810.179 1403.32 811.149 1402.85 812.515 1402.58C813.88 1402.3 815.757 1402.16 818.147 1402.16H819.139V1401.01C819.139 1399.58 818.851 1398.54 818.275 1397.9C817.699 1397.24 816.781 1396.91 815.523 1396.91C814.584 1396.91 813.677 1397.05 812.803 1397.33C811.949 1397.6 811.064 1398.04 810.147 1398.64L809.379 1397.14C810.189 1396.56 811.149 1396.1 812.259 1395.76C813.368 1395.42 814.445 1395.25 815.491 1395.25C817.368 1395.25 818.755 1395.73 819.651 1396.69C820.568 1397.65 821.027 1399.12 821.027 1401.1V1411.06H819.171V1408.27C818.744 1409.23 818.093 1409.98 817.219 1410.51C816.365 1411.04 815.363 1411.31 814.211 1411.31ZM814.467 1409.74C815.384 1409.74 816.184 1409.53 816.867 1409.1C817.571 1408.66 818.125 1408.05 818.531 1407.28C818.936 1406.51 819.139 1405.64 819.139 1404.66V1403.6H818.179C816.259 1403.6 814.755 1403.68 813.667 1403.86C812.6 1404.03 811.853 1404.32 811.427 1404.75C811 1405.18 810.787 1405.76 810.787 1406.51C810.787 1407.47 811.117 1408.25 811.779 1408.85C812.44 1409.44 813.336 1409.74 814.467 1409.74ZM831.986 1411.31C830.258 1411.31 828.956 1410.84 828.082 1409.9C827.228 1408.96 826.802 1407.62 826.802 1405.87V1397.1H823.73V1395.54H826.802V1390.74H828.754V1395.54H833.778V1397.1H828.754V1405.62C828.754 1406.92 829.02 1407.91 829.554 1408.59C830.087 1409.27 830.972 1409.62 832.21 1409.62C832.572 1409.62 832.924 1409.57 833.266 1409.49C833.607 1409.4 833.906 1409.31 834.162 1409.2L834.546 1410.74C834.311 1410.88 833.938 1411.01 833.426 1411.12C832.914 1411.25 832.434 1411.31 831.986 1411.31ZM836.528 1391.44V1388.98H839.152V1391.44H836.528ZM836.848 1411.06V1395.54H838.8V1411.06H836.848ZM843.942 1411.06V1395.54H845.862V1398.32C846.374 1397.3 847.11 1396.53 848.07 1396.02C849.03 1395.5 850.097 1395.25 851.27 1395.25C854.961 1395.25 856.806 1397.25 856.806 1401.26V1411.06H854.854V1401.42C854.854 1399.89 854.545 1398.76 853.926 1398.03C853.307 1397.31 852.326 1396.94 850.982 1396.94C849.446 1396.94 848.209 1397.42 847.27 1398.38C846.353 1399.32 845.894 1400.59 845.894 1402.19V1411.06H843.942ZM868.6 1417.07C865.891 1417.07 863.64 1416.36 861.848 1414.93L862.584 1413.46C863.566 1414.16 864.515 1414.66 865.432 1414.96C866.35 1415.28 867.384 1415.44 868.536 1415.44C870.094 1415.44 871.278 1415.01 872.088 1414.16C872.899 1413.31 873.304 1412.07 873.304 1410.45V1407.44C872.856 1408.46 872.142 1409.26 871.16 1409.84C870.2 1410.42 869.102 1410.7 867.864 1410.7C866.414 1410.7 865.166 1410.38 864.12 1409.74C863.096 1409.08 862.296 1408.18 861.72 1407.02C861.166 1405.85 860.888 1404.5 860.888 1402.96C860.888 1401.42 861.166 1400.08 861.72 1398.93C862.296 1397.78 863.096 1396.88 864.12 1396.24C865.166 1395.58 866.414 1395.25 867.864 1395.25C869.102 1395.25 870.2 1395.54 871.16 1396.11C872.12 1396.69 872.824 1397.48 873.272 1398.48V1395.54H875.192V1410.16C875.192 1414.77 872.995 1417.07 868.6 1417.07ZM868.088 1409.04C869.688 1409.04 870.958 1408.5 871.896 1407.41C872.835 1406.3 873.304 1404.82 873.304 1402.96C873.304 1401.1 872.835 1399.63 871.896 1398.54C870.958 1397.46 869.688 1396.91 868.088 1396.91C866.467 1396.91 865.187 1397.46 864.248 1398.54C863.331 1399.63 862.872 1401.1 862.872 1402.96C862.872 1404.82 863.331 1406.3 864.248 1407.41C865.187 1408.5 866.467 1409.04 868.088 1409.04ZM888.828 1411.06V1388.5H890.492L899.452 1405.49L908.348 1388.5H910.012V1411.06H908.188V1392.3L900.156 1407.57H898.748L890.62 1392.34V1411.06H888.828ZM921.008 1411.31C917.317 1411.31 915.472 1409.31 915.472 1405.3V1395.54H917.424V1405.2C917.424 1406.71 917.733 1407.83 918.352 1408.56C918.97 1409.28 919.941 1409.65 921.264 1409.65C922.693 1409.65 923.856 1409.17 924.752 1408.21C925.669 1407.25 926.128 1405.97 926.128 1404.37V1395.54H928.08V1411.06H926.192V1408.3C925.68 1409.28 924.965 1410.03 924.048 1410.54C923.152 1411.06 922.138 1411.31 921.008 1411.31ZM938.279 1411.31C937.127 1411.31 936.018 1411.14 934.951 1410.8C933.906 1410.46 933.042 1409.97 932.359 1409.33L933.063 1407.89C933.853 1408.53 934.695 1409 935.591 1409.3C936.487 1409.57 937.405 1409.71 938.343 1409.71C939.666 1409.71 940.658 1409.48 941.319 1409.01C942.002 1408.52 942.343 1407.84 942.343 1406.99C942.343 1406.33 942.119 1405.81 941.671 1405.42C941.223 1405.04 940.519 1404.73 939.559 1404.5L936.775 1403.86C934.151 1403.26 932.839 1401.9 932.839 1399.79C932.839 1398.43 933.373 1397.33 934.439 1396.5C935.506 1395.66 936.914 1395.25 938.663 1395.25C939.73 1395.25 940.733 1395.43 941.671 1395.79C942.61 1396.13 943.378 1396.63 943.975 1397.3L943.207 1398.74C942.589 1398.12 941.885 1397.66 941.095 1397.36C940.306 1397.04 939.485 1396.88 938.631 1396.88C937.394 1396.88 936.434 1397.14 935.751 1397.65C935.09 1398.16 934.759 1398.85 934.759 1399.73C934.759 1400.39 934.962 1400.92 935.367 1401.33C935.773 1401.73 936.434 1402.04 937.351 1402.26L940.135 1402.9C941.522 1403.22 942.557 1403.7 943.239 1404.34C943.922 1404.95 944.263 1405.8 944.263 1406.86C944.263 1408.25 943.719 1409.34 942.631 1410.13C941.543 1410.92 940.093 1411.31 938.279 1411.31ZM953.017 1411.31C951.566 1411.31 950.446 1410.87 949.657 1410C948.889 1409.1 948.505 1407.82 948.505 1406.16V1388.5H950.457V1405.94C950.457 1408.39 951.417 1409.62 953.337 1409.62C953.87 1409.62 954.361 1409.55 954.809 1409.42L954.745 1411.12C954.126 1411.25 953.55 1411.31 953.017 1411.31ZM957.31 1391.44V1388.98H959.934V1391.44H957.31ZM957.63 1411.06V1395.54H959.582V1411.06H957.63ZM964.787 1411.06V1395.54H966.707V1398.26C967.667 1396.25 969.299 1395.25 971.603 1395.25C974.078 1395.25 975.646 1396.32 976.307 1398.48C976.755 1397.48 977.438 1396.69 978.355 1396.11C979.273 1395.54 980.339 1395.25 981.555 1395.25C984.99 1395.25 986.707 1397.25 986.707 1401.26V1411.06H984.755V1401.42C984.755 1399.89 984.478 1398.76 983.923 1398.03C983.39 1397.31 982.483 1396.94 981.203 1396.94C979.838 1396.94 978.75 1397.42 977.939 1398.38C977.129 1399.32 976.723 1400.6 976.723 1402.22V1411.06H974.771V1401.42C974.771 1399.89 974.494 1398.76 973.939 1398.03C973.406 1397.31 972.51 1396.94 971.251 1396.94C969.865 1396.94 968.766 1397.42 967.955 1398.38C967.145 1399.32 966.739 1400.6 966.739 1402.22V1411.06H964.787ZM991.817 1411.06V1395.54H993.737V1398.32C994.249 1397.3 994.985 1396.53 995.945 1396.02C996.905 1395.5 997.972 1395.25 999.145 1395.25C1002.84 1395.25 1004.68 1397.25 1004.68 1401.26V1411.06H1002.73V1401.42C1002.73 1399.89 1002.42 1398.76 1001.8 1398.03C1001.18 1397.31 1000.2 1396.94 998.857 1396.94C997.321 1396.94 996.084 1397.42 995.145 1398.38C994.228 1399.32 993.769 1400.59 993.769 1402.19V1411.06H991.817ZM1016.48 1411.31C1014.09 1411.31 1012.2 1410.61 1010.81 1409.2C1009.45 1407.77 1008.76 1405.82 1008.76 1403.34C1008.76 1401.74 1009.07 1400.34 1009.69 1399.12C1010.31 1397.9 1011.16 1396.95 1012.25 1396.27C1013.36 1395.59 1014.63 1395.25 1016.06 1395.25C1018.13 1395.25 1019.74 1395.92 1020.89 1397.26C1022.04 1398.61 1022.62 1400.45 1022.62 1402.8V1403.7H1010.68C1010.75 1405.62 1011.27 1407.1 1012.25 1408.14C1013.25 1409.17 1014.64 1409.68 1016.41 1409.68C1017.37 1409.68 1018.27 1409.53 1019.1 1409.23C1019.95 1408.93 1020.78 1408.43 1021.6 1407.73L1022.36 1409.2C1021.68 1409.86 1020.81 1410.38 1019.74 1410.77C1018.67 1411.13 1017.58 1411.31 1016.48 1411.31ZM1016.09 1396.82C1014.47 1396.82 1013.2 1397.33 1012.28 1398.35C1011.39 1399.35 1010.86 1400.66 1010.72 1402.26H1020.86C1020.82 1400.55 1020.39 1399.22 1019.58 1398.26C1018.77 1397.3 1017.61 1396.82 1016.09 1396.82ZM1031.65 1411.31C1030.5 1411.31 1029.39 1411.14 1028.33 1410.8C1027.28 1410.46 1026.42 1409.97 1025.73 1409.33L1026.44 1407.89C1027.23 1408.53 1028.07 1409 1028.97 1409.3C1029.86 1409.57 1030.78 1409.71 1031.72 1409.71C1033.04 1409.71 1034.03 1409.48 1034.69 1409.01C1035.38 1408.52 1035.72 1407.84 1035.72 1406.99C1035.72 1406.33 1035.49 1405.81 1035.05 1405.42C1034.6 1405.04 1033.89 1404.73 1032.93 1404.5L1030.15 1403.86C1027.53 1403.26 1026.21 1401.9 1026.21 1399.79C1026.21 1398.43 1026.75 1397.33 1027.81 1396.5C1028.88 1395.66 1030.29 1395.25 1032.04 1395.25C1033.1 1395.25 1034.11 1395.43 1035.05 1395.79C1035.98 1396.13 1036.75 1396.63 1037.35 1397.3L1036.58 1398.74C1035.96 1398.12 1035.26 1397.66 1034.47 1397.36C1033.68 1397.04 1032.86 1396.88 1032.01 1396.88C1030.77 1396.88 1029.81 1397.14 1029.13 1397.65C1028.46 1398.16 1028.13 1398.85 1028.13 1399.73C1028.13 1400.39 1028.34 1400.92 1028.74 1401.33C1029.15 1401.73 1029.81 1402.04 1030.73 1402.26L1033.51 1402.9C1034.9 1403.22 1035.93 1403.7 1036.61 1404.34C1037.3 1404.95 1037.64 1405.8 1037.64 1406.86C1037.64 1408.25 1037.09 1409.34 1036.01 1410.13C1034.92 1410.92 1033.47 1411.31 1031.65 1411.31ZM1046.94 1411.31C1045.78 1411.31 1044.67 1411.14 1043.61 1410.8C1042.56 1410.46 1041.7 1409.97 1041.02 1409.33L1041.72 1407.89C1042.51 1408.53 1043.35 1409 1044.25 1409.3C1045.14 1409.57 1046.06 1409.71 1047 1409.71C1048.32 1409.71 1049.31 1409.48 1049.98 1409.01C1050.66 1408.52 1051 1407.84 1051 1406.99C1051 1406.33 1050.78 1405.81 1050.33 1405.42C1049.88 1405.04 1049.18 1404.73 1048.22 1404.5L1045.43 1403.86C1042.81 1403.26 1041.5 1401.9 1041.5 1399.79C1041.5 1398.43 1042.03 1397.33 1043.1 1396.5C1044.16 1395.66 1045.57 1395.25 1047.32 1395.25C1048.39 1395.25 1049.39 1395.43 1050.33 1395.79C1051.27 1396.13 1052.03 1396.63 1052.63 1397.3L1051.86 1398.74C1051.24 1398.12 1050.54 1397.66 1049.75 1397.36C1048.96 1397.04 1048.14 1396.88 1047.29 1396.88C1046.05 1396.88 1045.09 1397.14 1044.41 1397.65C1043.75 1398.16 1043.42 1398.85 1043.42 1399.73C1043.42 1400.39 1043.62 1400.92 1044.02 1401.33C1044.43 1401.73 1045.09 1402.04 1046.01 1402.26L1048.79 1402.9C1050.18 1403.22 1051.21 1403.7 1051.9 1404.34C1052.58 1404.95 1052.92 1405.8 1052.92 1406.86C1052.92 1408.25 1052.38 1409.34 1051.29 1410.13C1050.2 1410.92 1048.75 1411.31 1046.94 1411.31ZM593.623 1445.06V1422.5H602.135C604.546 1422.5 606.38 1423.05 607.639 1424.16C608.919 1425.27 609.559 1426.85 609.559 1428.9C609.559 1430.58 609.1 1431.95 608.183 1432.99C607.266 1434.04 605.964 1434.71 604.279 1435.01C605.196 1435.35 606.007 1436.18 606.711 1437.5L610.807 1445.06H608.663L604.759 1437.82C604.204 1436.82 603.586 1436.15 602.903 1435.81C602.22 1435.47 601.303 1435.3 600.151 1435.3H595.575V1445.06H593.623ZM595.575 1433.63H601.879C605.676 1433.63 607.575 1432.05 607.575 1428.9C607.575 1425.76 605.676 1424.19 601.879 1424.19H595.575V1433.63ZM620.803 1445.31C618.414 1445.31 616.526 1444.61 615.139 1443.2C613.774 1441.77 613.091 1439.82 613.091 1437.34C613.091 1435.74 613.401 1434.34 614.019 1433.12C614.638 1431.9 615.491 1430.95 616.579 1430.27C617.689 1429.59 618.958 1429.25 620.387 1429.25C622.457 1429.25 624.067 1429.92 625.219 1431.26C626.371 1432.61 626.947 1434.45 626.947 1436.8V1437.7H615.011C615.075 1439.62 615.598 1441.1 616.579 1442.14C617.582 1443.17 618.969 1443.68 620.739 1443.68C621.699 1443.68 622.595 1443.53 623.427 1443.23C624.281 1442.93 625.113 1442.43 625.923 1441.73L626.691 1443.2C626.009 1443.86 625.134 1444.38 624.067 1444.77C623.001 1445.13 621.913 1445.31 620.803 1445.31ZM620.419 1430.82C618.798 1430.82 617.529 1431.33 616.611 1432.35C615.715 1433.35 615.193 1434.66 615.043 1436.26H625.187C625.145 1434.55 624.718 1433.22 623.907 1432.26C623.097 1431.3 621.934 1430.82 620.419 1430.82ZM635.438 1445.31C633.988 1445.31 632.868 1444.87 632.078 1444C631.31 1443.1 630.926 1441.82 630.926 1440.16V1422.5H632.878V1439.94C632.878 1442.39 633.838 1443.62 635.758 1443.62C636.292 1443.62 636.782 1443.55 637.23 1443.42L637.166 1445.12C636.548 1445.25 635.972 1445.31 635.438 1445.31ZM646.071 1445.31C644.621 1445.31 643.362 1444.99 642.295 1444.35C641.229 1443.69 640.397 1442.76 639.799 1441.57C639.223 1440.35 638.935 1438.92 638.935 1437.28C638.935 1435.66 639.223 1434.25 639.799 1433.06C640.397 1431.84 641.229 1430.9 642.295 1430.24C643.362 1429.58 644.621 1429.25 646.071 1429.25C647.543 1429.25 648.813 1429.58 649.879 1430.24C650.946 1430.9 651.767 1431.84 652.343 1433.06C652.941 1434.25 653.239 1435.66 653.239 1437.28C653.239 1438.92 652.941 1440.35 652.343 1441.57C651.767 1442.76 650.946 1443.69 649.879 1444.35C648.813 1444.99 647.543 1445.31 646.071 1445.31ZM646.071 1443.68C647.65 1443.68 648.909 1443.12 649.847 1442.02C650.786 1440.88 651.255 1439.31 651.255 1437.28C651.255 1435.25 650.786 1433.68 649.847 1432.58C648.909 1431.47 647.65 1430.91 646.071 1430.91C644.493 1430.91 643.234 1431.47 642.295 1432.58C641.378 1433.68 640.919 1435.25 640.919 1437.28C640.919 1439.31 641.378 1440.88 642.295 1442.02C643.234 1443.12 644.493 1443.68 646.071 1443.68ZM663.731 1445.31C662.217 1445.31 660.915 1444.98 659.827 1444.32C658.739 1443.64 657.897 1442.69 657.299 1441.47C656.723 1440.23 656.435 1438.8 656.435 1437.18C656.435 1434.73 657.075 1432.8 658.355 1431.39C659.657 1429.96 661.449 1429.25 663.731 1429.25C664.67 1429.25 665.598 1429.43 666.515 1429.79C667.433 1430.15 668.201 1430.66 668.819 1431.3L668.051 1432.77C667.39 1432.13 666.686 1431.67 665.939 1431.39C665.193 1431.09 664.478 1430.94 663.795 1430.94C662.067 1430.94 660.734 1431.49 659.795 1432.58C658.878 1433.66 658.419 1435.21 658.419 1437.22C658.419 1439.22 658.878 1440.8 659.795 1441.95C660.734 1443.08 662.067 1443.65 663.795 1443.65C664.478 1443.65 665.193 1443.51 665.939 1443.23C666.686 1442.93 667.39 1442.46 668.051 1441.82L668.819 1443.3C668.201 1443.91 667.422 1444.4 666.483 1444.77C665.566 1445.13 664.649 1445.31 663.731 1445.31ZM676.726 1445.31C675.681 1445.31 674.742 1445.11 673.91 1444.7C673.1 1444.3 672.449 1443.74 671.958 1443.04C671.489 1442.34 671.254 1441.55 671.254 1440.67C671.254 1439.52 671.542 1438.62 672.118 1437.98C672.694 1437.32 673.665 1436.85 675.03 1436.58C676.396 1436.3 678.273 1436.16 680.662 1436.16H681.654V1435.01C681.654 1433.58 681.366 1432.54 680.79 1431.9C680.214 1431.24 679.297 1430.91 678.038 1430.91C677.1 1430.91 676.193 1431.05 675.318 1431.33C674.465 1431.6 673.58 1432.04 672.662 1432.64L671.894 1431.14C672.705 1430.56 673.665 1430.1 674.774 1429.76C675.884 1429.42 676.961 1429.25 678.006 1429.25C679.884 1429.25 681.27 1429.73 682.166 1430.69C683.084 1431.65 683.542 1433.12 683.542 1435.1V1445.06H681.686V1442.27C681.26 1443.23 680.609 1443.98 679.734 1444.51C678.881 1445.04 677.878 1445.31 676.726 1445.31ZM676.982 1443.74C677.9 1443.74 678.7 1443.53 679.382 1443.1C680.086 1442.66 680.641 1442.05 681.046 1441.28C681.452 1440.51 681.654 1439.64 681.654 1438.66V1437.6H680.694C678.774 1437.6 677.27 1437.68 676.182 1437.86C675.116 1438.03 674.369 1438.32 673.942 1438.75C673.516 1439.18 673.302 1439.76 673.302 1440.51C673.302 1441.47 673.633 1442.25 674.294 1442.85C674.956 1443.44 675.852 1443.74 676.982 1443.74ZM694.501 1445.31C692.773 1445.31 691.472 1444.84 690.597 1443.9C689.744 1442.96 689.317 1441.62 689.317 1439.87V1431.1H686.245V1429.54H689.317V1424.74H691.269V1429.54H696.293V1431.1H691.269V1439.62C691.269 1440.92 691.536 1441.91 692.069 1442.59C692.603 1443.27 693.488 1443.62 694.725 1443.62C695.088 1443.62 695.44 1443.57 695.781 1443.49C696.123 1443.4 696.421 1443.31 696.677 1443.2L697.061 1444.74C696.827 1444.88 696.453 1445.01 695.941 1445.12C695.429 1445.25 694.949 1445.31 694.501 1445.31ZM699.044 1425.44V1422.98H701.668V1425.44H699.044ZM699.364 1445.06V1429.54H701.316V1445.06H699.364ZM706.458 1445.06V1429.54H708.378V1432.32C708.89 1431.3 709.626 1430.53 710.586 1430.02C711.546 1429.5 712.612 1429.25 713.786 1429.25C717.476 1429.25 719.322 1431.25 719.322 1435.26V1445.06H717.37V1435.42C717.37 1433.89 717.06 1432.76 716.442 1432.03C715.823 1431.31 714.842 1430.94 713.498 1430.94C711.962 1430.94 710.724 1431.42 709.786 1432.38C708.868 1433.32 708.41 1434.59 708.41 1436.19V1445.06H706.458ZM731.116 1451.07C728.407 1451.07 726.156 1450.36 724.364 1448.93L725.1 1447.46C726.081 1448.16 727.031 1448.66 727.948 1448.96C728.865 1449.28 729.9 1449.44 731.052 1449.44C732.609 1449.44 733.793 1449.01 734.604 1448.16C735.415 1447.31 735.82 1446.07 735.82 1444.45V1441.44C735.372 1442.46 734.657 1443.26 733.676 1443.84C732.716 1444.42 731.617 1444.7 730.38 1444.7C728.929 1444.7 727.681 1444.38 726.636 1443.74C725.612 1443.08 724.812 1442.18 724.236 1441.02C723.681 1439.85 723.404 1438.5 723.404 1436.96C723.404 1435.42 723.681 1434.08 724.236 1432.93C724.812 1431.78 725.612 1430.88 726.636 1430.24C727.681 1429.58 728.929 1429.25 730.38 1429.25C731.617 1429.25 732.716 1429.54 733.676 1430.11C734.636 1430.69 735.34 1431.48 735.788 1432.48V1429.54H737.708V1444.16C737.708 1448.77 735.511 1451.07 731.116 1451.07ZM730.604 1443.04C732.204 1443.04 733.473 1442.5 734.412 1441.41C735.351 1440.3 735.82 1438.82 735.82 1436.96C735.82 1435.1 735.351 1433.63 734.412 1432.54C733.473 1431.46 732.204 1430.91 730.604 1430.91C728.983 1430.91 727.703 1431.46 726.764 1432.54C725.847 1433.63 725.388 1435.1 725.388 1436.96C725.388 1438.82 725.847 1440.3 726.764 1441.41C727.703 1442.5 728.983 1443.04 730.604 1443.04ZM751.279 1445.06V1422.5H753.231V1432.86H753.295L764.687 1422.5H767.279L755.151 1433.5L768.047 1445.06H765.359L753.295 1434.34H753.231V1445.06H751.279ZM770.333 1445.06V1429.54H772.253V1432.32C772.765 1431.3 773.501 1430.53 774.461 1430.02C775.421 1429.5 776.487 1429.25 777.661 1429.25C781.351 1429.25 783.197 1431.25 783.197 1435.26V1445.06H781.245V1435.42C781.245 1433.89 780.935 1432.76 780.317 1432.03C779.698 1431.31 778.717 1430.94 777.373 1430.94C775.837 1430.94 774.599 1431.42 773.661 1432.38C772.743 1433.32 772.285 1434.59 772.285 1436.19V1445.06H770.333ZM794.415 1445.31C792.964 1445.31 791.706 1444.99 790.639 1444.35C789.572 1443.69 788.74 1442.76 788.143 1441.57C787.567 1440.35 787.279 1438.92 787.279 1437.28C787.279 1435.66 787.567 1434.25 788.143 1433.06C788.74 1431.84 789.572 1430.9 790.639 1430.24C791.706 1429.58 792.964 1429.25 794.415 1429.25C795.887 1429.25 797.156 1429.58 798.223 1430.24C799.29 1430.9 800.111 1431.84 800.687 1433.06C801.284 1434.25 801.583 1435.66 801.583 1437.28C801.583 1438.92 801.284 1440.35 800.687 1441.57C800.111 1442.76 799.29 1443.69 798.223 1444.35C797.156 1444.99 795.887 1445.31 794.415 1445.31ZM794.415 1443.68C795.994 1443.68 797.252 1443.12 798.191 1442.02C799.13 1440.88 799.599 1439.31 799.599 1437.28C799.599 1435.25 799.13 1433.68 798.191 1432.58C797.252 1431.47 795.994 1430.91 794.415 1430.91C792.836 1430.91 791.578 1431.47 790.639 1432.58C789.722 1433.68 789.263 1435.25 789.263 1437.28C789.263 1439.31 789.722 1440.88 790.639 1442.02C791.578 1443.12 792.836 1443.68 794.415 1443.68ZM809.647 1445.06L804.015 1429.54H806.095L810.671 1442.75L815.439 1429.54H817.359L822.031 1442.78L826.703 1429.54H828.719L823.055 1445.06H821.039L816.367 1432.06L811.663 1445.06H809.647ZM836.782 1445.31C835.332 1445.31 834.212 1444.87 833.422 1444C832.654 1443.1 832.27 1441.82 832.27 1440.16V1422.5H834.222V1439.94C834.222 1442.39 835.182 1443.62 837.102 1443.62C837.636 1443.62 838.126 1443.55 838.574 1443.42L838.51 1445.12C837.892 1445.25 837.316 1445.31 836.782 1445.31ZM847.991 1445.31C845.602 1445.31 843.714 1444.61 842.327 1443.2C840.962 1441.77 840.279 1439.82 840.279 1437.34C840.279 1435.74 840.588 1434.34 841.207 1433.12C841.826 1431.9 842.679 1430.95 843.767 1430.27C844.876 1429.59 846.146 1429.25 847.575 1429.25C849.644 1429.25 851.255 1429.92 852.407 1431.26C853.559 1432.61 854.135 1434.45 854.135 1436.8V1437.7H842.199C842.263 1439.62 842.786 1441.1 843.767 1442.14C844.77 1443.17 846.156 1443.68 847.927 1443.68C848.887 1443.68 849.783 1443.53 850.615 1443.23C851.468 1442.93 852.3 1442.43 853.111 1441.73L853.879 1443.2C853.196 1443.86 852.322 1444.38 851.255 1444.77C850.188 1445.13 849.1 1445.31 847.991 1445.31ZM847.607 1430.82C845.986 1430.82 844.716 1431.33 843.799 1432.35C842.903 1433.35 842.38 1434.66 842.231 1436.26H852.375C852.332 1434.55 851.906 1433.22 851.095 1432.26C850.284 1431.3 849.122 1430.82 847.607 1430.82ZM864.034 1445.31C862.626 1445.31 861.41 1444.99 860.386 1444.35C859.362 1443.69 858.562 1442.76 857.986 1441.57C857.431 1440.35 857.154 1438.92 857.154 1437.28C857.154 1434.83 857.773 1432.87 859.01 1431.42C860.247 1429.97 861.922 1429.25 864.034 1429.25C865.271 1429.25 866.359 1429.54 867.298 1430.11C868.258 1430.67 868.973 1431.43 869.442 1432.42V1422.5H871.394V1445.06H869.474V1442.11C869.005 1443.11 868.29 1443.9 867.33 1444.48C866.391 1445.03 865.293 1445.31 864.034 1445.31ZM864.29 1443.68C865.869 1443.68 867.127 1443.12 868.066 1442.02C869.005 1440.88 869.474 1439.31 869.474 1437.28C869.474 1435.25 869.005 1433.68 868.066 1432.58C867.127 1431.47 865.869 1430.91 864.29 1430.91C862.711 1430.91 861.453 1431.47 860.514 1432.58C859.597 1433.68 859.138 1435.25 859.138 1437.28C859.138 1439.31 859.597 1440.88 860.514 1442.02C861.453 1443.12 862.711 1443.68 864.29 1443.68ZM883.272 1451.07C880.563 1451.07 878.312 1450.36 876.52 1448.93L877.256 1447.46C878.238 1448.16 879.187 1448.66 880.104 1448.96C881.022 1449.28 882.056 1449.44 883.208 1449.44C884.766 1449.44 885.95 1449.01 886.76 1448.16C887.571 1447.31 887.976 1446.07 887.976 1444.45V1441.44C887.528 1442.46 886.814 1443.26 885.832 1443.84C884.872 1444.42 883.774 1444.7 882.536 1444.7C881.086 1444.7 879.838 1444.38 878.792 1443.74C877.768 1443.08 876.968 1442.18 876.392 1441.02C875.838 1439.85 875.56 1438.5 875.56 1436.96C875.56 1435.42 875.838 1434.08 876.392 1432.93C876.968 1431.78 877.768 1430.88 878.792 1430.24C879.838 1429.58 881.086 1429.25 882.536 1429.25C883.774 1429.25 884.872 1429.54 885.832 1430.11C886.792 1430.69 887.496 1431.48 887.944 1432.48V1429.54H889.864V1444.16C889.864 1448.77 887.667 1451.07 883.272 1451.07ZM882.76 1443.04C884.36 1443.04 885.63 1442.5 886.568 1441.41C887.507 1440.3 887.976 1438.82 887.976 1436.96C887.976 1435.1 887.507 1433.63 886.568 1432.54C885.63 1431.46 884.36 1430.91 882.76 1430.91C881.139 1430.91 879.859 1431.46 878.92 1432.54C878.003 1433.63 877.544 1435.1 877.544 1436.96C877.544 1438.82 878.003 1440.3 878.92 1441.41C879.859 1442.5 881.139 1443.04 882.76 1443.04ZM901.772 1445.31C899.383 1445.31 897.495 1444.61 896.108 1443.2C894.743 1441.77 894.06 1439.82 894.06 1437.34C894.06 1435.74 894.37 1434.34 894.988 1433.12C895.607 1431.9 896.46 1430.95 897.548 1430.27C898.658 1429.59 899.927 1429.25 901.356 1429.25C903.426 1429.25 905.036 1429.92 906.188 1431.26C907.34 1432.61 907.916 1434.45 907.916 1436.8V1437.7H895.98C896.044 1439.62 896.567 1441.1 897.548 1442.14C898.551 1443.17 899.938 1443.68 901.708 1443.68C902.668 1443.68 903.564 1443.53 904.396 1443.23C905.25 1442.93 906.082 1442.43 906.892 1441.73L907.66 1443.2C906.978 1443.86 906.103 1444.38 905.036 1444.77C903.97 1445.13 902.882 1445.31 901.772 1445.31ZM901.388 1430.82C899.767 1430.82 898.498 1431.33 897.58 1432.35C896.684 1433.35 896.162 1434.66 896.012 1436.26H906.156C906.114 1434.55 905.687 1433.22 904.876 1432.26C904.066 1431.3 902.903 1430.82 901.388 1430.82ZM912.535 1448.45L911.543 1447.65C911.991 1447.18 912.29 1446.73 912.439 1446.3C912.61 1445.9 912.717 1445.48 912.759 1445.06H911.479V1442.3H914.199V1444.35C914.199 1445.12 914.082 1445.83 913.847 1446.5C913.613 1447.18 913.175 1447.83 912.535 1448.45ZM919.279 1445.06V1422.5H927.791C930.202 1422.5 932.037 1423.07 933.295 1424.22C934.575 1425.38 935.215 1427.02 935.215 1429.15C935.215 1431.26 934.575 1432.91 933.295 1434.08C932.037 1435.23 930.202 1435.81 927.791 1435.81H921.231V1445.06H919.279ZM921.231 1434.08H927.631C931.365 1434.08 933.231 1432.44 933.231 1429.15C933.231 1425.84 931.365 1424.19 927.631 1424.19H921.231V1434.08ZM944.352 1445.31C942.902 1445.31 941.643 1444.99 940.576 1444.35C939.51 1443.69 938.678 1442.76 938.08 1441.57C937.504 1440.35 937.216 1438.92 937.216 1437.28C937.216 1435.66 937.504 1434.25 938.08 1433.06C938.678 1431.84 939.51 1430.9 940.576 1430.24C941.643 1429.58 942.902 1429.25 944.352 1429.25C945.824 1429.25 947.094 1429.58 948.16 1430.24C949.227 1430.9 950.048 1431.84 950.624 1433.06C951.222 1434.25 951.52 1435.66 951.52 1437.28C951.52 1438.92 951.222 1440.35 950.624 1441.57C950.048 1442.76 949.227 1443.69 948.16 1444.35C947.094 1444.99 945.824 1445.31 944.352 1445.31ZM944.352 1443.68C945.931 1443.68 947.19 1443.12 948.128 1442.02C949.067 1440.88 949.536 1439.31 949.536 1437.28C949.536 1435.25 949.067 1433.68 948.128 1432.58C947.19 1431.47 945.931 1430.91 944.352 1430.91C942.774 1430.91 941.515 1431.47 940.576 1432.58C939.659 1433.68 939.2 1435.25 939.2 1437.28C939.2 1439.31 939.659 1440.88 940.576 1442.02C941.515 1443.12 942.774 1443.68 944.352 1443.68ZM959.585 1445.06L953.953 1429.54H956.033L960.609 1442.75L965.377 1429.54H967.297L971.969 1442.78L976.641 1429.54H978.657L972.993 1445.06H970.977L966.305 1432.06L961.601 1445.06H959.585ZM988.772 1445.31C986.383 1445.31 984.495 1444.61 983.108 1443.2C981.743 1441.77 981.06 1439.82 981.06 1437.34C981.06 1435.74 981.37 1434.34 981.988 1433.12C982.607 1431.9 983.46 1430.95 984.548 1430.27C985.658 1429.59 986.927 1429.25 988.356 1429.25C990.426 1429.25 992.036 1429.92 993.188 1431.26C994.34 1432.61 994.916 1434.45 994.916 1436.8V1437.7H982.98C983.044 1439.62 983.567 1441.1 984.548 1442.14C985.551 1443.17 986.938 1443.68 988.708 1443.68C989.668 1443.68 990.564 1443.53 991.396 1443.23C992.25 1442.93 993.082 1442.43 993.892 1441.73L994.66 1443.2C993.978 1443.86 993.103 1444.38 992.036 1444.77C990.97 1445.13 989.882 1445.31 988.772 1445.31ZM988.388 1430.82C986.767 1430.82 985.498 1431.33 984.58 1432.35C983.684 1433.35 983.162 1434.66 983.012 1436.26H993.156C993.114 1434.55 992.687 1433.22 991.876 1432.26C991.066 1431.3 989.903 1430.82 988.388 1430.82ZM998.895 1445.06V1429.54H1000.82V1432.35C1001.26 1431.37 1001.91 1430.62 1002.77 1430.11C1003.62 1429.6 1004.71 1429.3 1006.03 1429.22L1006.83 1429.15L1007.02 1430.85L1005.65 1431.01C1004.13 1431.14 1002.96 1431.64 1002.13 1432.51C1001.3 1433.36 1000.88 1434.52 1000.88 1435.97V1445.06H998.895ZM1024.3 1445.31C1022.1 1445.31 1020.39 1444.81 1019.18 1443.81C1017.96 1442.8 1017.35 1441.46 1017.35 1439.78C1017.35 1438.35 1017.75 1437.12 1018.54 1436.1C1019.33 1435.05 1020.53 1433.97 1022.15 1432.86L1022.79 1432.42C1021.77 1431.28 1021.05 1430.31 1020.65 1429.5C1020.24 1428.69 1020.04 1427.87 1020.04 1427.04C1020.04 1425.61 1020.51 1424.46 1021.45 1423.58C1022.41 1422.69 1023.7 1422.24 1025.32 1422.24C1026.66 1422.24 1027.78 1422.63 1028.68 1423.42C1029.6 1424.21 1030.06 1425.28 1030.06 1426.62C1030.06 1427.35 1029.92 1428.03 1029.64 1428.67C1029.36 1429.29 1028.89 1429.93 1028.23 1430.59C1027.57 1431.23 1026.65 1431.95 1025.48 1432.74L1031.14 1439.23C1031.61 1438.34 1031.99 1437.26 1032.26 1436C1032.54 1434.72 1032.7 1433.39 1032.74 1432H1034.5C1034.46 1433.68 1034.25 1435.25 1033.86 1436.7C1033.5 1438.15 1033 1439.44 1032.36 1440.58L1036.39 1445.06H1034.02L1031.34 1442.02C1030.48 1443.06 1029.45 1443.87 1028.23 1444.45C1027.02 1445.02 1025.7 1445.31 1024.3 1445.31ZM1025.32 1423.84C1024.32 1423.84 1023.5 1424.14 1022.86 1424.74C1022.24 1425.31 1021.93 1426.07 1021.93 1427.01C1021.93 1427.5 1021.99 1427.95 1022.12 1428.35C1022.27 1428.76 1022.53 1429.2 1022.89 1429.7C1023.25 1430.19 1023.75 1430.79 1024.39 1431.52C1025.82 1430.54 1026.82 1429.7 1027.4 1428.99C1028 1428.29 1028.3 1427.55 1028.3 1426.78C1028.3 1425.89 1028.02 1425.17 1027.46 1424.64C1026.91 1424.11 1026.19 1423.84 1025.32 1423.84ZM1024.36 1443.65C1026.77 1443.65 1028.71 1442.68 1030.18 1440.74L1023.88 1433.66L1023.3 1434.08C1022.3 1434.76 1021.51 1435.39 1020.94 1435.97C1020.36 1436.52 1019.94 1437.1 1019.69 1437.7C1019.43 1438.27 1019.3 1438.93 1019.3 1439.68C1019.3 1440.94 1019.73 1441.92 1020.58 1442.62C1021.44 1443.31 1022.7 1443.65 1024.36 1443.65ZM1047.97 1445.06V1422.5H1056.48C1058.89 1422.5 1060.72 1423.05 1061.98 1424.16C1063.26 1425.27 1063.9 1426.85 1063.9 1428.9C1063.9 1430.58 1063.44 1431.95 1062.53 1432.99C1061.61 1434.04 1060.31 1434.71 1058.62 1435.01C1059.54 1435.35 1060.35 1436.18 1061.05 1437.5L1065.15 1445.06H1063.01L1059.1 1437.82C1058.55 1436.82 1057.93 1436.15 1057.25 1435.81C1056.56 1435.47 1055.65 1435.3 1054.49 1435.3H1049.92V1445.06H1047.97ZM1049.92 1433.63H1056.22C1060.02 1433.63 1061.92 1432.05 1061.92 1428.9C1061.92 1425.76 1060.02 1424.19 1056.22 1424.19H1049.92V1433.63ZM1075.15 1445.31C1072.76 1445.31 1070.87 1444.61 1069.48 1443.2C1068.12 1441.77 1067.44 1439.82 1067.44 1437.34C1067.44 1435.74 1067.74 1434.34 1068.36 1433.12C1068.98 1431.9 1069.84 1430.95 1070.92 1430.27C1072.03 1429.59 1073.3 1429.25 1074.73 1429.25C1076.8 1429.25 1078.41 1429.92 1079.56 1431.26C1080.72 1432.61 1081.29 1434.45 1081.29 1436.8V1437.7H1069.36C1069.42 1439.62 1069.94 1441.1 1070.92 1442.14C1071.93 1443.17 1073.31 1443.68 1075.08 1443.68C1076.04 1443.68 1076.94 1443.53 1077.77 1443.23C1078.62 1442.93 1079.46 1442.43 1080.27 1441.73L1081.04 1443.2C1080.35 1443.86 1079.48 1444.38 1078.41 1444.77C1077.34 1445.13 1076.26 1445.31 1075.15 1445.31ZM1074.76 1430.82C1073.14 1430.82 1071.87 1431.33 1070.96 1432.35C1070.06 1433.35 1069.54 1434.66 1069.39 1436.26H1079.53C1079.49 1434.55 1079.06 1433.22 1078.25 1432.26C1077.44 1431.3 1076.28 1430.82 1074.76 1430.82ZM1090.33 1445.31C1089.17 1445.31 1088.06 1445.14 1087 1444.8C1085.95 1444.46 1085.09 1443.97 1084.41 1443.33L1085.11 1441.89C1085.9 1442.53 1086.74 1443 1087.64 1443.3C1088.53 1443.57 1089.45 1443.71 1090.39 1443.71C1091.71 1443.71 1092.7 1443.48 1093.37 1443.01C1094.05 1442.52 1094.39 1441.84 1094.39 1440.99C1094.39 1440.33 1094.17 1439.81 1093.72 1439.42C1093.27 1439.04 1092.57 1438.73 1091.61 1438.5L1088.82 1437.86C1086.2 1437.26 1084.89 1435.9 1084.89 1433.79C1084.89 1432.43 1085.42 1431.33 1086.49 1430.5C1087.55 1429.66 1088.96 1429.25 1090.71 1429.25C1091.78 1429.25 1092.78 1429.43 1093.72 1429.79C1094.66 1430.13 1095.42 1430.63 1096.02 1431.3L1095.25 1432.74C1094.64 1432.12 1093.93 1431.66 1093.14 1431.36C1092.35 1431.04 1091.53 1430.88 1090.68 1430.88C1089.44 1430.88 1088.48 1431.14 1087.8 1431.65C1087.14 1432.16 1086.81 1432.85 1086.81 1433.73C1086.81 1434.39 1087.01 1434.92 1087.41 1435.33C1087.82 1435.73 1088.48 1436.04 1089.4 1436.26L1092.18 1436.9C1093.57 1437.22 1094.6 1437.7 1095.29 1438.34C1095.97 1438.95 1096.31 1439.8 1096.31 1440.86C1096.31 1442.25 1095.77 1443.34 1094.68 1444.13C1093.59 1444.92 1092.14 1445.31 1090.33 1445.31ZM1100.23 1425.44V1422.98H1102.86V1425.44H1100.23ZM1100.55 1445.06V1429.54H1102.5V1445.06H1100.55ZM1112.7 1445.31C1111.55 1445.31 1110.44 1445.14 1109.37 1444.8C1108.33 1444.46 1107.46 1443.97 1106.78 1443.33L1107.49 1441.89C1108.27 1442.53 1109.12 1443 1110.01 1443.3C1110.91 1443.57 1111.83 1443.71 1112.77 1443.71C1114.09 1443.71 1115.08 1443.48 1115.74 1443.01C1116.42 1442.52 1116.77 1441.84 1116.77 1440.99C1116.77 1440.33 1116.54 1439.81 1116.09 1439.42C1115.65 1439.04 1114.94 1438.73 1113.98 1438.5L1111.2 1437.86C1108.57 1437.26 1107.26 1435.9 1107.26 1433.79C1107.26 1432.43 1107.79 1431.33 1108.86 1430.5C1109.93 1429.66 1111.34 1429.25 1113.09 1429.25C1114.15 1429.25 1115.15 1429.43 1116.09 1429.79C1117.03 1430.13 1117.8 1430.63 1118.4 1431.3L1117.63 1432.74C1117.01 1432.12 1116.31 1431.66 1115.52 1431.36C1114.73 1431.04 1113.91 1430.88 1113.05 1430.88C1111.82 1430.88 1110.86 1431.14 1110.17 1431.65C1109.51 1432.16 1109.18 1432.85 1109.18 1433.73C1109.18 1434.39 1109.38 1434.92 1109.79 1435.33C1110.19 1435.73 1110.86 1436.04 1111.77 1436.26L1114.56 1436.9C1115.94 1437.22 1116.98 1437.7 1117.66 1438.34C1118.34 1438.95 1118.69 1439.8 1118.69 1440.86C1118.69 1442.25 1118.14 1443.34 1117.05 1444.13C1115.97 1444.92 1114.51 1445.31 1112.7 1445.31ZM1128.63 1445.31C1126.9 1445.31 1125.6 1444.84 1124.72 1443.9C1123.87 1442.96 1123.44 1441.62 1123.44 1439.87V1431.1H1120.37V1429.54H1123.44V1424.74H1125.39V1429.54H1130.42V1431.1H1125.39V1439.62C1125.39 1440.92 1125.66 1441.91 1126.19 1442.59C1126.73 1443.27 1127.61 1443.62 1128.85 1443.62C1129.21 1443.62 1129.56 1443.57 1129.91 1443.49C1130.25 1443.4 1130.55 1443.31 1130.8 1443.2L1131.19 1444.74C1130.95 1444.88 1130.58 1445.01 1130.07 1445.12C1129.55 1445.25 1129.07 1445.31 1128.63 1445.31ZM1138.29 1445.31C1137.24 1445.31 1136.3 1445.11 1135.47 1444.7C1134.66 1444.3 1134.01 1443.74 1133.52 1443.04C1133.05 1442.34 1132.82 1441.55 1132.82 1440.67C1132.82 1439.52 1133.1 1438.62 1133.68 1437.98C1134.26 1437.32 1135.23 1436.85 1136.59 1436.58C1137.96 1436.3 1139.84 1436.16 1142.22 1436.16H1143.22V1435.01C1143.22 1433.58 1142.93 1432.54 1142.35 1431.9C1141.78 1431.24 1140.86 1430.91 1139.6 1430.91C1138.66 1430.91 1137.76 1431.05 1136.88 1431.33C1136.03 1431.6 1135.14 1432.04 1134.22 1432.64L1133.46 1431.14C1134.27 1430.56 1135.23 1430.1 1136.34 1429.76C1137.45 1429.42 1138.52 1429.25 1139.57 1429.25C1141.45 1429.25 1142.83 1429.73 1143.73 1430.69C1144.65 1431.65 1145.1 1433.12 1145.1 1435.1V1445.06H1143.25V1442.27C1142.82 1443.23 1142.17 1443.98 1141.3 1444.51C1140.44 1445.04 1139.44 1445.31 1138.29 1445.31ZM1138.54 1443.74C1139.46 1443.74 1140.26 1443.53 1140.94 1443.1C1141.65 1442.66 1142.2 1442.05 1142.61 1441.28C1143.01 1440.51 1143.22 1439.64 1143.22 1438.66V1437.6H1142.26C1140.34 1437.6 1138.83 1437.68 1137.74 1437.86C1136.68 1438.03 1135.93 1438.32 1135.5 1438.75C1135.08 1439.18 1134.86 1439.76 1134.86 1440.51C1134.86 1441.47 1135.2 1442.25 1135.86 1442.85C1136.52 1443.44 1137.41 1443.74 1138.54 1443.74ZM1150.21 1445.06V1429.54H1152.13V1432.32C1152.64 1431.3 1153.38 1430.53 1154.34 1430.02C1155.3 1429.5 1156.36 1429.25 1157.54 1429.25C1161.23 1429.25 1163.07 1431.25 1163.07 1435.26V1445.06H1161.12V1435.42C1161.12 1433.89 1160.81 1432.76 1160.19 1432.03C1159.57 1431.31 1158.59 1430.94 1157.25 1430.94C1155.71 1430.94 1154.47 1431.42 1153.54 1432.38C1152.62 1433.32 1152.16 1434.59 1152.16 1436.19V1445.06H1150.21ZM1174.45 1445.31C1172.94 1445.31 1171.63 1444.98 1170.55 1444.32C1169.46 1443.64 1168.62 1442.69 1168.02 1441.47C1167.44 1440.23 1167.15 1438.8 1167.15 1437.18C1167.15 1434.73 1167.79 1432.8 1169.07 1431.39C1170.38 1429.96 1172.17 1429.25 1174.45 1429.25C1175.39 1429.25 1176.32 1429.43 1177.23 1429.79C1178.15 1430.15 1178.92 1430.66 1179.54 1431.3L1178.77 1432.77C1178.11 1432.13 1177.4 1431.67 1176.66 1431.39C1175.91 1431.09 1175.2 1430.94 1174.51 1430.94C1172.79 1430.94 1171.45 1431.49 1170.51 1432.58C1169.6 1433.66 1169.14 1435.21 1169.14 1437.22C1169.14 1439.22 1169.6 1440.8 1170.51 1441.95C1171.45 1443.08 1172.79 1443.65 1174.51 1443.65C1175.2 1443.65 1175.91 1443.51 1176.66 1443.23C1177.4 1442.93 1178.11 1442.46 1178.77 1441.82L1179.54 1443.3C1178.92 1443.91 1178.14 1444.4 1177.2 1444.77C1176.28 1445.13 1175.37 1445.31 1174.45 1445.31ZM1189.24 1445.31C1186.85 1445.31 1184.96 1444.61 1183.58 1443.2C1182.21 1441.77 1181.53 1439.82 1181.53 1437.34C1181.53 1435.74 1181.84 1434.34 1182.46 1433.12C1183.08 1431.9 1183.93 1430.95 1185.02 1430.27C1186.13 1429.59 1187.4 1429.25 1188.82 1429.25C1190.89 1429.25 1192.5 1429.92 1193.66 1431.26C1194.81 1432.61 1195.38 1434.45 1195.38 1436.8V1437.7H1183.45C1183.51 1439.62 1184.04 1441.1 1185.02 1442.14C1186.02 1443.17 1187.41 1443.68 1189.18 1443.68C1190.14 1443.68 1191.03 1443.53 1191.86 1443.23C1192.72 1442.93 1193.55 1442.43 1194.36 1441.73L1195.13 1443.2C1194.45 1443.86 1193.57 1444.38 1192.5 1444.77C1191.44 1445.13 1190.35 1445.31 1189.24 1445.31ZM1188.86 1430.82C1187.24 1430.82 1185.97 1431.33 1185.05 1432.35C1184.15 1433.35 1183.63 1434.66 1183.48 1436.26H1193.62C1193.58 1434.55 1193.16 1433.22 1192.34 1432.26C1191.53 1431.3 1190.37 1430.82 1188.86 1430.82Z" fill="#531768"/>
<g clip-path="url(#clip1_23_123)">
<path d="M943.033 1164.83C943.074 1163.52 942.657 1162.84 941.49 1162.25C929.817 1156.4 918.144 1150.51 906.513 1144.62C905.554 1144.11 904.803 1144.11 903.845 1144.58C902.636 1145.13 901.468 1145.81 900.259 1146.4C899.05 1147 897.841 1147.55 896.507 1147.89C896.174 1148.61 895.423 1148.69 894.798 1148.99C886.252 1153.18 877.705 1157.38 869.118 1161.44C867.742 1162.12 867.241 1162.89 867.325 1164.5C867.45 1168.31 867.408 1172.12 867.408 1175.89C875.162 1179.79 882.917 1183.69 890.713 1187.59C895.173 1189.83 899.592 1192.08 904.053 1194.33C904.72 1194.67 905.304 1194.96 906.179 1194.54C912.808 1191.28 919.436 1188.06 926.023 1184.83L943.033 1176.66C942.991 1172.72 942.949 1168.78 943.033 1164.83ZM904.095 1180C892.839 1174.28 881.541 1168.56 870.243 1162.84C870.076 1162.76 869.91 1162.63 869.451 1162.29C871.41 1161.32 873.245 1160.39 875.079 1159.5C884.626 1154.83 894.214 1150.22 903.761 1145.56C904.595 1145.13 905.304 1144.92 906.263 1145.43C917.477 1151.15 928.691 1156.78 939.906 1162.46C940.156 1162.59 940.364 1162.76 940.906 1163.1C935.112 1165.94 929.609 1168.61 924.147 1171.28C918.227 1174.16 912.308 1177.04 906.388 1179.96C905.637 1180.3 904.97 1180.43 904.095 1180Z" fill="#531768"/>
<path d="M932.193 1188.06C932.402 1187.84 932.735 1187.67 933.152 1187.55C933.319 1187.5 933.486 1187.46 933.652 1187.42L942.907 1183.35C942.991 1183.27 943.074 1183.22 943.158 1183.14C943.533 1182.8 943.074 1181.53 942.866 1180.68C939.322 1182.38 935.862 1184.03 932.402 1185.72C924.147 1189.75 915.893 1193.73 907.68 1197.8C905.804 1198.73 904.303 1198.73 902.385 1197.76C891.463 1192.08 880.457 1186.61 869.451 1181.11C868.784 1180.77 868.117 1179.88 867.241 1180.72C867.241 1180.98 867.241 1181.23 867.241 1181.49C867.95 1182 868.617 1182.67 869.409 1182.97C870.577 1183.44 870.326 1184.33 870.326 1185.39C869.284 1184.96 868.325 1184.54 867.325 1184.16C867.325 1192.8 867.367 1201.44 867.367 1210.09C868.492 1211.15 869.91 1211.61 871.494 1212.29V1212.17L888.253 1220.89L888.461 1221.02C893.631 1223.56 898.8 1226.15 903.928 1228.78C904.803 1229.24 905.554 1229.28 906.471 1228.82C918.227 1223.06 929.984 1217.33 941.74 1211.66C942.782 1211.15 943.116 1210.51 943.074 1209.37C943.032 1204.92 943.074 1200.47 943.116 1196.02V1194.33C943.116 1192.21 943.116 1190.09 943.116 1187.97C943.116 1187 943.116 1185.98 943.074 1184.96L934.194 1188.86C933.486 1189.2 932.777 1189.54 932.027 1189.79C931.86 1189.45 931.818 1189.11 931.818 1188.86C931.776 1188.61 931.943 1188.31 932.193 1188.06ZM871.494 1185.89V1184.07C875.955 1186.32 880.082 1188.61 884.376 1190.51C885.918 1191.19 886.627 1192.04 886.877 1193.31L871.494 1185.89ZM910.348 1200.47C909.264 1201.02 906.596 1202.46 905.47 1202.59C904.678 1202.67 903.886 1202.59 903.053 1202.12C899.926 1200.34 890.796 1195.85 889.337 1195.26C888.169 1194.75 887.753 1193.99 888.253 1192.42C891.755 1194.96 895.674 1196.15 899.175 1198.39C900.801 1199.45 902.844 1200.09 904.72 1200.89C905.637 1201.28 908.806 1199.41 909.723 1198.99C909.931 1199.11 910.431 1200.43 910.348 1200.47ZM922.772 1194.54C919.019 1196.28 915.309 1198.1 911.557 1199.92C911.14 1198.86 911.224 1198.14 912.308 1197.63C916.018 1195.89 919.728 1194.11 923.564 1192.25C923.814 1193.39 923.814 1194.07 922.772 1194.54ZM925.106 1193.18C925.356 1189.83 928.65 1190.51 930.359 1189.11C930.109 1192.42 926.815 1191.78 925.106 1193.18Z" fill="#531768"/>
<path d="M936.07 1162.29C935.32 1162.97 934.82 1163.1 934.153 1162.76C930.692 1160.98 927.274 1159.16 923.814 1157.42C917.894 1154.45 911.974 1151.57 906.096 1148.61C905.345 1148.22 904.97 1148.61 904.428 1148.86C895.465 1153.27 886.544 1157.59 877.622 1161.91C876.747 1162.33 875.913 1163.01 874.912 1162.04C875.162 1161.44 875.746 1161.19 876.246 1160.94C885.376 1156.53 894.506 1152.08 903.594 1147.63C904.553 1147.17 905.387 1146.74 906.513 1147.29C916.31 1152.29 926.107 1157.25 936.07 1162.29Z" fill="#531768"/>
<path d="M930.067 1219.5C932.485 1219.5 934.444 1218.72 934.444 1217.76C934.444 1216.8 932.485 1216.02 930.067 1216.02C927.65 1216.02 925.69 1216.8 925.69 1217.76C925.69 1218.72 927.65 1219.5 930.067 1219.5Z" fill="#531768"/>
<path d="M918.019 1225.81L928.358 1220.94C928.358 1220.94 940.823 1220.51 935.779 1217.08L940.239 1214.75C940.239 1214.75 944.492 1217.38 942.491 1221.32L944.242 1222.84L938.655 1223.22C938.655 1223.27 931.318 1227.33 918.019 1225.81Z" fill="#531768"/>
</g>
<defs>
<filter id="filter0_d_23_123" x="0.224731" y="0.224609" width="1794.03" height="1794.03" filterUnits="userSpaceOnUse" color-interpolation-filters="sRGB">
<feFlood flood-opacity="0" result="BackgroundImageFix"/>
<feColorMatrix in="SourceAlpha" type="matrix" values="0 0 0 0 0 0 0 0 0 0 0 0 0 0 0 0 0 0 127 0" result="hardAlpha"/>
<feOffset dy="10"/>
<feGaussianBlur stdDeviation="25"/>
<feComposite in2="hardAlpha" operator="out"/>
<feColorMatrix type="matrix" values="0 0 0 0 0 0 0 0 0 0 0 0 0 0 0 0 0 0 0.25 0"/>
<feBlend mode="normal" in2="BackgroundImageFix" result="effect1_dropShadow_23_123"/>
<feBlend mode="normal" in="SourceGraphic" in2="effect1_dropShadow_23_123" result="shape"/>
</filter>
<clipPath id="clip0_23_123">
<rect width="1557" height="1483" fill="white" transform="translate(124.241 168.919)"/>
</clipPath>
<clipPath id="clip1_23_123">
<rect width="77" height="85" fill="white" transform="translate(867.241 1144.24)"/>
</clipPath>
</defs>
</svg>
