<svg width="1440" height="886" viewBox="0 0 1440 886" fill="none" xmlns="http://www.w3.org/2000/svg">
<path d="M1560.09 -39.1467C1581.71 428.139 1220.43 824.475 753.147 846.095C285.861 867.715 -110.475 506.432 -132.095 39.1466C-153.715 -428.139 207.568 -824.475 674.853 -846.095C1142.14 -867.715 1538.47 -506.432 1560.09 -39.1467Z" fill="#CAFB3E"/>
<path d="M1521.51 -45.3588C1542.19 401.537 1196.67 780.579 749.777 801.255C302.881 821.932 -76.1609 476.414 -96.8376 29.5182C-117.514 -417.377 228.004 -796.419 674.9 -817.096C1121.79 -837.773 1500.84 -492.254 1521.51 -45.3588Z" stroke="black" stroke-width="2"/>
<line x1="394.601" y1="741.698" x2="698.601" y2="339.698" stroke="black" stroke-opacity="0.15"/>
<line x1="577.522" y1="787.853" x2="713.522" y2="345.853" stroke="black" stroke-opacity="0.15"/>
<line x1="788.504" y1="796.061" x2="732.504" y2="338.061" stroke="black" stroke-opacity="0.15"/>
<line x1="984.566" y1="748.248" x2="750.566" y2="338.248" stroke="black" stroke-opacity="0.15"/>
<line x1="1167.69" y1="650.394" x2="750.693" y2="325.394" stroke="black" stroke-opacity="0.15"/>
<line x1="211.734" y1="625.577" x2="689.734" y2="324.577" stroke="black" stroke-opacity="0.15"/>
<line x1="89.8527" y1="495.522" x2="689.853" y2="310.522" stroke="black" stroke-opacity="0.15"/>
<line x1="1322.83" y1="522.469" x2="757.828" y2="315.469" stroke="black" stroke-opacity="0.15"/>
<line x1="1410.93" y1="394.495" x2="758.929" y2="300.495" stroke="black" stroke-opacity="0.15"/>
<line x1="-0.0537021" y1="373.503" x2="684.946" y2="299.503" stroke="black" stroke-opacity="0.15"/>
<line x1="0.0622848" y1="201.504" x2="685.062" y2="287.504" stroke="black" stroke-opacity="0.15"/>
<line x1="740.966" y1="288.501" x2="1453.96" y2="239.433" stroke="black" stroke-opacity="0.15"/>
<g clip-path="url(#clip0_301_10)">
<path d="M759.791 277.593C759.833 276.28 759.416 275.602 758.249 275.008C746.576 269.161 734.903 263.271 723.271 257.381C722.312 256.873 721.562 256.873 720.603 257.339C719.394 257.89 718.227 258.568 717.018 259.161C715.809 259.754 714.6 260.305 713.266 260.644C712.932 261.364 712.182 261.449 711.557 261.746C703.01 265.941 694.464 270.136 685.876 274.203C684.5 274.881 684 275.644 684.083 277.254C684.208 281.068 684.167 284.881 684.167 288.652C691.921 292.551 699.675 296.449 707.471 300.347C711.932 302.593 716.351 304.839 720.812 307.085C721.479 307.424 722.062 307.72 722.938 307.297C729.566 304.034 736.195 300.814 742.782 297.593L759.791 289.415C759.749 285.475 759.708 281.534 759.791 277.593ZM720.853 292.763C709.597 287.042 698.299 281.322 687.002 275.602C686.835 275.517 686.668 275.39 686.21 275.051C688.169 274.076 690.003 273.144 691.838 272.254C701.384 267.593 710.973 262.975 720.52 258.314C721.354 257.89 722.062 257.678 723.021 258.186C734.236 263.907 745.45 269.542 756.664 275.22C756.914 275.347 757.123 275.517 757.665 275.856C751.87 278.695 746.367 281.364 740.906 284.034C734.986 286.915 729.066 289.797 723.146 292.72C722.396 293.059 721.729 293.186 720.853 292.763Z" fill="black"/>
<path d="M748.952 300.813C749.16 300.602 749.494 300.432 749.911 300.305C750.077 300.263 750.244 300.22 750.411 300.178L759.666 296.11C759.749 296.025 759.833 295.983 759.916 295.898C760.291 295.559 759.833 294.288 759.624 293.441C756.081 295.136 752.62 296.788 749.16 298.483C740.906 302.508 732.651 306.491 724.439 310.559C722.563 311.491 721.062 311.491 719.144 310.517C708.221 304.839 697.215 299.373 686.21 293.864C685.543 293.525 684.875 292.636 684 293.483C684 293.737 684 293.991 684 294.246C684.709 294.754 685.376 295.432 686.168 295.729C687.335 296.195 687.085 297.085 687.085 298.144C686.043 297.72 685.084 297.297 684.083 296.915C684.083 305.559 684.125 314.203 684.125 322.847C685.251 323.907 686.668 324.373 688.252 325.051V324.924L705.011 333.652L705.22 333.78C710.389 336.322 715.559 338.907 720.687 341.534C721.562 342 722.312 342.042 723.23 341.576C734.986 335.813 746.742 330.093 758.499 324.415C759.541 323.907 759.874 323.271 759.833 322.127C759.791 317.678 759.833 313.229 759.874 308.78V307.085C759.874 304.966 759.874 302.847 759.874 300.729C759.874 299.754 759.874 298.737 759.833 297.72L750.953 301.619C750.244 301.958 749.535 302.297 748.785 302.551C748.618 302.212 748.577 301.873 748.577 301.619C748.535 301.364 748.702 301.068 748.952 300.813ZM688.252 298.652V296.83C692.713 299.076 696.84 301.364 701.134 303.271C702.677 303.949 703.385 304.797 703.636 306.068L688.252 298.652ZM727.107 313.229C726.023 313.78 723.355 315.22 722.229 315.347C721.437 315.432 720.645 315.347 719.811 314.881C716.684 313.102 707.554 308.61 706.095 308.017C704.928 307.508 704.511 306.746 705.011 305.178C708.513 307.72 712.432 308.907 715.934 311.152C717.56 312.212 719.603 312.847 721.479 313.652C722.396 314.034 725.564 312.169 726.481 311.746C726.69 311.873 727.19 313.186 727.107 313.229ZM739.53 307.297C735.778 309.034 732.068 310.856 728.316 312.678C727.899 311.619 727.982 310.898 729.066 310.39C732.776 308.652 736.487 306.873 740.322 305.008C740.572 306.152 740.572 306.83 739.53 307.297ZM741.865 305.941C742.115 302.593 745.408 303.271 747.117 301.873C746.867 305.178 743.574 304.542 741.865 305.941Z" fill="black"/>
<path d="M752.829 275.051C752.078 275.729 751.578 275.856 750.911 275.517C747.451 273.737 744.032 271.915 740.572 270.178C734.652 267.212 728.733 264.33 722.854 261.364C722.104 260.983 721.729 261.364 721.187 261.619C712.224 266.025 703.302 270.347 694.381 274.669C693.505 275.093 692.671 275.771 691.671 274.797C691.921 274.203 692.505 273.949 693.005 273.695C702.135 269.288 711.265 264.839 720.353 260.39C721.312 259.924 722.146 259.5 723.271 260.051C733.068 265.051 742.865 270.008 752.829 275.051Z" fill="black"/>
<path d="M746.826 332.254C749.243 332.254 751.203 331.476 751.203 330.517C751.203 329.557 749.243 328.78 746.826 328.78C744.408 328.78 742.448 329.557 742.448 330.517C742.448 331.476 744.408 332.254 746.826 332.254Z" fill="black"/>
<path d="M734.777 338.568L745.116 333.695C745.116 333.695 757.581 333.271 752.537 329.839L756.998 327.508C756.998 327.508 761.25 330.136 759.249 334.076L761 335.602L755.414 335.983C755.414 336.025 748.076 340.093 734.777 338.568Z" fill="black"/>
</g>
<defs>
<clipPath id="clip0_301_10">
<rect width="77" height="85" fill="white" transform="translate(684 257)"/>
</clipPath>
</defs>
</svg>
