<svg width="1440" height="908" viewBox="0 0 1440 908" fill="none" xmlns="http://www.w3.org/2000/svg">
<g filter="url(#filter0_d_349_813)">
<path d="M1560.09 -39.1467C1581.71 428.139 1220.43 824.475 753.147 846.095C285.861 867.715 -110.475 506.432 -132.095 39.1466C-153.715 -428.139 207.568 -824.475 674.853 -846.095C1142.14 -867.715 1538.47 -506.432 1560.09 -39.1467Z" fill="white"/>
</g>
<path d="M1521.51 -45.3588C1542.19 401.537 1196.67 780.579 749.777 801.255C302.881 821.932 -76.1609 476.414 -96.8376 29.5182C-117.514 -417.377 228.004 -796.419 674.9 -817.096C1121.79 -837.773 1500.84 -492.254 1521.51 -45.3588Z" stroke="#310441" stroke-width="2"/>
<g clip-path="url(#clip0_349_813)">
<path d="M37.7339 252.541C35.4408 253.267 33.0628 255.284 29.7506 258.915L26.4384 256.656C22.7864 257.947 18.9647 259.157 14.973 260.448C10.3868 261.819 6.64998 262.464 2.82818 262.384C-2.43741 261.335 -6.2592 257.059 -7.61807 253.025C-9.4865 247.539 -6.34413 242.779 -0.0594006 240.843C3.59254 239.714 7.41433 239.552 11.0663 240.117L10.7266 242.134C8.34855 241.973 6.22533 242.053 4.52676 242.537C0.535103 243.747 -1.67305 247.055 -0.144328 251.573C0.450174 253.267 1.55425 254.881 2.99804 256.252C4.61168 257.785 5.88562 258.673 7.07462 258.995C7.92391 258.834 9.11291 258.431 10.4718 258.027C14.0388 256.978 21.1728 254.235 26.6082 252.138C28.3068 251.492 29.4958 250.766 30.8547 250.363C32.1286 249.96 33.3176 249.879 34.3368 250.282C35.3559 250.686 36.46 251.17 37.7339 252.057V252.541Z" fill="#E7427E"/>
<path d="M86.2283 421.801C84.0201 421.72 81.8969 420.914 80.0285 418.171C77.1409 419.381 74.5081 419.865 72.215 419.703C68.2234 419.219 64.3166 416.961 62.0236 413.491C58.1168 407.602 60.9195 401.793 66.5248 398.486C69.2425 396.872 73.0643 395.581 76.971 395.581L77.1409 397.679C74.2533 398.001 72.2999 398.647 71.1959 399.292C69.1576 400.502 67.5439 401.955 67.2042 404.536C67.0344 406.634 67.459 408.57 68.648 410.426C70.0918 412.604 72.0452 413.975 74.3382 414.944C76.2067 415.75 77.9052 416.154 79.0093 415.75C81.0476 414.54 82.8311 411.474 84.6995 408.005C87.2474 407.925 89.5405 407.844 91.5788 408.005L91.7486 408.328C90.6446 409.861 89.4556 411.474 88.0967 413.33C87.3323 414.298 86.9926 415.347 87.672 416.476C88.0118 417.041 88.6912 417.525 89.5405 417.848C91.0692 418.493 93.3623 417.445 95.2307 416.88C96.3348 417.283 97.269 417.848 98.2032 418.332L98.1183 418.655C97.1841 418.897 96.3348 419.219 95.4006 419.784C94.2965 420.43 93.6171 421.156 93.3623 422.043C93.1075 423.173 93.2774 424.221 93.8719 425.109C94.2116 425.593 94.6362 425.996 95.1458 426.077C96.2499 425.432 97.9484 423.899 100.157 421.801C102.11 422.124 104.063 422.446 105.762 422.931L105.847 423.415C103.893 425.109 101.855 426.642 99.5621 428.013C97.3539 429.304 95.1458 429.788 92.7678 429.707C89.9651 429.627 87.757 428.981 86.6529 427.368C85.8885 426.238 85.5488 424.705 86.3132 422.204L86.2283 421.801ZM104.913 405.746C104.658 407.844 104.148 409.7 103.639 411.394C101.94 411.475 100.326 411.152 98.6279 410.668C99.0525 408.812 99.3922 406.957 99.7319 405.02L104.913 405.746ZM109.414 411.959C109.159 414.056 108.649 415.912 108.14 417.606C106.441 417.687 104.828 417.364 103.129 416.88C103.554 415.024 103.893 413.169 104.233 411.232L109.414 411.959ZM113.321 404.214C113.066 406.311 112.556 408.167 112.047 409.861C110.348 409.942 108.734 409.619 107.036 409.135C107.46 407.279 107.8 405.424 108.14 403.487L113.321 404.214Z" fill="#E7427E"/>
<path d="M234.344 539.589C232.73 541.203 231.711 544.107 230.607 548.786L226.531 548.383C224.577 550.642 222.454 552.739 220.331 554.837C216.934 558.225 213.282 560.242 209.375 561.13C205.214 560.565 200.288 558.145 196.466 554.676C190.351 549.19 190.776 543.865 195.786 538.863C197.825 536.846 200.458 535.233 203.515 534.022L204.534 536.12C202.92 536.765 201.562 537.653 200.627 538.54C197.91 541.283 196.551 545.237 202.496 550.642C205.298 553.143 209.545 555.563 213.197 556.37C214.131 555.563 214.98 554.756 215.83 553.869C221.18 548.544 226.021 542.009 227.21 540.799C228.144 539.912 229.163 539.266 230.268 539.105C231.372 538.944 232.646 538.944 234.174 539.105L234.344 539.589ZM217.868 540.638C217.868 540.235 217.783 539.912 217.443 539.67C216.849 539.105 215.575 538.863 213.791 539.024L213.706 539.105L215.575 540.799C217.189 542.251 217.443 543.704 216 545.075C215.66 545.398 215.15 545.801 214.216 546.285C212.008 547.495 209.8 547.092 207.592 545.156C207.252 544.833 206.827 544.43 206.403 543.865C205.978 542.736 205.638 541.606 205.383 540.477L205.893 540.235C209.97 543.462 212.602 544.994 213.282 544.349C213.706 543.865 211.668 542.171 209.29 539.992C209.545 539.67 209.715 539.508 209.97 539.186C211.838 537.33 214.131 536.523 216.424 536.604C218.208 536.685 219.567 536.927 220.161 537.492C221.01 538.218 220.756 539.024 219.991 539.751C219.482 540.235 218.887 540.638 218.123 540.961L217.868 540.638Z" fill="#E7427E"/>
<path d="M344.582 657.055C339.826 654.392 338.976 650.439 341.1 647.051C342.628 644.55 344.752 642.855 347.554 641.887C350.187 641.161 352.65 641.08 354.433 642.049C357.915 643.985 357.915 650.6 353.584 657.539C350.951 661.895 347.724 664.315 344.072 666.01C339.316 667.865 336.259 667.623 334.05 666.413C331.078 664.719 328.7 661.734 326.832 657.942L328.445 656.651C329.294 657.7 330.314 658.587 331.672 659.313C334.22 660.766 337.533 661.169 341.1 660.846C343.987 660.524 346.535 659.717 348.573 658.507C347.299 658.426 345.941 657.781 344.582 657.055ZM350.017 646.163C347.894 644.953 345.856 645.437 345.261 646.405C344.412 647.777 345.941 650.52 349.253 652.375C350.272 652.94 351.121 653.343 351.97 653.666C352.82 650.52 351.886 647.293 350.017 646.163Z" fill="#E7427E"/>
<path d="M511.892 708.284C510.533 706.832 509.089 706.025 507.475 705.541C503.993 704.493 499.832 705.783 499.577 706.429C499.237 707.478 500.002 708.93 501.106 710.543C502.21 711.915 503.229 712.883 504.078 713.125C505.012 713.367 509.344 712.641 516.563 712.237L516.817 712.641C515.628 714.496 514.439 716.352 513.081 718.046C501.106 718.369 493.802 720.789 492.783 724.178C491.424 728.292 496.18 733.617 506.286 736.521C508.919 737.328 511.552 737.812 514.185 738.135L514.439 739.022C510.787 740.636 507.39 741.846 504.333 742.411C502.889 742.411 501.53 742.088 500.086 741.684C491.594 739.183 486.073 733.536 488.706 725.226C489.81 721.757 492.443 718.53 497.114 715.787C495.076 713.286 493.972 710.624 494.821 707.881C495.33 706.267 496.435 704.573 498.473 702.718C500.936 700.539 504.418 699.329 507.39 700.217C510.363 701.104 512.231 703.524 513.25 707.478L511.892 708.284Z" fill="#E7427E"/>
<path d="M690.921 751.527C688.713 751.446 686.505 750.962 684.467 749.429C682.938 748.139 682.004 746.283 682.089 743.701C682.429 737.409 687.694 733.294 691.431 733.536C696.951 733.859 699.414 743.782 699.075 749.349C698.905 752.334 698.225 754.754 697.206 756.69C696.187 758.143 694.488 759.756 692.026 761.289C688.204 763.548 684.127 764.839 679.541 764.597C669.095 764.032 666.292 756.206 666.632 750.236C666.887 746.444 667.906 742.975 669.265 739.667L671.643 740.474C670.793 742.653 670.284 744.669 670.199 746.686C669.774 754.189 674.955 757.336 680.645 757.658C683.787 757.82 687.1 757.174 690.327 755.641C692.62 754.593 694.488 753.463 695.847 752.092C695.847 751.769 695.847 751.446 695.677 751.204C693.979 751.527 692.365 751.608 690.921 751.527ZM685.061 722.725C686.675 724.178 688.034 725.63 689.138 727.001C688.204 728.292 687.015 729.502 685.571 730.47C684.212 729.099 682.768 727.727 681.325 726.437L685.061 722.725ZM689.732 739.425C687.015 739.264 685.571 741.12 685.571 742.007C685.486 743.621 687.864 745.154 692.45 745.396C693.384 745.476 694.319 745.396 695.168 745.315C694.064 741.846 692.28 739.587 689.732 739.425ZM692.96 722.806C694.573 724.258 695.932 725.71 697.036 727.082C696.102 728.373 694.913 729.502 693.469 730.551C692.11 729.18 690.667 727.808 689.308 726.517L692.96 722.806Z" fill="#E7427E"/>
<path d="M863.836 732.891C867.488 726.84 871.565 722.564 876.406 721.677C881.502 720.789 885.324 724.016 886.173 728.534C886.513 730.39 886.173 734.181 884.814 736.36C882.011 739.829 874.962 742.572 867.149 743.943C865.365 744.266 863.667 744.508 861.968 744.669C861.119 746.041 860.354 747.574 859.505 749.349L858.741 748.784L858.656 744.911L856.872 744.992C854.24 743.137 851.692 741.281 849.229 739.345L849.399 738.941C853.39 738.78 856.957 738.538 860.439 738.135L861.204 736.44C861.119 734.181 860.609 731.438 860.015 728.211C859.335 724.823 858.401 721.434 857.297 717.481C856.872 716.029 856.108 714.496 855.853 712.963C855.513 711.35 856.108 709.898 858.486 707.235L858.996 707.397C859.42 709.494 860.694 711.673 864.771 715.787L862.138 718.53C862.732 721.273 863.327 723.855 863.667 725.307C864.176 727.889 864.261 730.309 863.752 732.649L863.836 732.891ZM882.436 730.954C881.587 729.341 878.954 727.566 875.981 728.131C872.329 728.776 868.508 731.842 864.346 737.651C873.688 735.956 879.888 733.697 882.436 730.954Z" fill="#E7427E"/>
<path d="M1061.13 679.644C1060.79 681.742 1059.77 683.678 1056.62 685.049C1057.56 687.873 1057.81 690.455 1057.3 692.633C1056.37 696.344 1053.57 699.733 1049.66 701.507C1043.04 704.492 1037.35 701.185 1034.46 695.537C1033.1 692.794 1032.17 689.083 1032.68 685.291H1034.88C1034.88 688.115 1035.39 689.971 1035.9 691.1C1036.92 693.117 1038.28 694.811 1040.91 695.457C1043.12 695.86 1045.16 695.699 1047.2 694.731C1049.66 693.601 1051.36 691.907 1052.55 689.89C1053.57 688.196 1054.25 686.663 1053.91 685.533C1052.89 683.516 1049.83 681.419 1046.43 679.321C1046.6 676.901 1046.86 674.723 1047.2 672.787L1047.54 672.706C1049.07 673.916 1050.59 675.207 1052.29 676.74C1053.23 677.546 1054.33 678.03 1055.52 677.466C1056.12 677.224 1056.71 676.659 1057.13 675.852C1057.98 674.481 1057.13 672.222 1056.79 670.366C1057.39 669.398 1058.07 668.511 1058.66 667.784L1059 667.865C1059.17 668.753 1059.43 669.64 1059.85 670.528C1060.45 671.657 1061.04 672.383 1061.98 672.706C1063.16 673.109 1064.27 673.028 1065.2 672.625C1065.8 672.383 1066.22 672.06 1066.39 671.576C1065.8 670.447 1064.44 668.672 1062.49 666.332C1063.08 664.477 1063.59 662.783 1064.27 661.169L1064.78 661.088C1066.31 663.105 1067.75 665.203 1068.85 667.543C1069.96 669.801 1070.21 671.899 1069.87 674.158C1069.45 676.82 1068.6 678.837 1066.73 679.644C1065.46 680.209 1063.84 680.37 1061.3 679.402L1061.13 679.644ZM1045.84 652.133C1048.05 652.617 1049.92 653.263 1051.61 653.989C1051.44 655.602 1051.02 657.135 1050.26 658.668C1048.39 658.023 1046.43 657.539 1044.48 657.055L1045.84 652.133ZM1046.52 660.201C1048.73 660.685 1050.59 661.33 1052.29 662.056C1052.12 663.67 1051.7 665.203 1050.93 666.736C1049.07 666.09 1047.11 665.606 1045.16 665.122L1046.52 660.201ZM1053.48 656.651C1055.69 657.135 1057.56 657.781 1059.26 658.507C1059.09 660.12 1058.66 661.653 1057.9 663.186C1056.03 662.541 1054.08 662.056 1052.12 661.572L1053.48 656.651Z" fill="#E7427E"/>
<path d="M1201.09 553.224C1202.62 554.998 1205.5 556.289 1210.35 557.822L1209.41 561.614C1211.53 563.712 1213.49 565.89 1215.44 568.149C1218.58 571.698 1220.37 575.41 1220.79 579.121C1219.77 582.993 1216.63 587.35 1212.55 590.577C1206.1 595.66 1200.66 594.772 1195.91 589.447C1194.04 587.269 1192.68 584.607 1191.75 581.622L1194.04 580.896C1194.55 582.509 1195.31 583.881 1196.16 584.849C1198.71 587.753 1202.7 589.447 1208.99 584.445C1211.96 582.106 1214.93 578.314 1216.21 574.926C1215.53 573.957 1214.68 573.07 1213.91 572.183C1208.9 566.535 1202.62 561.211 1201.6 560C1200.75 559.032 1200.24 557.983 1200.15 556.935C1200.15 555.886 1200.24 554.676 1200.58 553.224H1201.09ZM1200.32 568.875C1199.9 568.875 1199.56 568.875 1199.22 569.198C1198.54 569.682 1198.2 570.892 1198.12 572.586L1198.2 572.667L1200.24 571.053C1201.94 569.682 1203.47 569.601 1204.83 571.134C1205.08 571.457 1205.5 572.021 1205.93 572.989C1206.95 575.168 1206.27 577.265 1203.98 579.121C1203.55 579.443 1203.13 579.766 1202.45 580.089C1201.17 580.412 1199.98 580.573 1198.8 580.734L1198.54 580.17C1202.36 576.7 1204.23 574.361 1203.64 573.635C1203.21 573.151 1201.17 574.926 1198.63 576.942C1198.29 576.7 1198.12 576.458 1197.86 576.216C1196.16 574.28 1195.57 572.021 1195.91 569.762C1196.16 568.068 1196.59 566.858 1197.27 566.293C1198.12 565.648 1198.88 565.89 1199.64 566.777C1200.15 567.342 1200.41 567.907 1200.75 568.633L1200.32 568.875Z" fill="#E7427E"/>
<path d="M1336.38 462.382C1333.07 466.577 1328.82 466.899 1325.59 464.56C1323.13 462.785 1321.6 460.607 1320.92 457.864C1320.41 455.282 1320.58 453.023 1321.86 451.329C1324.24 448.263 1331.2 449.07 1337.99 453.91C1342.24 456.895 1344.45 460.284 1345.81 463.914C1347.25 468.674 1346.66 471.498 1345.13 473.434C1343.09 476.097 1339.61 477.952 1335.45 479.324L1334.34 477.629C1335.53 476.903 1336.64 476.097 1337.48 474.886C1339.27 472.627 1340.12 469.642 1340.12 466.173C1340.12 463.43 1339.61 460.929 1338.5 458.912C1338.16 459.961 1337.31 461.171 1336.38 462.382ZM1325.68 456.089C1324.24 457.944 1324.41 459.961 1325.34 460.607C1326.7 461.575 1329.76 460.445 1332.05 457.46C1332.73 456.573 1333.24 455.766 1333.66 455.04C1330.52 453.91 1327.04 454.394 1325.68 456.089Z" fill="#E7427E"/>
<path d="M1399.23 292.638C1401.18 291.669 1403.05 290.943 1404.83 290.379C1405.85 291.67 1406.53 293.122 1407.13 294.735C1405.26 295.461 1403.47 296.268 1401.69 297.155L1399.23 292.638ZM1405.34 298.285C1407.3 297.317 1409.16 296.591 1410.95 296.107C1411.97 297.398 1412.65 298.85 1413.24 300.463C1411.37 301.189 1409.59 301.996 1407.81 302.884L1405.34 298.285ZM1408.06 291.185C1410.01 290.217 1411.88 289.491 1413.67 288.926C1414.68 290.217 1415.36 291.67 1415.96 293.283C1414.09 294.009 1412.31 294.816 1410.52 295.703L1408.06 291.185ZM1429.89 303.61C1431.08 305.385 1431.67 307.482 1430.31 310.548C1433.03 312.081 1434.98 313.856 1436.09 315.792C1437.96 319.18 1438.3 323.456 1436.6 327.329C1433.71 333.783 1427.17 334.912 1421.05 332.492C1418.08 331.282 1414.85 329.104 1412.56 325.957L1414.18 324.586C1416.13 326.683 1417.83 327.813 1419.02 328.297C1421.22 329.184 1423.35 329.588 1425.9 328.377C1427.85 327.329 1429.21 325.876 1430.14 323.86C1431.25 321.439 1431.25 319.1 1430.82 316.841C1430.4 314.904 1429.8 313.372 1428.78 312.726C1426.57 311.839 1422.84 312.161 1418.85 312.807C1417.32 310.871 1415.87 309.096 1414.85 307.482L1415.02 307.159C1416.98 307.159 1419.1 307.079 1421.48 307.159C1422.75 307.159 1423.86 306.837 1424.45 305.627C1424.71 305.062 1424.71 304.255 1424.54 303.368C1424.2 301.835 1421.99 300.705 1420.46 299.495C1420.21 298.366 1420.12 297.317 1420.04 296.349L1420.29 296.187C1421.05 296.752 1421.82 297.236 1422.75 297.64C1423.94 298.124 1424.96 298.285 1425.9 297.962C1427 297.559 1427.85 296.833 1428.27 295.865C1428.53 295.3 1428.61 294.816 1428.36 294.332C1427.17 293.848 1424.88 293.444 1421.82 292.96C1420.97 291.266 1420.12 289.572 1419.53 287.958L1419.87 287.636C1422.41 288.2 1424.96 288.846 1427.42 289.814C1429.8 290.782 1431.5 292.154 1432.77 294.09C1434.3 296.349 1435.07 298.366 1434.22 300.221C1433.71 301.431 1432.52 302.561 1429.97 303.448L1429.89 303.61Z" fill="#E7427E"/>
</g>
<line x1="400.598" y1="738.702" x2="704.598" y2="328.702" stroke="black" stroke-opacity="0.15"/>
<line x1="574.522" y1="788.852" x2="715.522" y2="332.852" stroke="black" stroke-opacity="0.15"/>
<line x1="788.504" y1="796.061" x2="732.504" y2="338.061" stroke="black" stroke-opacity="0.15"/>
<line x1="984.566" y1="748.248" x2="750.566" y2="338.248" stroke="black" stroke-opacity="0.15"/>
<line x1="1167.69" y1="650.394" x2="750.693" y2="325.394" stroke="black" stroke-opacity="0.15"/>
<line x1="211.734" y1="625.577" x2="689.734" y2="324.577" stroke="black" stroke-opacity="0.15"/>
<line x1="89.8527" y1="495.522" x2="689.853" y2="310.522" stroke="black" stroke-opacity="0.15"/>
<line x1="1322.83" y1="522.47" x2="757.828" y2="315.47" stroke="black" stroke-opacity="0.15"/>
<line x1="1410.93" y1="394.495" x2="758.929" y2="300.495" stroke="black" stroke-opacity="0.15"/>
<line x1="-0.0537021" y1="373.503" x2="684.946" y2="299.503" stroke="black" stroke-opacity="0.15"/>
<line x1="0.0622848" y1="201.504" x2="685.062" y2="287.504" stroke="black" stroke-opacity="0.15"/>
<line x1="740.966" y1="288.501" x2="1453.96" y2="239.433" stroke="black" stroke-opacity="0.15"/>
<path d="M503.017 413.588C503.49 413.588 504.08 413.588 504.67 413.706C505.379 413.824 506.678 414.059 508.803 414.53C510.81 415.001 512.817 415.589 514.707 416.413C516.596 417.119 518.603 418.295 520.847 419.943C523.09 421.473 525.097 423.356 526.75 425.474C528.403 427.592 529.702 430.298 530.883 433.593C531.946 436.888 532.536 440.536 532.536 444.655C532.536 457.128 527.577 465.836 517.777 470.896C515.533 471.955 513.172 472.897 510.81 473.603C508.331 474.309 506.441 474.662 505.025 474.78L502.899 474.897H482C482 474.897 482.118 474.897 482.236 474.897C482.354 474.897 482.472 474.78 482.708 474.662C482.945 474.544 483.181 474.427 483.299 474.309C483.535 474.191 483.771 473.956 484.007 473.721C484.243 473.485 484.48 473.132 484.598 472.897C484.716 472.661 484.952 472.308 485.07 471.838C485.188 471.367 485.306 470.896 485.306 470.543V418.178C485.306 417.472 485.188 416.883 484.952 416.295C484.716 415.707 484.48 415.354 484.125 415.001C483.771 414.648 483.417 414.412 483.181 414.177C482.827 413.941 482.59 413.824 482.354 413.706L482 413.588H503.017ZM503.017 470.661C503.253 470.661 503.726 470.543 504.198 470.543C504.67 470.543 505.733 470.308 507.15 469.837C508.567 469.367 509.984 468.896 511.401 468.19C512.817 467.484 514.234 466.542 515.887 465.13C517.54 463.718 518.957 462.188 520.138 460.423C521.319 458.658 522.382 456.305 523.09 453.48C523.916 450.656 524.271 447.479 524.271 443.949C524.271 440.301 523.916 437.124 523.09 434.299C522.263 431.475 521.319 429.122 520.02 427.239C518.721 425.474 517.304 423.944 515.769 422.649C514.234 421.355 512.699 420.414 511.164 419.825C509.629 419.237 508.213 418.766 507.032 418.413C505.733 418.06 504.788 417.942 503.962 417.825L502.781 417.707H497.35C496.641 417.707 495.933 417.825 495.461 418.178C494.87 418.413 494.516 418.766 494.28 419.119C494.044 419.472 493.807 419.943 493.689 420.414C493.571 420.884 493.453 421.237 493.453 421.355C493.453 421.59 493.453 421.708 493.453 421.943V466.542C493.453 466.66 493.453 466.895 493.453 467.131C493.453 467.366 493.571 467.719 493.689 468.19C493.807 468.661 494.044 469.014 494.28 469.367C494.516 469.72 494.988 469.955 495.461 470.308C496.051 470.543 496.641 470.779 497.35 470.779L503.017 470.661Z" fill="#E7427E"/>
<path d="M572.209 466.189L575.161 470.661C574.689 471.014 573.98 471.367 573.154 471.955C572.327 472.426 570.556 473.132 567.84 473.956C565.125 474.78 562.291 475.25 559.575 475.25C557.568 475.25 555.56 475.015 553.553 474.544C551.546 474.074 549.421 473.25 547.413 472.191C545.288 471.014 543.517 469.72 541.864 467.954C540.211 466.307 538.912 464.189 537.967 461.482C537.023 458.776 536.432 455.834 536.432 452.657C536.432 449.244 536.905 446.302 537.849 443.596C538.794 440.889 540.093 438.771 541.51 437.124C543.045 435.476 544.698 434.064 546.705 433.005C548.594 431.946 550.483 431.122 552.372 430.651C554.144 430.181 555.915 429.945 557.686 429.945C560.047 429.945 562.173 430.181 564.062 430.651C565.951 431.122 567.486 431.71 568.667 432.534C569.847 433.358 570.792 434.182 571.737 435.241C572.681 436.182 573.272 437.241 573.626 438.3C573.98 439.359 574.216 440.418 574.452 441.36C574.689 442.419 574.807 443.36 574.689 444.184C574.57 445.008 574.57 445.714 574.57 446.302C574.334 449.009 573.508 451.362 572.209 453.48C570.91 455.599 569.257 457.364 567.486 458.54C565.715 459.835 563.59 460.894 561.228 461.718C558.867 462.659 556.623 463.247 554.616 463.6C552.609 463.953 550.483 464.189 548.476 464.307C549.184 465.483 549.893 466.542 550.719 467.366C551.546 468.19 552.491 469.014 553.435 469.72C554.38 470.308 555.442 470.896 556.505 471.249C557.568 471.602 558.748 471.838 559.929 471.838C560.992 471.838 562.173 471.72 563.117 471.485C564.18 471.249 565.125 471.014 565.951 470.661C566.778 470.308 567.486 469.955 568.313 469.602C569.021 469.131 569.729 468.778 570.202 468.425C570.674 468.072 571.146 467.719 571.501 467.366C571.855 467.013 572.209 466.778 572.327 466.66L572.209 466.189ZM557.568 433.24C554.144 434.417 551.192 436.653 548.712 440.065C546.233 443.478 544.934 447.597 544.934 452.539C544.934 455.599 545.524 458.54 546.587 461.247C549.303 460.894 552.254 459.953 555.206 458.423C558.158 456.893 560.756 454.892 562.999 452.539C565.715 449.362 567.486 446.067 568.076 442.537C568.667 439.006 567.958 436.3 566.069 434.417C564.18 432.534 561.346 432.063 557.568 433.24Z" fill="#E7427E"/>
<path d="M609.639 471.838C612.354 471.838 615.07 471.485 617.55 470.896C620.029 470.19 622.037 469.484 623.572 468.543C625.106 467.601 626.523 466.66 627.586 465.601C628.767 464.66 629.475 463.836 629.948 463.247C630.42 462.659 630.656 462.306 630.656 462.306L632.781 464.424C629.948 467.719 626.405 470.19 622.509 472.073C618.494 473.956 614.244 474.897 609.639 474.897C604.089 474.897 598.894 473.485 594.053 470.779C589.33 468.072 585.551 464.307 582.718 459.482C580.002 454.775 578.585 449.597 578.585 443.949C578.585 438.3 580.002 433.123 582.718 428.416C585.433 423.591 589.212 419.825 594.053 417.119C598.776 414.412 603.971 413 609.639 413C614.244 413 618.73 413.941 622.745 415.942C626.878 417.825 630.302 420.531 633.254 423.944L627.94 428.533C625.933 424.65 623.335 421.473 620.029 419.119C616.841 416.766 613.299 415.589 609.521 415.589C605.624 415.589 601.964 416.883 598.658 419.355C595.352 421.826 592.636 425.238 590.747 429.592C588.858 433.946 587.795 438.653 587.795 443.713C587.795 448.773 588.74 453.48 590.747 457.834C592.636 462.188 595.352 465.601 598.658 468.072C602.082 470.543 605.624 471.838 609.639 471.838Z" fill="#652A7A"/>
<path d="M641.637 436.417C646.124 431.946 651.437 429.828 657.695 429.828C663.953 429.828 669.384 432.063 673.753 436.417C678.24 440.889 680.484 446.184 680.484 452.421C680.484 458.658 678.24 464.071 673.753 468.425C669.266 472.897 663.953 475.015 657.695 475.015C651.437 475.015 646.124 472.779 641.637 468.425C637.15 463.953 635.025 458.658 635.025 452.421C635.025 446.184 637.15 440.889 641.637 436.417ZM648.131 466.072C650.847 469.837 654.035 471.72 657.695 471.72C661.355 471.72 664.661 469.837 667.259 466.072C669.975 462.306 671.274 457.717 671.274 452.421C671.274 447.126 669.975 442.537 667.259 438.771C664.543 435.005 661.355 433.123 657.695 433.123C654.035 433.123 650.729 435.005 648.131 438.771C645.415 442.537 644.117 447.126 644.117 452.421C644.117 457.717 645.415 462.424 648.131 466.072Z" fill="#652A7A"/>
<path d="M711.773 474.662C711.773 474.662 711.891 474.662 712.127 474.544C712.364 474.427 712.6 474.309 712.954 474.074C713.308 473.838 713.662 473.603 713.899 473.25C714.135 472.897 714.371 472.544 714.607 471.955C714.843 471.367 714.961 470.779 714.961 470.073V447.361C714.961 445.596 714.961 444.184 714.843 443.007C714.725 441.83 714.607 440.536 714.253 439.124C713.899 437.712 713.544 436.653 712.954 435.711C712.364 434.888 711.537 434.182 710.474 433.593C709.412 433.005 707.995 432.769 706.46 432.769C705.161 432.769 703.98 433.123 702.918 433.711C701.855 434.299 700.91 435.005 700.202 435.829C699.493 436.653 698.785 437.712 698.195 438.889C697.604 440.065 697.132 441.124 696.778 442.066C696.423 443.007 696.069 444.066 695.833 445.125C695.597 446.184 695.479 446.891 695.361 447.361C695.361 447.714 695.243 448.067 695.243 448.303V470.19C695.243 471.249 695.479 472.191 696.069 472.897C696.542 473.603 697.132 474.074 697.722 474.309L698.431 474.662H683.908C684.026 474.662 684.144 474.662 684.262 474.544C684.38 474.427 684.616 474.309 684.97 474.074C685.324 473.838 685.679 473.603 685.915 473.25C686.151 472.897 686.505 472.544 686.741 471.955C686.978 471.367 687.096 470.779 687.096 470.073V435.005C687.096 434.535 686.978 434.064 686.859 433.593C686.741 433.123 686.505 432.769 686.387 432.534C686.151 432.181 686.033 431.946 685.797 431.71C685.561 431.475 685.324 431.24 685.088 431.122C684.852 431.004 684.616 430.887 684.498 430.769C684.262 430.651 684.144 430.651 684.026 430.534L683.908 430.416H695.361V440.065C697.84 433.005 702.209 429.475 708.349 429.475C710.947 429.475 713.19 429.828 715.079 430.534C716.968 431.24 718.385 432.181 719.448 433.24C720.511 434.299 721.337 435.711 721.928 437.241C722.518 438.889 722.99 440.301 723.108 441.713C723.345 443.125 723.345 444.655 723.345 446.302V470.073C723.345 471.132 723.581 472.073 724.171 472.779C724.643 473.485 725.234 473.956 725.824 474.191L726.533 474.544H711.773V474.662Z" fill="#652A7A"/>
<path d="M771.991 486.9C771.991 487.606 772.109 488.195 772.345 488.665C772.582 489.254 772.818 489.607 773.172 489.96C773.526 490.313 773.762 490.548 774.117 490.783C774.471 491.019 774.825 491.254 775.297 491.372H760.656C760.774 491.372 760.892 491.372 761.01 491.254C761.128 491.136 761.365 491.019 761.719 490.783C762.073 490.548 762.427 490.313 762.663 489.96C762.9 489.607 763.254 489.136 763.49 488.665C763.726 488.077 763.844 487.489 763.844 486.9V466.542C761.246 472.191 756.642 475.015 750.029 475.015C747.786 475.015 745.779 474.78 743.89 474.191C742 473.72 740.465 473.014 739.167 472.073C737.868 471.249 736.687 470.19 735.624 469.131C734.562 468.072 733.735 466.895 733.027 465.601C732.318 464.306 731.846 463.13 731.374 461.835C730.901 460.541 730.547 459.364 730.311 458.305C730.075 457.246 729.957 456.187 729.721 455.363C729.603 454.539 729.484 453.833 729.484 453.363V452.539C729.484 452.186 729.366 451.715 729.366 451.245C729.366 450.656 729.366 449.597 729.484 448.067C729.602 446.42 729.839 444.89 730.193 443.478C730.547 442.066 731.137 440.418 731.964 438.536C732.791 436.77 733.853 435.241 735.152 433.946C736.451 432.652 738.104 431.593 740.229 430.769C742.355 429.828 744.834 429.475 747.668 429.475C755.461 429.475 760.892 433.123 763.844 440.301V430.534L775.297 435.947H775.179C775.179 435.947 775.061 436.064 774.943 436.064C774.825 436.064 774.707 436.182 774.471 436.3C774.235 436.417 774.117 436.535 773.999 436.653C773.762 436.77 773.644 436.888 773.408 437.123C773.172 437.359 773.054 437.477 772.936 437.712C772.818 437.947 772.582 438.183 772.464 438.418C772.345 438.653 772.227 439.006 772.227 439.359C772.109 439.712 772.109 440.065 772.109 440.418V486.9H771.991ZM763.844 456.305V449.597C763.726 448.303 763.608 447.008 763.372 445.714C763.136 444.419 762.781 443.007 762.073 441.477C761.483 439.948 760.656 438.536 759.83 437.359C758.885 436.182 757.704 435.241 756.169 434.417C754.634 433.593 752.863 433.24 750.856 433.24C748.967 433.24 747.196 433.593 745.661 434.299C744.126 435.005 742.945 435.947 742 437.123C741.056 438.3 740.347 439.595 739.757 440.889C739.167 442.301 738.694 443.596 738.458 445.008C738.222 446.42 738.104 447.714 737.868 448.773C737.75 449.95 737.632 450.891 737.75 451.48V452.539C737.75 452.657 737.75 452.892 737.75 453.245C737.75 453.48 737.75 454.069 737.75 454.892C737.75 455.716 737.868 456.54 737.868 457.246C737.986 458.07 738.104 459.011 738.458 460.07C738.694 461.129 739.048 462.188 739.403 463.012C739.757 463.953 740.347 464.895 741.056 465.836C741.764 466.778 742.473 467.601 743.417 468.307C744.244 469.013 745.306 469.484 746.605 469.955C747.904 470.426 749.321 470.543 750.856 470.543C752.745 470.543 754.516 470.19 756.051 469.484C757.586 468.778 758.767 467.954 759.712 467.013C760.656 466.072 761.365 464.777 761.955 463.483C762.545 462.071 763.018 460.894 763.254 459.717C763.608 458.658 763.726 457.481 763.844 456.305Z" fill="#652A7A"/>
<path d="M808.476 474.78V465.13C805.997 472.191 801.628 475.721 795.488 475.721C793.363 475.721 791.356 475.368 789.702 474.78C788.049 474.191 786.633 473.368 785.57 472.308C784.507 471.367 783.681 470.19 782.854 469.014C782.146 467.837 781.555 466.542 781.319 465.366C780.965 464.189 780.729 463.13 780.611 462.071C780.493 461.129 780.375 460.306 780.375 459.717V458.776V435.005C780.375 434.299 780.256 433.711 780.02 433.24C779.784 432.652 779.548 432.299 779.194 431.946C778.84 431.593 778.485 431.357 778.249 431.122C777.895 430.887 777.659 430.769 777.423 430.651L777.068 430.534H791.592C791.592 430.534 791.474 430.651 791.356 430.651C791.237 430.651 791.001 430.887 790.529 431.122C790.175 431.357 789.821 431.593 789.584 431.946C789.348 432.299 789.112 432.652 788.876 433.24C788.64 433.829 788.522 434.417 788.522 435.005V457.834C788.522 467.013 791.356 471.602 797.141 471.602C798.44 471.602 799.621 471.367 800.683 470.779C801.746 470.19 802.691 469.602 803.399 468.778C804.108 467.954 804.816 467.013 805.406 465.836C805.997 464.66 806.469 463.6 806.823 462.777C807.178 461.953 807.414 461.012 807.768 459.835C808.122 458.658 808.24 457.952 808.24 457.834C808.24 457.717 808.358 457.364 808.358 456.893V435.005C808.358 434.535 808.358 434.064 808.24 433.593C808.122 433.123 808.004 432.77 807.768 432.534C807.532 432.181 807.414 431.946 807.178 431.71C806.941 431.475 806.705 431.24 806.469 431.122C806.233 431.004 805.997 430.887 805.879 430.769C805.643 430.651 805.524 430.651 805.406 430.534L805.288 430.416H819.812C819.812 430.416 819.693 430.416 819.575 430.416C819.457 430.416 819.339 430.534 819.103 430.651C818.867 430.769 818.631 430.887 818.513 431.122C818.277 431.24 818.04 431.475 817.804 431.71C817.568 431.946 817.332 432.181 817.214 432.534C817.096 432.887 816.86 433.24 816.742 433.593C816.623 434.064 816.623 434.417 816.623 435.005V470.19C816.623 470.896 816.742 471.485 816.978 472.073C817.214 472.661 817.45 473.014 817.804 473.368C818.158 473.721 818.395 473.956 818.749 474.191C819.103 474.427 819.457 474.662 819.93 474.897H808.476V474.78Z" fill="#652A7A"/>
<path d="M834.217 470.19C834.217 471.249 834.453 472.191 835.043 472.897C835.634 473.603 836.106 474.074 836.578 474.309C837.05 474.544 837.287 474.662 837.405 474.662H822.763C822.763 474.662 822.882 474.662 823 474.662C823.118 474.662 823.236 474.544 823.472 474.427C823.708 474.309 823.944 474.191 824.062 474.074C824.298 473.956 824.535 473.721 824.771 473.485C825.007 473.25 825.243 473.014 825.361 472.661C825.479 472.308 825.715 471.955 825.833 471.485C825.951 471.014 826.07 470.543 826.07 470.19V435.005C826.07 433.946 825.833 433.005 825.243 432.299C824.653 431.593 824.18 431.122 823.708 430.887L822.882 430.534H837.523C837.405 430.534 837.287 430.534 837.169 430.651C837.05 430.651 836.814 430.887 836.342 431.122C835.988 431.357 835.634 431.593 835.397 431.946C835.161 432.299 834.925 432.652 834.689 433.24C834.453 433.829 834.335 434.417 834.335 435.005V470.19H834.217ZM833.508 421.943C832.564 422.885 831.383 423.355 830.084 423.355C828.667 423.355 827.604 422.885 826.66 421.943C825.715 421.002 825.243 419.825 825.243 418.531C825.243 417.236 825.715 416.06 826.66 415.118C827.604 414.177 828.785 413.706 830.084 413.706C831.501 413.706 832.564 414.177 833.508 415.118C834.453 416.06 834.925 417.236 834.925 418.531C834.925 419.825 834.453 421.002 833.508 421.943Z" fill="#652A7A"/>
<path d="M847.913 439.006C847.913 439.948 848.268 440.889 848.858 441.713C849.566 442.537 850.393 443.243 851.574 443.831C852.754 444.419 853.935 445.125 855.352 445.831C856.769 446.537 858.186 447.244 859.721 447.95C861.138 448.656 862.673 449.479 864.089 450.421C865.506 451.362 866.805 452.421 867.868 453.598C868.931 454.657 869.875 456.069 870.584 457.717C871.292 459.364 871.528 461.129 871.528 463.012C871.528 465.601 870.702 467.837 868.931 469.72C867.159 471.602 865.034 472.897 862.555 473.721C860.075 474.544 857.359 474.897 854.407 474.897C851.692 474.897 849.212 474.662 846.969 474.191C844.607 473.721 843.072 473.25 842.01 472.779L840.593 472.073L843.072 464.777C843.426 465.13 844.017 465.601 844.607 466.189C845.198 466.778 846.496 467.601 848.386 468.66C850.275 469.72 852.046 470.426 853.699 470.661C855.588 470.896 857.241 470.896 858.776 470.426C860.193 469.955 861.374 469.367 862.2 468.543C863.027 467.719 863.617 466.778 863.971 465.954C864.326 465.013 864.562 464.189 864.562 463.365C864.562 461.953 863.735 460.541 862.082 459.129C860.429 457.717 858.304 456.422 855.942 455.363C853.581 454.186 851.219 453.01 848.858 451.715C846.496 450.421 844.489 448.891 842.954 447.008C841.419 445.125 840.711 443.243 840.829 441.007C841.065 437.477 842.6 434.77 845.316 432.769C848.031 430.769 851.456 429.828 855.706 429.828C857.95 429.828 860.311 430.063 862.555 430.416C864.798 430.769 866.569 431.122 867.632 431.593L869.285 432.181L866.569 439.006C866.569 439.006 866.451 438.889 866.333 438.771C866.215 438.653 866.097 438.536 865.861 438.183C865.624 437.83 865.388 437.594 865.034 437.241C864.798 436.888 864.444 436.535 863.971 436.182C863.499 435.829 863.027 435.476 862.673 435.123C862.2 434.77 861.728 434.417 861.138 434.182C860.547 433.829 859.957 433.593 859.367 433.358C858.776 433.123 858.186 433.005 857.477 432.887C856.769 432.769 856.06 432.769 855.352 432.887C852.99 433.123 851.219 433.829 850.039 435.123C848.622 436.417 847.913 437.712 847.913 439.006Z" fill="#652A7A"/>
<path d="M897.386 434.417H887.704V464.306C887.704 466.189 887.94 467.484 888.413 468.425C888.885 469.367 889.594 469.837 890.302 469.837C891.01 469.837 891.837 469.72 892.545 469.367C893.254 469.131 893.844 468.778 894.316 468.425L895.025 467.719L895.497 468.072C895.497 468.19 895.379 468.425 895.143 468.778C895.025 469.131 894.671 469.602 894.08 470.426C893.49 471.249 892.9 471.838 892.309 472.544C891.719 473.132 890.892 473.721 889.948 474.191C889.003 474.662 887.94 474.897 886.878 474.897C884.516 474.897 882.745 474.191 881.328 472.661C880.029 471.249 879.321 469.013 879.321 466.072V434.417H874.126V430.416C877.432 430.416 880.266 429.357 882.627 427.121L887.704 422.649V430.534H897.386V434.417Z" fill="#652A7A"/>
<path d="M939.185 474.662L927.496 474.78C927.496 472.779 927.496 470.426 927.496 467.601C925.37 470.308 923.245 472.191 921.001 473.368C918.758 474.544 916.278 475.133 913.208 475.133C910.257 475.133 907.659 474.662 905.652 473.603C903.526 472.544 901.991 471.132 901.047 469.367C900.102 467.601 899.63 465.483 899.63 462.894C899.63 461.482 899.866 460.188 900.22 459.129C900.574 457.952 901.047 456.893 901.519 456.069C901.991 455.128 902.7 454.304 903.762 453.363C904.707 452.421 905.652 451.715 906.478 451.127C907.305 450.538 908.367 449.832 909.902 449.126C911.319 448.42 912.618 447.832 913.563 447.361C914.507 446.891 915.924 446.302 917.813 445.478C919.584 444.772 921.119 443.949 922.418 443.007C923.717 442.066 924.662 441.242 925.37 440.654C925.961 439.948 926.433 439.242 926.905 438.536C927.259 437.83 927.495 437.241 927.614 437.006C927.614 436.77 927.732 436.535 927.732 436.3C927.732 435.711 927.614 435.241 927.496 434.77C927.377 434.299 927.023 433.829 926.669 433.476C926.197 433.005 925.724 432.652 925.016 432.299C924.307 431.946 923.481 431.71 922.3 431.593C921.119 431.357 919.703 431.357 918.168 431.357C916.869 431.357 915.688 431.593 914.507 431.946C913.327 432.416 912.382 432.887 911.673 433.593C910.965 434.299 910.257 435.005 909.548 435.829C908.958 436.653 908.367 437.477 908.013 438.3C907.659 439.124 907.305 439.83 907.069 440.536C906.832 441.242 906.714 441.831 906.596 442.184L906.478 442.772L903.29 434.652C903.408 434.535 903.526 434.299 903.762 434.064C903.999 433.829 904.471 433.476 905.297 432.887C906.124 432.299 907.069 431.828 908.131 431.357C909.194 430.887 910.611 430.534 912.382 430.181C914.153 429.828 916.16 429.592 918.286 429.592C923.599 429.592 927.85 431.004 931.392 433.946C934.816 436.888 936.587 440.065 936.587 443.36V470.19C936.587 471.249 936.823 472.191 937.414 472.897C937.886 473.603 938.476 474.074 939.067 474.309L939.185 474.662ZM927.377 464.071C927.495 452.068 927.377 444.419 927.377 441.007C925.961 443.713 923.363 445.949 919.584 447.714C912.146 451.362 908.367 455.952 908.367 461.718C908.367 462.777 908.485 463.836 908.604 464.895C908.84 465.836 909.076 467.013 909.548 468.19C910.02 469.367 910.729 470.308 911.673 471.014C912.618 471.72 913.917 472.073 915.452 472.073C916.751 472.073 918.05 471.838 919.23 471.249C920.529 470.661 921.592 470.073 922.536 469.249C923.481 468.425 924.307 467.719 925.016 466.895C925.724 466.072 926.315 465.483 926.669 464.895L927.377 464.071Z" fill="#652A7A"/>
<path d="M544.553 523.813V501.253H546.121L560.393 520.485V501.253H562.217V523.813H560.681L546.377 504.549V523.813H544.553ZM572.532 524.069C571.487 524.069 570.548 523.867 569.716 523.461C568.905 523.056 568.255 522.501 567.764 521.797C567.295 521.093 567.06 520.304 567.06 519.429C567.06 518.277 567.348 517.381 567.924 516.741C568.5 516.08 569.471 515.611 570.836 515.333C572.201 515.056 574.079 514.917 576.468 514.917H577.46V513.765C577.46 512.336 577.172 511.301 576.596 510.661C576.02 510 575.103 509.669 573.844 509.669C572.905 509.669 571.999 509.808 571.124 510.085C570.271 510.363 569.385 510.8 568.468 511.397L567.7 509.893C568.511 509.317 569.471 508.859 570.58 508.517C571.689 508.176 572.767 508.005 573.812 508.005C575.689 508.005 577.076 508.485 577.972 509.445C578.889 510.405 579.348 511.877 579.348 513.861V523.813H577.492V521.029C577.065 521.989 576.415 522.736 575.54 523.269C574.687 523.803 573.684 524.069 572.532 524.069ZM572.788 522.501C573.705 522.501 574.505 522.288 575.188 521.861C575.892 521.413 576.447 520.805 576.852 520.037C577.257 519.269 577.46 518.395 577.46 517.413V516.357H576.5C574.58 516.357 573.076 516.443 571.988 516.613C570.921 516.784 570.175 517.083 569.748 517.509C569.321 517.936 569.108 518.523 569.108 519.269C569.108 520.229 569.439 521.008 570.1 521.605C570.761 522.203 571.657 522.501 572.788 522.501ZM588.902 523.813L582.246 508.293H584.422L589.894 521.669L595.462 508.293H597.51L590.854 523.813H588.902ZM600.256 504.197V501.733H602.88V504.197H600.256ZM600.576 523.813V508.293H602.528V523.813H600.576ZM614.421 529.829C611.712 529.829 609.461 529.115 607.669 527.685L608.405 526.213C609.387 526.917 610.336 527.419 611.253 527.717C612.171 528.037 613.205 528.197 614.357 528.197C615.915 528.197 617.099 527.771 617.909 526.917C618.72 526.064 619.125 524.827 619.125 523.205V520.197C618.677 521.221 617.963 522.021 616.981 522.597C616.021 523.173 614.923 523.461 613.685 523.461C612.235 523.461 610.987 523.141 609.941 522.501C608.917 521.84 608.117 520.933 607.541 519.781C606.987 518.608 606.709 517.253 606.709 515.717C606.709 514.181 606.987 512.837 607.541 511.685C608.117 510.533 608.917 509.637 609.941 508.997C610.987 508.336 612.235 508.005 613.685 508.005C614.923 508.005 616.021 508.293 616.981 508.869C617.941 509.445 618.645 510.235 619.093 511.237V508.293H621.013V522.917C621.013 527.525 618.816 529.829 614.421 529.829ZM613.909 521.797C615.509 521.797 616.779 521.253 617.717 520.165C618.656 519.056 619.125 517.573 619.125 515.717C619.125 513.861 618.656 512.389 617.717 511.301C616.779 510.213 615.509 509.669 613.909 509.669C612.288 509.669 611.008 510.213 610.069 511.301C609.152 512.389 608.693 513.861 608.693 515.717C608.693 517.573 609.152 519.056 610.069 520.165C611.008 521.253 612.288 521.797 613.909 521.797ZM630.969 524.069C629.924 524.069 628.985 523.867 628.153 523.461C627.343 523.056 626.692 522.501 626.201 521.797C625.732 521.093 625.497 520.304 625.497 519.429C625.497 518.277 625.785 517.381 626.361 516.741C626.937 516.08 627.908 515.611 629.273 515.333C630.639 515.056 632.516 514.917 634.905 514.917H635.897V513.765C635.897 512.336 635.609 511.301 635.033 510.661C634.457 510 633.54 509.669 632.281 509.669C631.343 509.669 630.436 509.808 629.561 510.085C628.708 510.363 627.823 510.8 626.905 511.397L626.137 509.893C626.948 509.317 627.908 508.859 629.017 508.517C630.127 508.176 631.204 508.005 632.249 508.005C634.127 508.005 635.513 508.485 636.409 509.445C637.327 510.405 637.785 511.877 637.785 513.861V523.813H635.929V521.029C635.503 521.989 634.852 522.736 633.977 523.269C633.124 523.803 632.121 524.069 630.969 524.069ZM631.225 522.501C632.143 522.501 632.943 522.288 633.625 521.861C634.329 521.413 634.884 520.805 635.289 520.037C635.695 519.269 635.897 518.395 635.897 517.413V516.357H634.937C633.017 516.357 631.513 516.443 630.425 516.613C629.359 516.784 628.612 517.083 628.185 517.509C627.759 517.936 627.545 518.523 627.545 519.269C627.545 520.229 627.876 521.008 628.537 521.605C629.199 522.203 630.095 522.501 631.225 522.501ZM648.744 524.069C647.016 524.069 645.715 523.6 644.84 522.661C643.987 521.723 643.56 520.379 643.56 518.629V509.861H640.488V508.293H643.56V503.493H645.512V508.293H650.536V509.861H645.512V518.373C645.512 519.675 645.779 520.667 646.312 521.349C646.845 522.032 647.731 522.373 648.968 522.373C649.331 522.373 649.683 522.331 650.024 522.245C650.365 522.16 650.664 522.064 650.92 521.957L651.304 523.493C651.069 523.643 650.696 523.771 650.184 523.877C649.672 524.005 649.192 524.069 648.744 524.069ZM653.287 504.197V501.733H655.911V504.197H653.287ZM653.607 523.813V508.293H655.559V523.813H653.607ZM660.701 523.813V508.293H662.621V511.077C663.133 510.053 663.869 509.285 664.829 508.773C665.789 508.261 666.855 508.005 668.029 508.005C671.719 508.005 673.565 510.011 673.565 514.021V523.813H671.613V514.181C671.613 512.645 671.303 511.515 670.685 510.789C670.066 510.064 669.085 509.701 667.741 509.701C666.205 509.701 664.967 510.181 664.029 511.141C663.111 512.08 662.653 513.349 662.653 514.949V523.813H660.701ZM685.359 529.829C682.65 529.829 680.399 529.115 678.607 527.685L679.343 526.213C680.324 526.917 681.274 527.419 682.191 527.717C683.108 528.037 684.143 528.197 685.295 528.197C686.852 528.197 688.036 527.771 688.847 526.917C689.658 526.064 690.063 524.827 690.063 523.205V520.197C689.615 521.221 688.9 522.021 687.919 522.597C686.959 523.173 685.86 523.461 684.623 523.461C683.172 523.461 681.924 523.141 680.879 522.501C679.855 521.84 679.055 520.933 678.479 519.781C677.924 518.608 677.647 517.253 677.647 515.717C677.647 514.181 677.924 512.837 678.479 511.685C679.055 510.533 679.855 509.637 680.879 508.997C681.924 508.336 683.172 508.005 684.623 508.005C685.86 508.005 686.959 508.293 687.919 508.869C688.879 509.445 689.583 510.235 690.031 511.237V508.293H691.951V522.917C691.951 527.525 689.754 529.829 685.359 529.829ZM684.847 521.797C686.447 521.797 687.716 521.253 688.655 520.165C689.594 519.056 690.063 517.573 690.063 515.717C690.063 513.861 689.594 512.389 688.655 511.301C687.716 510.213 686.447 509.669 684.847 509.669C683.226 509.669 681.946 510.213 681.007 511.301C680.09 512.389 679.631 513.861 679.631 515.717C679.631 517.573 680.09 519.056 681.007 520.165C681.946 521.253 683.226 521.797 684.847 521.797ZM705.586 523.813V501.253H707.25L716.21 518.245L725.106 501.253H726.77V523.813H724.946V505.061L716.914 520.325H715.506L707.378 505.093V523.813H705.586ZM737.766 524.069C734.076 524.069 732.23 522.064 732.23 518.053V508.293H734.182V517.957C734.182 519.472 734.492 520.592 735.11 521.317C735.729 522.043 736.7 522.405 738.022 522.405C739.452 522.405 740.614 521.925 741.51 520.965C742.428 520.005 742.886 518.725 742.886 517.125V508.293H744.838V523.813H742.95V521.061C742.438 522.043 741.724 522.789 740.806 523.301C739.91 523.813 738.897 524.069 737.766 524.069ZM755.038 524.069C753.886 524.069 752.777 523.899 751.71 523.557C750.665 523.216 749.801 522.725 749.118 522.085L749.822 520.645C750.611 521.285 751.454 521.755 752.35 522.053C753.246 522.331 754.163 522.469 755.102 522.469C756.425 522.469 757.417 522.235 758.078 521.765C758.761 521.275 759.102 520.603 759.102 519.749C759.102 519.088 758.878 518.565 758.43 518.181C757.982 517.797 757.278 517.488 756.318 517.253L753.534 516.613C750.91 516.016 749.598 514.661 749.598 512.549C749.598 511.184 750.131 510.085 751.198 509.253C752.265 508.421 753.673 508.005 755.422 508.005C756.489 508.005 757.491 508.187 758.43 508.549C759.369 508.891 760.137 509.392 760.734 510.053L759.966 511.493C759.347 510.875 758.643 510.416 757.854 510.117C757.065 509.797 756.243 509.637 755.39 509.637C754.153 509.637 753.193 509.893 752.51 510.405C751.849 510.917 751.518 511.611 751.518 512.485C751.518 513.147 751.721 513.68 752.126 514.085C752.531 514.491 753.193 514.8 754.11 515.013L756.894 515.653C758.281 515.973 759.315 516.453 759.998 517.093C760.681 517.712 761.022 518.555 761.022 519.621C761.022 521.008 760.478 522.096 759.39 522.885C758.302 523.675 756.851 524.069 755.038 524.069ZM769.775 524.069C768.324 524.069 767.204 523.632 766.415 522.757C765.647 521.861 765.263 520.581 765.263 518.917V501.253H767.215V518.693C767.215 521.147 768.175 522.373 770.095 522.373C770.628 522.373 771.119 522.309 771.567 522.181L771.503 523.877C770.884 524.005 770.308 524.069 769.775 524.069ZM774.068 504.197V501.733H776.692V504.197H774.068ZM774.388 523.813V508.293H776.34V523.813H774.388ZM781.546 523.813V508.293H783.466V511.013C784.426 509.008 786.058 508.005 788.362 508.005C790.837 508.005 792.405 509.083 793.066 511.237C793.514 510.235 794.197 509.445 795.114 508.869C796.031 508.293 797.098 508.005 798.314 508.005C801.749 508.005 803.466 510.011 803.466 514.021V523.813H801.514V514.181C801.514 512.645 801.237 511.515 800.682 510.789C800.149 510.064 799.242 509.701 797.962 509.701C796.597 509.701 795.509 510.181 794.698 511.141C793.887 512.08 793.482 513.36 793.482 514.981V523.813H791.53V514.181C791.53 512.645 791.253 511.515 790.698 510.789C790.165 510.064 789.269 509.701 788.01 509.701C786.623 509.701 785.525 510.181 784.714 511.141C783.903 512.08 783.498 513.36 783.498 514.981V523.813H781.546ZM808.576 523.813V508.293H810.496V511.077C811.008 510.053 811.744 509.285 812.704 508.773C813.664 508.261 814.73 508.005 815.904 508.005C819.594 508.005 821.44 510.011 821.44 514.021V523.813H819.488V514.181C819.488 512.645 819.178 511.515 818.56 510.789C817.941 510.064 816.96 509.701 815.616 509.701C814.08 509.701 812.842 510.181 811.904 511.141C810.986 512.08 810.528 513.349 810.528 514.949V523.813H808.576ZM833.234 524.069C830.845 524.069 828.957 523.365 827.57 521.957C826.205 520.528 825.522 518.576 825.522 516.101C825.522 514.501 825.831 513.093 826.45 511.877C827.069 510.661 827.922 509.712 829.01 509.029C830.119 508.347 831.389 508.005 832.818 508.005C834.887 508.005 836.498 508.677 837.65 510.021C838.802 511.365 839.378 513.211 839.378 515.557V516.453H827.442C827.506 518.373 828.029 519.856 829.01 520.901C830.013 521.925 831.399 522.437 833.17 522.437C834.13 522.437 835.026 522.288 835.858 521.989C836.711 521.691 837.543 521.189 838.354 520.485L839.122 521.957C838.439 522.619 837.565 523.141 836.498 523.525C835.431 523.888 834.343 524.069 833.234 524.069ZM832.85 509.573C831.229 509.573 829.959 510.085 829.042 511.109C828.146 512.112 827.623 513.413 827.474 515.013H837.618C837.575 513.307 837.149 511.973 836.338 511.013C835.527 510.053 834.365 509.573 832.85 509.573ZM848.413 524.069C847.261 524.069 846.152 523.899 845.085 523.557C844.04 523.216 843.176 522.725 842.493 522.085L843.197 520.645C843.986 521.285 844.829 521.755 845.725 522.053C846.621 522.331 847.538 522.469 848.477 522.469C849.8 522.469 850.792 522.235 851.453 521.765C852.136 521.275 852.477 520.603 852.477 519.749C852.477 519.088 852.253 518.565 851.805 518.181C851.357 517.797 850.653 517.488 849.693 517.253L846.909 516.613C844.285 516.016 842.973 514.661 842.973 512.549C842.973 511.184 843.506 510.085 844.573 509.253C845.64 508.421 847.048 508.005 848.797 508.005C849.864 508.005 850.866 508.187 851.805 508.549C852.744 508.891 853.512 509.392 854.109 510.053L853.341 511.493C852.722 510.875 852.018 510.416 851.229 510.117C850.44 509.797 849.618 509.637 848.765 509.637C847.528 509.637 846.568 509.893 845.885 510.405C845.224 510.917 844.893 511.611 844.893 512.485C844.893 513.147 845.096 513.68 845.501 514.085C845.906 514.491 846.568 514.8 847.485 515.013L850.269 515.653C851.656 515.973 852.69 516.453 853.373 517.093C854.056 517.712 854.397 518.555 854.397 519.621C854.397 521.008 853.853 522.096 852.765 522.885C851.677 523.675 850.226 524.069 848.413 524.069ZM863.694 524.069C862.542 524.069 861.433 523.899 860.366 523.557C859.321 523.216 858.457 522.725 857.774 522.085L858.478 520.645C859.267 521.285 860.11 521.755 861.006 522.053C861.902 522.331 862.819 522.469 863.758 522.469C865.081 522.469 866.073 522.235 866.734 521.765C867.417 521.275 867.758 520.603 867.758 519.749C867.758 519.088 867.534 518.565 867.086 518.181C866.638 517.797 865.934 517.488 864.974 517.253L862.19 516.613C859.566 516.016 858.254 514.661 858.254 512.549C858.254 511.184 858.787 510.085 859.854 509.253C860.921 508.421 862.329 508.005 864.078 508.005C865.145 508.005 866.147 508.187 867.086 508.549C868.025 508.891 868.793 509.392 869.39 510.053L868.622 511.493C868.003 510.875 867.299 510.416 866.51 510.117C865.721 509.797 864.899 509.637 864.046 509.637C862.809 509.637 861.849 509.893 861.166 510.405C860.505 510.917 860.174 511.611 860.174 512.485C860.174 513.147 860.377 513.68 860.782 514.085C861.187 514.491 861.849 514.8 862.766 515.013L865.55 515.653C866.937 515.973 867.971 516.453 868.654 517.093C869.337 517.712 869.678 518.555 869.678 519.621C869.678 521.008 869.134 522.096 868.046 522.885C866.958 523.675 865.507 524.069 863.694 524.069ZM410.382 557.813V535.253H418.894C421.304 535.253 423.139 535.808 424.398 536.917C425.678 538.027 426.318 539.605 426.318 541.653C426.318 543.339 425.859 544.704 424.942 545.749C424.024 546.795 422.723 547.467 421.038 547.765C421.955 548.107 422.766 548.939 423.47 550.261L427.566 557.813H425.422L421.518 550.581C420.963 549.579 420.344 548.907 419.662 548.565C418.979 548.224 418.062 548.053 416.91 548.053H412.334V557.813H410.382ZM412.334 546.389H418.638C422.435 546.389 424.333 544.811 424.333 541.653C424.333 538.517 422.435 536.949 418.638 536.949H412.334V546.389ZM437.562 558.069C435.173 558.069 433.285 557.365 431.898 555.957C430.533 554.528 429.85 552.576 429.85 550.101C429.85 548.501 430.159 547.093 430.778 545.877C431.397 544.661 432.25 543.712 433.338 543.029C434.447 542.347 435.717 542.005 437.146 542.005C439.215 542.005 440.826 542.677 441.978 544.021C443.13 545.365 443.706 547.211 443.706 549.557V550.453H431.77C431.834 552.373 432.357 553.856 433.338 554.901C434.341 555.925 435.727 556.437 437.498 556.437C438.458 556.437 439.354 556.288 440.186 555.989C441.039 555.691 441.871 555.189 442.682 554.485L443.45 555.957C442.767 556.619 441.893 557.141 440.826 557.525C439.759 557.888 438.671 558.069 437.562 558.069ZM437.178 543.573C435.557 543.573 434.287 544.085 433.37 545.109C432.474 546.112 431.951 547.413 431.802 549.013H441.946C441.903 547.307 441.477 545.973 440.666 545.013C439.855 544.053 438.693 543.573 437.178 543.573ZM452.197 558.069C450.746 558.069 449.626 557.632 448.837 556.757C448.069 555.861 447.685 554.581 447.685 552.917V535.253H449.637V552.693C449.637 555.147 450.597 556.373 452.517 556.373C453.05 556.373 453.541 556.309 453.989 556.181L453.925 557.877C453.306 558.005 452.73 558.069 452.197 558.069ZM462.83 558.069C461.379 558.069 460.12 557.749 459.054 557.109C457.987 556.448 457.155 555.52 456.558 554.325C455.982 553.109 455.694 551.68 455.694 550.037C455.694 548.416 455.982 547.008 456.558 545.813C457.155 544.597 457.987 543.659 459.054 542.997C460.12 542.336 461.379 542.005 462.83 542.005C464.302 542.005 465.571 542.336 466.638 542.997C467.704 543.659 468.526 544.597 469.102 545.813C469.699 547.008 469.998 548.416 469.998 550.037C469.998 551.68 469.699 553.109 469.102 554.325C468.526 555.52 467.704 556.448 466.638 557.109C465.571 557.749 464.302 558.069 462.83 558.069ZM462.83 556.437C464.408 556.437 465.667 555.883 466.606 554.773C467.544 553.643 468.014 552.064 468.014 550.037C468.014 548.011 467.544 546.443 466.606 545.333C465.667 544.224 464.408 543.669 462.83 543.669C461.251 543.669 459.992 544.224 459.054 545.333C458.136 546.443 457.678 548.011 457.678 550.037C457.678 552.064 458.136 553.643 459.054 554.773C459.992 555.883 461.251 556.437 462.83 556.437ZM480.49 558.069C478.975 558.069 477.674 557.739 476.586 557.077C475.498 556.395 474.655 555.445 474.058 554.229C473.482 552.992 473.194 551.563 473.194 549.941C473.194 547.488 473.834 545.557 475.114 544.149C476.415 542.72 478.207 542.005 480.49 542.005C481.428 542.005 482.356 542.187 483.274 542.549C484.191 542.912 484.959 543.413 485.578 544.053L484.81 545.525C484.148 544.885 483.444 544.427 482.698 544.149C481.951 543.851 481.236 543.701 480.554 543.701C478.826 543.701 477.492 544.245 476.554 545.333C475.636 546.421 475.178 547.968 475.178 549.973C475.178 551.979 475.636 553.557 476.554 554.709C477.492 555.84 478.826 556.405 480.554 556.405C481.236 556.405 481.951 556.267 482.698 555.989C483.444 555.691 484.148 555.221 484.81 554.581L485.578 556.053C484.959 556.672 484.18 557.163 483.242 557.525C482.324 557.888 481.407 558.069 480.49 558.069ZM493.485 558.069C492.44 558.069 491.501 557.867 490.669 557.461C489.858 557.056 489.208 556.501 488.717 555.797C488.248 555.093 488.013 554.304 488.013 553.429C488.013 552.277 488.301 551.381 488.877 550.741C489.453 550.08 490.424 549.611 491.789 549.333C493.154 549.056 495.032 548.917 497.421 548.917H498.413V547.765C498.413 546.336 498.125 545.301 497.549 544.661C496.973 544 496.056 543.669 494.797 543.669C493.858 543.669 492.952 543.808 492.077 544.085C491.224 544.363 490.338 544.8 489.421 545.397L488.653 543.893C489.464 543.317 490.424 542.859 491.533 542.517C492.642 542.176 493.72 542.005 494.765 542.005C496.642 542.005 498.029 542.485 498.925 543.445C499.842 544.405 500.301 545.877 500.301 547.861V557.813H498.445V555.029C498.018 555.989 497.368 556.736 496.493 557.269C495.64 557.803 494.637 558.069 493.485 558.069ZM493.741 556.501C494.658 556.501 495.458 556.288 496.141 555.861C496.845 555.413 497.4 554.805 497.805 554.037C498.21 553.269 498.413 552.395 498.413 551.413V550.357H497.453C495.533 550.357 494.029 550.443 492.941 550.613C491.874 550.784 491.128 551.083 490.701 551.509C490.274 551.936 490.061 552.523 490.061 553.269C490.061 554.229 490.392 555.008 491.053 555.605C491.714 556.203 492.61 556.501 493.741 556.501ZM511.26 558.069C509.532 558.069 508.23 557.6 507.356 556.661C506.502 555.723 506.076 554.379 506.076 552.629V543.861H503.004V542.293H506.076V537.493H508.028V542.293H513.052V543.861H508.028V552.373C508.028 553.675 508.294 554.667 508.828 555.349C509.361 556.032 510.246 556.373 511.484 556.373C511.846 556.373 512.198 556.331 512.54 556.245C512.881 556.16 513.18 556.064 513.436 555.957L513.82 557.493C513.585 557.643 513.212 557.771 512.7 557.877C512.188 558.005 511.708 558.069 511.26 558.069ZM515.803 538.197V535.733H518.427V538.197H515.803ZM516.123 557.813V542.293H518.075V557.813H516.123ZM523.216 557.813V542.293H525.136V545.077C525.648 544.053 526.384 543.285 527.344 542.773C528.304 542.261 529.371 542.005 530.544 542.005C534.235 542.005 536.08 544.011 536.08 548.021V557.813H534.128V548.181C534.128 546.645 533.819 545.515 533.2 544.789C532.582 544.064 531.6 543.701 530.256 543.701C528.72 543.701 527.483 544.181 526.544 545.141C525.627 546.08 525.168 547.349 525.168 548.949V557.813H523.216ZM547.875 563.829C545.165 563.829 542.915 563.115 541.123 561.685L541.859 560.213C542.84 560.917 543.789 561.419 544.707 561.717C545.624 562.037 546.659 562.197 547.811 562.197C549.368 562.197 550.552 561.771 551.363 560.917C552.173 560.064 552.579 558.827 552.579 557.205V554.197C552.131 555.221 551.416 556.021 550.435 556.597C549.475 557.173 548.376 557.461 547.139 557.461C545.688 557.461 544.44 557.141 543.395 556.501C542.371 555.84 541.571 554.933 540.995 553.781C540.44 552.608 540.163 551.253 540.163 549.717C540.163 548.181 540.44 546.837 540.995 545.685C541.571 544.533 542.371 543.637 543.395 542.997C544.44 542.336 545.688 542.005 547.139 542.005C548.376 542.005 549.475 542.293 550.435 542.869C551.395 543.445 552.099 544.235 552.547 545.237V542.293H554.467V556.917C554.467 561.525 552.269 563.829 547.875 563.829ZM547.363 555.797C548.963 555.797 550.232 555.253 551.171 554.165C552.109 553.056 552.579 551.573 552.579 549.717C552.579 547.861 552.109 546.389 551.171 545.301C550.232 544.213 548.963 543.669 547.363 543.669C545.741 543.669 544.461 544.213 543.523 545.301C542.605 546.389 542.147 547.861 542.147 549.717C542.147 551.573 542.605 553.056 543.523 554.165C544.461 555.253 545.741 555.797 547.363 555.797ZM568.038 557.813V535.253H569.99V545.621H570.054L581.446 535.253H584.038L571.91 546.261L584.806 557.813H582.118L570.054 547.093H569.99V557.813H568.038ZM587.091 557.813V542.293H589.011V545.077C589.523 544.053 590.259 543.285 591.219 542.773C592.179 542.261 593.246 542.005 594.419 542.005C598.11 542.005 599.955 544.011 599.955 548.021V557.813H598.003V548.181C598.003 546.645 597.694 545.515 597.075 544.789C596.457 544.064 595.475 543.701 594.131 543.701C592.595 543.701 591.358 544.181 590.419 545.141C589.502 546.08 589.043 547.349 589.043 548.949V557.813H587.091ZM611.174 558.069C609.723 558.069 608.464 557.749 607.398 557.109C606.331 556.448 605.499 555.52 604.902 554.325C604.326 553.109 604.038 551.68 604.038 550.037C604.038 548.416 604.326 547.008 604.902 545.813C605.499 544.597 606.331 543.659 607.398 542.997C608.464 542.336 609.723 542.005 611.174 542.005C612.646 542.005 613.915 542.336 614.982 542.997C616.048 543.659 616.87 544.597 617.446 545.813C618.043 547.008 618.342 548.416 618.342 550.037C618.342 551.68 618.043 553.109 617.446 554.325C616.87 555.52 616.048 556.448 614.982 557.109C613.915 557.749 612.646 558.069 611.174 558.069ZM611.174 556.437C612.752 556.437 614.011 555.883 614.95 554.773C615.888 553.643 616.358 552.064 616.358 550.037C616.358 548.011 615.888 546.443 614.95 545.333C614.011 544.224 612.752 543.669 611.174 543.669C609.595 543.669 608.336 544.224 607.398 545.333C606.48 546.443 606.022 548.011 606.022 550.037C606.022 552.064 606.48 553.643 607.398 554.773C608.336 555.883 609.595 556.437 611.174 556.437ZM626.406 557.813L620.774 542.293H622.854L627.43 555.509L632.198 542.293H634.118L638.79 555.541L643.462 542.293H645.478L639.814 557.813H637.798L633.126 544.821L628.422 557.813H626.406ZM653.541 558.069C652.09 558.069 650.97 557.632 650.181 556.757C649.413 555.861 649.029 554.581 649.029 552.917V535.253H650.981V552.693C650.981 555.147 651.941 556.373 653.861 556.373C654.394 556.373 654.885 556.309 655.333 556.181L655.269 557.877C654.65 558.005 654.074 558.069 653.541 558.069ZM664.75 558.069C662.36 558.069 660.472 557.365 659.086 555.957C657.72 554.528 657.038 552.576 657.038 550.101C657.038 548.501 657.347 547.093 657.966 545.877C658.584 544.661 659.438 543.712 660.526 543.029C661.635 542.347 662.904 542.005 664.334 542.005C666.403 542.005 668.014 542.677 669.166 544.021C670.318 545.365 670.894 547.211 670.894 549.557V550.453H658.958C659.022 552.373 659.544 553.856 660.526 554.901C661.528 555.925 662.915 556.437 664.686 556.437C665.646 556.437 666.542 556.288 667.374 555.989C668.227 555.691 669.059 555.189 669.87 554.485L670.638 555.957C669.955 556.619 669.08 557.141 668.014 557.525C666.947 557.888 665.859 558.069 664.75 558.069ZM664.366 543.573C662.744 543.573 661.475 544.085 660.558 545.109C659.662 546.112 659.139 547.413 658.99 549.013H669.134C669.091 547.307 668.664 545.973 667.854 545.013C667.043 544.053 665.88 543.573 664.366 543.573ZM680.793 558.069C679.385 558.069 678.169 557.749 677.145 557.109C676.121 556.448 675.321 555.52 674.745 554.325C674.19 553.109 673.913 551.68 673.913 550.037C673.913 547.584 674.531 545.632 675.769 544.181C677.006 542.731 678.681 542.005 680.793 542.005C682.03 542.005 683.118 542.293 684.057 542.869C685.017 543.424 685.731 544.192 686.201 545.173V535.253H688.153V557.813H686.233V554.869C685.763 555.872 685.049 556.661 684.089 557.237C683.15 557.792 682.051 558.069 680.793 558.069ZM681.049 556.437C682.627 556.437 683.886 555.883 684.825 554.773C685.763 553.643 686.233 552.064 686.233 550.037C686.233 548.011 685.763 546.443 684.825 545.333C683.886 544.224 682.627 543.669 681.049 543.669C679.47 543.669 678.211 544.224 677.273 545.333C676.355 546.443 675.897 548.011 675.897 550.037C675.897 552.064 676.355 553.643 677.273 554.773C678.211 555.883 679.47 556.437 681.049 556.437ZM700.031 563.829C697.321 563.829 695.071 563.115 693.279 561.685L694.015 560.213C694.996 560.917 695.945 561.419 696.863 561.717C697.78 562.037 698.815 562.197 699.967 562.197C701.524 562.197 702.708 561.771 703.519 560.917C704.329 560.064 704.735 558.827 704.735 557.205V554.197C704.287 555.221 703.572 556.021 702.591 556.597C701.631 557.173 700.532 557.461 699.295 557.461C697.844 557.461 696.596 557.141 695.551 556.501C694.527 555.84 693.727 554.933 693.151 553.781C692.596 552.608 692.319 551.253 692.319 549.717C692.319 548.181 692.596 546.837 693.151 545.685C693.727 544.533 694.527 543.637 695.551 542.997C696.596 542.336 697.844 542.005 699.295 542.005C700.532 542.005 701.631 542.293 702.591 542.869C703.551 543.445 704.255 544.235 704.703 545.237V542.293H706.623V556.917C706.623 561.525 704.425 563.829 700.031 563.829ZM699.519 555.797C701.119 555.797 702.388 555.253 703.327 554.165C704.265 553.056 704.735 551.573 704.735 549.717C704.735 547.861 704.265 546.389 703.327 545.301C702.388 544.213 701.119 543.669 699.519 543.669C697.897 543.669 696.617 544.213 695.679 545.301C694.761 546.389 694.303 547.861 694.303 549.717C694.303 551.573 694.761 553.056 695.679 554.165C696.617 555.253 697.897 555.797 699.519 555.797ZM718.531 558.069C716.141 558.069 714.253 557.365 712.867 555.957C711.501 554.528 710.819 552.576 710.819 550.101C710.819 548.501 711.128 547.093 711.747 545.877C712.365 544.661 713.219 543.712 714.307 543.029C715.416 542.347 716.685 542.005 718.115 542.005C720.184 542.005 721.795 542.677 722.947 544.021C724.099 545.365 724.675 547.211 724.675 549.557V550.453H712.739C712.803 552.373 713.325 553.856 714.307 554.901C715.309 555.925 716.696 556.437 718.467 556.437C719.427 556.437 720.323 556.288 721.155 555.989C722.008 555.691 722.84 555.189 723.651 554.485L724.419 555.957C723.736 556.619 722.861 557.141 721.795 557.525C720.728 557.888 719.64 558.069 718.531 558.069ZM718.147 543.573C716.525 543.573 715.256 544.085 714.339 545.109C713.443 546.112 712.92 547.413 712.771 549.013H722.915C722.872 547.307 722.445 545.973 721.635 545.013C720.824 544.053 719.661 543.573 718.147 543.573ZM729.294 561.205L728.302 560.405C728.75 559.936 729.048 559.488 729.198 559.061C729.368 558.656 729.475 558.24 729.518 557.813H728.238V555.061H730.958V557.109C730.958 557.877 730.84 558.592 730.606 559.253C730.371 559.936 729.934 560.587 729.294 561.205ZM736.038 557.813V535.253H744.55C746.96 535.253 748.795 535.829 750.054 536.981C751.334 538.133 751.974 539.776 751.974 541.909C751.974 544.021 751.334 545.664 750.054 546.837C748.795 547.989 746.96 548.565 744.55 548.565H737.99V557.813H736.038ZM737.99 546.837H744.39C748.123 546.837 749.99 545.195 749.99 541.909C749.99 538.603 748.123 536.949 744.39 536.949H737.99V546.837ZM761.111 558.069C759.66 558.069 758.402 557.749 757.335 557.109C756.268 556.448 755.436 555.52 754.839 554.325C754.263 553.109 753.975 551.68 753.975 550.037C753.975 548.416 754.263 547.008 754.839 545.813C755.436 544.597 756.268 543.659 757.335 542.997C758.402 542.336 759.66 542.005 761.111 542.005C762.583 542.005 763.852 542.336 764.919 542.997C765.986 543.659 766.807 544.597 767.383 545.813C767.98 547.008 768.279 548.416 768.279 550.037C768.279 551.68 767.98 553.109 767.383 554.325C766.807 555.52 765.986 556.448 764.919 557.109C763.852 557.749 762.583 558.069 761.111 558.069ZM761.111 556.437C762.69 556.437 763.948 555.883 764.887 554.773C765.826 553.643 766.295 552.064 766.295 550.037C766.295 548.011 765.826 546.443 764.887 545.333C763.948 544.224 762.69 543.669 761.111 543.669C759.532 543.669 758.274 544.224 757.335 545.333C756.418 546.443 755.959 548.011 755.959 550.037C755.959 552.064 756.418 553.643 757.335 554.773C758.274 555.883 759.532 556.437 761.111 556.437ZM776.344 557.813L770.712 542.293H772.792L777.368 555.509L782.136 542.293H784.056L788.728 555.541L793.4 542.293H795.416L789.752 557.813H787.736L783.064 544.821L778.36 557.813H776.344ZM805.531 558.069C803.141 558.069 801.253 557.365 799.867 555.957C798.501 554.528 797.819 552.576 797.819 550.101C797.819 548.501 798.128 547.093 798.747 545.877C799.365 544.661 800.219 543.712 801.307 543.029C802.416 542.347 803.685 542.005 805.115 542.005C807.184 542.005 808.795 542.677 809.947 544.021C811.099 545.365 811.675 547.211 811.675 549.557V550.453H799.739C799.803 552.373 800.325 553.856 801.307 554.901C802.309 555.925 803.696 556.437 805.467 556.437C806.427 556.437 807.323 556.288 808.155 555.989C809.008 555.691 809.84 555.189 810.651 554.485L811.419 555.957C810.736 556.619 809.861 557.141 808.795 557.525C807.728 557.888 806.64 558.069 805.531 558.069ZM805.147 543.573C803.525 543.573 802.256 544.085 801.339 545.109C800.443 546.112 799.92 547.413 799.771 549.013H809.915C809.872 547.307 809.445 545.973 808.635 545.013C807.824 544.053 806.661 543.573 805.147 543.573ZM815.654 557.813V542.293H817.574V545.109C818.022 544.128 818.672 543.381 819.526 542.869C820.379 542.357 821.467 542.059 822.79 541.973L823.59 541.909L823.782 543.605L822.406 543.765C820.891 543.893 819.718 544.395 818.886 545.269C818.054 546.123 817.638 547.275 817.638 548.725V557.813H815.654ZM841.055 558.069C838.857 558.069 837.151 557.568 835.935 556.565C834.719 555.563 834.111 554.219 834.111 552.533C834.111 551.104 834.505 549.877 835.295 548.853C836.084 547.808 837.289 546.731 838.911 545.621L839.551 545.173C838.527 544.043 837.812 543.072 837.407 542.261C837.001 541.451 836.799 540.629 836.799 539.797C836.799 538.368 837.268 537.216 838.207 536.341C839.167 535.445 840.457 534.997 842.079 534.997C843.423 534.997 844.543 535.392 845.439 536.181C846.356 536.971 846.815 538.037 846.815 539.381C846.815 540.107 846.676 540.789 846.399 541.429C846.121 542.048 845.652 542.688 844.991 543.349C844.329 543.989 843.412 544.704 842.239 545.493L847.903 551.989C848.372 551.093 848.745 550.016 849.023 548.757C849.3 547.477 849.46 546.144 849.503 544.757H851.263C851.22 546.443 851.007 548.011 850.623 549.461C850.26 550.912 849.759 552.203 849.119 553.333L853.151 557.813H850.783L848.095 554.773C847.241 555.819 846.207 556.629 844.991 557.205C843.775 557.781 842.463 558.069 841.055 558.069ZM842.079 536.597C841.076 536.597 840.255 536.896 839.615 537.493C838.996 538.069 838.687 538.827 838.687 539.765C838.687 540.256 838.751 540.704 838.879 541.109C839.028 541.515 839.284 541.963 839.647 542.453C840.009 542.944 840.511 543.552 841.151 544.277C842.58 543.296 843.583 542.453 844.159 541.749C844.756 541.045 845.055 540.309 845.055 539.541C845.055 538.645 844.777 537.931 844.223 537.397C843.668 536.864 842.953 536.597 842.079 536.597ZM841.119 556.405C843.529 556.405 845.471 555.435 846.943 553.493L840.639 546.421L840.062 546.837C839.06 547.52 838.271 548.149 837.695 548.725C837.119 549.28 836.703 549.856 836.447 550.453C836.191 551.029 836.062 551.691 836.062 552.437C836.062 553.696 836.489 554.677 837.343 555.381C838.196 556.064 839.455 556.405 841.119 556.405ZM864.725 557.813V535.253H873.237C875.648 535.253 877.483 535.808 878.741 536.917C880.021 538.027 880.661 539.605 880.661 541.653C880.661 543.339 880.203 544.704 879.285 545.749C878.368 546.795 877.067 547.467 875.381 547.765C876.299 548.107 877.109 548.939 877.813 550.261L881.909 557.813H879.765L875.861 550.581C875.307 549.579 874.688 548.907 874.005 548.565C873.323 548.224 872.405 548.053 871.253 548.053H866.677V557.813H864.725ZM866.677 546.389H872.981C876.779 546.389 878.677 544.811 878.677 541.653C878.677 538.517 876.779 536.949 872.981 536.949H866.677V546.389ZM891.906 558.069C889.516 558.069 887.628 557.365 886.242 555.957C884.876 554.528 884.194 552.576 884.194 550.101C884.194 548.501 884.503 547.093 885.122 545.877C885.74 544.661 886.594 543.712 887.682 543.029C888.791 542.347 890.06 542.005 891.49 542.005C893.559 542.005 895.17 542.677 896.322 544.021C897.474 545.365 898.05 547.211 898.05 549.557V550.453H886.114C886.178 552.373 886.7 553.856 887.682 554.901C888.684 555.925 890.071 556.437 891.842 556.437C892.802 556.437 893.698 556.288 894.53 555.989C895.383 555.691 896.215 555.189 897.026 554.485L897.794 555.957C897.111 556.619 896.236 557.141 895.17 557.525C894.103 557.888 893.015 558.069 891.906 558.069ZM891.522 543.573C889.9 543.573 888.631 544.085 887.714 545.109C886.818 546.112 886.295 547.413 886.146 549.013H896.29C896.247 547.307 895.82 545.973 895.01 545.013C894.199 544.053 893.036 543.573 891.522 543.573ZM907.085 558.069C905.933 558.069 904.823 557.899 903.757 557.557C902.711 557.216 901.847 556.725 901.165 556.085L901.869 554.645C902.658 555.285 903.501 555.755 904.397 556.053C905.293 556.331 906.21 556.469 907.149 556.469C908.471 556.469 909.463 556.235 910.125 555.765C910.807 555.275 911.149 554.603 911.149 553.749C911.149 553.088 910.925 552.565 910.477 552.181C910.029 551.797 909.325 551.488 908.365 551.253L905.581 550.613C902.957 550.016 901.645 548.661 901.645 546.549C901.645 545.184 902.178 544.085 903.245 543.253C904.311 542.421 905.719 542.005 907.469 542.005C908.535 542.005 909.538 542.187 910.477 542.549C911.415 542.891 912.183 543.392 912.781 544.053L912.013 545.493C911.394 544.875 910.69 544.416 909.901 544.117C909.111 543.797 908.29 543.637 907.437 543.637C906.199 543.637 905.239 543.893 904.557 544.405C903.895 544.917 903.565 545.611 903.565 546.485C903.565 547.147 903.767 547.68 904.173 548.085C904.578 548.491 905.239 548.8 906.157 549.013L908.941 549.653C910.327 549.973 911.362 550.453 912.045 551.093C912.727 551.712 913.069 552.555 913.069 553.621C913.069 555.008 912.525 556.096 911.437 556.885C910.349 557.675 908.898 558.069 907.085 558.069ZM916.99 538.197V535.733H919.614V538.197H916.99ZM917.31 557.813V542.293H919.262V557.813H917.31ZM929.46 558.069C928.308 558.069 927.198 557.899 926.132 557.557C925.086 557.216 924.222 556.725 923.54 556.085L924.244 554.645C925.033 555.285 925.876 555.755 926.772 556.053C927.668 556.331 928.585 556.469 929.524 556.469C930.846 556.469 931.838 556.235 932.5 555.765C933.182 555.275 933.524 554.603 933.524 553.749C933.524 553.088 933.3 552.565 932.852 552.181C932.404 551.797 931.7 551.488 930.74 551.253L927.956 550.613C925.332 550.016 924.02 548.661 924.02 546.549C924.02 545.184 924.553 544.085 925.62 543.253C926.686 542.421 928.094 542.005 929.844 542.005C930.91 542.005 931.913 542.187 932.852 542.549C933.79 542.891 934.558 543.392 935.156 544.053L934.388 545.493C933.769 544.875 933.065 544.416 932.276 544.117C931.486 543.797 930.665 543.637 929.812 543.637C928.574 543.637 927.614 543.893 926.932 544.405C926.27 544.917 925.94 545.611 925.94 546.485C925.94 547.147 926.142 547.68 926.548 548.085C926.953 548.491 927.614 548.8 928.532 549.013L931.316 549.653C932.702 549.973 933.737 550.453 934.42 551.093C935.102 551.712 935.444 552.555 935.444 553.621C935.444 555.008 934.9 556.096 933.812 556.885C932.724 557.675 931.273 558.069 929.46 558.069ZM945.385 558.069C943.657 558.069 942.355 557.6 941.481 556.661C940.627 555.723 940.201 554.379 940.201 552.629V543.861H937.129V542.293H940.201V537.493H942.153V542.293H947.177V543.861H942.153V552.373C942.153 553.675 942.419 554.667 942.953 555.349C943.486 556.032 944.371 556.373 945.609 556.373C945.971 556.373 946.323 556.331 946.665 556.245C947.006 556.16 947.305 556.064 947.561 555.957L947.945 557.493C947.71 557.643 947.337 557.771 946.825 557.877C946.313 558.005 945.833 558.069 945.385 558.069ZM955.048 558.069C954.002 558.069 953.064 557.867 952.232 557.461C951.421 557.056 950.77 556.501 950.28 555.797C949.81 555.093 949.576 554.304 949.576 553.429C949.576 552.277 949.864 551.381 950.44 550.741C951.016 550.08 951.986 549.611 953.352 549.333C954.717 549.056 956.594 548.917 958.984 548.917H959.976V547.765C959.976 546.336 959.688 545.301 959.112 544.661C958.536 544 957.618 543.669 956.36 543.669C955.421 543.669 954.514 543.808 953.64 544.085C952.786 544.363 951.901 544.8 950.984 545.397L950.216 543.893C951.026 543.317 951.986 542.859 953.096 542.517C954.205 542.176 955.282 542.005 956.328 542.005C958.205 542.005 959.592 542.485 960.488 543.445C961.405 544.405 961.864 545.877 961.864 547.861V557.813H960.008V555.029C959.581 555.989 958.93 556.736 958.056 557.269C957.202 557.803 956.2 558.069 955.048 558.069ZM955.304 556.501C956.221 556.501 957.021 556.288 957.704 555.861C958.408 555.413 958.962 554.805 959.368 554.037C959.773 553.269 959.976 552.395 959.976 551.413V550.357H959.016C957.095 550.357 955.592 550.443 954.504 550.613C953.437 550.784 952.69 551.083 952.264 551.509C951.837 551.936 951.624 552.523 951.624 553.269C951.624 554.229 951.954 555.008 952.616 555.605C953.277 556.203 954.173 556.501 955.304 556.501ZM966.966 557.813V542.293H968.886V545.077C969.398 544.053 970.134 543.285 971.094 542.773C972.054 542.261 973.121 542.005 974.294 542.005C977.985 542.005 979.83 544.011 979.83 548.021V557.813H977.878V548.181C977.878 546.645 977.569 545.515 976.95 544.789C976.332 544.064 975.35 543.701 974.006 543.701C972.47 543.701 971.233 544.181 970.294 545.141C969.377 546.08 968.918 547.349 968.918 548.949V557.813H966.966ZM991.209 558.069C989.694 558.069 988.393 557.739 987.305 557.077C986.217 556.395 985.374 555.445 984.777 554.229C984.201 552.992 983.913 551.563 983.913 549.941C983.913 547.488 984.553 545.557 985.833 544.149C987.134 542.72 988.926 542.005 991.209 542.005C992.147 542.005 993.075 542.187 993.993 542.549C994.91 542.912 995.678 543.413 996.297 544.053L995.529 545.525C994.867 544.885 994.163 544.427 993.417 544.149C992.67 543.851 991.955 543.701 991.273 543.701C989.545 543.701 988.211 544.245 987.273 545.333C986.355 546.421 985.897 547.968 985.897 549.973C985.897 551.979 986.355 553.557 987.273 554.709C988.211 555.84 989.545 556.405 991.273 556.405C991.955 556.405 992.67 556.267 993.417 555.989C994.163 555.691 994.867 555.221 995.529 554.581L996.297 556.053C995.678 556.672 994.899 557.163 993.961 557.525C993.043 557.888 992.126 558.069 991.209 558.069ZM1006 558.069C1003.61 558.069 1001.72 557.365 1000.34 555.957C998.97 554.528 998.288 552.576 998.288 550.101C998.288 548.501 998.597 547.093 999.216 545.877C999.834 544.661 1000.69 543.712 1001.78 543.029C1002.88 542.347 1004.15 542.005 1005.58 542.005C1007.65 542.005 1009.26 542.677 1010.42 544.021C1011.57 545.365 1012.14 547.211 1012.14 549.557V550.453H1000.21C1000.27 552.373 1000.79 553.856 1001.78 554.901C1002.78 555.925 1004.16 556.437 1005.94 556.437C1006.9 556.437 1007.79 556.288 1008.62 555.989C1009.48 555.691 1010.31 555.189 1011.12 554.485L1011.89 555.957C1011.2 556.619 1010.33 557.141 1009.26 557.525C1008.2 557.888 1007.11 558.069 1006 558.069ZM1005.62 543.573C1003.99 543.573 1002.72 544.085 1001.81 545.109C1000.91 546.112 1000.39 547.413 1000.24 549.013H1010.38C1010.34 547.307 1009.91 545.973 1009.1 545.013C1008.29 544.053 1007.13 543.573 1005.62 543.573Z" fill="#310441"/>
<g clip-path="url(#clip1_349_813)">
<path d="M759.791 277.593C759.833 276.28 759.416 275.602 758.249 275.009C746.576 269.161 734.903 263.271 723.271 257.381C722.312 256.873 721.562 256.873 720.603 257.339C719.394 257.89 718.227 258.568 717.018 259.161C715.809 259.754 714.6 260.305 713.266 260.644C712.932 261.364 712.182 261.449 711.557 261.746C703.01 265.941 694.464 270.136 685.876 274.203C684.5 274.881 684 275.644 684.083 277.254C684.208 281.068 684.167 284.881 684.167 288.653C691.921 292.551 699.675 296.449 707.471 300.348C711.932 302.593 716.351 304.839 720.812 307.085C721.479 307.424 722.062 307.72 722.938 307.297C729.566 304.034 736.195 300.814 742.782 297.593L759.791 289.415C759.749 285.475 759.708 281.534 759.791 277.593ZM720.853 292.763C709.597 287.042 698.299 281.322 687.002 275.602C686.835 275.517 686.668 275.39 686.21 275.051C688.169 274.076 690.003 273.144 691.838 272.254C701.384 267.593 710.973 262.975 720.52 258.314C721.354 257.89 722.062 257.678 723.021 258.187C734.236 263.907 745.45 269.542 756.664 275.22C756.914 275.348 757.123 275.517 757.665 275.856C751.87 278.695 746.367 281.364 740.906 284.034C734.986 286.915 729.066 289.797 723.146 292.72C722.396 293.059 721.729 293.187 720.853 292.763Z" fill="#652A7A"/>
<path d="M748.952 300.814C749.16 300.602 749.494 300.432 749.911 300.305C750.077 300.263 750.244 300.22 750.411 300.178L759.666 296.11C759.749 296.025 759.833 295.983 759.916 295.898C760.291 295.559 759.833 294.288 759.624 293.441C756.081 295.136 752.62 296.788 749.16 298.483C740.906 302.509 732.651 306.492 724.439 310.559C722.563 311.492 721.062 311.492 719.144 310.517C708.221 304.839 697.215 299.373 686.21 293.864C685.543 293.525 684.875 292.636 684 293.483C684 293.737 684 293.992 684 294.246C684.709 294.754 685.376 295.432 686.168 295.729C687.335 296.195 687.085 297.085 687.085 298.144C686.043 297.72 685.084 297.297 684.083 296.915C684.083 305.559 684.125 314.203 684.125 322.848C685.251 323.907 686.668 324.373 688.252 325.051V324.924L705.011 333.653L705.22 333.78C710.389 336.322 715.559 338.907 720.687 341.534C721.562 342 722.312 342.042 723.23 341.576C734.986 335.814 746.742 330.093 758.499 324.415C759.541 323.907 759.874 323.271 759.833 322.127C759.791 317.678 759.833 313.229 759.874 308.78V307.085C759.874 304.966 759.874 302.848 759.874 300.729C759.874 299.754 759.874 298.737 759.833 297.72L750.953 301.619C750.244 301.958 749.535 302.297 748.785 302.551C748.618 302.212 748.577 301.873 748.577 301.619C748.535 301.364 748.702 301.068 748.952 300.814ZM688.252 298.653V296.831C692.713 299.076 696.84 301.364 701.134 303.271C702.677 303.949 703.385 304.797 703.636 306.068L688.252 298.653ZM727.107 313.229C726.023 313.78 723.355 315.22 722.229 315.348C721.437 315.432 720.645 315.348 719.811 314.881C716.684 313.102 707.554 308.61 706.095 308.017C704.928 307.509 704.511 306.746 705.011 305.178C708.513 307.72 712.432 308.907 715.934 311.153C717.56 312.212 719.603 312.848 721.479 313.653C722.396 314.034 725.564 312.17 726.481 311.746C726.69 311.873 727.19 313.186 727.107 313.229ZM739.53 307.297C735.778 309.034 732.068 310.856 728.316 312.678C727.899 311.619 727.982 310.898 729.066 310.39C732.776 308.653 736.487 306.873 740.322 305.009C740.572 306.153 740.572 306.831 739.53 307.297ZM741.865 305.941C742.115 302.593 745.408 303.271 747.117 301.873C746.867 305.178 743.574 304.542 741.865 305.941Z" fill="#652A7A"/>
<path d="M752.829 275.051C752.078 275.729 751.578 275.856 750.911 275.517C747.451 273.737 744.032 271.915 740.572 270.178C734.652 267.212 728.732 264.331 722.854 261.364C722.104 260.983 721.729 261.364 721.187 261.619C712.224 266.025 703.302 270.348 694.381 274.67C693.505 275.093 692.671 275.771 691.671 274.797C691.921 274.203 692.505 273.949 693.005 273.695C702.135 269.288 711.265 264.839 720.353 260.39C721.312 259.924 722.146 259.5 723.271 260.051C733.068 265.051 742.865 270.009 752.829 275.051Z" fill="#652A7A"/>
<path d="M746.826 332.254C749.243 332.254 751.203 331.476 751.203 330.517C751.203 329.558 749.243 328.78 746.826 328.78C744.408 328.78 742.448 329.558 742.448 330.517C742.448 331.476 744.408 332.254 746.826 332.254Z" fill="#652A7A"/>
<path d="M734.777 338.568L745.116 333.695C745.116 333.695 757.581 333.271 752.537 329.839L756.998 327.509C756.998 327.509 761.25 330.136 759.249 334.076L761 335.602L755.414 335.983C755.414 336.025 748.076 340.093 734.777 338.568Z" fill="#652A7A"/>
</g>
<defs>
<filter id="filter0_d_349_813" x="-183.017" y="-887.017" width="1794.03" height="1794.03" filterUnits="userSpaceOnUse" color-interpolation-filters="sRGB">
<feFlood flood-opacity="0" result="BackgroundImageFix"/>
<feColorMatrix in="SourceAlpha" type="matrix" values="0 0 0 0 0 0 0 0 0 0 0 0 0 0 0 0 0 0 127 0" result="hardAlpha"/>
<feOffset dy="10"/>
<feGaussianBlur stdDeviation="25"/>
<feComposite in2="hardAlpha" operator="out"/>
<feColorMatrix type="matrix" values="0 0 0 0 0 0 0 0 0 0 0 0 0 0 0 0 0 0 0.25 0"/>
<feBlend mode="normal" in2="BackgroundImageFix" result="effect1_dropShadow_349_813"/>
<feBlend mode="normal" in="SourceGraphic" in2="effect1_dropShadow_349_813" result="shape"/>
</filter>
<clipPath id="clip0_349_813">
<rect width="1557" height="1483" fill="white" transform="translate(-59 -718.323)"/>
</clipPath>
<clipPath id="clip1_349_813">
<rect width="77" height="85" fill="white" transform="translate(684 257)"/>
</clipPath>
</defs>
</svg>
